<svg width="519" height="77" viewBox="0 0 519 77" fill="none" xmlns="http://www.w3.org/2000/svg">
<path fill-rule="evenodd" clip-rule="evenodd" d="M0 37C0 16.5655 16.5655 0 37 0H132C149.691 0 164.482 12.4162 168.135 29.01C168.541 30.8528 170.113 32.2616 172 32.2616C173.887 32.2616 175.459 30.8528 175.865 29.01C179.518 12.4163 194.309 2.95639e-05 212 2.95639e-05H307C324.691 2.95639e-05 339.483 12.4163 343.135 29.0102C343.541 30.8529 345.113 32.2616 347 32.2616C348.887 32.2616 350.459 30.8529 350.865 29.0102C354.517 12.4163 369.309 0 387 0H482C502.435 0 519 16.5655 519 37V40C519 60.4345 502.435 77 482 77H387C371.691 77 358.553 67.7021 352.926 54.4451C351.898 52.0241 349.63 50.2616 347 50.2616C344.37 50.2616 342.102 52.0241 341.074 54.4451C335.447 67.7021 322.31 77 307 77H212C196.691 77 183.553 67.7022 177.926 54.4453C176.898 52.0242 174.63 50.2616 172 50.2616C169.37 50.2616 167.102 52.0242 166.074 54.4453C160.447 67.7021 147.309 77 132 77H37C16.5655 77 0 60.4345 0 40V37Z" fill="#383742"/>
</svg>
