<svg width="20" height="20" viewBox="0 0 20 20" fill="none" xmlns="http://www.w3.org/2000/svg">
<path d="M15.034 11.2923C14.684 11.634 14.484 12.1256 14.534 12.6506C14.609 13.5506 15.434 14.209 16.334 14.209H17.9173V15.2006C17.9173 16.9256 16.509 18.334 14.784 18.334H6.35899C6.61732 18.1173 6.84232 17.8506 7.01732 17.5506C7.32565 17.0506 7.50065 16.459 7.50065 15.834C7.50065 13.9923 6.00898 12.5007 4.16732 12.5007C3.38398 12.5007 2.65898 12.7757 2.08398 13.234V9.59233C2.08398 7.86733 3.49231 6.45898 5.21731 6.45898H14.784C16.509 6.45898 17.9173 7.86733 17.9173 9.59233V10.7923H16.234C15.7673 10.7923 15.3423 10.9756 15.034 11.2923Z" fill="white" stroke="white" stroke-width="1.5" stroke-linecap="round" stroke-linejoin="round"/>
<path d="M2.08398 10.3421V6.53379C2.08398 5.54212 2.69231 4.65875 3.61731 4.30875L10.234 1.80875C11.2673 1.41708 12.3757 2.18377 12.3757 3.29211V6.45876" stroke="white" stroke-width="1.5" stroke-linecap="round" stroke-linejoin="round"/>
<path d="M18.7997 11.6429V13.3596C18.7997 13.818 18.433 14.1929 17.9663 14.2096H16.333C15.433 14.2096 14.608 13.5513 14.533 12.6513C14.483 12.1263 14.683 11.6346 15.033 11.2929C15.3413 10.9763 15.7663 10.793 16.233 10.793H17.9663C18.433 10.8096 18.7997 11.1846 18.7997 11.6429Z" stroke="white" stroke-width="1.5" stroke-linecap="round" stroke-linejoin="round"/>
<path d="M5.83398 10H11.6673" stroke="#E9AB4F" stroke-width="1.5" stroke-linecap="round" stroke-linejoin="round"/>
<path d="M7.50065 15.8333C7.50065 16.4583 7.32565 17.05 7.01732 17.55C6.84232 17.85 6.61732 18.1167 6.35899 18.3333C5.77566 18.8583 5.00898 19.1667 4.16732 19.1667C2.95065 19.1667 1.89232 18.5167 1.31732 17.55C1.00899 17.05 0.833984 16.4583 0.833984 15.8333C0.833984 14.7833 1.31732 13.8417 2.08398 13.2333C2.65898 12.775 3.38398 12.5 4.16732 12.5C6.00898 12.5 7.50065 13.9917 7.50065 15.8333Z" stroke="white" stroke-width="1.5" stroke-miterlimit="10" stroke-linecap="round" stroke-linejoin="round"/>
<path d="M2.86914 15.8323L3.69413 16.6573L5.46914 15.0156" stroke="white" stroke-width="1.5" stroke-linecap="round" stroke-linejoin="round"/>
</svg>
