<svg width="20" height="20" viewBox="0 0 20 20" fill="none" xmlns="http://www.w3.org/2000/svg">
<path d="M7.08268 15.8346H6.66602C3.33268 15.8346 1.66602 15.0013 1.66602 10.8346V6.66797C1.66602 3.33464 3.33268 1.66797 6.66602 1.66797H13.3327C16.666 1.66797 18.3327 3.33464 18.3327 6.66797V10.8346C18.3327 14.168 16.666 15.8346 13.3327 15.8346H12.916C12.6577 15.8346 12.4077 15.9596 12.2493 16.168L10.9993 17.8346C10.4493 18.568 9.54935 18.568 8.99935 17.8346L7.74935 16.168C7.61602 15.9846 7.30768 15.8346 7.08268 15.8346Z" fill="white"/>
<path d="M13.3301 9.16667H13.3375" stroke="#E79D53" stroke-width="2" stroke-linecap="round" stroke-linejoin="round"/>
<path d="M9.99607 9.16667H10.0036" stroke="#E79D53" stroke-width="2" stroke-linecap="round" stroke-linejoin="round"/>
<path d="M6.66209 9.16667H6.66957" stroke="#E79D53" stroke-width="2" stroke-linecap="round" stroke-linejoin="round"/>
</svg>
