<svg width="30" height="30" viewBox="0 0 30 30" fill="none" xmlns="http://www.w3.org/2000/svg">
<path fill-rule="evenodd" clip-rule="evenodd" d="M21.25 2.57812H22.5C25.2614 2.57812 27.5 4.8167 27.5 7.57812V16.3281C27.5 17.7088 26.3807 18.8281 25 18.8281H18.75C17.3693 18.8281 16.25 19.9474 16.25 21.3281V25.0781C16.25 26.4588 15.1307 27.5781 13.75 27.5781H7.5C4.73858 27.5781 2.5 25.3395 2.5 22.5781V7.57812C2.5 4.8167 4.73858 2.57812 7.5 2.57812H8.75H10H20H21.25ZM10 9.56036V4.45312H20V9.56036C20 10.674 18.6536 11.2317 17.8661 10.4442L15.8839 8.46201C15.3957 7.97385 14.6043 7.97385 14.1161 8.46201L12.1339 10.4442C11.3464 11.2317 10 10.674 10 9.56036ZM26.8144 23.072C27.0872 22.7603 27.0556 22.2865 26.7439 22.0137C26.4322 21.7409 25.9583 21.7725 25.6856 22.0842L21.9407 26.3641C21.8526 26.4648 21.7008 26.4783 21.5963 26.3947L19.2185 24.4925C18.8951 24.2337 18.4231 24.2862 18.1643 24.6096C17.9056 24.9331 17.958 25.405 18.2815 25.6638L20.6593 27.566C21.3906 28.1511 22.4528 28.0567 23.0695 27.3519L26.8144 23.072Z" fill="#383742"/>
</svg>
