<svg width="30" height="30" viewBox="0 0 30 30" fill="none" xmlns="http://www.w3.org/2000/svg">
<path fill-rule="evenodd" clip-rule="evenodd" d="M5.75 2.5H24.25C25.3546 2.5 26.25 3.39543 26.25 4.5V24.6543C26.25 26.0396 24.8759 27.0053 23.5726 26.5361L20.7608 25.5239C20.2728 25.3482 19.7356 25.369 19.2626 25.5818L15.8207 27.1307C15.2988 27.3655 14.7012 27.3655 14.1793 27.1307L10.7374 25.5818C10.2644 25.369 9.72721 25.3482 9.2392 25.5239L6.42744 26.5361C5.12412 27.0053 3.75 26.0396 3.75 24.6543V4.5C3.75 3.39543 4.64543 2.5 5.75 2.5ZM21.25 9.5C21.6642 9.5 22 9.16421 22 8.75C22 8.33579 21.6642 8 21.25 8L8.75 8C8.33579 8 8 8.33579 8 8.75C8 9.16421 8.33579 9.5 8.75 9.5L21.25 9.5ZM22 13.75C22 14.1642 21.6642 14.5 21.25 14.5L8.75 14.5C8.33579 14.5 8 14.1642 8 13.75C8 13.3358 8.33579 13 8.75 13L21.25 13C21.6642 13 22 13.3358 22 13.75ZM15 19.5C15.4142 19.5 15.75 19.1642 15.75 18.75C15.75 18.3358 15.4142 18 15 18H8.75C8.33579 18 8 18.3358 8 18.75C8 19.1642 8.33579 19.5 8.75 19.5H15Z" fill="#383742"/>
</svg>
