<svg width="23" height="23" viewBox="0 0 23 23" fill="none" xmlns="http://www.w3.org/2000/svg">
<path d="M6.23047 21.0833V14.375" stroke="#383742" stroke-width="1.5" stroke-miterlimit="10" stroke-linecap="round" stroke-linejoin="round"/>
<path d="M6.23047 4.79102V1.91602" stroke="#383742" stroke-width="1.5" stroke-miterlimit="10" stroke-linecap="round" stroke-linejoin="round"/>
<path d="M16.7695 21.084V18.209" stroke="#383742" stroke-width="1.5" stroke-miterlimit="10" stroke-linecap="round" stroke-linejoin="round"/>
<path d="M16.7695 8.62435V1.91602" stroke="#383742" stroke-width="1.5" stroke-miterlimit="10" stroke-linecap="round" stroke-linejoin="round"/>
<path d="M9.10547 6.70768V12.4577C9.10547 13.5118 8.6263 14.3743 7.1888 14.3743H5.27214C3.83464 14.3743 3.35547 13.5118 3.35547 12.4577V6.70768C3.35547 5.65352 3.83464 4.79102 5.27214 4.79102H7.1888C8.6263 4.79102 9.10547 5.65352 9.10547 6.70768Z" stroke="#383742" stroke-width="1.5" stroke-miterlimit="10" stroke-linecap="round" stroke-linejoin="round"/>
<path d="M19.6445 10.5417V16.2917C19.6445 17.3458 19.1654 18.2083 17.7279 18.2083H15.8112C14.3737 18.2083 13.8945 17.3458 13.8945 16.2917V10.5417C13.8945 9.4875 14.3737 8.625 15.8112 8.625H17.7279C19.1654 8.625 19.6445 9.4875 19.6445 10.5417Z" stroke="#383742" stroke-width="1.5" stroke-miterlimit="10" stroke-linecap="round" stroke-linejoin="round"/>
</svg>
