<svg width="13" height="12" viewBox="0 0 13 12" fill="none" xmlns="http://www.w3.org/2000/svg">
<path d="M12.032 10.9758C12.0884 11.0316 12.1332 11.0978 12.1637 11.1706C12.1942 11.2434 12.2099 11.3215 12.2099 11.4003C12.2099 11.4792 12.1942 11.5572 12.1637 11.6301C12.1332 11.7029 12.0884 11.7691 12.032 11.8248C11.9756 11.8806 11.9086 11.9248 11.8349 11.955C11.7612 11.9851 11.6822 12.0007 11.6025 12.0007C11.5227 12.0007 11.4437 11.9851 11.37 11.955C11.2963 11.9248 11.2293 11.8806 11.1729 11.8248L6.13817 6.84858L1.10344 11.8248C0.989516 11.9374 0.835001 12.0007 0.673887 12.0007C0.512773 12.0007 0.358258 11.9374 0.244333 11.8248C0.130408 11.7123 0.0664063 11.5596 0.0664062 11.4003C0.0664062 11.2411 0.130408 11.0884 0.244333 10.9758L5.27983 6.00033L0.244333 1.02483C0.130408 0.912249 0.0664062 0.759552 0.0664062 0.600334C0.0664062 0.441115 0.130408 0.288418 0.244333 0.175834C0.358258 0.0632492 0.512773 0 0.673887 0C0.835001 0 0.989516 0.0632492 1.10344 0.175834L6.13817 5.15208L11.1729 0.175834C11.2868 0.0632492 11.4413 -3.13857e-09 11.6025 0C11.7636 3.13857e-09 11.9181 0.0632492 12.032 0.175834C12.1459 0.288418 12.2099 0.441115 12.2099 0.600334C12.2099 0.759552 12.1459 0.912249 12.032 1.02483L6.99652 6.00033L12.032 10.9758Z" fill="white"/>
</svg>
