<svg width="77" height="77" viewBox="0 0 77 77" fill="none" xmlns="http://www.w3.org/2000/svg">
<path fill-rule="evenodd" clip-rule="evenodd" d="M77 38.5C77 59.763 59.763 77 38.5 77C17.237 77 0 59.763 0 38.5C0 17.237 17.237 0 38.5 0C59.763 0 77 17.237 77 38.5ZM34.65 57.75C34.65 55.6237 36.3737 53.9 38.5 53.9C40.6263 53.9 42.35 55.6237 42.35 57.75C42.35 59.8763 40.6263 61.6 38.5 61.6C36.3737 61.6 34.65 59.8763 34.65 57.75ZM35.6125 46.2C35.6125 47.7947 36.9053 49.0875 38.5 49.0875C40.0947 49.0875 41.3875 47.7947 41.3875 46.2V19.25C41.3875 17.6553 40.0947 16.3625 38.5 16.3625C36.9053 16.3625 35.6125 17.6553 35.6125 19.25L35.6125 46.2Z" fill="#DE755E"/>
</svg>
