<svg width="133" height="117" viewBox="0 0 133 117" fill="none" xmlns="http://www.w3.org/2000/svg">
<g filter="url(#filter0_d_5365_91297)">
<path d="M73.1637 36.6101L70.5981 33.6014C70.123 33.0301 69.7239 31.9637 69.7239 31.202V27.9647C69.7239 25.9461 68.0705 24.2894 66.056 24.2894H62.8252C62.065 24.2894 60.9817 23.8895 60.4116 23.4134L57.4088 20.8426C56.0975 19.7191 53.95 19.7191 52.6386 20.8426L49.5979 23.4134C49.0277 23.8895 47.9635 24.2894 47.2033 24.2894H43.9155C41.901 24.2894 40.2476 25.9461 40.2476 27.9647V31.202C40.2476 31.9446 39.8675 33.011 39.3923 33.5823L36.8267 36.6101C35.7244 37.9431 35.7244 40.0759 36.8267 41.3708L39.3923 44.3986C39.8675 44.9509 40.2476 46.0363 40.2476 46.779V50.0353C40.2476 52.0539 41.901 53.7106 43.9155 53.7106H47.2223C47.9635 53.7106 49.0467 54.1105 49.6169 54.5866L52.6196 57.1574C53.931 58.2809 56.0785 58.2809 57.3898 57.1574L60.3926 54.5866C60.9627 54.1105 62.027 53.7106 62.7872 53.7106H66.018C68.0325 53.7106 69.6859 52.0539 69.6859 50.0353V46.798C69.6859 46.0363 70.085 44.9699 70.5601 44.3986L73.1257 41.3899C74.285 40.095 74.285 37.9431 73.1637 36.6101Z" fill="#DE755E"/>
<path d="M73.1637 36.6101L70.5981 33.6014C70.123 33.0301 69.7239 31.9637 69.7239 31.202V27.9647C69.7239 25.9461 68.0705 24.2894 66.056 24.2894H62.8252C62.065 24.2894 60.9817 23.8895 60.4116 23.4134L57.4088 20.8426C56.0975 19.7191 53.95 19.7191 52.6386 20.8426L49.5979 23.4134C49.0277 23.8895 47.9635 24.2894 47.2033 24.2894H43.9155C41.901 24.2894 40.2476 25.9461 40.2476 27.9647V31.202C40.2476 31.9446 39.8675 33.011 39.3923 33.5823L36.8267 36.6101C35.7244 37.9431 35.7244 40.0759 36.8267 41.3708L39.3923 44.3986C39.8675 44.9509 40.2476 46.0363 40.2476 46.779V50.0353C40.2476 52.0539 41.901 53.7106 43.9155 53.7106H47.2223C47.9635 53.7106 49.0467 54.1105 49.6169 54.5866L52.6196 57.1574C53.931 58.2809 56.0785 58.2809 57.3898 57.1574L60.3926 54.5866C60.9627 54.1105 62.027 53.7106 62.7872 53.7106H66.018C68.0325 53.7106 69.6859 52.0539 69.6859 50.0353V46.798C69.6859 46.0363 70.085 44.9699 70.5601 44.3986L73.1257 41.3899C74.285 40.095 74.285 37.9431 73.1637 36.6101Z" stroke="#EAEBEF" stroke-width="2"/>
</g>
<defs>
<filter id="filter0_d_5365_91297" x="0.301205" y="-15.6988" width="132.53" height="132.53" filterUnits="userSpaceOnUse" color-interpolation-filters="sRGB">
<feFlood flood-opacity="0" result="BackgroundImageFix"/>
<feColorMatrix in="SourceAlpha" type="matrix" values="0 0 0 0 0 0 0 0 0 0 0 0 0 0 0 0 0 0 127 0" result="hardAlpha"/>
<feOffset dx="11.5663" dy="11.5663"/>
<feGaussianBlur stdDeviation="23.1325"/>
<feColorMatrix type="matrix" values="0 0 0 0 0.15375 0 0 0 0 0.45225 0 0 0 0 0.9 0 0 0 0.15 0"/>
<feBlend mode="normal" in2="BackgroundImageFix" result="effect1_dropShadow_5365_91297"/>
<feBlend mode="normal" in="SourceGraphic" in2="effect1_dropShadow_5365_91297" result="shape"/>
</filter>
</defs>
</svg>
