<svg width="51" height="50" viewBox="0 0 51 50" fill="none" xmlns="http://www.w3.org/2000/svg">
<rect x="0.333008" width="50" height="50" rx="25" fill="url(#paint0_linear_930_47349)"/>
<path fill-rule="evenodd" clip-rule="evenodd" d="M38.0867 19.7953C38.2678 19.2288 38.0867 18.8125 37.2247 18.8125H34.3744C33.6497 18.8125 33.3156 19.1721 33.1344 19.5687C33.1344 19.5687 31.6849 22.8829 29.6315 25.0357C28.9672 25.6589 28.6652 25.8571 28.3029 25.8571C28.1217 25.8571 27.8594 25.6589 27.8594 25.0924V19.7953C27.8594 19.1155 27.6491 18.8125 27.0451 18.8125H22.5661C22.1132 18.8125 21.8409 19.128 21.8409 19.4271C21.8409 20.0716 22.8675 20.2202 22.9733 22.0331V25.9705C22.9733 26.8337 22.8071 26.9903 22.4447 26.9903C21.4785 26.9903 19.1281 23.6612 17.734 19.852C17.4608 19.1116 17.1868 18.8125 16.4584 18.8125H13.6081C12.7937 18.8125 12.6309 19.1721 12.6309 19.5687C12.6309 20.2769 13.5972 23.7894 17.1301 28.4349C19.4855 31.6074 22.8039 33.3271 25.8236 33.3271C27.6354 33.3271 27.8595 32.9452 27.8595 32.2872V29.8895C27.8595 29.1255 28.0311 28.9731 28.6049 28.9731C29.0276 28.9731 29.7523 29.1713 31.4434 30.701C33.3759 32.5139 33.6946 33.3271 34.7816 33.3271H37.6319C38.4462 33.3271 38.8534 32.9452 38.6185 32.1914C38.3615 31.4401 37.4388 30.3501 36.2145 29.058C35.5501 28.3216 34.5536 27.5285 34.2516 27.1318C33.8289 26.622 33.9497 26.3953 34.2516 25.9421C34.2516 25.9421 37.7243 21.3533 38.0867 19.7953Z" fill="white"/>
<defs>
<linearGradient id="paint0_linear_930_47349" x1="28.7886" y1="51.4911" x2="5.41437" y2="-1.07072e-06" gradientUnits="userSpaceOnUse">
<stop offset="0.0729167" stop-color="#3F98FF"/>
<stop offset="0.927083" stop-color="#3F98FF"/>
</linearGradient>
</defs>
</svg>
