<svg width="30" height="30" viewBox="0 0 30 30" fill="none" xmlns="http://www.w3.org/2000/svg">
<path fill-rule="evenodd" clip-rule="evenodd" d="M23.5 2.5H6.5C4.29086 2.5 2.5 4.29086 2.5 6.5V23.5C2.5 25.7091 4.29086 27.5 6.5 27.5H23.5C25.7091 27.5 27.5 25.7091 27.5 23.5V6.5C27.5 4.29086 25.7091 2.5 23.5 2.5ZM20.8661 12.8588C20.721 13.2091 20.3792 13.4375 20 13.4375L9.99997 13.4375C9.48221 13.4375 9.06247 13.0178 9.06247 12.5C9.06247 11.9822 9.48221 11.5625 9.99997 11.5625L17.7366 11.5625L16.8371 10.6629C16.4709 10.2968 16.4709 9.7032 16.8371 9.33709C17.2032 8.97097 17.7968 8.97097 18.1629 9.33709L20.6629 11.8371C20.931 12.1052 21.0112 12.5084 20.8661 12.8588ZM10 16.5625C9.62084 16.5625 9.279 16.7909 9.13389 17.1412C8.98878 17.4916 9.06899 17.8948 9.33712 18.1629L11.8371 20.6629C12.2032 21.029 12.7968 21.029 13.1629 20.6629C13.5291 20.2968 13.5291 19.7032 13.1629 19.3371L12.2634 18.4375L20 18.4375C20.5178 18.4375 20.9375 18.0178 20.9375 17.5C20.9375 16.9822 20.5178 16.5625 20 16.5625L10 16.5625Z" fill="#383742"/>
</svg>
