<svg width="30" height="30" viewBox="0 0 30 30" fill="none" xmlns="http://www.w3.org/2000/svg">
<path d="M22.55 16.9355C22.025 17.448 21.725 18.1855 21.8 18.973C21.9125 20.323 23.15 21.3105 24.5 21.3105H26.875V22.798C26.875 25.3855 24.7625 27.498 22.175 27.498H9.53751C9.92501 27.173 10.2625 26.773 10.525 26.323C10.9875 25.573 11.25 24.6855 11.25 23.748C11.25 20.9855 9.0125 18.748 6.25 18.748C5.075 18.748 3.9875 19.1606 3.125 19.8481V14.3856C3.125 11.7981 5.23749 9.68555 7.82499 9.68555H22.175C24.7625 9.68555 26.875 11.7981 26.875 14.3856V16.1856H24.35C23.65 16.1856 23.0125 16.4605 22.55 16.9355Z" fill="#383742" stroke="#383742" stroke-width="1.5" stroke-linecap="round" stroke-linejoin="round"/>
<path d="M3.125 15.5102V9.79775C3.125 8.31025 4.0375 6.98519 5.425 6.46019L15.35 2.71019C16.9 2.12269 18.5625 3.27273 18.5625 4.93523V9.68522" stroke="#383742" stroke-width="1.5" stroke-linecap="round" stroke-linejoin="round"/>
<path d="M28.2005 17.4624V20.0375C28.2005 20.725 27.6505 21.2875 26.9505 21.3125H24.5005C23.1505 21.3125 21.913 20.325 21.8005 18.975C21.7255 18.1875 22.0255 17.45 22.5505 16.9375C23.013 16.4625 23.6505 16.1875 24.3505 16.1875H26.9505C27.6505 16.2125 28.2005 16.7749 28.2005 17.4624Z" stroke="#383742" stroke-width="1.5" stroke-linecap="round" stroke-linejoin="round"/>
<path d="M8.75 15H17.5" stroke="#E0E1E7" stroke-width="1.5" stroke-linecap="round" stroke-linejoin="round"/>
<path d="M11.25 23.75C11.25 24.6875 10.9875 25.575 10.525 26.325C10.2625 26.775 9.92501 27.175 9.53751 27.5C8.66251 28.2875 7.5125 28.75 6.25 28.75C4.425 28.75 2.8375 27.775 1.975 26.325C1.5125 25.575 1.25 24.6875 1.25 23.75C1.25 22.175 1.975 20.7625 3.125 19.85C3.9875 19.1625 5.075 18.75 6.25 18.75C9.0125 18.75 11.25 20.9875 11.25 23.75Z" stroke="#383742" stroke-width="1.5" stroke-miterlimit="10" stroke-linecap="round" stroke-linejoin="round"/>
<path d="M4.30078 23.7484L5.53827 24.9859L8.20078 22.5234" stroke="#383742" stroke-width="1.5" stroke-linecap="round" stroke-linejoin="round"/>
</svg>
