<svg width="33" height="32" viewBox="0 0 33 32" fill="none" xmlns="http://www.w3.org/2000/svg">
<path d="M18 16C18 16.2967 17.912 16.5867 17.7472 16.8334C17.5824 17.08 17.3481 17.2723 17.074 17.3858C16.7999 17.4994 16.4983 17.5291 16.2074 17.4712C15.9164 17.4133 15.6491 17.2704 15.4393 17.0607C15.2296 16.8509 15.0867 16.5836 15.0288 16.2926C14.9709 16.0017 15.0006 15.7001 15.1142 15.426C15.2277 15.1519 15.42 14.9176 15.6666 14.7528C15.9133 14.588 16.2033 14.5 16.5 14.5C16.8978 14.5 17.2794 14.658 17.5607 14.9393C17.842 15.2206 18 15.6022 18 16ZM16.5 9C16.7967 9 17.0867 8.91203 17.3334 8.74721C17.58 8.58238 17.7723 8.34811 17.8858 8.07403C17.9994 7.79994 18.0291 7.49834 17.9712 7.20737C17.9133 6.91639 17.7704 6.64912 17.5607 6.43934C17.3509 6.22956 17.0836 6.0867 16.7926 6.02882C16.5017 5.97094 16.2001 6.00065 15.926 6.11418C15.6519 6.22771 15.4176 6.41997 15.2528 6.66665C15.088 6.91332 15 7.20333 15 7.5C15 7.89783 15.158 8.27936 15.4393 8.56066C15.7206 8.84197 16.1022 9 16.5 9ZM16.5 23C16.2033 23 15.9133 23.088 15.6666 23.2528C15.42 23.4176 15.2277 23.6519 15.1142 23.926C15.0006 24.2001 14.9709 24.5017 15.0288 24.7926C15.0867 25.0836 15.2296 25.3509 15.4393 25.5607C15.6491 25.7704 15.9164 25.9133 16.2074 25.9712C16.4983 26.0291 16.7999 25.9993 17.074 25.8858C17.3481 25.7723 17.5824 25.58 17.7472 25.3334C17.912 25.0867 18 24.7967 18 24.5C18 24.1022 17.842 23.7206 17.5607 23.4393C17.2794 23.158 16.8978 23 16.5 23Z" fill="#383742"/>
</svg>
