<svg width="28" height="28" viewBox="0 0 28 28" fill="none" xmlns="http://www.w3.org/2000/svg">
<path d="M22.4466 6.51064H21.9799L18.0366 2.5673C17.7216 2.2523 17.2083 2.2523 16.8816 2.5673C16.5666 2.8823 16.5666 3.39564 16.8816 3.7223L19.6699 6.51064H8.32992L11.1183 3.7223C11.4333 3.4073 11.4333 2.89397 11.1183 2.5673C10.8033 2.2523 10.2899 2.2523 9.96325 2.5673L6.03159 6.51064H5.56492C4.51492 6.51064 2.33325 6.51064 2.33325 9.4973C2.33325 10.629 2.56659 11.3756 3.05659 11.8656C3.33659 12.1573 3.67492 12.309 4.03659 12.3906C4.37492 12.4723 4.73659 12.484 5.08659 12.484H22.9133C23.2749 12.484 23.6133 12.4606 23.9399 12.3906C24.9199 12.1573 25.6666 11.4573 25.6666 9.4973C25.6666 6.51064 23.4849 6.51064 22.4466 6.51064Z" fill="#383742"/>
<path d="M22.925 12.4825H5.08662C4.73662 12.4825 4.37495 12.4708 4.03662 12.3892L5.50662 21.3492C5.83329 23.3558 6.70829 25.6658 10.5933 25.6658H17.1383C21.07 25.6658 21.77 23.6942 22.19 21.4892L23.9516 12.3892C23.625 12.4592 23.275 12.4825 22.925 12.4825ZM12.3783 20.0192C12.3783 20.4742 12.0166 20.8358 11.5616 20.8358C11.1066 20.8358 10.745 20.4742 10.745 20.0192V16.1692C10.745 15.7142 11.1066 15.3525 11.5616 15.3525C12.0166 15.3525 12.3783 15.7142 12.3783 16.1692V20.0192ZM17.3716 20.0192C17.3716 20.4742 17.01 20.8358 16.555 20.8358C16.1 20.8358 15.7383 20.4742 15.7383 20.0192V16.1692C15.7383 15.7142 16.1 15.3525 16.555 15.3525C17.01 15.3525 17.3716 15.7142 17.3716 16.1692V20.0192Z" fill="#383742"/>
</svg>
