<svg width="226" height="40" viewBox="0 0 226 40" fill="none" xmlns="http://www.w3.org/2000/svg">
<path d="M4.37 28.71C6.32 27.03 13.04 29.55 14.96 30.3C18.02 29.07 19.64 26.04 20.03 23.52C20.48 20.43 18.95 17.79 11.24 16.05C7.04 15.12 2.51 15.84 3.29 13.14C4.7 8.28 15.98 12.57 18.98 15.33L18.71 9.6C18.71 9.6 13.85 8.7 7.76 8.7C0.59 11.43 1.91 17.85 6.05 20.22C18.56 15.33 20.63 21.3 19.28 23.94C16.79 28.74 9.23 21.81 4.13 23.94L4.37 28.71ZM34.8856 22.11H30.8356C32.3056 27.24 30.4756 30.3 28.6156 29.7C26.8156 29.1 27.8056 24.15 28.4356 22.08C29.9956 17.01 33.8956 17.7 34.7656 18.42L34.6156 15.27C33.8356 14.88 32.9956 14.7 32.0956 14.7C30.6856 15.12 28.6156 18.03 27.7756 23.25H27.5356C27.8056 19.74 28.5856 14.88 29.6956 8.94H24.9856C24.9856 8.94 25.1056 11.82 25.2556 15H22.4656L22.6456 19.11C22.6456 19.11 23.8756 18 25.3756 17.4C25.4356 18.24 25.4656 19.11 25.4956 19.86C25.6756 24.15 25.4656 30.3 30.2956 30.3C34.3456 30.3 35.7556 26.34 34.8856 22.11ZM48.5961 16.92C48.5961 24.9 46.3761 30 46.3761 30H51.1761C51.1761 30 50.9661 26.58 50.7561 22.35C50.4861 17.49 47.8461 14.7 44.1561 14.7C40.4961 14.7 38.4261 15.9 38.4261 15.9L38.6361 20.25C38.6361 20.25 42.5661 16.83 47.9361 16.89C47.8161 18.75 47.4561 20.46 46.9761 21.99C45.8661 20.73 44.0961 20.1 42.3861 20.19C39.8661 20.31 37.4661 21.93 37.4661 25.02C37.4661 28.32 40.4361 30.33 43.2861 30.33C44.9061 29.85 47.8761 24 48.2961 16.92H48.5961ZM40.7361 29.4C38.8461 28.62 42.8061 17.7 46.8561 22.38C45.1761 27.15 42.1461 29.97 40.7361 29.4ZM65.3555 15C64.5455 25.74 60.4955 30.12 58.3655 29.28C56.7755 28.65 57.1055 25.35 58.4255 21.57C59.6855 17.97 61.0055 15 61.0055 15H55.8155C55.8155 15 54.4355 19.74 54.4355 22.5C54.4355 27.15 57.3755 30.3 61.0355 30.3C63.2255 29.67 65.3255 22.77 65.6855 15.36H66.0455C65.9855 27.06 63.5855 33.06 63.5855 33.06C60.9155 30.15 54.6755 29.46 54.6755 33.99C54.6755 37.38 60.7655 39.66 64.0055 39.66C66.4355 38.7 68.8055 33.48 67.8155 15H65.3555ZM58.7855 37.98C56.6855 36.75 58.2155 30.03 61.9055 32.19C62.9855 32.85 63.4355 33.51 63.4355 33.51C62.2055 37.02 60.1055 38.76 58.7855 37.98ZM111.29 19.71C112.58 26.97 107.66 30.42 104.81 29.25C102.26 28.23 102.41 22.86 104.27 17.49C106.13 12.12 108.98 8.94 111.56 9.81C113.45 10.47 113.72 13.41 111.29 17.13H117.11C116.24 12.03 112.58 8.73 108.17 8.73C103.13 8.73 99.0498 13.08 99.0498 19.53C99.0498 25.98 103.13 30.3 108.17 30.3C113.81 30.3 117.08 25.8 117.32 19.71H111.29ZM124.498 30C125.098 19.53 129.358 18.21 131.128 18.48C132.868 18.72 134.368 20.1 134.368 20.1L134.158 15.87C134.158 15.87 132.088 14.7 129.328 14.7C127.138 15.36 124.528 22.26 124.138 29.64H123.838C123.868 20.16 125.788 15.54 126.058 15H121.228L122.038 30H124.498ZM150.801 20.76C150.171 17.07 147.501 14.7 144.321 14.7C140.601 14.7 137.721 17.79 137.721 22.5C137.721 27.21 140.601 30.3 144.291 30.3C147.891 30.3 150.921 27.36 150.921 22.11H146.001C147.831 27.66 144.051 30.27 142.071 29.52C140.271 28.83 140.271 25.47 141.981 20.76H150.801ZM146.751 15.6C148.401 16.23 148.161 20.37 144.231 20.37H142.131C143.361 17.22 145.371 15.06 146.751 15.6ZM165.535 16.92C165.535 24.9 163.315 30 163.315 30H168.115C168.115 30 167.905 26.58 167.695 22.35C167.425 17.49 164.785 14.7 161.095 14.7C157.435 14.7 155.365 15.9 155.365 15.9L155.575 20.25C155.575 20.25 159.505 16.83 164.875 16.89C164.755 18.75 164.395 20.46 163.915 21.99C162.805 20.73 161.035 20.1 159.325 20.19C156.805 20.31 154.405 21.93 154.405 25.02C154.405 28.32 157.375 30.33 160.225 30.33C161.845 29.85 164.815 24 165.235 16.92H165.535ZM157.675 29.4C155.785 28.62 159.745 17.7 163.795 22.38C162.115 27.15 159.085 29.97 157.675 29.4ZM183.345 22.11H179.295C180.765 27.24 178.935 30.3 177.075 29.7C175.275 29.1 176.265 24.15 176.895 22.08C178.455 17.01 182.355 17.7 183.225 18.42L183.075 15.27C182.295 14.88 181.455 14.7 180.555 14.7C179.145 15.12 177.075 18.03 176.235 23.25H175.995C176.265 19.74 177.045 14.88 178.155 8.94H173.445C173.445 8.94 173.565 11.82 173.715 15H170.925L171.105 19.11C171.105 19.11 172.335 18 173.835 17.4C173.895 18.24 173.925 19.11 173.955 19.86C174.135 24.15 173.925 30.3 178.755 30.3C182.805 30.3 184.215 26.34 183.345 22.11ZM188.085 15C188.085 24.75 185.835 30 185.835 30H190.665L189.855 15H188.085ZM188.505 8.97C187.485 8.97 186.705 9.84 186.705 11.13C186.705 12.39 187.485 13.23 188.505 13.23C189.495 13.23 190.305 12.39 190.305 11.13C190.305 9.84 189.495 8.97 188.505 8.97ZM193.768 15L200.338 30H202.768C204.118 20.94 209.608 15 209.608 15H204.238L202.408 29.61H202.138C199.378 22.89 199.198 17.28 199.198 15H193.768ZM224.899 20.76C224.269 17.07 221.599 14.7 218.419 14.7C214.699 14.7 211.819 17.79 211.819 22.5C211.819 27.21 214.699 30.3 218.389 30.3C221.989 30.3 225.019 27.36 225.019 22.11H220.099C221.929 27.66 218.149 30.27 216.169 29.52C214.369 28.83 214.369 25.47 216.079 20.76H224.899ZM220.849 15.6C222.499 16.23 222.259 20.37 218.329 20.37H216.229C217.459 17.22 219.469 15.06 220.849 15.6Z" fill="#383742"/>
<path d="M80.625 15C78.75 15 78 16.2913 78 17.8841C78 20.7682 81.9 23.3901 84 24C86.1 23.3901 90 20.7682 90 17.8841C90 16.2913 89.25 15 87 15C84.75 15 84 17.6101 84 17.6101C84 17.6101 83.25 15 80.625 15Z" fill="#DE755E"/>
</svg>
