<svg width="20" height="21" viewBox="0 0 20 21" fill="none" xmlns="http://www.w3.org/2000/svg">
<path d="M7.08366 16.1999H6.66699C3.33366 16.1999 1.66699 15.3665 1.66699 11.1999V7.0332C1.66699 3.69987 3.33366 2.0332 6.66699 2.0332H13.3337C16.667 2.0332 18.3337 3.69987 18.3337 7.0332V11.1999C18.3337 14.5332 16.667 16.1999 13.3337 16.1999H12.917C12.6587 16.1999 12.4087 16.3249 12.2503 16.5332L11.0003 18.1999C10.4503 18.9332 9.55033 18.9332 9.00033 18.1999L7.75033 16.5332C7.61699 16.3499 7.30866 16.1999 7.08366 16.1999Z" fill="#A0A1A4"/>
<path d="M13.3301 9.53288H13.3375" stroke="white" stroke-width="2" stroke-linecap="round" stroke-linejoin="round"/>
<path d="M9.99607 9.53288H10.0036" stroke="white" stroke-width="2" stroke-linecap="round" stroke-linejoin="round"/>
<path d="M6.66209 9.53288H6.66957" stroke="white" stroke-width="2" stroke-linecap="round" stroke-linejoin="round"/>
</svg>
