<svg width="16" height="19" viewBox="0 0 16 19" fill="none" xmlns="http://www.w3.org/2000/svg">
<path fill-rule="evenodd" clip-rule="evenodd" d="M8 0.366211C4.77095 0.366211 2.05382 2.85707 1.67964 6.16025L1.33476 9.20471C1.24906 9.96119 0.942464 10.6731 0.455492 11.2463C-0.577914 12.4626 0.260813 14.3662 1.83014 14.3662H14.1699C15.7392 14.3662 16.5779 12.4626 15.5445 11.2463C15.0575 10.6731 14.7509 9.9612 14.6652 9.20471L14.3204 6.16025C13.9462 2.85707 11.2291 0.366211 8 0.366211ZM10.9721 16.4377C10.5147 17.5654 9.35653 18.3662 8 18.3662C6.64347 18.3662 5.48526 17.5654 5.02789 16.4377C5.00883 16.3907 5 16.3402 5 16.2895C5 16.0557 5.18951 15.8662 5.42329 15.8662H10.5767C10.8105 15.8662 11 16.0557 11 16.2895C11 16.3402 10.9912 16.3907 10.9721 16.4377Z" fill="#A0A1A4"/>
</svg>
