<svg width="20" height="21" viewBox="0 0 20 21" fill="none" xmlns="http://www.w3.org/2000/svg">
<path fill-rule="evenodd" clip-rule="evenodd" d="M16.1896 4.36912L13.6 0.916255C13.3514 0.584884 12.8813 0.517727 12.55 0.766255C12.2186 1.01478 12.1514 1.48488 12.4 1.81625L14.3124 4.36621H5.68749L7.59996 1.81626C7.84848 1.48488 7.78133 1.01478 7.44996 0.766255C7.11859 0.517727 6.64848 0.584884 6.39996 0.916255L3.81025 4.3692C1.91215 4.44227 0.404804 5.84752 0.0703125 7.61621H19.9315C19.5969 5.84693 18.0886 4.44133 16.1896 4.36912ZM18.2829 17.1742C17.903 19.0328 16.2815 20.3662 14.4011 20.3662H5.60066C3.7203 20.3662 2.09876 19.0328 1.71893 17.1742L0.0840085 9.17421C0.0800557 9.15487 0.0762478 9.13553 0.0725839 9.11621H19.9292C19.9255 9.13553 19.9217 9.15486 19.9178 9.1742L18.2829 17.1742ZM7 11.6162C7.41421 11.6162 7.75 11.952 7.75 12.3662L7.75 16.3662C7.75 16.7804 7.41421 17.1162 7 17.1162C6.58579 17.1162 6.25 16.7804 6.25 16.3662L6.25 12.3662C6.25 11.952 6.58579 11.6162 7 11.6162ZM13.75 12.3662C13.75 11.952 13.4142 11.6162 13 11.6162C12.5858 11.6162 12.25 11.952 12.25 12.3662V16.3662C12.25 16.7804 12.5858 17.1162 13 17.1162C13.4142 17.1162 13.75 16.7804 13.75 16.3662V12.3662Z" fill="#A0A1A4"/>
</svg>
