<svg width="19" height="25" viewBox="0 0 19 25" fill="none" xmlns="http://www.w3.org/2000/svg">
<path d="M9.44429 9.77311C9.34549 9.76322 9.22693 9.76322 9.11826 9.77311C6.76691 9.69398 4.89966 7.76528 4.89966 5.3915C4.89966 2.96826 6.85582 1 9.28621 1C11.7067 1 13.6728 2.96826 13.6728 5.3915C13.6629 7.76528 11.7956 9.69398 9.44429 9.77311Z" fill="#383742" stroke="#383742" stroke-width="1.5" stroke-linecap="round" stroke-linejoin="round"/>
<path d="M3.20483 15.224C0.264733 17.0554 0.264733 20.04 3.20483 21.8601C6.54584 23.9403 12.0251 23.9403 15.3661 21.8601C18.3062 20.0287 18.3062 17.0441 15.3661 15.224C12.0373 13.1552 6.55799 13.1552 3.20483 15.224Z" fill="#383742" stroke="#383742" stroke-width="1.5" stroke-linecap="round" stroke-linejoin="round"/>
</svg>
