<svg width="24" height="24" viewBox="0 0 24 24" fill="none" xmlns="http://www.w3.org/2000/svg">
<path d="M21.0736 5.23C19.4636 5.07 17.8536 4.95 16.2336 4.86V4.85L16.0136 3.55C15.8636 2.63 15.6436 1.25 13.3036 1.25H10.6836C8.35358 1.25 8.13358 2.57 7.97358 3.54L7.76358 4.82C6.83358 4.88 5.90358 4.94 4.97358 5.03L2.93358 5.23C2.51358 5.27 2.21358 5.64 2.25358 6.05C2.29358 6.46 2.65358 6.76 3.07358 6.72L5.11358 6.52C10.3536 6 15.6336 6.2 20.9336 6.73C20.9636 6.73 20.9836 6.73 21.0136 6.73C21.3936 6.73 21.7236 6.44 21.7636 6.05C21.7936 5.64 21.4936 5.27 21.0736 5.23Z" fill="#383742"/>
<path fill-rule="evenodd" clip-rule="evenodd" d="M19.2317 8.14C18.9917 7.89 18.6617 7.75 18.3217 7.75H5.6817C5.3417 7.75 5.0017 7.89 4.7717 8.14C4.5417 8.39 4.4117 8.73 4.4317 9.08L5.0517 19.34C5.1617 20.86 5.3017 22.76 8.7917 22.76H15.2117C18.7017 22.76 18.8417 20.87 18.9517 19.34L19.5717 9.09C19.5917 8.73 19.4617 8.39 19.2317 8.14ZM9.58154 17C9.58154 16.5858 9.91733 16.25 10.3315 16.25H13.6615C14.0758 16.25 14.4115 16.5858 14.4115 17C14.4115 17.4142 14.0758 17.75 13.6615 17.75H10.3315C9.91733 17.75 9.58154 17.4142 9.58154 17ZM9.50146 12.25C9.08725 12.25 8.75146 12.5858 8.75146 13C8.75146 13.4142 9.08725 13.75 9.50146 13.75H14.5015C14.9157 13.75 15.2515 13.4142 15.2515 13C15.2515 12.5858 14.9157 12.25 14.5015 12.25H9.50146Z" fill="#383742"/>
</svg>
