<svg width="22" height="18" viewBox="0 0 22 18" fill="none" xmlns="http://www.w3.org/2000/svg">
<path d="M21.175 6.17659C18.634 2.57414 14.916 0.5 11 0.5C9.042 0.5 7.139 1.01605 5.401 1.97869C3.663 2.95126 2.101 4.3704 0.825 6.17659C-0.275 7.73468 -0.275 10.2653 0.825 11.8234C3.366 15.4358 7.084 17.5 11 17.5C12.958 17.5 14.861 16.9839 16.599 16.0213C18.337 15.0487 19.899 13.6296 21.175 11.8234C22.275 10.2752 22.275 7.73468 21.175 6.17659ZM11 13.0143C8.536 13.0143 6.556 11.218 6.556 9.00496C6.556 6.79189 8.536 4.99562 11 4.99562C13.464 4.99562 15.444 6.79189 15.444 9.00496C15.444 11.218 13.464 13.0143 11 13.0143Z" fill="#383742"/>
<path d="M11.0022 6.16602C9.27519 6.16602 7.86719 7.4363 7.86719 9.00431C7.86719 10.5624 9.27519 11.8327 11.0022 11.8327C12.7292 11.8327 14.1482 10.5624 14.1482 9.00431C14.1482 7.44623 12.7292 6.16602 11.0022 6.16602Z" fill="#383742"/>
</svg>
