<svg width="827" height="203" viewBox="0 0 827 203" fill="none" xmlns="http://www.w3.org/2000/svg">
<path d="M430 46.3594C430 46.724 429.855 47.0738 429.597 47.3316C429.339 47.5895 428.99 47.7344 428.625 47.7344H414.875V61.4844C414.875 61.849 414.73 62.1988 414.472 62.4566C414.214 62.7145 413.865 62.8594 413.5 62.8594C413.135 62.8594 412.786 62.7145 412.528 62.4566C412.27 62.1988 412.125 61.849 412.125 61.4844V47.7344H398.375C398.01 47.7344 397.661 47.5895 397.403 47.3316C397.145 47.0738 397 46.724 397 46.3594C397 45.9947 397.145 45.645 397.403 45.3871C397.661 45.1292 398.01 44.9844 398.375 44.9844H412.125V31.2344C412.125 30.8697 412.27 30.52 412.528 30.2621C412.786 30.0042 413.135 29.8594 413.5 29.8594C413.865 29.8594 414.214 30.0042 414.472 30.2621C414.73 30.52 414.875 30.8697 414.875 31.2344V44.9844H428.625C428.99 44.9844 429.339 45.1292 429.597 45.3871C429.855 45.645 430 45.9947 430 46.3594Z" fill="#DE755E"/>
<path d="M333.079 90.9397C334.599 91.593 335.359 92.733 335.359 94.3597C335.359 95.5597 334.906 96.5397 333.999 97.2997C333.106 98.0597 331.919 98.4397 330.439 98.4397C329.133 98.4397 328.059 98.153 327.219 97.5797C326.393 97.0064 325.806 96.2197 325.459 95.2197L327.039 94.3197C327.453 95.893 328.586 96.6797 330.439 96.6797C331.399 96.6797 332.146 96.4664 332.679 96.0397C333.226 95.613 333.499 95.033 333.499 94.2997C333.499 93.5664 333.246 92.9864 332.739 92.5597C332.233 92.1197 331.539 91.8997 330.659 91.8997H329.019V90.1997H330.199C331.039 90.1997 331.713 89.993 332.219 89.5797C332.739 89.153 332.999 88.5997 332.999 87.9197C332.999 87.2397 332.759 86.693 332.279 86.2797C331.799 85.8664 331.146 85.6597 330.319 85.6597C328.773 85.6597 327.739 86.3464 327.219 87.7197L325.659 86.8197C326.499 84.8864 328.053 83.9197 330.319 83.9197C331.666 83.9197 332.753 84.293 333.579 85.0397C334.419 85.773 334.839 86.7197 334.839 87.8797C334.839 89.2264 334.253 90.2464 333.079 90.9397ZM345.668 89.8997V88.1797H347.408V98.1797H345.668V96.4597C344.815 97.7797 343.555 98.4397 341.888 98.4397C340.475 98.4397 339.282 97.933 338.308 96.9197C337.322 95.893 336.828 94.6464 336.828 93.1797C336.828 91.7264 337.322 90.4864 338.308 89.4597C339.295 88.433 340.488 87.9197 341.888 87.9197C343.555 87.9197 344.815 88.5797 345.668 89.8997ZM342.108 96.7597C343.122 96.7597 343.968 96.4197 344.648 95.7397C345.328 95.033 345.668 94.1797 345.668 93.1797C345.668 92.1664 345.328 91.3197 344.648 90.6397C343.968 89.9464 343.122 89.5997 342.108 89.5997C341.108 89.5997 340.268 89.9464 339.588 90.6397C338.908 91.3197 338.568 92.1664 338.568 93.1797C338.568 94.1797 338.908 95.033 339.588 95.7397C340.268 96.4197 341.108 96.7597 342.108 96.7597ZM350.045 88.1797H356.605V89.8597H351.785V98.1797H350.045V88.1797ZM363.651 87.9197C365.051 87.9197 366.244 88.433 367.231 89.4597C368.217 90.4864 368.711 91.7264 368.711 93.1797C368.711 94.6464 368.217 95.893 367.231 96.9197C366.257 97.933 365.064 98.4397 363.651 98.4397C361.997 98.4397 360.737 97.7797 359.871 96.4597V102.18H358.131V88.1797H359.871V89.8997C360.737 88.5797 361.997 87.9197 363.651 87.9197ZM363.431 96.7597C364.431 96.7597 365.271 96.4197 365.951 95.7397C366.631 95.033 366.971 94.1797 366.971 93.1797C366.971 92.1664 366.631 91.3197 365.951 90.6397C365.271 89.9464 364.431 89.5997 363.431 89.5997C362.417 89.5997 361.571 89.9464 360.891 90.6397C360.211 91.3197 359.871 92.1664 359.871 93.1797C359.871 94.1797 360.211 95.033 360.891 95.7397C361.571 96.4197 362.417 96.7597 363.431 96.7597ZM374.496 96.0197L377.376 88.1797H379.236L375.156 98.7997C374.73 99.933 374.13 100.793 373.356 101.38C372.583 101.98 371.703 102.246 370.716 102.18V100.56C371.93 100.653 372.83 99.9864 373.416 98.5597L373.576 98.1997L369.236 88.1797H371.076L374.496 96.0197ZM385.874 93.0597C386.981 93.5264 387.534 94.3197 387.534 95.4397C387.534 96.3064 387.194 97.0264 386.514 97.5997C385.834 98.1597 384.894 98.4397 383.694 98.4397C381.694 98.4397 380.354 97.6397 379.674 96.0397L381.134 95.1797C381.508 96.273 382.368 96.8197 383.714 96.8197C384.368 96.8197 384.881 96.6797 385.254 96.3997C385.628 96.1197 385.814 95.7464 385.814 95.2797C385.814 94.8797 385.661 94.553 385.354 94.2997C385.061 94.0464 384.661 93.9197 384.154 93.9197H382.694V92.3397H383.774C384.281 92.3397 384.674 92.2197 384.954 91.9797C385.234 91.7264 385.374 91.3864 385.374 90.9597C385.374 90.5197 385.208 90.173 384.874 89.9197C384.541 89.653 384.094 89.5197 383.534 89.5197C382.414 89.5197 381.654 89.993 381.254 90.9397L379.834 90.1197C380.541 88.653 381.774 87.9197 383.534 87.9197C384.601 87.9197 385.454 88.1997 386.094 88.7597C386.748 89.3064 387.074 89.993 387.074 90.8197C387.074 91.833 386.674 92.5797 385.874 93.0597ZM391.14 95.1997L396.68 88.1797H398.08V98.1797H396.36V91.1597L390.82 98.1797H389.42V88.1797H391.14V95.1997ZM399.608 88.1797H408.168V89.8597H404.768V98.1797H403.028V89.8597H399.608V88.1797ZM411.433 91.7797H413.913C414.913 91.7797 415.74 92.0797 416.393 92.6797C417.06 93.2664 417.393 94.033 417.393 94.9797C417.393 95.9264 417.06 96.6997 416.393 97.2997C415.726 97.8864 414.9 98.1797 413.913 98.1797H409.693V88.1797H411.433V91.7797ZM411.433 96.5597H413.913C414.42 96.5597 414.84 96.413 415.173 96.1197C415.506 95.8264 415.673 95.4464 415.673 94.9797C415.673 94.513 415.5 94.133 415.153 93.8397C414.82 93.533 414.406 93.3797 413.913 93.3797H411.433V96.5597ZM432.703 96.9197C431.69 97.933 430.443 98.4397 428.963 98.4397C427.483 98.4397 426.237 97.933 425.223 96.9197C424.21 95.9064 423.703 94.6597 423.703 93.1797C423.703 91.6997 424.21 90.453 425.223 89.4397C426.237 88.4264 427.483 87.9197 428.963 87.9197C430.443 87.9197 431.69 88.4264 432.703 89.4397C433.73 90.4664 434.243 91.713 434.243 93.1797C434.243 94.6464 433.73 95.893 432.703 96.9197ZM428.963 96.7397C429.963 96.7397 430.803 96.3997 431.483 95.7197C432.163 95.0397 432.503 94.193 432.503 93.1797C432.503 92.1664 432.163 91.3197 431.483 90.6397C430.803 89.9597 429.963 89.6197 428.963 89.6197C427.977 89.6197 427.143 89.9597 426.463 90.6397C425.783 91.3197 425.443 92.1664 425.443 93.1797C425.443 94.193 425.783 95.0397 426.463 95.7197C427.143 96.3997 427.977 96.7397 428.963 96.7397ZM440.835 98.4397C439.355 98.4397 438.135 97.953 437.175 96.9797C436.215 95.993 435.735 94.7397 435.735 93.2197C435.735 91.4997 435.981 90.1864 436.475 89.2797C436.981 88.3597 438.008 87.5264 439.555 86.7797C439.635 86.7397 439.728 86.693 439.835 86.6397C439.955 86.5864 440.095 86.5264 440.255 86.4597C440.428 86.3797 440.575 86.313 440.695 86.2597L441.775 85.7797C442.841 85.2464 443.408 84.6064 443.475 83.8597L444.875 84.6597C444.781 85.1264 444.628 85.4997 444.415 85.7797C444.401 85.8064 444.361 85.8664 444.295 85.9597C444.228 86.0397 444.181 86.0997 444.155 86.1397C444.128 86.1664 444.081 86.213 444.015 86.2797C443.961 86.333 443.901 86.3864 443.835 86.4397C443.781 86.493 443.708 86.5464 443.615 86.5997C443.121 86.9064 442.768 87.1064 442.555 87.1997C442.475 87.2397 442.388 87.2797 442.295 87.3197C442.215 87.3597 442.148 87.393 442.095 87.4197C442.041 87.4464 442.001 87.4664 441.975 87.4797L441.315 87.7597L440.675 88.0197C439.781 88.4064 439.121 88.7997 438.695 89.1997C438.268 89.5997 437.961 90.1064 437.775 90.7197C438.188 90.213 438.708 89.8264 439.335 89.5597C439.975 89.293 440.628 89.1597 441.295 89.1597C442.561 89.1597 443.621 89.5864 444.475 90.4397C445.355 91.3064 445.795 92.4064 445.795 93.7397C445.795 95.0997 445.328 96.2264 444.395 97.1197C443.448 97.9997 442.261 98.4397 440.835 98.4397ZM444.055 93.7397C444.055 92.8464 443.761 92.1197 443.175 91.5597C442.601 90.9864 441.841 90.6997 440.895 90.6997C440.055 90.6997 439.281 90.973 438.575 91.5197C437.895 92.0664 437.555 92.773 437.555 93.6397C437.555 94.5464 437.868 95.293 438.495 95.8797C439.121 96.4664 439.901 96.7597 440.835 96.7597C441.781 96.7597 442.548 96.473 443.135 95.8997C443.748 95.3264 444.055 94.6064 444.055 93.7397ZM448.211 88.1797H455.631V98.1797H453.891V89.8597H449.951V93.9397C449.951 95.5397 449.631 96.6797 448.991 97.3597C448.351 98.0264 447.411 98.2997 446.171 98.1797V96.5397C446.864 96.633 447.377 96.4797 447.711 96.0797C448.044 95.6664 448.211 94.9397 448.211 93.8997V88.1797ZM466.707 96.9197C465.694 97.933 464.447 98.4397 462.967 98.4397C461.487 98.4397 460.241 97.933 459.227 96.9197C458.214 95.9064 457.707 94.6597 457.707 93.1797C457.707 91.6997 458.214 90.453 459.227 89.4397C460.241 88.4264 461.487 87.9197 462.967 87.9197C464.447 87.9197 465.694 88.4264 466.707 89.4397C467.734 90.4664 468.247 91.713 468.247 93.1797C468.247 94.6464 467.734 95.893 466.707 96.9197ZM462.967 96.7397C463.967 96.7397 464.807 96.3997 465.487 95.7197C466.167 95.0397 466.507 94.193 466.507 93.1797C466.507 92.1664 466.167 91.3197 465.487 90.6397C464.807 89.9597 463.967 89.6197 462.967 89.6197C461.981 89.6197 461.147 89.9597 460.467 90.6397C459.787 91.3197 459.447 92.1664 459.447 93.1797C459.447 94.193 459.787 95.0397 460.467 95.7197C461.147 96.3997 461.981 96.7397 462.967 96.7397ZM477.598 93.0197L481.798 98.1797H479.758L476.018 93.4397V98.1797H474.298V93.4397L470.558 98.1797H468.538L472.718 93.0197L468.738 88.1797H470.758L474.298 92.5997V88.1797H476.018V92.5997L479.558 88.1797H481.598L477.598 93.0197ZM486.983 93.0197L491.923 98.1797H489.763L485.203 93.4397V98.1797H483.463V88.1797H485.203V92.5997L489.523 88.1797H491.763L486.983 93.0197ZM497.348 96.0197L500.228 88.1797H502.088L498.008 98.7997C497.581 99.933 496.981 100.793 496.208 101.38C495.434 101.98 494.554 102.246 493.568 102.18V100.56C494.781 100.653 495.681 99.9864 496.268 98.5597L496.428 98.1997L492.088 88.1797H493.928L497.348 96.0197Z" fill="#DE755E"/>
<path d="M245.178 137.18C245.178 135.153 245.878 133.44 247.278 132.04C248.678 130.626 250.391 129.92 252.418 129.92C254.445 129.92 256.158 130.626 257.558 132.04C258.971 133.44 259.678 135.153 259.678 137.18C259.678 139.193 258.971 140.906 257.558 142.32C256.158 143.733 254.445 144.44 252.418 144.44C250.391 144.44 248.678 143.733 247.278 142.32C245.878 140.893 245.178 139.18 245.178 137.18ZM257.818 137.18C257.818 135.633 257.298 134.34 256.258 133.3C255.245 132.246 253.965 131.72 252.418 131.72C250.885 131.72 249.598 132.246 248.558 133.3C247.531 134.353 247.018 135.646 247.018 137.18C247.018 138.7 247.531 139.993 248.558 141.06C249.598 142.1 250.885 142.62 252.418 142.62C253.965 142.62 255.245 142.1 256.258 141.06C257.298 139.993 257.818 138.7 257.818 137.18ZM261.734 134.18H270.394V144.18H268.654V135.84H263.474V144.18H261.734V134.18ZM271.923 134.18H280.483V135.86H277.083V144.18H275.343V135.86H271.923V134.18ZM283.728 141.2L289.268 134.18H290.668V144.18H288.948V137.16L283.408 144.18H282.007V134.18H283.728V141.2ZM301.456 134.18H303.316V144.18H301.616V136.92L298.436 142.04H298.216L295.036 136.92V144.18H293.316V134.18H295.176L298.316 139.24L301.456 134.18ZM314.252 135.9V134.18H315.992V144.18H314.252V142.46C313.399 143.78 312.139 144.44 310.472 144.44C309.059 144.44 307.866 143.933 306.892 142.92C305.906 141.893 305.412 140.646 305.412 139.18C305.412 137.726 305.906 136.486 306.892 135.46C307.879 134.433 309.072 133.92 310.472 133.92C312.139 133.92 313.399 134.58 314.252 135.9ZM310.692 142.76C311.706 142.76 312.552 142.42 313.232 141.74C313.912 141.033 314.252 140.18 314.252 139.18C314.252 138.166 313.912 137.32 313.232 136.64C312.552 135.946 311.706 135.6 310.692 135.6C309.692 135.6 308.852 135.946 308.172 136.64C307.492 137.32 307.152 138.166 307.152 139.18C307.152 140.18 307.492 141.033 308.172 141.74C308.852 142.42 309.692 142.76 310.692 142.76ZM319.549 134.18H326.969V144.18H325.229V135.86H321.289V139.94C321.289 141.54 320.969 142.68 320.329 143.36C319.689 144.026 318.749 144.3 317.509 144.18V142.54C318.202 142.633 318.715 142.48 319.049 142.08C319.382 141.666 319.549 140.94 319.549 139.9V134.18ZM331.345 137.78H333.825C334.825 137.78 335.652 138.08 336.305 138.68C336.972 139.266 337.305 140.033 337.305 140.98C337.305 141.926 336.972 142.7 336.305 143.3C335.638 143.886 334.812 144.18 333.825 144.18H329.605V134.18H331.345V137.78ZM331.345 142.56H333.825C334.332 142.56 334.752 142.413 335.085 142.12C335.418 141.826 335.585 141.446 335.585 140.98C335.585 140.513 335.412 140.133 335.065 139.84C334.732 139.533 334.318 139.38 333.825 139.38H331.345V142.56ZM346.095 138.34V134.18H347.835V144.18H346.095V140H340.915V144.18H339.175V134.18H340.915V138.34H346.095ZM352.224 137.78H354.704C355.704 137.78 356.531 138.08 357.184 138.68C357.851 139.266 358.184 140.033 358.184 140.98C358.184 141.926 357.851 142.7 357.184 143.3C356.517 143.886 355.691 144.18 354.704 144.18H350.484V134.18H352.224V137.78ZM359.484 144.18V134.18H361.224V144.18H359.484ZM352.224 142.56H354.704C355.211 142.56 355.631 142.413 355.964 142.12C356.297 141.826 356.464 141.446 356.464 140.98C356.464 140.513 356.291 140.133 355.944 139.84C355.611 139.533 355.197 139.38 354.704 139.38H352.224V142.56ZM370.923 132.68H365.523V131.16H370.923V132.68ZM365.603 141.2L371.143 134.18H372.543V144.18H370.823V137.16L365.283 144.18H363.882V134.18H365.603V141.2ZM385.711 133.92C387.111 133.92 388.304 134.433 389.291 135.46C390.278 136.486 390.771 137.726 390.771 139.18C390.771 140.646 390.278 141.893 389.291 142.92C388.318 143.933 387.124 144.44 385.711 144.44C384.058 144.44 382.798 143.78 381.931 142.46V148.18H380.191V134.18H381.931V135.9C382.798 134.58 384.058 133.92 385.711 133.92ZM385.491 142.76C386.491 142.76 387.331 142.42 388.011 141.74C388.691 141.033 389.031 140.18 389.031 139.18C389.031 138.166 388.691 137.32 388.011 136.64C387.331 135.946 386.491 135.6 385.491 135.6C384.478 135.6 383.631 135.946 382.951 136.64C382.271 137.32 381.931 138.166 381.931 139.18C381.931 140.18 382.271 141.033 382.951 141.74C383.631 142.42 384.478 142.76 385.491 142.76ZM401.127 135.9V134.18H402.867V144.18H401.127V142.46C400.274 143.78 399.014 144.44 397.347 144.44C395.934 144.44 394.741 143.933 393.767 142.92C392.781 141.893 392.287 140.646 392.287 139.18C392.287 137.726 392.781 136.486 393.767 135.46C394.754 134.433 395.947 133.92 397.347 133.92C399.014 133.92 400.274 134.58 401.127 135.9ZM397.567 142.76C398.581 142.76 399.427 142.42 400.107 141.74C400.787 141.033 401.127 140.18 401.127 139.18C401.127 138.166 400.787 137.32 400.107 136.64C399.427 135.946 398.581 135.6 397.567 135.6C396.567 135.6 395.727 135.946 395.047 136.64C394.367 137.32 394.027 138.166 394.027 139.18C394.027 140.18 394.367 141.033 395.047 141.74C395.727 142.42 396.567 142.76 397.567 142.76ZM410.904 139.06C412.01 139.526 412.564 140.32 412.564 141.44C412.564 142.306 412.224 143.026 411.544 143.6C410.864 144.16 409.924 144.44 408.724 144.44C406.724 144.44 405.384 143.64 404.704 142.04L406.164 141.18C406.537 142.273 407.397 142.82 408.744 142.82C409.397 142.82 409.91 142.68 410.284 142.4C410.657 142.12 410.844 141.746 410.844 141.28C410.844 140.88 410.69 140.553 410.384 140.3C410.09 140.046 409.69 139.92 409.184 139.92H407.724V138.34H408.804C409.31 138.34 409.704 138.22 409.984 137.98C410.264 137.726 410.404 137.386 410.404 136.96C410.404 136.52 410.237 136.173 409.904 135.92C409.57 135.653 409.124 135.52 408.564 135.52C407.444 135.52 406.684 135.993 406.284 136.94L404.864 136.12C405.57 134.653 406.804 133.92 408.564 133.92C409.63 133.92 410.484 134.2 411.124 134.76C411.777 135.306 412.104 135.993 412.104 136.82C412.104 137.833 411.704 138.58 410.904 139.06ZM422.589 134.18H424.449V144.18H422.749V136.92L419.569 142.04H419.349L416.169 136.92V144.18H414.449V134.18H416.309L419.449 139.24L422.589 134.18ZM436.705 139.98H428.325C428.498 140.86 428.905 141.553 429.545 142.06C430.185 142.553 430.985 142.8 431.945 142.8C433.265 142.8 434.225 142.313 434.825 141.34L436.305 142.18C435.318 143.686 433.852 144.44 431.905 144.44C430.332 144.44 429.038 143.946 428.025 142.96C427.038 141.946 426.545 140.686 426.545 139.18C426.545 137.66 427.032 136.406 428.005 135.42C428.978 134.42 430.238 133.92 431.785 133.92C433.252 133.92 434.445 134.44 435.365 135.48C436.298 136.493 436.765 137.733 436.765 139.2C436.765 139.453 436.745 139.713 436.705 139.98ZM431.785 135.56C430.865 135.56 430.092 135.82 429.465 136.34C428.852 136.86 428.472 137.566 428.325 138.46H435.005C434.858 137.54 434.492 136.826 433.905 136.32C433.318 135.813 432.612 135.56 431.785 135.56ZM444.285 133.92C445.685 133.92 446.879 134.433 447.865 135.46C448.852 136.486 449.345 137.726 449.345 139.18C449.345 140.646 448.852 141.893 447.865 142.92C446.892 143.933 445.699 144.44 444.285 144.44C442.632 144.44 441.372 143.78 440.505 142.46V148.18H438.765V134.18H440.505V135.9C441.372 134.58 442.632 133.92 444.285 133.92ZM444.065 142.76C445.065 142.76 445.905 142.42 446.585 141.74C447.265 141.033 447.605 140.18 447.605 139.18C447.605 138.166 447.265 137.32 446.585 136.64C445.905 135.946 445.065 135.6 444.065 135.6C443.052 135.6 442.205 135.946 441.525 136.64C440.845 137.32 440.505 138.166 440.505 139.18C440.505 140.18 440.845 141.033 441.525 141.74C442.205 142.42 443.052 142.76 444.065 142.76ZM464.862 144.18H455.822V142.66L460.762 137.62C462.082 136.3 462.742 135.166 462.742 134.22C462.742 133.446 462.502 132.84 462.022 132.4C461.555 131.946 460.968 131.72 460.262 131.72C458.942 131.72 457.982 132.346 457.382 133.6L455.822 132.68C456.248 131.786 456.848 131.106 457.622 130.64C458.395 130.16 459.268 129.92 460.242 129.92C461.428 129.92 462.448 130.306 463.302 131.08C464.168 131.866 464.602 132.906 464.602 134.2C464.602 135.613 463.768 137.153 462.102 138.82L458.522 142.38H464.862V144.18ZM475.733 142.46C474.8 143.78 473.473 144.44 471.753 144.44C470.033 144.44 468.706 143.78 467.773 142.46C466.826 141.126 466.353 139.366 466.353 137.18C466.353 134.993 466.826 133.233 467.773 131.9C468.706 130.58 470.033 129.92 471.753 129.92C473.473 129.92 474.8 130.58 475.733 131.9C476.68 133.233 477.153 134.993 477.153 137.18C477.153 139.366 476.68 141.126 475.733 142.46ZM468.213 137.18C468.213 138.913 468.52 140.253 469.133 141.2C469.746 142.146 470.62 142.62 471.753 142.62C472.886 142.62 473.76 142.146 474.373 141.2C475 140.253 475.313 138.913 475.313 137.18C475.313 135.446 475 134.106 474.373 133.16C473.76 132.2 472.886 131.72 471.753 131.72C470.62 131.72 469.746 132.193 469.133 133.14C468.52 134.086 468.213 135.433 468.213 137.18ZM488.331 142.46C487.397 143.78 486.071 144.44 484.351 144.44C482.631 144.44 481.304 143.78 480.371 142.46C479.424 141.126 478.951 139.366 478.951 137.18C478.951 134.993 479.424 133.233 480.371 131.9C481.304 130.58 482.631 129.92 484.351 129.92C486.071 129.92 487.397 130.58 488.331 131.9C489.277 133.233 489.751 134.993 489.751 137.18C489.751 139.366 489.277 141.126 488.331 142.46ZM480.811 137.18C480.811 138.913 481.117 140.253 481.731 141.2C482.344 142.146 483.217 142.62 484.351 142.62C485.484 142.62 486.357 142.146 486.971 141.2C487.597 140.253 487.911 138.913 487.911 137.18C487.911 135.446 487.597 134.106 486.971 133.16C486.357 132.2 485.484 131.72 484.351 131.72C483.217 131.72 482.344 132.193 481.731 133.14C481.117 134.086 480.811 135.433 480.811 137.18ZM500.928 142.46C499.995 143.78 498.668 144.44 496.948 144.44C495.228 144.44 493.902 143.78 492.968 142.46C492.022 141.126 491.548 139.366 491.548 137.18C491.548 134.993 492.022 133.233 492.968 131.9C493.902 130.58 495.228 129.92 496.948 129.92C498.668 129.92 499.995 130.58 500.928 131.9C501.875 133.233 502.348 134.993 502.348 137.18C502.348 139.366 501.875 141.126 500.928 142.46ZM493.408 137.18C493.408 138.913 493.715 140.253 494.328 141.2C494.942 142.146 495.815 142.62 496.948 142.62C498.082 142.62 498.955 142.146 499.568 141.2C500.195 140.253 500.508 138.913 500.508 137.18C500.508 135.446 500.195 134.106 499.568 133.16C498.955 132.2 498.082 131.72 496.948 131.72C495.815 131.72 494.942 132.193 494.328 133.14C493.715 134.086 493.408 135.433 493.408 137.18ZM514.426 139.02L518.246 144.18H516.206L513.406 140.4L510.586 144.18H508.546L512.386 139.04L508.766 134.18H510.826L513.406 137.66L515.986 134.18H518.026L514.426 139.02ZM533.019 139.78H534.719V141.52H533.019V144.18H531.159V141.52H524.019V139.78L529.039 130.18H531.039L526.019 139.78H531.159V135.82H533.019V139.78ZM545.421 142.46C544.487 143.78 543.161 144.44 541.441 144.44C539.721 144.44 538.394 143.78 537.461 142.46C536.514 141.126 536.041 139.366 536.041 137.18C536.041 134.993 536.514 133.233 537.461 131.9C538.394 130.58 539.721 129.92 541.441 129.92C543.161 129.92 544.487 130.58 545.421 131.9C546.367 133.233 546.841 134.993 546.841 137.18C546.841 139.366 546.367 141.126 545.421 142.46ZM537.901 137.18C537.901 138.913 538.207 140.253 538.821 141.2C539.434 142.146 540.307 142.62 541.441 142.62C542.574 142.62 543.447 142.146 544.061 141.2C544.687 140.253 545.001 138.913 545.001 137.18C545.001 135.446 544.687 134.106 544.061 133.16C543.447 132.2 542.574 131.72 541.441 131.72C540.307 131.72 539.434 132.193 538.821 133.14C538.207 134.086 537.901 135.433 537.901 137.18ZM558.018 142.46C557.085 143.78 555.758 144.44 554.038 144.44C552.318 144.44 550.992 143.78 550.058 142.46C549.112 141.126 548.638 139.366 548.638 137.18C548.638 134.993 549.112 133.233 550.058 131.9C550.992 130.58 552.318 129.92 554.038 129.92C555.758 129.92 557.085 130.58 558.018 131.9C558.965 133.233 559.438 134.993 559.438 137.18C559.438 139.366 558.965 141.126 558.018 142.46ZM550.498 137.18C550.498 138.913 550.805 140.253 551.418 141.2C552.032 142.146 552.905 142.62 554.038 142.62C555.172 142.62 556.045 142.146 556.658 141.2C557.285 140.253 557.598 138.913 557.598 137.18C557.598 135.446 557.285 134.106 556.658 133.16C556.045 132.2 555.172 131.72 554.038 131.72C552.905 131.72 552.032 132.193 551.418 133.14C550.805 134.086 550.498 135.433 550.498 137.18ZM567.176 133.92C568.576 133.92 569.769 134.433 570.756 135.46C571.743 136.486 572.236 137.726 572.236 139.18C572.236 140.646 571.743 141.893 570.756 142.92C569.783 143.933 568.589 144.44 567.176 144.44C565.523 144.44 564.263 143.78 563.396 142.46V148.18H561.656V134.18H563.396V135.9C564.263 134.58 565.523 133.92 567.176 133.92ZM566.956 142.76C567.956 142.76 568.796 142.42 569.476 141.74C570.156 141.033 570.496 140.18 570.496 139.18C570.496 138.166 570.156 137.32 569.476 136.64C568.796 135.946 567.956 135.6 566.956 135.6C565.943 135.6 565.096 135.946 564.416 136.64C563.736 137.32 563.396 138.166 563.396 139.18C563.396 140.18 563.736 141.033 564.416 141.74C565.096 142.42 565.943 142.76 566.956 142.76ZM578.469 139.02L582.289 144.18H580.249L577.449 140.4L574.629 144.18H572.589L576.429 139.04L572.809 134.18H574.869L577.449 137.66L580.029 134.18H582.069L578.469 139.02ZM279.717 168.7V170.28H277.897V168.7C275.897 168.553 274.29 168.006 273.077 167.06C271.877 166.1 271.277 164.806 271.277 163.18C271.277 161.553 271.877 160.26 273.077 159.3C274.29 158.353 275.897 157.806 277.897 157.66V156.08H279.717V157.66C281.743 157.806 283.35 158.353 284.537 159.3C285.75 160.26 286.357 161.553 286.357 163.18C286.357 164.806 285.75 166.1 284.537 167.06C283.35 168.006 281.743 168.553 279.717 168.7ZM279.717 159.36V167C281.25 166.893 282.43 166.52 283.257 165.88C284.083 165.226 284.497 164.326 284.497 163.18C284.497 162.033 284.083 161.14 283.257 160.5C282.43 159.846 281.25 159.466 279.717 159.36ZM274.357 160.5C273.53 161.14 273.117 162.033 273.117 163.18C273.117 164.326 273.53 165.22 274.357 165.86C275.183 166.5 276.363 166.873 277.897 166.98V159.36C276.363 159.466 275.183 159.846 274.357 160.5ZM296.649 168.92C295.635 169.933 294.389 170.44 292.909 170.44C291.429 170.44 290.182 169.933 289.169 168.92C288.155 167.906 287.649 166.66 287.649 165.18C287.649 163.7 288.155 162.453 289.169 161.44C290.182 160.426 291.429 159.92 292.909 159.92C294.389 159.92 295.635 160.426 296.649 161.44C297.675 162.466 298.189 163.713 298.189 165.18C298.189 166.646 297.675 167.893 296.649 168.92ZM292.909 168.74C293.909 168.74 294.749 168.4 295.429 167.72C296.109 167.04 296.449 166.193 296.449 165.18C296.449 164.166 296.109 163.32 295.429 162.64C294.749 161.96 293.909 161.62 292.909 161.62C291.922 161.62 291.089 161.96 290.409 162.64C289.729 163.32 289.389 164.166 289.389 165.18C289.389 166.193 289.729 167.04 290.409 167.72C291.089 168.4 291.922 168.74 292.909 168.74ZM305.76 159.92C307.16 159.92 308.353 160.433 309.34 161.46C310.327 162.486 310.82 163.726 310.82 165.18C310.82 166.646 310.327 167.893 309.34 168.92C308.367 169.933 307.173 170.44 305.76 170.44C304.107 170.44 302.847 169.78 301.98 168.46V174.18H300.24V160.18H301.98V161.9C302.847 160.58 304.107 159.92 305.76 159.92ZM305.54 168.76C306.54 168.76 307.38 168.42 308.06 167.74C308.74 167.033 309.08 166.18 309.08 165.18C309.08 164.166 308.74 163.32 308.06 162.64C307.38 161.946 306.54 161.6 305.54 161.6C304.527 161.6 303.68 161.946 303 162.64C302.32 163.32 301.98 164.166 301.98 165.18C301.98 166.18 302.32 167.033 303 167.74C303.68 168.42 304.527 168.76 305.54 168.76ZM321.036 160.18H322.896V170.18H321.196V162.92L318.016 168.04H317.796L314.616 162.92V170.18H312.896V160.18H314.756L317.896 165.24L321.036 160.18ZM333.832 161.9V160.18H335.572V170.18H333.832V168.46C332.979 169.78 331.719 170.44 330.052 170.44C328.639 170.44 327.446 169.933 326.472 168.92C325.486 167.893 324.992 166.646 324.992 165.18C324.992 163.726 325.486 162.486 326.472 161.46C327.459 160.433 328.652 159.92 330.052 159.92C331.719 159.92 332.979 160.58 333.832 161.9ZM330.272 168.76C331.286 168.76 332.132 168.42 332.812 167.74C333.492 167.033 333.832 166.18 333.832 165.18C333.832 164.166 333.492 163.32 332.812 162.64C332.132 161.946 331.286 161.6 330.272 161.6C329.272 161.6 328.432 161.946 327.752 162.64C327.072 163.32 326.732 164.166 326.732 165.18C326.732 166.18 327.072 167.033 327.752 167.74C328.432 168.42 329.272 168.76 330.272 168.76ZM337.089 160.18H345.649V161.86H342.249V170.18H340.509V161.86H337.089V160.18ZM359.654 164.88H352.354V163.2H359.654V164.88ZM371.286 170.44C370.26 170.44 369.36 170.226 368.586 169.8C367.826 169.36 367.266 168.74 366.906 167.94L368.486 167.02C368.913 168.086 369.846 168.62 371.286 168.62C372.193 168.62 372.893 168.406 373.386 167.98C373.893 167.54 374.146 166.906 374.146 166.08V156.18H375.986V166.08C375.986 167.48 375.54 168.56 374.646 169.32C373.753 170.066 372.633 170.44 371.286 170.44ZM378.799 156.18H383.879C385.159 156.18 386.232 156.613 387.099 157.48C387.965 158.346 388.399 159.413 388.399 160.68C388.399 161.946 387.965 163.013 387.099 163.88C386.232 164.746 385.159 165.18 383.879 165.18H380.659V170.18H378.799V156.18ZM380.659 163.44H383.879C384.665 163.44 385.305 163.18 385.799 162.66C386.305 162.113 386.559 161.453 386.559 160.68C386.559 159.88 386.305 159.22 385.799 158.7C385.292 158.18 384.652 157.92 383.879 157.92H380.659V163.44ZM396.998 163.24H403.998V164.08C403.998 165.906 403.371 167.426 402.118 168.64C400.865 169.84 399.205 170.44 397.138 170.44C395.005 170.44 393.238 169.74 391.838 168.34C390.451 166.913 389.758 165.193 389.758 163.18C389.758 161.166 390.451 159.453 391.838 158.04C393.238 156.626 394.991 155.92 397.098 155.92C398.378 155.92 399.565 156.233 400.658 156.86C401.765 157.486 402.598 158.3 403.158 159.3L401.558 160.24C401.158 159.48 400.551 158.873 399.738 158.42C398.925 157.953 398.038 157.72 397.078 157.72C395.465 157.72 394.151 158.246 393.138 159.3C392.111 160.353 391.598 161.646 391.598 163.18C391.598 164.713 392.111 166.006 393.138 167.06C394.178 168.1 395.518 168.62 397.158 168.62C398.531 168.62 399.651 168.286 400.518 167.62C401.398 166.94 401.938 166.04 402.138 164.92H396.998V163.24ZM405.664 168.12H407.664L406.364 172.98H404.864L405.664 168.12ZM420.483 170.18H418.323L414.303 156.18H416.263L419.463 167.7L422.863 156.18H424.743L428.143 167.7L431.343 156.18H433.303L429.283 170.18H427.123L423.803 159L420.483 170.18ZM437.163 163.98V168.42H443.663V170.18H435.303V156.18H443.563V157.94H437.163V162.24H443.063V163.98H437.163ZM453.908 162.92C454.562 163.24 455.075 163.686 455.448 164.26C455.822 164.833 456.008 165.486 456.008 166.22C456.008 167.34 455.615 168.28 454.828 169.04C454.042 169.8 453.082 170.18 451.948 170.18H445.908V156.18H451.508C452.615 156.18 453.542 156.546 454.288 157.28C455.048 158.013 455.428 158.92 455.428 160C455.428 161.253 454.922 162.226 453.908 162.92ZM451.508 157.92H447.768V162.2H451.508C452.095 162.2 452.588 161.993 452.988 161.58C453.388 161.166 453.588 160.66 453.588 160.06C453.588 159.473 453.382 158.973 452.968 158.56C452.568 158.133 452.082 157.92 451.508 157.92ZM447.768 168.44H451.948C452.575 168.44 453.102 168.22 453.528 167.78C453.955 167.34 454.168 166.8 454.168 166.16C454.168 165.533 453.948 165 453.508 164.56C453.095 164.12 452.575 163.9 451.948 163.9H447.768V168.44ZM458.213 156.18H463.293C464.573 156.18 465.646 156.613 466.513 157.48C467.38 158.346 467.813 159.413 467.813 160.68C467.813 161.946 467.38 163.013 466.513 163.88C465.646 164.746 464.573 165.18 463.293 165.18H460.073V170.18H458.213V156.18ZM460.073 163.44H463.293C464.08 163.44 464.72 163.18 465.213 162.66C465.72 162.113 465.973 161.453 465.973 160.68C465.973 159.88 465.72 159.22 465.213 158.7C464.706 158.18 464.066 157.92 463.293 157.92H460.073V163.44ZM468.438 168.12H470.438L469.138 172.98H467.638L468.438 168.12ZM479.616 167.2L485.156 160.18H486.556V170.18H484.836V163.16L479.296 170.18H477.896V160.18H479.616V167.2ZM490.125 160.18H497.545V170.18H495.805V161.86H491.865V165.94C491.865 167.54 491.545 168.68 490.905 169.36C490.265 170.026 489.325 170.3 488.085 170.18V168.54C488.778 168.633 489.291 168.48 489.625 168.08C489.958 167.666 490.125 166.94 490.125 165.9V160.18ZM501.901 167.2L507.441 160.18H508.841V170.18H507.121V163.16L501.581 170.18H500.181V160.18H501.901V167.2ZM516.67 156.18H521.75C523.03 156.18 524.103 156.613 524.97 157.48C525.837 158.346 526.27 159.413 526.27 160.68C526.27 161.946 525.837 163.013 524.97 163.88C524.103 164.746 523.03 165.18 521.75 165.18H518.53V170.18H516.67V156.18ZM518.53 163.44H521.75C522.537 163.44 523.177 163.18 523.67 162.66C524.177 162.113 524.43 161.453 524.43 160.68C524.43 159.88 524.177 159.22 523.67 158.7C523.163 158.18 522.523 157.92 521.75 157.92H518.53V163.44ZM537.167 166.62V156.18H539.027V170.18H537.527L530.327 159.72V170.18H528.467V156.18H529.967L537.167 166.62ZM548.521 163.24H555.521V164.08C555.521 165.906 554.895 167.426 553.641 168.64C552.388 169.84 550.728 170.44 548.661 170.44C546.528 170.44 544.761 169.74 543.361 168.34C541.975 166.913 541.281 165.193 541.281 163.18C541.281 161.166 541.975 159.453 543.361 158.04C544.761 156.626 546.515 155.92 548.621 155.92C549.901 155.92 551.088 156.233 552.181 156.86C553.288 157.486 554.121 158.3 554.681 159.3L553.081 160.24C552.681 159.48 552.075 158.873 551.261 158.42C550.448 157.953 549.561 157.72 548.601 157.72C546.988 157.72 545.675 158.246 544.661 159.3C543.635 160.353 543.121 161.646 543.121 163.18C543.121 164.713 543.635 166.006 544.661 167.06C545.701 168.1 547.041 168.62 548.681 168.62C550.055 168.62 551.175 168.286 552.041 167.62C552.921 166.94 553.461 166.04 553.661 164.92H548.521V163.24Z" fill="#A0A1A4"/>
<rect x="1.5" y="1.67969" width="824" height="199" rx="53.5" stroke="#DE755E" stroke-width="3" stroke-dasharray="15 15"/>
</svg>
