<svg width="315" height="235" viewBox="0 0 315 235" fill="none" xmlns="http://www.w3.org/2000/svg">
<path d="M314.643 205.793H0.357422V205.95H314.643V205.793Z" fill="#E0E0E0"/>
<path d="M266.939 214.613H260.27V214.77H266.939V214.613Z" fill="#E0E0E0"/>
<path d="M255.656 214.688H228.533V214.845H255.656V214.688Z" fill="#E0E0E0"/>
<path d="M195.007 213.191H149.234V213.349H195.007V213.191Z" fill="#E0E0E0"/>
<path d="M122.903 215.922H108.377V216.079H122.903V215.922Z" fill="#E0E0E0"/>
<path d="M74.4992 213.268H54.498V213.425H74.4992V213.268Z" fill="#E0E0E0"/>
<path d="M96.68 213.268H77.9863V213.425H96.68V213.268Z" fill="#E0E0E0"/>
<path d="M60.4862 210.521H41.3965V210.679H60.4862V210.521Z" fill="#E0E0E0"/>
<path d="M149.327 177.76H27.9559C27.0051 177.758 26.0938 177.379 25.4221 176.706C24.7503 176.033 24.373 175.121 24.373 174.171V3.55771C24.3813 2.61235 24.7623 1.70844 25.4331 1.04231C26.1039 0.376173 27.0105 0.00161944 27.9559 0H149.327C150.278 0 151.191 0.37814 151.864 1.05123C152.538 1.72433 152.916 2.63724 152.916 3.58914V174.171C152.916 175.122 152.538 176.035 151.864 176.708C151.191 177.382 150.278 177.76 149.327 177.76ZM27.9559 0.125715C27.0468 0.12738 26.1754 0.489697 25.5332 1.13314C24.8909 1.77658 24.5302 2.64857 24.5302 3.55771V174.171C24.5302 175.08 24.8909 175.952 25.5332 176.595C26.1754 177.239 27.0468 177.601 27.9559 177.603H149.327C150.236 177.601 151.108 177.239 151.751 176.595C152.395 175.952 152.757 175.08 152.759 174.171V3.55771C152.757 2.648 152.395 1.77602 151.751 1.13276C151.108 0.489493 150.236 0.127376 149.327 0.125715H27.9559Z" fill="#E0E0E0"/>
<path d="M285.294 177.76H163.917C162.966 177.758 162.054 177.379 161.381 176.707C160.708 176.034 160.33 175.122 160.328 174.171V3.55771C160.338 2.61178 160.72 1.70787 161.392 1.04191C162.064 0.375953 162.971 0.00160178 163.917 0H285.294C286.238 0.00327139 287.143 0.378556 287.813 1.04451C288.482 1.71047 288.862 2.61344 288.871 3.55771V174.171C288.871 175.12 288.494 176.031 287.824 176.704C287.154 177.377 286.244 177.756 285.294 177.76ZM163.917 0.125715C163.008 0.127376 162.136 0.489493 161.492 1.13276C160.849 1.77602 160.487 2.648 160.485 3.55771V174.171C160.487 175.08 160.849 175.952 161.492 176.595C162.136 177.239 163.008 177.601 163.917 177.603H285.294C286.204 177.601 287.076 177.239 287.719 176.595C288.362 175.952 288.725 175.08 288.726 174.171V3.55771C288.725 2.648 288.362 1.77602 287.719 1.13276C287.076 0.489493 286.204 0.127376 285.294 0.125715H163.917Z" fill="#E0E0E0"/>
<path d="M112.451 144.326C112.796 144.326 113.142 144.326 113.494 144.358C115.684 144.512 117.813 145.15 119.728 146.224C121.643 147.298 123.297 148.783 124.57 150.571C125.844 152.36 126.706 154.408 127.095 156.569C127.484 158.73 127.39 160.95 126.82 163.07C125.196 169.402 124.412 175.919 124.488 182.455V201.488C124.488 202.155 124.223 202.795 123.751 203.266C123.28 203.738 122.64 204.003 121.974 204.003H61.5742V144.326H112.451Z" fill="#E6E6E6"/>
<path d="M46.6954 159.205C46.6973 157.087 47.1512 154.994 48.0268 153.066C48.9024 151.138 50.1795 149.419 51.7727 148.024C53.366 146.629 55.2386 145.59 57.2656 144.977C59.2925 144.364 61.427 144.191 63.5263 144.469C65.6256 144.746 67.6415 145.469 69.439 146.589C71.2366 147.708 72.7744 149.199 73.9498 150.96C75.1252 152.722 75.911 154.714 76.2547 156.803C76.5983 158.893 76.492 161.032 75.9428 163.077C74.319 169.409 73.5349 175.926 73.6108 182.462V201.495C73.6108 202.162 73.3459 202.802 72.8744 203.273C72.4028 203.745 71.7633 204.009 71.0965 204.009H52.0382C51.3714 204.009 50.7319 203.745 50.2604 203.273C49.7889 202.802 49.524 202.162 49.524 201.495V181.343C49.579 175.214 48.8051 169.106 47.2234 163.184C46.8683 161.888 46.6907 160.549 46.6954 159.205Z" fill="#F0F0F0"/>
<path d="M82.0766 203.99H158.467V167.766H82.0766V203.99Z" fill="#E6E6E6"/>
<path d="M203.285 175.957H108.541V135.641C108.541 132.653 109.728 129.788 111.84 127.676C113.952 125.563 116.817 124.377 119.805 124.377H192.04C195.024 124.382 197.884 125.57 199.993 127.682C202.101 129.794 203.285 132.656 203.285 135.641V175.957Z" fill="#E0E0E0"/>
<path d="M189.104 175.957H94.3654V135.1C94.3654 132.258 95.4945 129.532 97.5044 127.522C99.5142 125.512 102.24 124.383 105.083 124.383H178.386C181.229 124.383 183.955 125.512 185.965 127.522C187.974 129.532 189.104 132.258 189.104 135.1V175.957Z" fill="#F0F0F0"/>
<path d="M154.916 179.207H82.7753C81.9084 179.207 81.0771 178.863 80.4641 178.25C79.8511 177.637 79.5068 176.805 79.5068 175.938V167.723C79.5068 166.856 79.8511 166.025 80.4641 165.412C81.0771 164.799 81.9084 164.455 82.7753 164.455H154.916C155.175 164.455 155.423 164.557 155.605 164.74C155.788 164.923 155.891 165.17 155.891 165.429V178.233C155.891 178.491 155.788 178.739 155.605 178.922C155.423 179.104 155.175 179.207 154.916 179.207Z" fill="#E0E0E0"/>
<path d="M208.626 144.326C208.972 144.326 209.324 144.326 209.676 144.358C211.866 144.512 213.995 145.15 215.91 146.224C217.825 147.298 219.478 148.783 220.752 150.571C222.026 152.36 222.888 154.408 223.277 156.569C223.666 158.73 223.572 160.95 223.001 163.07C221.372 169.401 220.586 175.919 220.663 182.455V201.488C220.663 202.155 220.398 202.795 219.927 203.266C219.455 203.738 218.816 204.003 218.149 204.003H157.756V144.326H208.626Z" fill="#E6E6E6"/>
<path d="M142.873 159.203C142.896 155.355 144.408 151.665 147.093 148.907C149.778 146.15 153.427 144.539 157.273 144.414C161.12 144.289 164.865 145.658 167.724 148.235C170.582 150.812 172.332 154.397 172.605 158.235C172.709 159.864 172.548 161.499 172.127 163.075C170.503 169.407 169.719 175.925 169.795 182.461V201.494C169.795 202.161 169.53 202.8 169.058 203.272C168.587 203.743 167.947 204.008 167.281 204.008H148.216C147.549 204.008 146.91 203.743 146.438 203.272C145.967 202.8 145.702 202.161 145.702 201.494V181.342C145.758 175.212 144.982 169.103 143.395 163.182C143.042 161.886 142.867 160.547 142.873 159.203Z" fill="#F0F0F0"/>
<path d="M62.6365 205.801H207.566C207.804 205.801 208.04 205.755 208.261 205.665C208.481 205.574 208.681 205.441 208.85 205.273C209.019 205.104 209.153 204.904 209.244 204.684C209.335 204.464 209.382 204.228 209.382 203.99H60.8262C60.8262 204.47 61.0169 204.931 61.3564 205.27C61.6959 205.61 62.1563 205.801 62.6365 205.801Z" fill="#E0E0E0"/>
<path d="M259.7 203.229H272.736V135.085H259.7V203.229Z" fill="#E6E6E6"/>
<path d="M213.412 205.793H270.234V203.235H213.412V205.793Z" fill="#E6E6E6"/>
<path d="M259.7 135.086H210.91V203.229H259.7V135.086Z" fill="#F0F0F0"/>
<path d="M257.851 137.33H212.758V180.689H257.851V137.33Z" fill="#E6E6E6"/>
<path d="M257.851 182.531H212.758V198.157H257.851V182.531Z" fill="#E6E6E6"/>
<path d="M222.268 137.33H212.758V180.689H222.268V137.33Z" fill="#E0E0E0"/>
<path d="M222.268 182.531H212.758V198.157H222.268V182.531Z" fill="#E0E0E0"/>
<path d="M108.065 103.23L221.107 103.23V21.2272L108.065 21.2272L108.065 103.23Z" fill="#E0E0E0"/>
<path d="M99.969 103.23L219.039 103.23V21.2272L99.969 21.2272L99.969 103.23Z" fill="#F0F0F0"/>
<path d="M216.518 100.703V23.7539L102.501 23.7539V100.703H216.518Z" fill="#FAFAFA"/>
<path d="M164.448 62.8121C166.222 51.7686 158.709 41.3773 147.665 39.6025C136.622 37.8277 126.231 45.3414 124.456 56.3849C122.681 67.4284 130.195 77.8196 141.238 79.5944C152.282 81.3692 162.673 73.8555 164.448 62.8121Z" fill="#E0E0E0"/>
<path d="M111.119 82.9708C112.961 80.6451 116.657 78.8537 119.391 78.9668C119.794 78.9523 120.197 79.0181 120.574 79.1606C120.952 79.303 121.298 79.5192 121.591 79.7965C126.582 76.9051 132.327 75.1325 137.073 75.3274C139.486 75.4217 141.359 76.0188 142.654 76.9931C148.016 72.6308 154.849 69.532 159.808 69.532C162.624 69.532 164.371 70.5377 164.994 72.2034C170.494 69.2743 176.145 67.4766 180.708 67.4766C187.974 67.4766 190.331 72.0463 187.358 78.4703C188.553 79.6834 194.273 81.3742 194.046 83.3982H110.805C110.905 83.2411 110.987 83.0965 111.119 82.9708Z" fill="#F0F0F0"/>
<path d="M139.776 53.4673C140.114 53.4535 140.45 53.5232 140.755 53.6701C141.06 53.817 141.323 54.0366 141.523 54.3096C145.76 51.3741 150.537 49.5702 154.384 49.7713C156.027 49.7649 157.615 50.3672 158.84 51.4622C163.442 47.0622 169.187 43.9193 173.222 43.9193C175.523 43.9193 176.893 44.9376 177.302 46.6284C181.947 43.6553 186.648 41.8262 190.37 41.8262C194.971 41.8262 197.007 44.6359 196.372 48.9479C198.591 47.6907 200.772 46.9553 202.545 46.9553C205.003 46.9553 206.159 48.3696 205.958 50.5947C206.172 50.5947 206.385 50.5947 206.587 50.6262C210.358 50.997 211.779 53.8696 209.975 57.157H133.088C134.772 54.9759 137.67 53.3604 139.776 53.4673Z" fill="#F0F0F0"/>
<path d="M77.5946 54.1991C79.2865 43.1427 71.695 32.8081 60.6385 31.1162C49.5821 29.4243 39.2475 37.0158 37.5556 48.0723C35.8637 59.1288 43.4552 69.4633 54.5117 71.1552C65.5682 72.8471 75.9027 65.2556 77.5946 54.1991Z" fill="#E0E0E0"/>
<path d="M76.4106 54.357C78.1854 43.3135 70.6716 32.9223 59.6282 31.1474C48.5847 29.3726 38.1935 36.8864 36.4187 47.9298C34.6438 58.9733 42.1576 69.3645 53.201 71.1394C64.2445 72.9142 74.6358 65.4004 76.4106 54.357Z" fill="#F0F0F0"/>
<path d="M74.1202 51.127C74.1265 55.3179 72.6483 59.3757 69.9476 62.5804C67.247 65.7851 63.4985 67.9297 59.3672 68.6338C55.2359 69.3379 50.9887 68.5559 47.379 66.4266C43.7693 64.2973 41.0305 60.9583 39.6483 57.0018C38.2662 53.0454 38.33 48.7273 39.8286 44.8134C41.3271 40.8996 44.1635 37.643 47.8346 35.6214C51.5056 33.5998 55.7741 32.9437 59.8828 33.7697C63.9915 34.5956 67.6749 36.8501 70.2796 40.1333L70.3299 40.1899C72.7903 43.304 74.126 47.1583 74.1202 51.127Z" fill="#E0E0E0"/>
<path d="M74.1186 51.1264C74.1135 54.6969 73.0295 58.1824 71.0087 61.126C68.9879 64.0696 66.1248 66.3338 62.7947 67.6216C59.4646 68.9095 55.823 69.1609 52.3475 68.3429C48.872 67.525 45.7248 65.6757 43.3187 63.0378C40.4804 59.4373 39.1493 54.8763 39.6055 50.3143C40.0616 45.7524 42.2694 41.5452 45.7643 38.578C49.2593 35.6107 53.7689 34.1146 58.3444 34.4046C62.9199 34.6946 67.2045 36.748 70.2969 40.1327L70.3472 40.1893C72.8009 43.3058 74.1299 47.1599 74.1186 51.1264Z" fill="#FAFAFA"/>
<path d="M56.797 52.843C56.5604 52.8406 56.3294 52.7715 56.1303 52.6436C55.9313 52.5157 55.7724 52.3343 55.6719 52.1201L51.1587 42.4904C51.0849 42.3406 51.0417 42.1775 51.0316 42.0107C51.0215 41.844 51.0448 41.6769 51.1 41.5192C51.1553 41.3615 51.2414 41.2164 51.3533 41.0924C51.4653 40.9684 51.6008 40.868 51.7521 40.797C51.9033 40.7259 52.0671 40.6858 52.2341 40.6788C52.401 40.6719 52.5676 40.6983 52.7242 40.7564C52.8809 40.8146 53.0243 40.9034 53.1462 41.0177C53.2681 41.1319 53.366 41.2694 53.4341 41.4219L57.4319 49.9704L63.2084 47.6322C63.5177 47.5071 63.8639 47.5101 64.171 47.6403C64.4781 47.7706 64.7208 48.0175 64.8458 48.3267C64.9709 48.636 64.9679 48.9822 64.8377 49.2893C64.7074 49.5964 64.4605 49.8391 64.1513 49.9642L57.2684 52.7487C57.1188 52.8102 56.9587 52.8422 56.797 52.843Z" fill="#E0E0E0"/>
<path d="M234.475 164.341C239.164 164.97 242.068 154.787 231.709 146.15C232.3 156.151 226.291 163.21 234.475 164.341Z" fill="#F0F0F0"/>
<path d="M237.429 170.784C244.236 166.013 239.579 149.35 218.521 150.556C227.629 162.801 225.568 179.1 237.429 170.784Z" fill="#F0F0F0"/>
<path d="M235.027 170.67C230.508 165.798 236.945 153.541 253.212 158.017C244.029 166.088 242.916 179.143 235.027 170.67Z" fill="#F0F0F0"/>
<path d="M228.027 180.689H242.012L243.068 171.393H226.971L228.027 180.689Z" fill="#E0E0E0"/>
<path d="M225.933 173.053H244.111V171.004H225.933V173.053Z" fill="#E0E0E0"/>
<path d="M157.5 234.18C224.809 234.18 279.374 230.994 279.374 227.065C279.374 223.135 224.809 219.949 157.5 219.949C90.1916 219.949 35.627 223.135 35.627 227.065C35.627 230.994 90.1916 234.18 157.5 234.18Z" fill="#F5F5F5"/>
<path d="M182.645 98.3341C183.184 96.7985 184.177 95.4632 185.493 94.5056C186.809 93.5479 188.385 93.0132 190.012 92.9724H253.673C254.551 92.9516 255.423 93.1233 256.228 93.4752C257.033 93.8271 257.751 94.3509 258.332 95.0097C258.913 95.6685 259.343 96.4464 259.591 97.2889C259.84 98.1314 259.901 99.018 259.77 99.8867L245.621 220.151C245.365 222.033 244.447 223.763 243.031 225.03C241.616 226.297 239.795 227.018 237.896 227.065H78.2392C77.3607 227.087 76.4882 226.916 75.6829 226.565C74.8775 226.213 74.159 225.689 73.5779 225.03C72.9967 224.371 72.5669 223.593 72.3189 222.75C72.0708 221.907 72.0105 221.02 72.142 220.151L84.198 117.776C84.4543 115.893 85.3725 114.164 86.788 112.897C88.2036 111.63 90.024 110.908 91.9231 110.861H165.466C172.958 110.861 180.093 105.67 182.645 98.3341Z" fill="#DE755E"/>
<path opacity="0.1" d="M182.645 98.3341C183.184 96.7985 184.177 95.4632 185.493 94.5056C186.809 93.5479 188.385 93.0132 190.012 92.9724H253.673C254.551 92.9516 255.423 93.1233 256.228 93.4752C257.033 93.8271 257.751 94.3509 258.332 95.0097C258.913 95.6685 259.343 96.4464 259.591 97.2889C259.84 98.1314 259.901 99.018 259.77 99.8867L245.621 220.151C245.365 222.033 244.447 223.763 243.031 225.03C241.616 226.297 239.795 227.018 237.896 227.065H78.2392C77.3607 227.087 76.4882 226.916 75.6829 226.565C74.8775 226.213 74.159 225.689 73.5779 225.03C72.9967 224.371 72.5669 223.593 72.3189 222.75C72.0708 221.907 72.0105 221.02 72.142 220.151L84.198 117.776C84.4543 115.893 85.3725 114.164 86.788 112.897C88.2036 111.63 90.024 110.908 91.9231 110.861H165.466C172.958 110.861 180.093 105.67 182.645 98.3341Z" fill="#FAFAFA"/>
<path d="M125.735 45.0893L39.7559 105.047L96.5063 186.427L182.485 126.469L125.735 45.0893Z" fill="#DE755E"/>
<path opacity="0.8" d="M125.735 45.0893L39.7559 105.047L96.5063 186.427L182.485 126.469L125.735 45.0893Z" fill="#FAFAFA"/>
<path d="M125.506 46.355L39.5273 106.312L96.2778 187.693L182.257 127.735L125.506 46.355Z" fill="#FAFAFA"/>
<path d="M123.752 57.072L50.1777 108.379L89.2673 164.433L162.841 113.126L123.752 57.072Z" fill="#DE755E"/>
<path opacity="0.8" d="M123.752 57.072L50.1777 108.379L89.2673 164.433L162.841 113.126L123.752 57.072Z" fill="#FAFAFA"/>
<path d="M95.5854 105.324C97.0081 107.364 97.7933 109.782 97.8416 112.269C97.8899 114.756 97.1991 117.202 95.8566 119.297C94.5141 121.391 92.5804 123.04 90.3002 124.035C88.0199 125.03 85.4958 125.326 83.0472 124.886C80.5987 124.445 78.3359 123.288 76.5452 121.561C74.7546 119.834 73.5166 117.615 72.9881 115.184C72.4596 112.752 72.6643 110.219 73.5762 107.905C74.4882 105.59 76.0664 103.598 78.1111 102.181C80.8466 100.285 84.2222 99.5508 87.4979 100.14C90.7736 100.729 93.682 102.593 95.5854 105.324Z" fill="#DE755E"/>
<path opacity="0.1" d="M95.5854 105.324C97.0081 107.364 97.7933 109.782 97.8416 112.269C97.8899 114.756 97.1991 117.202 95.8566 119.297C94.5141 121.391 92.5804 123.04 90.3002 124.035C88.0199 125.03 85.4958 125.326 83.0472 124.886C80.5987 124.445 78.3359 123.288 76.5452 121.561C74.7546 119.834 73.5166 117.615 72.9881 115.184C72.4596 112.752 72.6643 110.219 73.5762 107.905C74.4882 105.59 76.0664 103.598 78.1111 102.181C80.8466 100.285 84.2222 99.5508 87.4979 100.14C90.7736 100.729 93.682 102.593 95.5854 105.324Z" fill="#FAFAFA"/>
<path d="M142.515 99.7851C140.621 97.8982 138.335 96.451 135.819 95.5461C133.303 94.6412 130.619 94.3009 127.957 94.5491C127.875 94.436 127.812 94.3103 127.731 94.1908C125.296 90.656 121.692 88.0938 117.553 86.9555C113.415 85.8172 109.007 86.1757 105.107 87.968C101.207 89.7603 98.0646 92.8714 96.2331 96.7533C94.4016 100.635 93.9987 105.039 95.0954 109.189C94.546 109.447 94.0184 109.75 93.5177 110.094C91.7254 111.34 90.348 113.095 89.5636 115.132C88.7793 117.169 88.6239 119.395 89.1177 121.521C86.7185 122.462 84.6742 124.13 83.272 126.292C81.8311 128.441 81.0498 130.965 81.0241 133.552C80.9984 136.14 81.7295 138.678 83.1274 140.856C84.0904 142.302 85.3325 143.542 86.7809 144.502C88.2294 145.461 89.8549 146.122 91.5622 146.446C93.2695 146.769 95.0242 146.748 96.7232 146.384C98.4223 146.02 100.031 145.32 101.456 144.326L122.608 129.573L141.987 116.059C144.141 114.587 145.63 112.326 146.13 109.765C146.63 107.204 146.101 104.549 144.658 102.375L144.602 102.287C143.983 101.392 143.285 100.554 142.515 99.7851Z" fill="#DE755E"/>
<path opacity="0.3" d="M142.515 99.7851C140.621 97.8982 138.335 96.451 135.819 95.5461C133.303 94.6412 130.619 94.3009 127.957 94.5491C127.875 94.436 127.812 94.3103 127.731 94.1908C125.296 90.656 121.692 88.0938 117.553 86.9555C113.415 85.8172 109.007 86.1757 105.107 87.968C101.207 89.7603 98.0646 92.8714 96.2331 96.7533C94.4016 100.635 93.9987 105.039 95.0954 109.189C94.546 109.447 94.0184 109.75 93.5177 110.094C91.7254 111.34 90.348 113.095 89.5636 115.132C88.7793 117.169 88.6239 119.395 89.1177 121.521C86.7185 122.462 84.6742 124.13 83.272 126.292C81.8311 128.441 81.0498 130.965 81.0241 133.552C80.9984 136.14 81.7295 138.678 83.1274 140.856C84.0904 142.302 85.3325 143.542 86.7809 144.502C88.2294 145.461 89.8549 146.122 91.5622 146.446C93.2695 146.769 95.0242 146.748 96.7232 146.384C98.4223 146.02 100.031 145.32 101.456 144.326L122.608 129.573L141.987 116.059C144.141 114.587 145.63 112.326 146.13 109.765C146.63 107.204 146.101 104.549 144.658 102.375L144.602 102.287C143.983 101.392 143.285 100.554 142.515 99.7851Z" fill="black"/>
<g style="mix-blend-mode:multiply">
<path d="M128.448 59.4291L40.3496 116.227L94.109 199.613L182.208 142.815L128.448 59.4291Z" fill="#DE755E"/>
</g>
<path opacity="0.8" d="M128.448 59.4291L40.3496 116.227L94.109 199.613L182.208 142.815L128.448 59.4291Z" fill="#FAFAFA"/>
<path d="M128.183 60.6947L40.084 117.492L93.8433 200.878L181.942 144.081L128.183 60.6947Z" fill="#FAFAFA"/>
<path d="M126.046 71.3426L50.6582 119.945L87.6876 177.382L163.075 128.779L126.046 71.3426Z" fill="#DE755E"/>
<path opacity="0.8" d="M126.046 71.3426L50.6582 119.945L87.6876 177.382L163.075 128.779L126.046 71.3426Z" fill="#FAFAFA"/>
<path d="M97.8495 127.964C99.2973 121.187 94.9777 114.521 88.2015 113.073C81.4254 111.625 74.7586 115.945 73.3108 122.721C71.8631 129.497 76.1826 136.164 82.9588 137.612C89.735 139.059 96.4018 134.74 97.8495 127.964Z" fill="#DE755E"/>
<path opacity="0.1" d="M97.8495 127.964C99.2973 121.187 94.9777 114.521 88.2015 113.073C81.4254 111.625 74.7586 115.945 73.3108 122.721C71.8631 129.497 76.1826 136.164 82.9588 137.612C89.735 139.059 96.4018 134.74 97.8495 127.964Z" fill="#FAFAFA"/>
<path d="M143.231 114.727C141.405 112.77 139.172 111.24 136.689 110.243C134.205 109.247 131.533 108.81 128.862 108.963C128.786 108.837 128.73 108.711 128.648 108.592C126.341 104.97 122.83 102.28 118.734 100.993C114.637 99.7071 110.218 99.9083 106.256 101.561C102.293 103.214 99.0408 106.213 97.0727 110.029C95.1045 113.845 94.5466 118.233 95.4971 122.42C94.9357 122.655 94.3952 122.936 93.8817 123.263C92.0493 124.444 90.6127 126.147 89.7568 128.153C88.9009 130.158 88.665 132.374 89.0794 134.514C86.6462 135.362 84.5416 136.954 83.064 139.065C81.5455 141.16 80.6727 143.653 80.5532 146.237C80.4337 148.821 81.0727 151.384 82.3914 153.61C83.299 155.093 84.4936 156.379 85.9051 157.394C87.3167 158.408 88.9167 159.131 90.6113 159.518C92.3059 159.906 94.0608 159.951 95.7731 159.651C97.4854 159.351 99.1204 158.712 100.582 157.771L122.299 143.767L142.162 130.963C144.363 129.565 145.927 127.358 146.515 124.818C147.103 122.278 146.668 119.608 145.305 117.386L145.242 117.298C144.653 116.38 143.979 115.52 143.231 114.727Z" fill="#DE755E"/>
<path opacity="0.3" d="M143.231 114.727C141.405 112.77 139.172 111.24 136.689 110.243C134.205 109.247 131.533 108.81 128.862 108.963C128.786 108.837 128.73 108.711 128.648 108.592C126.341 104.97 122.83 102.28 118.734 100.993C114.637 99.7071 110.218 99.9083 106.256 101.561C102.293 103.214 99.0408 106.213 97.0727 110.029C95.1045 113.845 94.5466 118.233 95.4971 122.42C94.9357 122.655 94.3952 122.936 93.8817 123.263C92.0493 124.444 90.6127 126.147 89.7568 128.153C88.9009 130.158 88.665 132.374 89.0794 134.514C86.6462 135.362 84.5416 136.954 83.064 139.065C81.5455 141.16 80.6727 143.653 80.5532 146.237C80.4337 148.821 81.0727 151.384 82.3914 153.61C83.299 155.093 84.4936 156.379 85.9051 157.394C87.3167 158.408 88.9167 159.131 90.6113 159.518C92.3059 159.906 94.0608 159.951 95.7731 159.651C97.4854 159.351 99.1204 158.712 100.582 157.771L122.299 143.767L142.162 130.963C144.363 129.565 145.927 127.358 146.515 124.818C147.103 122.278 146.668 119.608 145.305 117.386L145.242 117.298C144.653 116.38 143.979 115.52 143.231 114.727Z" fill="black"/>
<g style="mix-blend-mode:multiply">
<path d="M207.221 69.8282L103.025 81.2578L113.844 179.88L218.039 168.45L207.221 69.8282Z" fill="#DE755E"/>
</g>
<path opacity="0.8" d="M207.221 69.8282L103.025 81.2578L113.844 179.88L218.039 168.45L207.221 69.8282Z" fill="#FAFAFA"/>
<path d="M206.41 70.834L102.215 82.2637L113.033 180.886L217.228 169.456L206.41 70.834Z" fill="#FAFAFA"/>
<path d="M199.742 79.403L110.58 89.1836L118.032 157.114L207.194 147.334L199.742 79.403Z" fill="#DE755E"/>
<path opacity="0.8" d="M199.742 79.403L110.58 89.1836L118.032 157.114L207.194 147.334L199.742 79.403Z" fill="#FAFAFA"/>
<path d="M206.93 144.848L207.2 147.331L160.887 152.416L171.943 139.304L183.264 125.865L206.93 144.848Z" fill="#DE755E"/>
<path opacity="0.3" d="M206.93 144.848L207.2 147.331L160.887 152.416L171.943 139.304L183.264 125.865L206.93 144.848Z" fill="black"/>
<path d="M187.15 149.53L118.045 157.111L117.441 151.649L144.564 120.893L171.945 139.303L187.15 149.53Z" fill="#DE755E"/>
<path opacity="0.3" d="M187.15 149.53L118.045 157.111L117.441 151.649L144.564 120.893L171.945 139.303L187.15 149.53Z" fill="black"/>
<path d="M178.657 104.639C178.902 98.7812 174.351 93.8339 168.493 93.5894C162.635 93.3449 157.687 97.8957 157.443 103.754C157.198 109.612 161.749 114.56 167.607 114.804C173.466 115.049 178.413 110.498 178.657 104.639Z" fill="#DE755E"/>
<path opacity="0.1" d="M178.657 104.639C178.902 98.7812 174.351 93.8339 168.493 93.5894C162.635 93.3449 157.687 97.8957 157.443 103.754C157.198 109.612 161.749 114.56 167.607 114.804C173.466 115.049 178.413 110.498 178.657 104.639Z" fill="#FAFAFA"/>
<g style="mix-blend-mode:multiply" opacity="0.7">
<path d="M155.522 123.439C155.949 120.736 158.533 118.812 161.757 118.812H225.438C229.253 118.812 232.635 121.484 232.981 124.778L241.517 221.1C241.875 224.393 239.065 227.065 235.231 227.065H75.574C71.7523 227.065 68.3706 224.393 68.0311 221.1L61.1734 140.209C60.8151 136.915 63.6186 134.25 67.4591 134.25H141.002C148.482 134.25 154.522 129.768 155.522 123.439Z" fill="#DE755E"/>
</g>
</svg>
