<svg width="24" height="24" viewBox="0 0 24 24" fill="none" xmlns="http://www.w3.org/2000/svg">
<path fill-rule="evenodd" clip-rule="evenodd" d="M18.1896 6.00291L15.6 2.55004C15.3514 2.21867 14.8813 2.15152 14.55 2.40004C14.2186 2.64857 14.1514 3.11867 14.4 3.45004L16.3124 6H7.68749L9.59996 3.45004C9.84848 3.11867 9.78133 2.64857 9.44996 2.40004C9.11859 2.15152 8.64848 2.21867 8.39996 2.55004L5.81025 6.00299C3.91215 6.07606 2.4048 7.48131 2.07031 9.25H21.9315C21.5969 7.48072 20.0886 6.07511 18.1896 6.00291ZM20.2829 18.808C19.903 20.6666 18.2815 22 16.4011 22H7.60066C5.7203 22 4.09876 20.6666 3.71893 18.808L2.08401 10.808C2.08006 10.7887 2.07625 10.7693 2.07258 10.75H21.9292C21.9255 10.7693 21.9217 10.7887 21.9178 10.808L20.2829 18.808ZM9 13.25C9.41421 13.25 9.75 13.5858 9.75 14L9.75 18C9.75 18.4142 9.41421 18.75 9 18.75C8.58579 18.75 8.25 18.4142 8.25 18L8.25 14C8.25 13.5858 8.58579 13.25 9 13.25ZM15.75 14C15.75 13.5858 15.4142 13.25 15 13.25C14.5858 13.25 14.25 13.5858 14.25 14V18C14.25 18.4142 14.5858 18.75 15 18.75C15.4142 18.75 15.75 18.4142 15.75 18V14Z" fill="#383742"/>
</svg>
