<svg width="810" height="221" viewBox="0 0 810 221" fill="none" xmlns="http://www.w3.org/2000/svg">
<path d="M421.5 68.6797C421.5 69.0444 421.355 69.3941 421.097 69.652C420.839 69.9098 420.49 70.0547 420.125 70.0547H406.375V83.8047C406.375 84.1694 406.23 84.5191 405.972 84.777C405.714 85.0348 405.365 85.1797 405 85.1797C404.635 85.1797 404.286 85.0348 404.028 84.777C403.77 84.5191 403.625 84.1694 403.625 83.8047V70.0547H389.875C389.51 70.0547 389.161 69.9098 388.903 69.652C388.645 69.3941 388.5 69.0444 388.5 68.6797C388.5 68.315 388.645 67.9653 388.903 67.7074C389.161 67.4496 389.51 67.3047 389.875 67.3047H403.625V53.5547C403.625 53.19 403.77 52.8403 404.028 52.5824C404.286 52.3246 404.635 52.1797 405 52.1797C405.365 52.1797 405.714 52.3246 405.972 52.5824C406.23 52.8403 406.375 53.19 406.375 53.5547V67.3047H420.125C420.49 67.3047 420.839 67.4496 421.097 67.7074C421.355 67.9653 421.5 68.315 421.5 68.6797Z" fill="#DE755E"/>
<path d="M259.091 113.26C260.611 113.913 261.371 115.053 261.371 116.68C261.371 117.88 260.918 118.86 260.011 119.62C259.118 120.38 257.931 120.76 256.451 120.76C255.144 120.76 254.071 120.473 253.231 119.9C252.404 119.327 251.818 118.54 251.471 117.54L253.051 116.64C253.464 118.213 254.598 119 256.451 119C257.411 119 258.158 118.787 258.691 118.36C259.238 117.933 259.511 117.353 259.511 116.62C259.511 115.887 259.258 115.307 258.751 114.88C258.244 114.44 257.551 114.22 256.671 114.22H255.031V112.52H256.211C257.051 112.52 257.724 112.313 258.231 111.9C258.751 111.473 259.011 110.92 259.011 110.24C259.011 109.56 258.771 109.013 258.291 108.6C257.811 108.187 257.158 107.98 256.331 107.98C254.784 107.98 253.751 108.667 253.231 110.04L251.671 109.14C252.511 107.207 254.064 106.24 256.331 106.24C257.678 106.24 258.764 106.613 259.591 107.36C260.431 108.093 260.851 109.04 260.851 110.2C260.851 111.547 260.264 112.567 259.091 113.26ZM271.68 112.22V110.5H273.42V120.5H271.68V118.78C270.827 120.1 269.567 120.76 267.9 120.76C266.487 120.76 265.293 120.253 264.32 119.24C263.333 118.213 262.84 116.967 262.84 115.5C262.84 114.047 263.333 112.807 264.32 111.78C265.307 110.753 266.5 110.24 267.9 110.24C269.567 110.24 270.827 110.9 271.68 112.22ZM268.12 119.08C269.133 119.08 269.98 118.74 270.66 118.06C271.34 117.353 271.68 116.5 271.68 115.5C271.68 114.487 271.34 113.64 270.66 112.96C269.98 112.267 269.133 111.92 268.12 111.92C267.12 111.92 266.28 112.267 265.6 112.96C264.92 113.64 264.58 114.487 264.58 115.5C264.58 116.5 264.92 117.353 265.6 118.06C266.28 118.74 267.12 119.08 268.12 119.08ZM276.056 110.5H282.616V112.18H277.796V120.5H276.056V110.5ZM289.662 110.24C291.062 110.24 292.256 110.753 293.242 111.78C294.229 112.807 294.722 114.047 294.722 115.5C294.722 116.967 294.229 118.213 293.242 119.24C292.269 120.253 291.076 120.76 289.662 120.76C288.009 120.76 286.749 120.1 285.882 118.78V124.5H284.142V110.5H285.882V112.22C286.749 110.9 288.009 110.24 289.662 110.24ZM289.442 119.08C290.442 119.08 291.282 118.74 291.962 118.06C292.642 117.353 292.982 116.5 292.982 115.5C292.982 114.487 292.642 113.64 291.962 112.96C291.282 112.267 290.442 111.92 289.442 111.92C288.429 111.92 287.582 112.267 286.902 112.96C286.222 113.64 285.882 114.487 285.882 115.5C285.882 116.5 286.222 117.353 286.902 118.06C287.582 118.74 288.429 119.08 289.442 119.08ZM300.508 118.34L303.388 110.5H305.248L301.168 121.12C300.741 122.253 300.141 123.113 299.368 123.7C298.595 124.3 297.715 124.567 296.728 124.5V122.88C297.941 122.973 298.841 122.307 299.428 120.88L299.588 120.52L295.248 110.5H297.088L300.508 118.34ZM311.886 115.38C312.993 115.847 313.546 116.64 313.546 117.76C313.546 118.627 313.206 119.347 312.526 119.92C311.846 120.48 310.906 120.76 309.706 120.76C307.706 120.76 306.366 119.96 305.686 118.36L307.146 117.5C307.519 118.593 308.379 119.14 309.726 119.14C310.379 119.14 310.893 119 311.266 118.72C311.639 118.44 311.826 118.067 311.826 117.6C311.826 117.2 311.673 116.873 311.366 116.62C311.073 116.367 310.673 116.24 310.166 116.24H308.706V114.66H309.786C310.293 114.66 310.686 114.54 310.966 114.3C311.246 114.047 311.386 113.707 311.386 113.28C311.386 112.84 311.219 112.493 310.886 112.24C310.553 111.973 310.106 111.84 309.546 111.84C308.426 111.84 307.666 112.313 307.266 113.26L305.846 112.44C306.553 110.973 307.786 110.24 309.546 110.24C310.613 110.24 311.466 110.52 312.106 111.08C312.759 111.627 313.086 112.313 313.086 113.14C313.086 114.153 312.686 114.9 311.886 115.38ZM317.151 117.52L322.691 110.5H324.091V120.5H322.371V113.48L316.831 120.5H315.431V110.5H317.151V117.52ZM325.62 110.5H334.18V112.18H330.78V120.5H329.04V112.18H325.62V110.5ZM344.914 116.3H336.534C336.707 117.18 337.114 117.873 337.754 118.38C338.394 118.873 339.194 119.12 340.154 119.12C341.474 119.12 342.434 118.633 343.034 117.66L344.514 118.5C343.527 120.007 342.061 120.76 340.114 120.76C338.541 120.76 337.247 120.267 336.234 119.28C335.247 118.267 334.754 117.007 334.754 115.5C334.754 113.98 335.241 112.727 336.214 111.74C337.187 110.74 338.447 110.24 339.994 110.24C341.461 110.24 342.654 110.76 343.574 111.8C344.507 112.813 344.974 114.053 344.974 115.52C344.974 115.773 344.954 116.033 344.914 116.3ZM339.994 111.88C339.074 111.88 338.301 112.14 337.674 112.66C337.061 113.18 336.681 113.887 336.534 114.78H343.214C343.067 113.86 342.701 113.147 342.114 112.64C341.527 112.133 340.821 111.88 339.994 111.88ZM353.694 117.52L359.234 110.5H360.634V120.5H358.914V113.48L353.374 120.5H351.974V110.5H353.694V117.52ZM364.203 110.5H371.623V120.5H369.883V112.18H365.943V116.26C365.943 117.86 365.623 119 364.983 119.68C364.343 120.347 363.403 120.62 362.163 120.5V118.86C362.856 118.953 363.37 118.8 363.703 118.4C364.036 117.987 364.203 117.26 364.203 116.22V110.5ZM375.979 117.52L381.519 110.5H382.919V120.5H381.199V113.48L375.659 120.5H374.259V110.5H375.979V117.52ZM390.568 110.5H399.228V120.5H397.488V112.16H392.308V120.5H390.568V110.5ZM411.477 116.3H403.097C403.27 117.18 403.677 117.873 404.317 118.38C404.957 118.873 405.757 119.12 406.717 119.12C408.037 119.12 408.997 118.633 409.597 117.66L411.077 118.5C410.09 120.007 408.623 120.76 406.677 120.76C405.103 120.76 403.81 120.267 402.797 119.28C401.81 118.267 401.317 117.007 401.317 115.5C401.317 113.98 401.803 112.727 402.777 111.74C403.75 110.74 405.01 110.24 406.557 110.24C408.023 110.24 409.217 110.76 410.137 111.8C411.07 112.813 411.537 114.053 411.537 115.52C411.537 115.773 411.517 116.033 411.477 116.3ZM406.557 111.88C405.637 111.88 404.863 112.14 404.237 112.66C403.623 113.18 403.243 113.887 403.097 114.78H409.777C409.63 113.86 409.263 113.147 408.677 112.64C408.09 112.133 407.383 111.88 406.557 111.88ZM419.057 110.24C420.457 110.24 421.65 110.753 422.637 111.78C423.623 112.807 424.117 114.047 424.117 115.5C424.117 116.967 423.623 118.213 422.637 119.24C421.663 120.253 420.47 120.76 419.057 120.76C417.403 120.76 416.143 120.1 415.277 118.78V124.5H413.537V110.5H415.277V112.22C416.143 110.9 417.403 110.24 419.057 110.24ZM418.837 119.08C419.837 119.08 420.677 118.74 421.357 118.06C422.037 117.353 422.377 116.5 422.377 115.5C422.377 114.487 422.037 113.64 421.357 112.96C420.677 112.267 419.837 111.92 418.837 111.92C417.823 111.92 416.977 112.267 416.297 112.96C415.617 113.64 415.277 114.487 415.277 115.5C415.277 116.5 415.617 117.353 416.297 118.06C416.977 118.74 417.823 119.08 418.837 119.08ZM435.793 116.3H427.413C427.586 117.18 427.993 117.873 428.633 118.38C429.273 118.873 430.073 119.12 431.033 119.12C432.353 119.12 433.313 118.633 433.913 117.66L435.393 118.5C434.406 120.007 432.94 120.76 430.993 120.76C429.42 120.76 428.126 120.267 427.113 119.28C426.126 118.267 425.633 117.007 425.633 115.5C425.633 113.98 426.12 112.727 427.093 111.74C428.066 110.74 429.326 110.24 430.873 110.24C432.34 110.24 433.533 110.76 434.453 111.8C435.386 112.813 435.853 114.053 435.853 115.52C435.853 115.773 435.833 116.033 435.793 116.3ZM430.873 111.88C429.953 111.88 429.18 112.14 428.553 112.66C427.94 113.18 427.56 113.887 427.413 114.78H434.093C433.946 113.86 433.58 113.147 432.993 112.64C432.406 112.133 431.7 111.88 430.873 111.88ZM436.343 110.5H444.903V112.18H441.503V120.5H439.763V112.18H436.343V110.5ZM454.317 112.22V110.5H456.057V120.5H454.317V118.78C453.463 120.1 452.203 120.76 450.537 120.76C449.123 120.76 447.93 120.253 446.957 119.24C445.97 118.213 445.477 116.967 445.477 115.5C445.477 114.047 445.97 112.807 446.957 111.78C447.943 110.753 449.137 110.24 450.537 110.24C452.203 110.24 453.463 110.9 454.317 112.22ZM450.757 119.08C451.77 119.08 452.617 118.74 453.297 118.06C453.977 117.353 454.317 116.5 454.317 115.5C454.317 114.487 453.977 113.64 453.297 112.96C452.617 112.267 451.77 111.92 450.757 111.92C449.757 111.92 448.917 112.267 448.237 112.96C447.557 113.64 447.217 114.487 447.217 115.5C447.217 116.5 447.557 117.353 448.237 118.06C448.917 118.74 449.757 119.08 450.757 119.08ZM472.293 110.5V118.84H473.673V123.18H471.953V120.5H458.693V110.5H460.433V118.84H464.633V110.5H466.373V118.84H470.553V110.5H472.293ZM477.269 117.52L482.809 110.5H484.209V120.5H482.489V113.48L476.949 120.5H475.549V110.5H477.269V117.52ZM485.737 110.5H494.297V112.18H490.897V120.5H489.157V112.18H485.737V110.5ZM505.031 116.3H496.651C496.825 117.18 497.231 117.873 497.871 118.38C498.511 118.873 499.311 119.12 500.271 119.12C501.591 119.12 502.551 118.633 503.151 117.66L504.631 118.5C503.645 120.007 502.178 120.76 500.231 120.76C498.658 120.76 497.365 120.267 496.351 119.28C495.365 118.267 494.871 117.007 494.871 115.5C494.871 113.98 495.358 112.727 496.331 111.74C497.305 110.74 498.565 110.24 500.111 110.24C501.578 110.24 502.771 110.76 503.691 111.8C504.625 112.813 505.091 114.053 505.091 115.52C505.091 115.773 505.071 116.033 505.031 116.3ZM500.111 111.88C499.191 111.88 498.418 112.14 497.791 112.66C497.178 113.18 496.798 113.887 496.651 114.78H503.331C503.185 113.86 502.818 113.147 502.231 112.64C501.645 112.133 500.938 111.88 500.111 111.88ZM518.391 120.7V124.5H516.671V120.7C515.111 120.527 513.865 119.96 512.931 119C511.998 118.053 511.531 116.887 511.531 115.5C511.531 114.113 511.998 112.947 512.931 112C513.865 111.04 515.111 110.473 516.671 110.3V106.5H518.391V110.3C519.951 110.473 521.198 111.04 522.131 112C523.065 112.947 523.531 114.113 523.531 115.5C523.531 116.887 523.065 118.053 522.131 119C521.198 119.96 519.951 120.527 518.391 120.7ZM513.251 115.5C513.251 116.433 513.551 117.22 514.151 117.86C514.765 118.487 515.605 118.873 516.671 119.02V111.98C515.618 112.113 514.785 112.5 514.171 113.14C513.558 113.767 513.251 114.553 513.251 115.5ZM518.391 111.98V119.02C519.445 118.873 520.271 118.487 520.871 117.86C521.485 117.22 521.791 116.433 521.791 115.5C521.791 114.567 521.485 113.787 520.871 113.16C520.271 112.52 519.445 112.127 518.391 111.98ZM533.868 112.22V110.5H535.608V120.5H533.868V118.78C533.014 120.1 531.754 120.76 530.088 120.76C528.674 120.76 527.481 120.253 526.508 119.24C525.521 118.213 525.028 116.967 525.028 115.5C525.028 114.047 525.521 112.807 526.508 111.78C527.494 110.753 528.688 110.24 530.088 110.24C531.754 110.24 533.014 110.9 533.868 112.22ZM530.308 119.08C531.321 119.08 532.168 118.74 532.848 118.06C533.528 117.353 533.868 116.5 533.868 115.5C533.868 114.487 533.528 113.64 532.848 112.96C532.168 112.267 531.321 111.92 530.308 111.92C529.308 111.92 528.468 112.267 527.788 112.96C527.108 113.64 526.768 114.487 526.768 115.5C526.768 116.5 527.108 117.353 527.788 118.06C528.468 118.74 529.308 119.08 530.308 119.08ZM545.284 109H539.884V107.48H545.284V109ZM539.964 117.52L545.504 110.5H546.904V120.5H545.184V113.48L539.644 120.5H538.244V110.5H539.964V117.52ZM550.472 110.5H557.892V120.5H556.152V112.18H552.212V116.26C552.212 117.86 551.892 119 551.252 119.68C550.612 120.347 549.672 120.62 548.432 120.5V118.86C549.126 118.953 549.639 118.8 549.972 118.4C550.306 117.987 550.472 117.26 550.472 116.22V110.5Z" fill="#DE755E"/>
<path d="M173.121 165.02V166.6H171.301V165.02C169.301 164.873 167.694 164.327 166.481 163.38C165.281 162.42 164.681 161.127 164.681 159.5C164.681 157.873 165.281 156.58 166.481 155.62C167.694 154.673 169.301 154.127 171.301 153.98V152.4H173.121V153.98C175.148 154.127 176.754 154.673 177.941 155.62C179.154 156.58 179.761 157.873 179.761 159.5C179.761 161.127 179.154 162.42 177.941 163.38C176.754 164.327 175.148 164.873 173.121 165.02ZM173.121 155.68V163.32C174.654 163.213 175.834 162.84 176.661 162.2C177.488 161.547 177.901 160.647 177.901 159.5C177.901 158.353 177.488 157.46 176.661 156.82C175.834 156.167 174.654 155.787 173.121 155.68ZM167.761 156.82C166.934 157.46 166.521 158.353 166.521 159.5C166.521 160.647 166.934 161.54 167.761 162.18C168.588 162.82 169.768 163.193 171.301 163.3V155.68C169.768 155.787 168.588 156.167 167.761 156.82ZM190.053 165.24C189.04 166.253 187.793 166.76 186.313 166.76C184.833 166.76 183.586 166.253 182.573 165.24C181.56 164.227 181.053 162.98 181.053 161.5C181.053 160.02 181.56 158.773 182.573 157.76C183.586 156.747 184.833 156.24 186.313 156.24C187.793 156.24 189.04 156.747 190.053 157.76C191.08 158.787 191.593 160.033 191.593 161.5C191.593 162.967 191.08 164.213 190.053 165.24ZM186.313 165.06C187.313 165.06 188.153 164.72 188.833 164.04C189.513 163.36 189.853 162.513 189.853 161.5C189.853 160.487 189.513 159.64 188.833 158.96C188.153 158.28 187.313 157.94 186.313 157.94C185.326 157.94 184.493 158.28 183.813 158.96C183.133 159.64 182.793 160.487 182.793 161.5C182.793 162.513 183.133 163.36 183.813 164.04C184.493 164.72 185.326 165.06 186.313 165.06ZM199.164 156.24C200.564 156.24 201.758 156.753 202.744 157.78C203.731 158.807 204.224 160.047 204.224 161.5C204.224 162.967 203.731 164.213 202.744 165.24C201.771 166.253 200.578 166.76 199.164 166.76C197.511 166.76 196.251 166.1 195.384 164.78V170.5H193.644V156.5H195.384V158.22C196.251 156.9 197.511 156.24 199.164 156.24ZM198.944 165.08C199.944 165.08 200.784 164.74 201.464 164.06C202.144 163.353 202.484 162.5 202.484 161.5C202.484 160.487 202.144 159.64 201.464 158.96C200.784 158.267 199.944 157.92 198.944 157.92C197.931 157.92 197.084 158.267 196.404 158.96C195.724 159.64 195.384 160.487 195.384 161.5C195.384 162.5 195.724 163.353 196.404 164.06C197.084 164.74 197.931 165.08 198.944 165.08ZM214.44 156.5H216.3V166.5H214.6V159.24L211.42 164.36H211.2L208.02 159.24V166.5H206.3V156.5H208.16L211.3 161.56L214.44 156.5ZM227.237 158.22V156.5H228.977V166.5H227.237V164.78C226.383 166.1 225.123 166.76 223.457 166.76C222.043 166.76 220.85 166.253 219.877 165.24C218.89 164.213 218.397 162.967 218.397 161.5C218.397 160.047 218.89 158.807 219.877 157.78C220.863 156.753 222.057 156.24 223.457 156.24C225.123 156.24 226.383 156.9 227.237 158.22ZM223.677 165.08C224.69 165.08 225.537 164.74 226.217 164.06C226.897 163.353 227.237 162.5 227.237 161.5C227.237 160.487 226.897 159.64 226.217 158.96C225.537 158.267 224.69 157.92 223.677 157.92C222.677 157.92 221.837 158.267 221.157 158.96C220.477 159.64 220.137 160.487 220.137 161.5C220.137 162.5 220.477 163.353 221.157 164.06C221.837 164.74 222.677 165.08 223.677 165.08ZM230.493 156.5H239.053V158.18H235.653V166.5H233.913V158.18H230.493V156.5ZM253.058 161.2H245.758V159.52H253.058V161.2ZM264.691 166.76C263.664 166.76 262.764 166.547 261.991 166.12C261.231 165.68 260.671 165.06 260.311 164.26L261.891 163.34C262.317 164.407 263.251 164.94 264.691 164.94C265.597 164.94 266.297 164.727 266.791 164.3C267.297 163.86 267.551 163.227 267.551 162.4V152.5H269.391V162.4C269.391 163.8 268.944 164.88 268.051 165.64C267.157 166.387 266.037 166.76 264.691 166.76ZM272.203 152.5H277.283C278.563 152.5 279.636 152.933 280.503 153.8C281.37 154.667 281.803 155.733 281.803 157C281.803 158.267 281.37 159.333 280.503 160.2C279.636 161.067 278.563 161.5 277.283 161.5H274.063V166.5H272.203V152.5ZM274.063 159.76H277.283C278.07 159.76 278.71 159.5 279.203 158.98C279.71 158.433 279.963 157.773 279.963 157C279.963 156.2 279.71 155.54 279.203 155.02C278.696 154.5 278.056 154.24 277.283 154.24H274.063V159.76ZM290.402 159.56H297.402V160.4C297.402 162.227 296.776 163.747 295.522 164.96C294.269 166.16 292.609 166.76 290.542 166.76C288.409 166.76 286.642 166.06 285.242 164.66C283.856 163.233 283.162 161.513 283.162 159.5C283.162 157.487 283.856 155.773 285.242 154.36C286.642 152.947 288.396 152.24 290.502 152.24C291.782 152.24 292.969 152.553 294.062 153.18C295.169 153.807 296.002 154.62 296.562 155.62L294.962 156.56C294.562 155.8 293.956 155.193 293.142 154.74C292.329 154.273 291.442 154.04 290.482 154.04C288.869 154.04 287.556 154.567 286.542 155.62C285.516 156.673 285.002 157.967 285.002 159.5C285.002 161.033 285.516 162.327 286.542 163.38C287.582 164.42 288.922 164.94 290.562 164.94C291.936 164.94 293.056 164.607 293.922 163.94C294.802 163.26 295.342 162.36 295.542 161.24H290.402V159.56ZM299.068 164.44H301.068L299.768 169.3H298.268L299.068 164.44ZM312.347 166.76C311.32 166.76 310.42 166.547 309.647 166.12C308.887 165.68 308.327 165.06 307.967 164.26L309.547 163.34C309.974 164.407 310.907 164.94 312.347 164.94C313.254 164.94 313.954 164.727 314.447 164.3C314.954 163.86 315.207 163.227 315.207 162.4V152.5H317.047V162.4C317.047 163.8 316.6 164.88 315.707 165.64C314.814 166.387 313.694 166.76 312.347 166.76ZM319.859 152.5H324.939C326.219 152.5 327.293 152.933 328.159 153.8C329.026 154.667 329.459 155.733 329.459 157C329.459 158.267 329.026 159.333 328.159 160.2C327.293 161.067 326.219 161.5 324.939 161.5H321.719V166.5H319.859V152.5ZM321.719 159.76H324.939C325.726 159.76 326.366 159.5 326.859 158.98C327.366 158.433 327.619 157.773 327.619 157C327.619 156.2 327.366 155.54 326.859 155.02C326.353 154.5 325.713 154.24 324.939 154.24H321.719V159.76ZM333.516 160.3V164.74H340.016V166.5H331.656V152.5H339.916V154.26H333.516V158.56H339.416V160.3H333.516ZM348.664 159.56H355.664V160.4C355.664 162.227 355.037 163.747 353.784 164.96C352.531 166.16 350.871 166.76 348.804 166.76C346.671 166.76 344.904 166.06 343.504 164.66C342.117 163.233 341.424 161.513 341.424 159.5C341.424 157.487 342.117 155.773 343.504 154.36C344.904 152.947 346.657 152.24 348.764 152.24C350.044 152.24 351.231 152.553 352.324 153.18C353.431 153.807 354.264 154.62 354.824 155.62L353.224 156.56C352.824 155.8 352.217 155.193 351.404 154.74C350.591 154.273 349.704 154.04 348.744 154.04C347.131 154.04 345.817 154.567 344.804 155.62C343.777 156.673 343.264 157.967 343.264 159.5C343.264 161.033 343.777 162.327 344.804 163.38C345.844 164.42 347.184 164.94 348.824 164.94C350.197 164.94 351.317 164.607 352.184 163.94C353.064 163.26 353.604 162.36 353.804 161.24H348.664V159.56ZM357.33 164.44H359.33L358.03 169.3H356.53L357.33 164.44ZM366.969 152.5H372.049C373.329 152.5 374.402 152.933 375.269 153.8C376.135 154.667 376.569 155.733 376.569 157C376.569 158.267 376.135 159.333 375.269 160.2C374.402 161.067 373.329 161.5 372.049 161.5H368.829V166.5H366.969V152.5ZM368.829 159.76H372.049C372.835 159.76 373.475 159.5 373.969 158.98C374.475 158.433 374.729 157.773 374.729 157C374.729 156.2 374.475 155.54 373.969 155.02C373.462 154.5 372.822 154.24 372.049 154.24H368.829V159.76ZM378.766 152.5H384.226C386.119 152.5 387.699 153.18 388.966 154.54C390.232 155.887 390.866 157.54 390.866 159.5C390.866 161.447 390.232 163.107 388.966 164.48C387.699 165.827 386.119 166.5 384.226 166.5H378.766V152.5ZM380.626 164.74H384.226C385.652 164.74 386.819 164.24 387.726 163.24C388.632 162.227 389.086 160.98 389.086 159.5C389.086 158.02 388.632 156.773 387.726 155.76C386.819 154.76 385.652 154.26 384.226 154.26H380.626V164.74ZM401.181 152.5V154.26H394.981V158.8H400.921V160.56H394.981V166.5H393.121V152.5H401.181ZM402.838 164.44H404.838L403.538 169.3H402.038L402.838 164.44ZM412.477 152.5H417.557C418.837 152.5 419.91 152.933 420.777 153.8C421.643 154.667 422.077 155.733 422.077 157C422.077 158.267 421.643 159.333 420.777 160.2C419.91 161.067 418.837 161.5 417.557 161.5H414.337V166.5H412.477V152.5ZM414.337 159.76H417.557C418.343 159.76 418.983 159.5 419.477 158.98C419.983 158.433 420.237 157.773 420.237 157C420.237 156.2 419.983 155.54 419.477 155.02C418.97 154.5 418.33 154.24 417.557 154.24H414.337V159.76ZM432.973 162.94V152.5H434.833V166.5H433.333L426.133 156.04V166.5H424.273V152.5H425.773L432.973 162.94ZM444.328 159.56H451.328V160.4C451.328 162.227 450.701 163.747 449.448 164.96C448.195 166.16 446.535 166.76 444.468 166.76C442.335 166.76 440.568 166.06 439.168 164.66C437.781 163.233 437.088 161.513 437.088 159.5C437.088 157.487 437.781 155.773 439.168 154.36C440.568 152.947 442.321 152.24 444.428 152.24C445.708 152.24 446.895 152.553 447.988 153.18C449.095 153.807 449.928 154.62 450.488 155.62L448.888 156.56C448.488 155.8 447.881 155.193 447.068 154.74C446.255 154.273 445.368 154.04 444.408 154.04C442.795 154.04 441.481 154.567 440.468 155.62C439.441 156.673 438.928 157.967 438.928 159.5C438.928 161.033 439.441 162.327 440.468 163.38C441.508 164.42 442.848 164.94 444.488 164.94C445.861 164.94 446.981 164.607 447.848 163.94C448.728 163.26 449.268 162.36 449.468 161.24H444.328V159.56ZM465.89 161.2H458.59V159.52H465.89V161.2ZM480.623 160.66V156.5H482.363V166.5H480.623V162.32H475.443V166.5H473.703V156.5H475.443V160.66H480.623ZM494.611 162.3H486.231C486.405 163.18 486.811 163.873 487.451 164.38C488.091 164.873 488.891 165.12 489.851 165.12C491.171 165.12 492.131 164.633 492.731 163.66L494.211 164.5C493.225 166.007 491.758 166.76 489.811 166.76C488.238 166.76 486.945 166.267 485.931 165.28C484.945 164.267 484.451 163.007 484.451 161.5C484.451 159.98 484.938 158.727 485.911 157.74C486.885 156.74 488.145 156.24 489.691 156.24C491.158 156.24 492.351 156.76 493.271 157.8C494.205 158.813 494.671 160.053 494.671 161.52C494.671 161.773 494.651 162.033 494.611 162.3ZM489.691 157.88C488.771 157.88 487.998 158.14 487.371 158.66C486.758 159.18 486.378 159.887 486.231 160.78H492.911C492.765 159.86 492.398 159.147 491.811 158.64C491.225 158.133 490.518 157.88 489.691 157.88ZM506.212 166.76C504.732 166.76 503.512 166.273 502.552 165.3C501.592 164.313 501.112 163.06 501.112 161.54C501.112 159.82 501.358 158.507 501.852 157.6C502.358 156.68 503.385 155.847 504.932 155.1C505.012 155.06 505.105 155.013 505.212 154.96C505.332 154.907 505.472 154.847 505.632 154.78C505.805 154.7 505.952 154.633 506.072 154.58L507.152 154.1C508.218 153.567 508.785 152.927 508.852 152.18L510.252 152.98C510.158 153.447 510.005 153.82 509.792 154.1C509.778 154.127 509.738 154.187 509.672 154.28C509.605 154.36 509.558 154.42 509.532 154.46C509.505 154.487 509.458 154.533 509.392 154.6C509.338 154.653 509.278 154.707 509.212 154.76C509.158 154.813 509.085 154.867 508.992 154.92C508.498 155.227 508.145 155.427 507.932 155.52C507.852 155.56 507.765 155.6 507.672 155.64C507.592 155.68 507.525 155.713 507.472 155.74C507.418 155.767 507.378 155.787 507.352 155.8L506.692 156.08L506.052 156.34C505.158 156.727 504.498 157.12 504.072 157.52C503.645 157.92 503.338 158.427 503.152 159.04C503.565 158.533 504.085 158.147 504.712 157.88C505.352 157.613 506.005 157.48 506.672 157.48C507.938 157.48 508.998 157.907 509.852 158.76C510.732 159.627 511.172 160.727 511.172 162.06C511.172 163.42 510.705 164.547 509.772 165.44C508.825 166.32 507.638 166.76 506.212 166.76ZM509.432 162.06C509.432 161.167 509.138 160.44 508.552 159.88C507.978 159.307 507.218 159.02 506.272 159.02C505.432 159.02 504.658 159.293 503.952 159.84C503.272 160.387 502.932 161.093 502.932 161.96C502.932 162.867 503.245 163.613 503.872 164.2C504.498 164.787 505.278 165.08 506.212 165.08C507.158 165.08 507.925 164.793 508.512 164.22C509.125 163.647 509.432 162.927 509.432 162.06ZM521.459 165.24C520.446 166.253 519.199 166.76 517.719 166.76C516.239 166.76 514.993 166.253 513.979 165.24C512.966 164.227 512.459 162.98 512.459 161.5C512.459 160.02 512.966 158.773 513.979 157.76C514.993 156.747 516.239 156.24 517.719 156.24C519.199 156.24 520.446 156.747 521.459 157.76C522.486 158.787 522.999 160.033 522.999 161.5C522.999 162.967 522.486 164.213 521.459 165.24ZM517.719 165.06C518.719 165.06 519.559 164.72 520.239 164.04C520.919 163.36 521.259 162.513 521.259 161.5C521.259 160.487 520.919 159.64 520.239 158.96C519.559 158.28 518.719 157.94 517.719 157.94C516.733 157.94 515.899 158.28 515.219 158.96C514.539 159.64 514.199 160.487 514.199 161.5C514.199 162.513 514.539 163.36 515.219 164.04C515.899 164.72 516.733 165.06 517.719 165.06ZM525.619 156.5H533.039V166.5H531.299V158.18H527.359V162.26C527.359 163.86 527.039 165 526.399 165.68C525.759 166.347 524.819 166.62 523.579 166.5V164.86C524.272 164.953 524.786 164.8 525.119 164.4C525.452 163.987 525.619 163.26 525.619 162.22V156.5ZM537.415 160.1H539.895C540.895 160.1 541.722 160.4 542.375 161C543.042 161.587 543.375 162.353 543.375 163.3C543.375 164.247 543.042 165.02 542.375 165.62C541.709 166.207 540.882 166.5 539.895 166.5H535.675V156.5H537.415V160.1ZM537.415 164.88H539.895C540.402 164.88 540.822 164.733 541.155 164.44C541.489 164.147 541.655 163.767 541.655 163.3C541.655 162.833 541.482 162.453 541.135 162.16C540.802 161.853 540.389 161.7 539.895 161.7H537.415V164.88ZM557.206 164.84V156.5H558.946V166.5H545.246V156.5H546.986V164.84H551.226V156.5H552.966V164.84H557.206ZM571.213 162.3H562.833C563.006 163.18 563.413 163.873 564.053 164.38C564.693 164.873 565.493 165.12 566.453 165.12C567.773 165.12 568.733 164.633 569.333 163.66L570.813 164.5C569.826 166.007 568.36 166.76 566.413 166.76C564.84 166.76 563.546 166.267 562.533 165.28C561.546 164.267 561.053 163.007 561.053 161.5C561.053 159.98 561.54 158.727 562.513 157.74C563.486 156.74 564.746 156.24 566.293 156.24C567.76 156.24 568.953 156.76 569.873 157.8C570.806 158.813 571.273 160.053 571.273 161.52C571.273 161.773 571.253 162.033 571.213 162.3ZM566.293 157.88C565.373 157.88 564.6 158.14 563.973 158.66C563.36 159.18 562.98 159.887 562.833 160.78H569.513C569.366 159.86 569 159.147 568.413 158.64C567.826 158.133 567.12 157.88 566.293 157.88ZM586.313 154.14L583.273 158.24C584.366 158.44 585.246 158.907 585.913 159.64C586.58 160.373 586.913 161.28 586.913 162.36C586.913 163.733 586.446 164.807 585.513 165.58C584.566 166.367 583.433 166.76 582.113 166.76C581.02 166.76 580.066 166.513 579.253 166.02C578.44 165.527 577.86 164.827 577.513 163.92L579.073 163C579.486 164.293 580.5 164.94 582.113 164.94C582.993 164.94 583.7 164.713 584.233 164.26C584.78 163.793 585.053 163.16 585.053 162.36C585.053 161.56 584.78 160.927 584.233 160.46C583.7 159.993 582.993 159.76 582.113 159.76H581.633L580.893 158.62L584.133 154.24H577.913V152.5H586.313V154.14ZM597.299 166.5H588.259V164.98L593.199 159.94C594.519 158.62 595.179 157.487 595.179 156.54C595.179 155.767 594.939 155.16 594.459 154.72C593.992 154.267 593.406 154.04 592.699 154.04C591.379 154.04 590.419 154.667 589.819 155.92L588.259 155C588.686 154.107 589.286 153.427 590.059 152.96C590.832 152.48 591.706 152.24 592.679 152.24C593.866 152.24 594.886 152.627 595.739 153.4C596.606 154.187 597.039 155.227 597.039 156.52C597.039 157.933 596.206 159.473 594.539 161.14L590.959 164.7H597.299V166.5ZM615.586 152.5H617.686V166.5H615.846V155.56L611.266 163.18H611.026L606.446 155.58V166.5H604.586V152.5H606.686L611.146 159.9L615.586 152.5ZM622.54 158H625.94C627.14 158 628.166 158.413 629.02 159.24C629.86 160.053 630.28 161.053 630.28 162.24C630.28 163.44 629.86 164.453 629.02 165.28C628.206 166.093 627.18 166.5 625.94 166.5H620.68V152.5H629.08V154.26H622.54V158ZM622.54 164.76H625.94C626.633 164.76 627.22 164.52 627.7 164.04C628.193 163.56 628.44 162.96 628.44 162.24C628.44 161.533 628.193 160.94 627.7 160.46C627.22 159.98 626.633 159.74 625.94 159.74H622.54V164.76Z" fill="#A0A1A4"/>
<rect x="1.5" y="1.5" width="807" height="218" rx="53.5" stroke="#DE755E" stroke-width="3" stroke-dasharray="15 15"/>
</svg>
