<svg width="21" height="21" viewBox="0 0 21 21" fill="none" xmlns="http://www.w3.org/2000/svg">
<path d="M14 7.99084V19.3509C14 20.8009 12.96 21.4108 11.69 20.7108L7.76001 18.5208C7.34001 18.2908 6.65999 18.2908 6.23999 18.5208L2.31 20.7108C1.04 21.4108 0 20.8009 0 19.3509V7.99084C0 6.28084 1.39999 4.88086 3.10999 4.88086H10.89C12.6 4.88086 14 6.28084 14 7.99084Z" fill="#383742"/>
<path d="M20.5 3.60999V14.97C20.5 16.42 19.46 17.03 18.19 16.33L14.5 14.27V7.48999C14.5 5.77999 13.1 4.38 11.39 4.38H6.5V3.60999C6.5 1.89999 7.89999 0.5 9.60999 0.5H17.39C19.1 0.5 20.5 1.89999 20.5 3.60999Z" fill="#383742"/>
</svg>
