<svg width="24" height="24" viewBox="0 0 24 24" fill="none" xmlns="http://www.w3.org/2000/svg">
<path d="M19.0166 15.4186C17.6362 15.4186 16.4053 16.0764 15.6179 17.093L9.02489 13.4103C9.17938 12.9668 9.26409 12.4884 9.26409 11.995C9.26409 11.4967 9.17938 11.0233 9.01991 10.5748L15.608 6.89701C16.3903 7.9186 17.6262 8.5814 19.0116 8.5814C21.3737 8.5814 23.3023 6.65781 23.3023 4.2907C23.3023 1.92359 21.3787 0 19.0116 0C16.6445 0 14.7209 1.92359 14.7209 4.2907C14.7209 4.78904 14.8056 5.26744 14.9651 5.71096L8.38203 9.3887C7.59964 8.36213 6.36376 7.70432 4.97838 7.70432C2.61625 7.70432 0.687683 9.62791 0.687683 11.995C0.687683 14.3621 2.61625 16.2857 4.98336 16.2857C6.36875 16.2857 7.60463 15.6229 8.392 14.5963L14.98 18.2791C14.8206 18.7276 14.7309 19.211 14.7309 19.7093C14.7309 22.0714 16.6545 24 19.0216 24C21.3887 24 23.3123 22.0764 23.3123 19.7093C23.3123 17.3422 21.3837 15.4186 19.0166 15.4186Z" fill="#383742"/>
</svg>
