<svg width="405" height="520" viewBox="0 0 405 520" fill="none" xmlns="http://www.w3.org/2000/svg">
<path fill-rule="evenodd" clip-rule="evenodd" d="M365 0H36.4712C16.3287 0 0 16.3287 0 36.4712V480C0 502.091 17.9086 520 40 520H365C387.091 520 405 502.091 405 480V40C405 17.9086 387.091 0 365 0ZM162.417 180.366C133.521 158.438 92.3123 164.08 70.3742 192.968C48.436 221.856 54.0762 263.052 82.9718 284.98L93.156 292.709L83.5218 300.02C54.6261 321.948 48.986 363.144 70.9241 392.032C92.8622 420.92 134.071 426.562 162.967 404.634L201.804 375.16L240.641 404.633C269.536 426.561 310.745 420.919 332.683 392.031C354.621 363.143 348.981 321.947 320.086 300.019L310.453 292.709L320.636 284.981C349.531 263.053 355.171 221.857 333.233 192.969C311.295 164.081 270.086 158.439 241.191 180.367L201.804 210.257L162.417 180.366Z" fill="white"/>
</svg>
