<svg width="405" height="520" viewBox="0 0 405 520" fill="none" xmlns="http://www.w3.org/2000/svg">
<path fill-rule="evenodd" clip-rule="evenodd" d="M365 0H36.4712C16.3287 0 0 16.3287 0 36.4712V480C0 502.091 17.9086 520 40 520H365C387.091 520 405 502.091 405 480V40C405 17.9086 387.091 0 365 0ZM85.4105 170C66.9584 170 52 184.958 52 203.41C52 221.863 66.9584 236.821 85.4105 236.821H86.0841C87.3019 236.821 87.6641 239.424 86.5343 239.878C66.2907 248.023 52 267.842 52 291C52 314.158 66.2906 333.977 86.534 342.122C87.6638 342.576 87.3016 345.18 86.0838 345.18H85.4105C66.9584 345.18 52 360.138 52 378.59C52 397.042 66.9584 412.001 85.4105 412.001H318.59C337.042 412.001 352 397.042 352 378.59C352 360.138 337.042 345.18 318.59 345.18H317.916C316.698 345.18 316.336 342.576 317.466 342.122C337.709 333.977 352 314.158 352 291C352 267.842 337.709 248.023 317.466 239.878C316.336 239.424 316.698 236.821 317.916 236.821H318.59C337.042 236.821 352 221.863 352 203.41C352 184.958 337.042 170 318.59 170H85.4105Z" fill="white"/>
</svg>
