<svg width="320" height="320" viewBox="0 0 320 320" fill="none" xmlns="http://www.w3.org/2000/svg">
<rect width="320" height="320" fill="#EBDDF8"/>
<path d="M218.945 174.203C218.479 174.582 218.024 174.97 217.578 175.368C216.105 176.665 214.715 178.054 213.418 179.526C210.425 182.904 207.926 186.688 205.993 190.766C202.956 197.177 201.382 204.184 201.384 211.278V221.384C201.382 226.123 202.809 230.752 205.481 234.667H189.922C192.595 230.753 194.023 226.123 194.018 221.384V211.278C194.018 199.582 189.738 188.289 181.985 179.531C180.696 178.058 179.315 176.667 177.85 175.368C177.405 174.97 176.949 174.582 176.483 174.203L218.945 174.203Z" fill="#547DBA"/>
<path d="M218.945 174.203C218.479 174.582 218.024 174.97 217.578 175.368H213.602C214.049 174.97 214.505 174.582 214.969 174.203H218.945Z" fill="#34629B"/>
<rect width="24.9832" height="2.33497" rx="1.16749" transform="matrix(1 0 0 -1 185.227 236.999)" fill="#6E8EC8"/>
<path d="M210.207 235.831C210.207 236.475 209.686 236.997 209.042 236.999H201.174C201.604 237.019 202.01 236.801 202.231 236.432C202.452 236.063 202.452 235.602 202.231 235.233C202.01 234.864 201.604 234.646 201.174 234.666H209.042C209.351 234.666 209.648 234.788 209.867 235.007C210.085 235.225 210.208 235.522 210.207 235.831Z" fill="#547DBA"/>
<rect width="53.7837" height="4.86453" rx="2.43226" transform="matrix(1 0 0 -1 170.828 175.37)" fill="#6E8EC8"/>
<path d="M224.605 172.939C224.605 173.584 224.349 174.202 223.893 174.658C223.437 175.113 222.818 175.369 222.173 175.368H209.641C210.984 175.368 212.073 174.279 212.073 172.936C212.073 171.593 210.984 170.504 209.641 170.504H222.173C222.818 170.502 223.438 170.757 223.894 171.213C224.351 171.669 224.607 172.288 224.605 172.934V172.939Z" fill="#547DBA"/>
<path d="M217.578 175.367C216.105 176.664 214.715 178.053 213.418 179.525C210.425 182.903 207.926 186.687 205.993 190.765C202.956 197.176 201.382 204.183 201.384 211.278V221.383C201.382 226.122 202.809 230.752 205.481 234.666H201.505C198.833 230.752 197.405 226.122 197.408 221.383V211.278C197.406 204.183 198.98 197.176 202.017 190.765C202.037 190.724 202.055 190.683 202.076 190.644C204.536 185.485 200.831 179.525 195.117 179.525H182.011C180.713 178.053 179.323 176.664 177.85 175.367H217.578Z" fill="#34629B"/>
<path d="M146.66 144.58C145.977 145.138 145.307 145.71 144.648 146.295C142.482 148.205 140.437 150.248 138.526 152.412C127.117 165.306 120.818 181.928 120.817 199.145V214.015C120.818 220.992 122.927 227.806 126.867 233.565H103.97C107.906 227.805 110.011 220.991 110.007 214.015V199.145C110.009 181.928 103.71 165.305 92.3004 152.412C90.3949 150.248 88.3564 148.205 86.1967 146.295C85.5378 145.712 84.867 145.14 84.1843 144.58L146.66 144.58Z" fill="#547DBA"/>
<path d="M146.66 144.58C145.977 145.138 145.307 145.71 144.648 146.295H138.798C139.455 145.712 140.125 145.14 140.81 144.58H146.66Z" fill="#34629B"/>
<rect width="36.7681" height="3.43589" rx="1.71795" transform="matrix(1 0 0 -1 97.0312 236.999)" fill="#6E8EC8"/>
<path d="M133.797 235.281C133.797 236.23 133.028 236.999 132.079 236.999H120.499C121.421 236.963 122.15 236.205 122.15 235.282C122.15 234.359 121.421 233.601 120.499 233.565H132.079C133.027 233.565 133.795 234.333 133.797 235.281H133.797Z" fill="#547DBA"/>
<rect width="110.824" height="5.12311" rx="2.56156" transform="matrix(1 0 0 -1 60.0039 146.299)" fill="#6E8EC8"/>
<path d="M170.828 143.736C170.828 145.15 169.682 146.296 168.268 146.296H138.034C139.448 146.296 140.594 145.15 140.594 143.736C140.594 142.322 139.448 141.176 138.034 141.176H168.268C169.682 141.176 170.828 142.322 170.828 143.736H170.828Z" fill="#547DBA"/>
<path d="M144.645 146.296C142.479 148.205 140.434 150.248 138.523 152.412C127.114 165.306 120.815 181.928 120.813 199.145V214.015C120.815 220.993 122.924 227.807 126.863 233.565H121.013C117.073 227.807 114.965 220.993 114.963 214.015V199.145C114.961 188.704 117.279 178.392 121.751 168.957C121.781 168.898 121.809 168.837 121.838 168.778C125.458 161.189 120.007 152.412 111.596 152.412H92.3074C90.3986 150.248 88.3567 148.206 86.1934 146.296L144.645 146.296Z" fill="#34629B"/>
<path d="M139.001 137.809H137.903C137.323 137.809 136.853 138.279 136.853 138.858V139.47H140.051V138.858C140.051 138.279 139.581 137.809 139.001 137.809Z" fill="#D7E2FF"/>
<path d="M142.192 137.809H141.094C140.514 137.809 140.044 138.279 140.044 138.858V139.47H143.242V138.858C143.242 138.279 142.772 137.809 142.192 137.809Z" fill="#D7E2FF"/>
<path d="M145.392 137.809H144.293C143.714 137.809 143.244 138.279 143.244 138.858V139.47H146.441V138.858C146.441 138.279 145.971 137.809 145.392 137.809Z" fill="#D7E2FF"/>
<path d="M148.587 137.809H147.489C147.21 137.809 146.943 137.919 146.746 138.116C146.55 138.313 146.439 138.58 146.439 138.858V139.47H149.637V138.858C149.637 138.58 149.526 138.313 149.329 138.116C149.132 137.919 148.865 137.809 148.587 137.809Z" fill="#D7E2FF"/>
<path d="M151.788 137.809H150.689C150.109 137.809 149.639 138.279 149.639 138.858V139.47H152.84V138.858C152.84 138.279 152.37 137.809 151.79 137.809H151.788Z" fill="#D7E2FF"/>
<path d="M154.982 137.809H153.883C153.303 137.809 152.833 138.279 152.833 138.858V139.47H156.031V138.858C156.031 138.58 155.921 138.313 155.724 138.116C155.527 137.919 155.26 137.809 154.982 137.809Z" fill="#D7E2FF"/>
<path d="M158.181 137.809H157.082C156.503 137.809 156.033 138.279 156.033 138.858V139.47H159.23V138.858C159.23 138.279 158.76 137.809 158.181 137.809Z" fill="#D7E2FF"/>
<rect width="36.4916" height="2.60636" rx="1.30318" transform="matrix(-1 0 0 1 163.48 138.572)" fill="#4970DB"/>
<path d="M137.035 141.176H106.588C105.312 141.176 104.199 140.309 103.887 139.072L97.9525 115.494C97.7436 114.661 97.9299 113.779 98.4575 113.102C98.9851 112.425 99.7952 112.028 100.654 112.027H127.537C128.81 112.032 129.917 112.9 130.227 114.134L137.035 141.176Z" fill="#5476EF"/>
<path d="M97.9525 115.494L103.887 139.072C104.2 140.308 105.313 141.175 106.588 141.176H137.035L136.372 138.572H112.305C111.029 138.572 109.915 137.704 109.604 136.465L103.67 112.888C103.599 112.607 103.572 112.316 103.59 112.027H100.656C99.7973 112.028 98.9865 112.424 98.4583 113.101C97.9301 113.778 97.7435 114.661 97.9525 115.494Z" fill="#4970DB"/>
<circle cx="1.52336" cy="1.52336" r="1.52336" transform="matrix(-1 0 0 1 117.113 125.857)" fill="#D7E2FF"/>
<path d="M113.552 129.664C114.213 130.689 115.43 131.21 116.628 130.979C117.826 130.749 118.763 129.813 118.996 128.616C119.229 127.419 118.71 126.2 117.686 125.537C118.441 126.719 118.272 128.266 117.281 129.257C116.291 130.248 114.744 130.418 113.562 129.664H113.552Z" fill="#D7E2FF"/>
<circle cx="5.45339" cy="5.45339" r="5.45339" transform="matrix(-1 0 0 1 190.773 90.4336)" fill="#F4AD18"/>
<path d="M161.463 131.367C158.604 133.563 158.065 137.661 160.261 140.521C162.457 143.381 166.556 143.919 169.416 141.723L185.994 128.993C188.854 126.797 189.392 122.698 187.196 119.838C185 116.978 180.901 116.44 178.042 118.636L161.463 131.367Z" fill="#FAEEDE"/>
<circle cx="7.00492" cy="7.00492" r="7.00492" transform="matrix(-1 0 0 1 172.457 129.058)" fill="#F2E6D7"/>
<path d="M159.967 138.258C161.355 140.892 164.616 141.902 167.249 140.514C169.883 139.126 170.893 135.866 169.505 133.232L158.699 112.727C157.311 110.093 154.05 109.083 151.416 110.471C148.783 111.859 147.773 115.12 149.161 117.754L159.967 138.258Z" fill="#FFB2BF"/>
<path d="M151.386 107.823C148.681 106.649 145.537 107.89 144.363 110.595C143.189 113.3 144.43 116.445 147.135 117.619L151.421 119.479C154.126 120.653 157.271 119.412 158.445 116.707C159.619 114.002 158.378 110.857 155.673 109.683L151.386 107.823Z" fill="#FFB2BF"/>
<path d="M144.807 104.966C143.829 104.542 142.691 104.991 142.266 105.969C141.841 106.948 142.29 108.086 143.269 108.51L153.19 112.816C154.168 113.241 155.306 112.791 155.731 111.813C156.156 110.834 155.707 109.696 154.728 109.272L144.807 104.966Z" fill="#FFB2BF"/>
<path d="M161.463 131.367C158.604 133.563 158.065 137.661 160.261 140.521C162.457 143.381 166.556 143.919 169.416 141.723L185.994 128.993C188.854 126.797 189.392 122.698 187.196 119.838C185 116.978 180.901 116.44 178.042 118.636L161.463 131.367Z" fill="#E1303E"/>
<circle cx="7.00492" cy="7.00492" r="7.00492" transform="matrix(-1 0 0 1 172.457 129.058)" fill="#F63E4A"/>
<path d="M159.995 138.257C161.383 140.891 164.643 141.901 167.277 140.513C169.911 139.125 170.92 135.865 169.532 133.231L158.726 112.726C157.338 110.092 154.078 109.082 151.444 110.47C148.81 111.858 147.8 115.119 149.188 117.753L159.995 138.257Z" fill="#FFB2BF"/>
<path d="M151.418 107.822C148.712 106.648 145.568 107.889 144.394 110.594C143.22 113.3 144.461 116.444 147.166 117.618L151.453 119.478C154.158 120.652 157.302 119.411 158.476 116.706C159.65 114.001 158.409 110.856 155.704 109.682L151.418 107.822Z" fill="#FFB2BF"/>
<path d="M144.384 110.596C144.575 110.155 144.824 109.743 145.124 109.369C144.972 109.867 144.895 110.385 144.894 110.905C144.894 113.033 146.158 114.958 148.11 115.806L148.622 116.031L150.652 116.912L152.129 119.728L160.952 136.452C161.799 138.058 163.399 139.13 165.207 139.304C167.015 139.477 168.789 138.728 169.926 137.312C169.292 139.404 167.456 140.906 165.28 141.113C163.104 141.321 161.018 140.194 160 138.259L149.707 118.727L147.147 117.621C145.847 117.058 144.824 116.001 144.304 114.683C143.784 113.365 143.809 111.895 144.374 110.596H144.384Z" fill="#FC9AAF"/>
<path d="M144.835 104.965C143.856 104.541 142.718 104.99 142.293 105.968C141.869 106.947 142.318 108.085 143.296 108.509L153.217 112.815C154.196 113.24 155.333 112.79 155.758 111.812C156.183 110.833 155.734 109.695 154.755 109.271L144.835 104.965Z" fill="#FFB2BF"/>
<circle cx="10.2309" cy="10.2309" r="10.2309" transform="matrix(-1 0 0 1 195.914 115.321)" fill="#E1303E"/>
<path d="M198.159 171.759C206.679 171.566 213.429 164.502 213.236 155.982L212.71 132.823C212.517 124.303 205.453 117.553 196.933 117.746C188.413 117.94 181.663 125.003 181.857 133.523L182.382 156.683C182.576 165.203 189.639 171.953 198.159 171.759Z" fill="#F63E4A"/>
<path d="M217.092 124.065C216.949 117.756 211.718 112.757 205.409 112.9L188.219 113.29C181.914 113.439 176.921 118.668 177.065 124.973C177.301 135.382 185.93 143.628 196.339 143.392L198.683 143.339C209.088 143.097 217.328 134.469 217.092 124.065H217.092Z" fill="#F63E4A"/>
<path d="M191.062 104.934L191.282 114.663C191.345 117.698 193.826 120.123 196.861 120.117H196.986C200.064 120.045 202.502 117.493 202.432 114.415L202.358 111.087L202.212 104.686C202.145 101.654 199.668 99.2317 196.636 99.2324H196.508C193.43 99.3051 190.993 101.857 191.062 104.934Z" fill="#FFB2BF"/>
<path d="M204.829 171.607C209.666 171.497 213.497 167.488 213.387 162.652C213.277 157.816 209.268 153.984 204.432 154.094L164.251 155.006C159.415 155.116 155.584 159.125 155.693 163.961C155.803 168.797 159.813 172.628 164.649 172.519L204.829 171.607Z" fill="#252849"/>
<path d="M195.918 163.486V224.676H213.438V163.486C213.356 158.706 209.458 154.874 204.678 154.874C199.897 154.874 195.999 158.706 195.918 163.486Z" fill="#30335D"/>
<path d="M195.918 217.134V224.666H213.438V219.884L195.918 217.134Z" fill="#252849"/>
<path d="M134.186 218.68L149.804 224.94L151.57 220.367L172.565 167.052C173.691 164.133 173.175 160.834 171.211 158.398C169.246 155.963 166.131 154.76 163.04 155.244C159.948 155.728 157.349 157.824 156.222 160.743L136.293 211.278L134.186 216.729V218.68Z" fill="#252849"/>
<path d="M147.32 225.265L135.063 220.532L132.47 227.249L144.727 231.981L147.32 225.265Z" fill="#FC9AAF"/>
<path d="M211.25 226.031H198.111V232.76H211.25V226.031Z" fill="#FFB2BF"/>
<path d="M191.062 104.935L191.282 114.664C191.294 115.175 191.375 115.682 191.523 116.172C191.661 116.172 191.8 116.172 191.94 116.172C196.018 116.175 199.867 114.289 202.363 111.064L202.217 104.663C202.151 101.632 199.673 99.2092 196.641 99.21H196.513C195.03 99.2435 193.622 99.8662 192.599 100.94C191.576 102.015 191.023 103.452 191.062 104.935Z" fill="#FC9AAF"/>
<path d="M181.37 99.5884C181.37 107.341 186.895 113.67 193.852 114.082C194.087 114.095 194.323 114.103 194.561 114.103C201.845 114.103 207.754 107.605 207.754 99.5884C207.754 91.5722 201.845 85.0742 194.561 85.0742C194.323 85.0742 194.087 85.0742 193.852 85.0947C186.895 85.5018 181.37 91.8359 181.37 99.5884Z" fill="#FFB2BF"/>
<path d="M187.018 102.395C186.985 103.373 187.341 104.324 188.009 105.04C188.093 105.127 188.178 105.208 188.265 105.296C188.906 105.864 189.726 106.189 190.582 106.215H190.73C192.649 106.28 194.297 104.862 194.519 102.955C194.519 102.856 194.537 102.753 194.542 102.651C194.549 102.461 194.48 102.277 194.35 102.138C194.221 102 194.041 101.919 193.851 101.913L187.758 101.709C187.569 101.701 187.384 101.769 187.245 101.898C187.106 102.027 187.025 102.205 187.018 102.395Z" fill="#962F4A"/>
<path d="M190.677 105.644C190.669 105.834 190.681 106.024 190.712 106.212H190.733C192.651 106.277 194.298 104.859 194.52 102.953C193.643 102.667 192.683 102.811 191.928 103.34C191.173 103.869 190.71 104.722 190.679 105.644H190.677Z" fill="#E1617F"/>
<path d="M187.891 101.709C187.891 102.434 188.989 103.051 190.362 103.097C191.734 103.143 192.868 102.603 192.922 101.878L187.891 101.709Z" fill="white"/>
<path d="M181.372 99.5884C181.372 107.341 186.897 113.67 193.854 114.082C194.089 114.095 194.325 114.103 194.565 114.103C195.002 114.102 195.437 114.078 195.871 114.031C189.194 113.314 183.979 107.118 183.979 99.5884C183.979 92.0587 189.194 85.8628 195.871 85.1459C195.437 85.0988 195.002 85.0748 194.565 85.0742C194.325 85.0742 194.089 85.0742 193.854 85.0947C186.897 85.4992 181.372 91.8385 181.372 99.5884Z" fill="#FC9AAF"/>
<path d="M205.459 123.837V123.972C205.587 128.325 208.493 131.786 212.042 131.838H212.27C215.962 131.74 218.893 127.997 218.819 123.481C218.778 120.982 218.248 118.957 216.771 117.495C215.893 116.684 214.85 116.072 213.714 115.703C213.156 115.538 212.577 115.462 211.996 115.477C211.606 115.487 211.219 115.538 210.841 115.631C207.725 116.397 205.395 119.802 205.459 123.837Z" fill="#E1303E"/>
<path d="M205.197 123.669V123.807C205.309 126.954 206.858 129.642 209.058 130.961C207.913 129.421 207.273 127.566 207.225 125.648C207.225 125.599 207.225 125.556 207.225 125.507C207.135 121.411 209.529 117.952 212.742 117.202C213.133 117.111 213.532 117.06 213.932 117.051C214.532 117.038 215.13 117.12 215.704 117.291C216.206 117.44 216.686 117.652 217.133 117.924C216.272 116.753 215.062 115.887 213.676 115.45C213.102 115.28 212.504 115.199 211.905 115.212C211.504 115.221 211.105 115.271 210.714 115.363C207.493 116.111 205.107 119.57 205.197 123.669Z" fill="#E1303E"/>
<path d="M216.744 145.929C218.264 149.199 222.147 150.618 225.416 149.098C228.686 147.578 230.105 143.695 228.585 140.425L219.774 121.471C218.255 118.201 214.372 116.783 211.102 118.302C207.832 119.822 206.414 123.705 207.934 126.975L216.744 145.929Z" fill="#F63E4A"/>
<path d="M207.689 122.089C208.968 120.073 211.245 118.915 213.627 119.07C216.01 119.226 218.117 120.669 219.123 122.834L227.933 141.78C228.649 143.312 228.741 145.062 228.189 146.66C229.379 144.784 229.532 142.431 228.594 140.418L219.784 121.472C218.664 119.057 216.189 117.564 213.531 117.7C210.872 117.836 208.563 119.572 207.694 122.089H207.689Z" fill="#FF5566"/>
<circle cx="7.00492" cy="7.00492" r="7.00492" transform="matrix(-1 0 0 1 229.293 136.137)" fill="#E1303E"/>
<rect width="32.3261" height="12.6401" rx="6.32004" transform="matrix(-1 0 0 1 210.359 82.6045)" fill="#FFC535"/>
<circle cx="5.45339" cy="5.45339" r="5.45339" transform="matrix(-1 0 0 1 212.125 90.4336)" fill="#FFC535"/>
<circle cx="4.37039" cy="4.37039" r="4.37039" transform="matrix(-1 0 0 1 211.98 95.2188)" fill="#FFB2BF"/>
<path d="M195.918 236.099H212.613C212.614 232.036 209.687 228.563 205.683 227.873C205.214 227.792 204.74 227.751 204.264 227.753C202.05 227.752 199.926 228.631 198.361 230.196C196.795 231.762 195.916 233.885 195.918 236.099Z" fill="#E1303E"/>
<path d="M195.923 236.1H199.778C199.778 232.374 202.157 229.065 205.688 227.876C205.219 227.795 204.745 227.754 204.269 227.756C202.056 227.755 199.932 228.633 198.367 230.198C196.801 231.763 195.922 233.886 195.923 236.1Z" fill="#F63E4A"/>
<path d="M193.61 234.592C193.61 234.754 193.627 234.916 193.658 235.075C193.676 235.155 193.694 235.232 193.717 235.308C193.74 235.385 193.771 235.457 193.799 235.529C193.89 235.743 194.012 235.943 194.16 236.123C194.208 236.182 194.259 236.239 194.314 236.292C194.367 236.346 194.423 236.397 194.483 236.445C194.915 236.803 195.458 236.998 196.019 236.996H213.833C214.834 237.02 215.666 236.229 215.691 235.228C215.716 234.227 214.924 233.395 213.923 233.37L200.566 232.479L196.134 232.185C195.735 232.164 195.337 232.244 194.977 232.418C194.873 232.468 194.773 232.525 194.677 232.589C194.582 232.655 194.49 232.727 194.403 232.805C194.317 232.883 194.238 232.969 194.165 233.061C194.117 233.119 194.068 233.181 194.025 233.245C193.826 233.54 193.695 233.874 193.64 234.225C193.621 234.347 193.611 234.469 193.61 234.592Z" fill="#E1303E"/>
<path d="M193.609 234.592C193.61 234.754 193.626 234.916 193.658 235.075C193.674 235.154 193.693 235.232 193.717 235.308C193.742 235.383 193.768 235.457 193.799 235.529C193.89 235.743 194.011 235.943 194.16 236.123C194.208 236.182 194.259 236.239 194.313 236.292C194.366 236.346 194.423 236.397 194.482 236.445C194.914 236.803 195.458 236.998 196.018 236.996H201.73C200.633 236.994 199.675 236.251 199.401 235.188C199.127 234.125 199.606 233.012 200.566 232.479L196.134 232.185C195.734 232.164 195.336 232.244 194.976 232.418C194.872 232.467 194.772 232.524 194.677 232.589C194.484 232.719 194.312 232.876 194.165 233.055C194.114 233.114 194.067 233.176 194.024 233.24C193.826 233.534 193.694 233.869 193.64 234.22C193.621 234.343 193.61 234.467 193.609 234.592Z" fill="#F63E4A"/>
<path d="M145.384 228.12L134.152 223.399L132.026 228.457L145.436 234.094L146.647 231.215C147.153 230.011 146.587 228.626 145.384 228.12V228.12Z" fill="#F63E4A"/>
<path d="M121.884 225.995L137.273 232.465C138.429 229.716 138.03 226.559 136.227 224.184C134.424 221.808 131.491 220.575 128.533 220.949C125.574 221.322 123.039 223.246 121.884 225.995Z" fill="#E1303E"/>
<path d="M121.885 225.995L126.209 227.81C127.646 224.397 131.159 222.337 134.84 222.751C132.799 221.096 130.098 220.498 127.548 221.136C124.999 221.774 122.898 223.574 121.877 225.995H121.885Z" fill="#F63E4A"/>
<path d="M146.45 233.361L124.34 222.782C123.746 222.497 123.062 222.468 122.446 222.701C121.831 222.935 121.338 223.411 121.083 224.018C120.834 224.606 120.83 225.269 121.07 225.86C121.31 226.452 121.775 226.924 122.363 227.172L144.958 236.668C145.401 236.856 145.901 236.859 146.346 236.677C146.792 236.496 147.147 236.144 147.334 235.701C147.709 234.81 147.321 233.781 146.45 233.361Z" fill="#E1303E"/>
<path d="M121.084 224.02C120.568 225.244 121.141 226.655 122.364 227.172L127.63 229.384C127.04 229.14 126.573 228.668 126.335 228.076C126.031 227.347 126.104 226.515 126.531 225.851C126.958 225.186 127.683 224.774 128.473 224.747L124.34 222.781C123.746 222.496 123.062 222.468 122.446 222.702C121.831 222.936 121.338 223.413 121.084 224.02Z" fill="#F63E4A"/>
<path d="M191.436 139.776C190.369 139.872 189.582 140.815 189.678 141.882C189.774 142.949 190.716 143.736 191.783 143.64L197.797 143.099C198.864 143.003 199.651 142.06 199.555 140.993C199.459 139.926 198.517 139.139 197.45 139.235L191.436 139.776Z" fill="#FC9AAF"/>
<circle cx="3.80457" cy="3.80457" r="3.80457" transform="matrix(-1 0 0 1 201.488 138.615)" fill="#FC9AAF"/>
<path d="M222.887 149.594C225.864 149.623 228.301 147.234 228.331 144.257C228.361 141.28 225.971 138.843 222.994 138.813L199.817 138.582C196.84 138.553 194.403 140.942 194.373 143.919C194.344 146.896 196.733 149.334 199.71 149.363L222.887 149.594Z" fill="#FFB2BF"/>
<path d="M192.021 142.722C189.703 144.545 189.302 147.902 191.125 150.22C192.948 152.538 196.304 152.939 198.622 151.116L202.295 148.228C204.613 146.405 205.015 143.048 203.192 140.73C201.369 138.412 198.012 138.011 195.694 139.834L192.021 142.722Z" fill="#FFB2BF"/>
<path d="M186.382 147.157C185.543 147.817 185.398 149.031 186.057 149.87C186.717 150.709 187.931 150.854 188.77 150.194L197.271 143.51C198.11 142.85 198.255 141.636 197.595 140.797C196.936 139.958 195.721 139.813 194.883 140.473L186.382 147.157Z" fill="#FFB2BF"/>
<path d="M191.436 139.776C190.369 139.872 189.582 140.815 189.678 141.882C189.774 142.949 190.716 143.736 191.783 143.64L197.797 143.099C198.864 143.003 199.651 142.06 199.555 140.993C199.459 139.926 198.517 139.139 197.45 139.235L191.436 139.776Z" fill="#FC9AAF"/>
<circle cx="3.80457" cy="3.80457" r="3.80457" transform="matrix(-1 0 0 1 201.488 138.615)" fill="#FC9AAF"/>
<path d="M222.883 149.594C225.86 149.623 228.297 147.234 228.327 144.257C228.357 141.28 225.967 138.843 222.99 138.813L199.813 138.582C196.836 138.553 194.399 140.942 194.369 143.919C194.34 146.896 196.729 149.334 199.706 149.363L222.883 149.594Z" fill="#FFB2BF"/>
<path d="M192.018 142.723C189.699 144.546 189.298 147.903 191.121 150.221C192.944 152.539 196.3 152.94 198.619 151.117L202.291 148.229C204.609 146.406 205.011 143.049 203.188 140.731C201.365 138.413 198.008 138.012 195.69 139.835L192.018 142.723Z" fill="#FFB2BF"/>
<path d="M190.591 148.859C191.466 149.973 192.748 150.694 194.155 150.862C195.561 151.03 196.977 150.632 198.09 149.755L198.707 149.271L200.277 148.037L202.491 148.058L222.351 148.255C223.781 148.269 225.158 147.715 226.179 146.714C227.2 145.712 227.781 144.346 227.794 142.917V142.863C227.795 142.426 227.742 141.991 227.638 141.567C228.095 142.374 228.334 143.285 228.332 144.212V144.266C228.319 145.696 227.737 147.062 226.716 148.063C225.696 149.064 224.319 149.618 222.889 149.604L200.814 149.386L198.625 151.107C197.199 152.226 195.303 152.545 193.589 151.955C191.875 151.365 190.577 149.946 190.143 148.186C190.275 148.421 190.424 148.646 190.591 148.859Z" fill="#FDC3CD"/>
<path d="M186.382 147.158C185.543 147.818 185.398 149.032 186.057 149.871C186.717 150.71 187.931 150.855 188.77 150.195L197.271 143.511C198.11 142.851 198.255 141.637 197.595 140.798C196.936 139.959 195.721 139.814 194.883 140.474L186.382 147.158Z" fill="#FFB2BF"/>
<path d="M134.189 218.68L149.804 224.94L151.57 220.367L136.301 211.278L134.196 216.729L134.189 218.68Z" fill="#171A33"/>
<path d="M195.922 226.068H213.439L215.227 221.567L192.732 218.034L195.922 226.068Z" fill="#30335D"/>
<circle cx="1.09324" cy="1.09324" r="1.09324" transform="matrix(-1 0 0 1 213.078 223.102)" fill="#141334"/>
<circle cx="0.798806" cy="0.798806" r="0.798806" transform="matrix(-1 0 0 1 212.848 223.69)" fill="#666DA2"/>
<path d="M212.046 225.009C212.081 225.013 212.116 225.013 212.151 225.009C212.445 225.009 212.684 224.771 212.684 224.477C212.684 224.183 212.445 223.944 212.151 223.944C212.116 223.942 212.081 223.942 212.046 223.944C212.292 223.996 212.468 224.214 212.468 224.465C212.468 224.717 212.292 224.934 212.046 224.986V225.009Z" fill="#332D52"/>
<path d="M212.16 223.824C212.115 223.814 212.068 223.808 212.022 223.809C211.663 223.831 211.383 224.128 211.383 224.488C211.383 224.848 211.663 225.146 212.022 225.168C212.068 225.168 212.115 225.164 212.16 225.155C211.847 225.088 211.623 224.81 211.623 224.49C211.623 224.169 211.847 223.892 212.16 223.824V223.824Z" fill="#9DA5D1"/>
<path d="M132.883 219.745L149.143 226.264L152.477 222.748L132.911 211.102L132.883 219.745Z" fill="#252849"/>
<circle cx="1.09324" cy="1.09324" r="1.09324" transform="matrix(-1 0 0 1 149.668 222.229)" fill="#141334"/>
<circle cx="0.798806" cy="0.798806" r="0.798806" transform="matrix(-1 0 0 1 149.441 222.817)" fill="#666DA2"/>
<path d="M148.64 224.138C148.675 224.141 148.71 224.141 148.745 224.138C149.039 224.138 149.277 223.9 149.277 223.606C149.277 223.312 149.039 223.073 148.745 223.073C148.71 223.069 148.675 223.069 148.64 223.073C148.886 223.125 149.062 223.343 149.062 223.594C149.062 223.846 148.886 224.063 148.64 224.115V224.138Z" fill="#332D52"/>
<path d="M148.762 222.951C148.716 222.947 148.669 222.947 148.623 222.951C148.264 222.973 147.984 223.271 147.984 223.631C147.984 223.991 148.264 224.289 148.623 224.311C148.67 224.311 148.716 224.306 148.762 224.295C148.448 224.228 148.225 223.95 148.225 223.63C148.225 223.309 148.448 223.032 148.762 222.964V222.951Z" fill="#9DA5D1"/>
<path d="M209.055 99.4507C209.055 100.301 208.546 101.069 207.762 101.399C207.574 101.47 207.364 101.444 207.199 101.329C207.035 101.215 206.938 101.026 206.94 100.826V98.0759C206.942 97.866 207.051 97.6716 207.228 97.5597C207.406 97.4479 207.628 97.434 207.818 97.5228C208.571 97.8688 209.054 98.6218 209.055 99.4507Z" fill="#F9A0B4"/>
<path d="M153.807 105.321C153.217 104.432 152.018 104.19 151.129 104.781C150.24 105.371 149.998 106.57 150.589 107.459L153.916 112.468C154.506 113.357 155.705 113.599 156.594 113.009C157.483 112.419 157.725 111.22 157.134 110.331L153.807 105.321Z" fill="#FFB2BF"/>
<circle cx="3.80457" cy="3.80457" r="3.80457" transform="matrix(-1 0 0 1 158.164 108.867)" fill="#FFB2BF"/>
<ellipse cx="2.34009" cy="2.93664" rx="2.34009" ry="2.93664" transform="matrix(-0.707107 -0.707107 -0.707107 0.707107 200.48 145.904)" fill="#F9E0E5"/>
<rect width="17.6941" height="7.06892" rx="3.53446" transform="matrix(1 0 0 -1 181.371 87.0967)" fill="#FFC535"/>
<path d="M198.043 81.0651H187.879C186.943 81.0613 186.044 81.4297 185.38 82.0892C185.228 82.2419 185.089 82.4072 184.965 82.5833C184.6 83.1132 184.387 83.7331 184.351 84.3755C183.801 84.6688 183.298 85.0415 182.858 85.4816C182.689 85.6501 182.531 85.8288 182.384 86.0167C181.489 87.1313 181.003 88.5194 181.007 89.9492C181.006 92.0559 182.056 94.0241 183.805 95.1978C181.019 94.9552 178.723 92.9093 178.163 90.1688C177.602 87.4283 178.91 84.6454 181.378 83.3284C181.487 81.4594 183.034 79.9996 184.906 80H195.519C196.469 79.9999 197.38 80.384 198.043 81.0651V81.0651Z" fill="#FCD277"/>
<circle cx="1.10604" cy="1.10604" r="1.10604" transform="matrix(-1 0 0 1 196.199 97.7119)" fill="#252849"/>
<circle cx="1.10604" cy="1.10604" r="1.10604" transform="matrix(-1 0 0 1 185.055 97.7119)" fill="#252849"/>
<circle cx="5.64029" cy="5.64029" r="5.64029" transform="matrix(-1 0 0 1 188.207 93.1777)" stroke="#252849" stroke-width="2.27"/>
<circle cx="5.64029" cy="5.64029" r="5.64029" transform="matrix(-1 0 0 1 201.512 93.1777)" stroke="#252849" stroke-width="2.27"/>
<path d="M188.203 99.0382H190.238" stroke="#252849" stroke-width="2.27"/>
<rect width="16.2501" height="6.35461" rx="3.1773" transform="matrix(-1 0 0 1 203.703 85.7451)" fill="#FCD277"/>
</svg>
