<svg width="320" height="320" viewBox="0 0 320 320" fill="none" xmlns="http://www.w3.org/2000/svg">
<rect width="320" height="320" fill="#EDDECF"/>
<path d="M102.471 148.896V149.205C102.471 149.205 102.471 149.449 102.458 149.571C102.458 149.654 102.458 149.74 102.442 149.824V149.941C102.443 149.961 102.443 149.98 102.442 150V150.133V150.185V150.253V150.332C102.442 150.332 102.442 150.404 102.431 150.44C102.42 150.476 102.431 150.485 102.431 150.508C102.431 150.591 102.41 150.675 102.397 150.756C102.383 150.838 102.37 150.944 102.354 151.036C102.338 151.129 102.327 151.201 102.311 151.282C102.289 151.413 102.261 151.542 102.232 151.671C102.233 151.687 102.233 151.704 102.232 151.72C102.216 151.79 102.201 151.863 102.182 151.933C102.164 152.003 102.16 152.034 102.146 152.084L102.112 152.217C102.112 152.24 102.101 152.262 102.094 152.285C102.063 152.402 102.031 152.511 101.995 152.635C101.979 152.693 101.961 152.75 101.943 152.806C101.925 152.863 101.914 152.903 101.898 152.951C101.882 152.998 101.882 152.998 101.873 153.021C101.845 153.113 101.813 153.205 101.778 153.298C101.771 153.325 101.762 153.35 101.751 153.375C101.733 153.427 101.715 153.477 101.695 153.529C101.689 153.546 101.682 153.564 101.674 153.581L101.625 153.712L101.55 153.897L101.503 154.01C101.465 154.104 101.424 154.197 101.381 154.29L101.349 154.357C101.279 154.509 101.207 154.66 101.124 154.809C101.092 154.874 101.058 154.938 101.024 155.001L100.911 155.213L100.848 155.328L100.64 155.683L100.6 155.75L100.451 155.976C100.433 156.005 100.415 156.035 100.394 156.064C100.374 156.094 100.36 156.116 100.342 156.143L100.286 156.227C100.225 156.319 100.16 156.412 100.096 156.504C99.8706 156.83 99.6177 157.146 99.358 157.448L99.1797 157.651C99.3603 157.279 99.5251 156.895 99.6696 156.504C100.632 153.923 100.767 151.106 100.053 148.444H102.526C102.469 148.62 102.471 148.758 102.471 148.896Z" fill="#C7CCF9"/>
<path d="M92.9764 144.369H225.6C228.064 144.369 230.428 145.347 232.171 147.089C233.913 148.832 234.893 151.195 234.893 153.66V197.53H83.6836V153.66C83.6836 151.195 84.6627 148.832 86.4055 147.089C88.1483 145.347 90.512 144.369 92.9764 144.369V144.369Z" fill="#A17C74"/>
<path d="M83.6836 195.044H234.89V197.53H83.6836V195.044Z" fill="#7B5649"/>
<rect x="71" y="197.529" width="176.575" height="27.4269" rx="13.7134" fill="#A17C74"/>
<path d="M71 216.404H247.575V219.353H71L71 216.404Z" fill="#936E62"/>
<path d="M91.9235 239.79H87.4961L93.8922 224.959H100.882L91.9235 239.79Z" fill="#7B5649"/>
<path d="M226.652 239.79H231.079L224.685 224.959H217.695L226.652 239.79Z" fill="#7B5649"/>
<circle cx="219.532" cy="159.591" r="1.52397" fill="#7B5649"/>
<path d="M224.306 154.223C224.469 154.06 224.734 154.06 224.897 154.223C225.06 154.386 225.06 154.651 224.897 154.814L222.121 157.59C221.958 157.753 221.693 157.753 221.53 157.59C221.367 157.427 221.367 157.162 221.53 156.999L224.306 154.223Z" fill="#7B5649"/>
<path d="M216.459 162.075C216.622 161.912 216.886 161.912 217.049 162.075C217.212 162.238 217.212 162.502 217.049 162.665L214.273 165.442C214.11 165.605 213.845 165.605 213.682 165.442C213.519 165.278 213.519 165.014 213.682 164.851L216.459 162.075Z" fill="#7B5649"/>
<path d="M224.9 164.851C225.063 165.014 225.063 165.279 224.9 165.442C224.737 165.605 224.472 165.605 224.309 165.442L221.533 162.666C221.37 162.502 221.37 162.238 221.533 162.075C221.696 161.912 221.961 161.912 222.124 162.075L224.9 164.851Z" fill="#7B5649"/>
<path d="M217.048 157.001C217.212 157.164 217.212 157.428 217.048 157.591C216.885 157.754 216.621 157.754 216.458 157.591L213.681 154.815C213.518 154.652 213.518 154.387 213.681 154.224C213.845 154.061 214.109 154.061 214.272 154.224L217.048 157.001Z" fill="#7B5649"/>
<circle cx="219.532" cy="183.866" r="1.52397" fill="#7B5649"/>
<path d="M224.306 178.501C224.469 178.338 224.734 178.338 224.897 178.501C225.06 178.665 225.06 178.929 224.897 179.092L222.121 181.868C221.958 182.031 221.693 182.031 221.53 181.868C221.367 181.705 221.367 181.441 221.53 181.278L224.306 178.501Z" fill="#7B5649"/>
<path d="M216.459 186.351C216.622 186.188 216.886 186.188 217.049 186.351C217.212 186.514 217.212 186.779 217.049 186.942L214.273 189.718C214.11 189.881 213.845 189.881 213.682 189.718C213.519 189.555 213.519 189.29 213.682 189.127L216.459 186.351Z" fill="#7B5649"/>
<path d="M224.9 189.127C225.063 189.29 225.063 189.554 224.9 189.717C224.737 189.88 224.472 189.88 224.309 189.717L221.533 186.941C221.37 186.778 221.37 186.513 221.533 186.35C221.696 186.187 221.961 186.187 222.124 186.35L224.9 189.127Z" fill="#7B5649"/>
<path d="M217.048 181.275C217.212 181.438 217.212 181.703 217.048 181.866C216.885 182.029 216.621 182.029 216.458 181.866L213.681 179.089C213.518 178.926 213.518 178.662 213.681 178.499C213.845 178.336 214.109 178.336 214.272 178.499L217.048 181.275Z" fill="#7B5649"/>
<circle cx="189.532" cy="159.591" r="1.52397" fill="#7B5649"/>
<path d="M194.306 154.223C194.469 154.06 194.734 154.06 194.897 154.223C195.06 154.386 195.06 154.651 194.897 154.814L192.121 157.59C191.958 157.753 191.693 157.753 191.53 157.59C191.367 157.427 191.367 157.162 191.53 156.999L194.306 154.223Z" fill="#7B5649"/>
<path d="M186.459 162.075C186.622 161.912 186.886 161.912 187.049 162.075C187.212 162.238 187.212 162.502 187.049 162.665L184.273 165.442C184.11 165.605 183.845 165.605 183.682 165.442C183.519 165.278 183.519 165.014 183.682 164.851L186.459 162.075Z" fill="#7B5649"/>
<path d="M194.9 164.851C195.063 165.014 195.063 165.279 194.9 165.442C194.737 165.605 194.472 165.605 194.309 165.442L191.533 162.666C191.37 162.502 191.37 162.238 191.533 162.075C191.696 161.912 191.961 161.912 192.124 162.075L194.9 164.851Z" fill="#7B5649"/>
<path d="M187.048 157.001C187.212 157.164 187.212 157.428 187.048 157.591C186.885 157.754 186.621 157.754 186.458 157.591L183.681 154.815C183.518 154.652 183.518 154.387 183.681 154.224C183.845 154.061 184.109 154.061 184.272 154.224L187.048 157.001Z" fill="#7B5649"/>
<circle cx="189.532" cy="183.866" r="1.52397" fill="#7B5649"/>
<path d="M194.306 178.501C194.469 178.338 194.734 178.338 194.897 178.501C195.06 178.665 195.06 178.929 194.897 179.092L192.121 181.868C191.958 182.031 191.693 182.031 191.53 181.868C191.367 181.705 191.367 181.441 191.53 181.278L194.306 178.501Z" fill="#7B5649"/>
<path d="M186.455 186.351C186.618 186.188 186.882 186.188 187.045 186.351C187.208 186.514 187.208 186.779 187.045 186.942L184.269 189.718C184.106 189.881 183.842 189.881 183.678 189.718C183.515 189.555 183.515 189.29 183.678 189.127L186.455 186.351Z" fill="#7B5649"/>
<path d="M194.9 189.127C195.063 189.29 195.063 189.554 194.9 189.717C194.737 189.88 194.472 189.88 194.309 189.717L191.533 186.941C191.37 186.778 191.37 186.513 191.533 186.35C191.696 186.187 191.961 186.187 192.124 186.35L194.9 189.127Z" fill="#7B5649"/>
<path d="M187.048 181.275C187.212 181.438 187.212 181.703 187.048 181.866C186.885 182.029 186.621 182.029 186.458 181.866L183.681 179.089C183.518 178.926 183.518 178.662 183.681 178.499C183.845 178.336 184.109 178.336 184.272 178.499L187.048 181.275Z" fill="#7B5649"/>
<circle cx="159.532" cy="159.591" r="1.52397" fill="#7B5649"/>
<path d="M164.306 154.222C164.469 154.059 164.734 154.059 164.897 154.222C165.06 154.385 165.06 154.65 164.897 154.813L162.121 157.589C161.958 157.752 161.693 157.752 161.53 157.589C161.367 157.426 161.367 157.161 161.53 156.998L164.306 154.222Z" fill="#7B5649"/>
<path d="M156.459 162.075C156.622 161.912 156.886 161.912 157.049 162.075C157.212 162.238 157.212 162.502 157.049 162.665L154.273 165.442C154.11 165.605 153.845 165.605 153.682 165.442C153.519 165.278 153.519 165.014 153.682 164.851L156.459 162.075Z" fill="#7B5649"/>
<path d="M164.9 164.851C165.063 165.014 165.063 165.279 164.9 165.442C164.737 165.605 164.472 165.605 164.309 165.442L161.533 162.666C161.37 162.502 161.37 162.238 161.533 162.075C161.696 161.912 161.961 161.912 162.124 162.075L164.9 164.851Z" fill="#7B5649"/>
<path d="M157.048 157.001C157.212 157.164 157.212 157.428 157.048 157.591C156.885 157.754 156.621 157.754 156.458 157.591L153.681 154.815C153.518 154.652 153.518 154.387 153.681 154.224C153.845 154.061 154.109 154.061 154.272 154.224L157.048 157.001Z" fill="#7B5649"/>
<circle cx="159.532" cy="183.866" r="1.52397" fill="#7B5649"/>
<path d="M164.306 178.501C164.469 178.338 164.734 178.338 164.897 178.501C165.06 178.665 165.06 178.929 164.897 179.092L162.121 181.868C161.958 182.031 161.693 182.031 161.53 181.868C161.367 181.705 161.367 181.441 161.53 181.278L164.306 178.501Z" fill="#7B5649"/>
<path d="M156.455 186.351C156.618 186.188 156.882 186.188 157.045 186.351C157.208 186.514 157.208 186.779 157.045 186.942L154.269 189.718C154.106 189.881 153.842 189.881 153.678 189.718C153.515 189.555 153.515 189.29 153.678 189.127L156.455 186.351Z" fill="#7B5649"/>
<path d="M164.896 189.127C165.059 189.29 165.059 189.554 164.896 189.717C164.733 189.88 164.468 189.88 164.305 189.717L161.529 186.941C161.366 186.778 161.366 186.513 161.529 186.35C161.692 186.187 161.957 186.187 162.12 186.35L164.896 189.127Z" fill="#7B5649"/>
<path d="M157.048 181.275C157.212 181.438 157.212 181.703 157.048 181.866C156.885 182.029 156.621 182.029 156.458 181.866L153.681 179.089C153.518 178.926 153.518 178.662 153.681 178.499C153.845 178.336 154.109 178.336 154.272 178.499L157.048 181.275Z" fill="#7B5649"/>
<circle cx="129.532" cy="159.591" r="1.52397" fill="#7B5649"/>
<path d="M134.306 154.222C134.469 154.059 134.734 154.059 134.897 154.222C135.06 154.385 135.06 154.65 134.897 154.813L132.121 157.589C131.958 157.752 131.693 157.752 131.53 157.589C131.367 157.426 131.367 157.161 131.53 156.998L134.306 154.222Z" fill="#7B5649"/>
<path d="M126.455 162.075C126.618 161.912 126.882 161.912 127.045 162.075C127.208 162.238 127.208 162.502 127.045 162.665L124.269 165.442C124.106 165.605 123.842 165.605 123.678 165.442C123.515 165.278 123.515 165.014 123.678 164.851L126.455 162.075Z" fill="#7B5649"/>
<path d="M134.896 164.851C135.059 165.014 135.059 165.279 134.896 165.442C134.733 165.605 134.468 165.605 134.305 165.442L131.529 162.666C131.366 162.502 131.366 162.238 131.529 162.075C131.692 161.912 131.957 161.912 132.12 162.075L134.896 164.851Z" fill="#7B5649"/>
<path d="M127.048 156.999C127.212 157.162 127.212 157.426 127.048 157.589C126.885 157.752 126.621 157.752 126.458 157.589L123.681 154.813C123.518 154.65 123.518 154.385 123.681 154.222C123.845 154.059 124.109 154.059 124.272 154.222L127.048 156.999Z" fill="#7B5649"/>
<circle cx="129.532" cy="183.866" r="1.52397" fill="#7B5649"/>
<path d="M134.306 178.5C134.469 178.337 134.734 178.337 134.897 178.5C135.06 178.664 135.06 178.928 134.897 179.091L132.121 181.867C131.958 182.03 131.693 182.03 131.53 181.867C131.367 181.704 131.367 181.44 131.53 181.277L134.306 178.5Z" fill="#7B5649"/>
<path d="M126.455 186.351C126.618 186.188 126.882 186.188 127.045 186.351C127.208 186.514 127.208 186.779 127.045 186.942L124.269 189.718C124.106 189.881 123.842 189.881 123.678 189.718C123.515 189.555 123.515 189.29 123.678 189.127L126.455 186.351Z" fill="#7B5649"/>
<path d="M134.9 189.127C135.063 189.29 135.063 189.554 134.9 189.717C134.737 189.88 134.472 189.88 134.309 189.717L131.533 186.941C131.37 186.778 131.37 186.513 131.533 186.35C131.696 186.187 131.961 186.187 132.124 186.35L134.9 189.127Z" fill="#7B5649"/>
<path d="M127.048 181.274C127.212 181.437 127.212 181.702 127.048 181.865C126.885 182.028 126.621 182.028 126.458 181.865L123.681 179.088C123.518 178.925 123.518 178.661 123.681 178.498C123.845 178.335 124.109 178.335 124.272 178.498L127.048 181.274Z" fill="#7B5649"/>
<circle cx="99.5318" cy="159.591" r="1.52397" fill="#7B5649"/>
<path d="M104.306 154.222C104.469 154.059 104.734 154.059 104.897 154.222C105.06 154.385 105.06 154.65 104.897 154.813L102.121 157.589C101.958 157.752 101.693 157.752 101.53 157.589C101.367 157.426 101.367 157.161 101.53 156.998L104.306 154.222Z" fill="#7B5649"/>
<path d="M96.4547 162.075C96.6178 161.912 96.8822 161.912 97.0453 162.075C97.2085 162.238 97.2085 162.502 97.0453 162.665L94.2691 165.442C94.106 165.605 93.8415 165.605 93.6784 165.442C93.5153 165.278 93.5153 165.014 93.6784 164.851L96.4547 162.075Z" fill="#7B5649"/>
<path d="M104.896 164.85C105.059 165.013 105.059 165.278 104.896 165.441C104.733 165.604 104.468 165.604 104.305 165.441L101.529 162.665C101.366 162.502 101.366 162.237 101.529 162.074C101.692 161.911 101.957 161.911 102.12 162.074L104.896 164.85Z" fill="#7B5649"/>
<path d="M97.0484 157C97.2115 157.163 97.2115 157.427 97.0484 157.59C96.8853 157.753 96.6208 157.753 96.4577 157.59L93.6815 154.814C93.5184 154.651 93.5184 154.386 93.6815 154.223C93.8446 154.06 94.1091 154.06 94.2722 154.223L97.0484 157Z" fill="#7B5649"/>
<circle cx="99.5318" cy="183.866" r="1.52397" fill="#7B5649"/>
<path d="M104.306 178.5C104.469 178.337 104.734 178.337 104.897 178.5C105.06 178.664 105.06 178.928 104.897 179.091L102.121 181.867C101.958 182.03 101.693 182.03 101.53 181.867C101.367 181.704 101.367 181.44 101.53 181.277L104.306 178.5Z" fill="#7B5649"/>
<path d="M96.4547 186.351C96.6178 186.188 96.8822 186.188 97.0453 186.351C97.2085 186.514 97.2085 186.779 97.0453 186.942L94.2691 189.718C94.106 189.881 93.8415 189.881 93.6784 189.718C93.5153 189.555 93.5153 189.29 93.6784 189.127L96.4547 186.351Z" fill="#7B5649"/>
<path d="M104.9 189.127C105.063 189.29 105.063 189.554 104.9 189.717C104.737 189.88 104.472 189.88 104.309 189.717L101.533 186.941C101.37 186.778 101.37 186.513 101.533 186.35C101.696 186.187 101.961 186.187 102.124 186.35L104.9 189.127Z" fill="#7B5649"/>
<path d="M97.0445 181.274C97.2076 181.437 97.2076 181.702 97.0445 181.865C96.8814 182.028 96.6169 182.028 96.4538 181.865L93.6776 179.088C93.5145 178.925 93.5145 178.661 93.6776 178.498C93.8407 178.335 94.1052 178.335 94.2683 178.498L97.0445 181.274Z" fill="#7B5649"/>
<circle cx="220.715" cy="130.302" r="19.0236" fill="#673315"/>
<path d="M161.557 140.216C162.542 139.531 163.895 139.775 164.579 140.759C165.264 141.744 165.02 143.097 164.036 143.782L157.85 148.081C156.866 148.766 155.513 148.522 154.828 147.538C154.144 146.553 154.387 145.2 155.372 144.515L161.557 140.216Z" fill="#EF927F"/>
<path d="M155.338 140.023C156.538 140.023 157.512 140.997 157.512 142.198C157.512 143.398 156.538 144.372 155.338 144.372H147.794C146.594 144.372 145.62 143.398 145.62 142.198C145.62 140.997 146.594 140.023 147.794 140.023H155.338Z" fill="#EF927F"/>
<path d="M157.928 134.589C156.103 136.275 155.495 138.905 156.395 141.22C157.295 143.535 159.519 145.065 162.003 145.076L207 145.23L217.782 145.279C221.078 145.233 223.73 142.556 223.746 139.26C223.761 135.964 221.134 133.262 217.839 133.185L162.057 132.982C160.526 132.973 159.05 133.548 157.928 134.589Z" fill="#F5A491"/>
<path d="M155.984 139.001C155.976 140.604 156.605 142.146 157.734 143.285C158.862 144.425 160.398 145.069 162.001 145.076H162.261L166.58 145.094L166.901 142.121L167.878 133.006L162.055 132.981C158.718 132.969 156.001 135.663 155.984 139.001Z" fill="#F5A491"/>
<ellipse cx="158.504" cy="138.894" rx="6.8364" ry="8.11427" transform="rotate(-84.48 158.504 138.894)" fill="#F5A491"/>
<path d="M166.899 142.123L166.578 145.096L217.779 145.277H218.136H218.185C218.287 145.277 218.388 145.261 218.488 145.252L218.556 145.241C218.646 145.241 218.741 145.218 218.833 145.202L218.899 145.191L219.185 145.132H219.231C219.562 145.052 219.887 144.944 220.201 144.812L220.24 144.791C220.328 144.755 220.414 144.715 220.499 144.669L220.556 144.642C220.639 144.602 220.721 144.556 220.8 144.509C220.816 144.502 220.832 144.494 220.847 144.484C220.94 144.43 221.025 144.376 221.114 144.319C222.814 143.209 223.842 141.318 223.85 139.287C223.85 139.262 223.85 139.237 223.85 139.21C223.812 137.404 221.342 136.984 220.626 138.646C219.672 140.881 217.471 142.327 215.04 142.315L166.899 142.123Z" fill="#EF927F"/>
<path d="M150.436 138.122C150.333 139.225 150.539 140.336 151.032 141.328C151.038 141.343 151.045 141.356 151.055 141.369C151.187 141.634 151.338 141.89 151.506 142.134L151.567 142.222C151.639 142.319 151.712 142.421 151.793 142.518C151.808 142.543 151.825 142.566 151.845 142.588C151.935 142.705 152.032 142.814 152.134 142.931C152.153 142.95 152.171 142.969 152.188 142.99C152.276 143.085 152.364 143.175 152.457 143.265L152.538 143.344C152.761 143.558 152.996 143.758 153.242 143.945L153.335 144.013C153.439 144.089 153.547 144.166 153.658 144.238C153.68 144.254 153.707 144.27 153.73 144.288C153.862 144.374 154 144.457 154.143 144.539L154.211 144.575C154.33 144.645 154.455 144.708 154.579 144.771L154.678 144.821C154.976 144.963 155.283 145.092 155.602 145.207L155.699 145.239C155.841 145.288 155.985 145.331 156.13 145.374C156.151 145.381 156.172 145.387 156.193 145.392C156.36 145.442 156.534 145.487 156.71 145.523H156.758C156.918 145.559 157.08 145.589 157.243 145.616L157.324 145.627C157.505 145.656 157.685 145.681 157.871 145.697C158.997 145.81 160.134 145.718 161.228 145.426C161.238 145.424 161.249 145.424 161.259 145.426H161.289C161.624 145.332 161.953 145.219 162.275 145.087L166.594 145.105L166.915 142.132H165.807L159.532 142.105C158.922 142.598 158.167 142.876 157.383 142.897C154.629 143.033 151.253 140.669 151.858 136.801C152.008 135.652 152.458 134.561 153.163 133.641C151.635 134.711 150.612 136.287 150.436 138.122Z" fill="#EF927F"/>
<path d="M138.976 182.342L128.004 191.619L137.516 192.644L147.779 185.39L138.976 182.342Z" fill="#F5A491"/>
<path d="M118.482 194.95C118.308 193.62 119.227 192.329 120.692 191.843L134.95 187.465C136.587 186.924 136.912 188.025 137.106 189.513L137.517 192.645C137.887 195.462 135.097 197.932 131.841 197.67L121.455 197.386C119.902 197.311 118.658 196.293 118.482 194.95Z" fill="#F5A491"/>
<path d="M173.247 150.323L222.128 178.545L215.476 190.067C213.905 192.788 210.425 193.721 207.704 192.15L163.75 166.773C159.218 164.146 157.668 158.345 160.286 153.808C162.906 149.27 168.705 147.711 173.247 150.323L173.247 150.323Z" fill="#FCB922"/>
<path d="M161.45 151.969L134.663 184.834C134.4 185.155 134.411 185.619 134.687 185.927L139.566 191.389C139.869 191.727 140.386 191.765 140.736 191.474L173.62 163.991C175.585 162.349 176.715 159.917 176.702 157.356C176.69 154.795 175.535 152.374 173.554 150.752C171.789 149.306 169.521 148.621 167.25 148.85C164.979 149.078 162.893 150.2 161.45 151.969Z" fill="#FCB922"/>
<path d="M230.094 147.643C230.006 148.397 229.865 149.144 229.671 149.878L221.295 181.732C220.357 185.303 218.038 188.354 214.85 190.214C211.661 192.075 207.864 192.592 204.295 191.653L193.078 188.702L206.525 137.576C207.182 135.074 208.806 132.935 211.041 131.632C213.275 130.328 215.935 129.965 218.437 130.624C226.016 132.606 230.984 139.86 230.094 147.643Z" fill="#FF4539"/>
<path d="M197.297 144.277C198.035 141.088 201.218 139.1 204.408 139.837L222.507 144.023C225.697 144.76 227.684 147.944 226.947 151.133C226.209 154.323 223.026 156.311 219.836 155.573L201.737 151.388C198.548 150.65 196.56 147.467 197.297 144.277Z" fill="#FF4539"/>
<path d="M170.197 178.533H222.124V188.44C222.124 193.46 218.055 197.53 213.035 197.53H170.197C165.152 197.523 161.066 193.433 161.066 188.388V187.675C161.066 182.63 165.152 178.539 170.197 178.533V178.533Z" fill="#FFC839"/>
<circle cx="208.371" cy="122.257" r="9.99947" fill="#673315"/>
<path d="M200.295 125.513C201.369 128.891 204.153 131.447 207.61 132.229C203.876 131.942 200.616 129.592 199.163 126.141C197.709 122.689 198.306 118.715 200.709 115.843C203.112 112.971 206.919 111.682 210.572 112.504C207.259 112.258 204.039 113.672 201.98 116.28C199.92 118.887 199.289 122.346 200.295 125.513Z" fill="#AD8E88"/>
<path d="M221.44 122.607C219.995 118.071 222.501 113.223 227.036 111.778L228.828 111.208C233.364 109.763 238.212 112.268 239.657 116.804C241.102 121.339 238.596 126.187 234.061 127.632L232.269 128.203C227.733 129.648 222.885 127.142 221.44 122.607Z" fill="#673315"/>
<path d="M208.621 125.707L210.689 132.2C211.075 133.497 212.132 134.484 213.452 134.781C214.773 135.079 216.151 134.639 217.056 133.633C217.961 132.627 218.251 131.21 217.816 129.929L215.748 123.435C215.362 122.138 214.305 121.151 212.985 120.854C211.664 120.557 210.286 120.996 209.381 122.002C208.476 123.009 208.185 124.425 208.621 125.707Z" fill="#F5A491"/>
<path d="M208.623 125.707L210.215 130.703C212.724 130.445 215.149 129.655 217.329 128.384L215.748 123.435C215.362 122.138 214.305 121.151 212.985 120.854C211.664 120.557 210.286 120.996 209.381 122.002C208.476 123.009 208.185 124.425 208.621 125.707H208.623Z" fill="#EF927F"/>
<path d="M198.877 112.854L199.512 114.734L199.945 116.024L202.51 123.652C203.883 127.731 208.301 129.926 212.381 128.556C215.638 127.461 218.327 125.117 219.856 122.039C221.385 118.961 221.629 115.402 220.534 112.145L218.727 106.774C217.484 103.082 213.486 101.097 209.794 102.337L204.298 104.186L202.964 104.638C199.568 105.779 197.739 109.457 198.877 112.854Z" fill="#F5A491"/>
<path d="M213.047 128.31C212.822 128.398 212.596 128.481 212.37 128.556C208.29 129.926 203.872 127.731 202.499 123.652L199.934 116.023L199.501 114.734L198.867 112.856C197.726 109.457 199.555 105.776 202.953 104.633L203.655 104.407C200.473 105.695 198.843 109.238 199.937 112.492L200.569 114.373L201.002 115.662L203.578 123.273C204.895 127.201 209.054 129.414 213.047 128.31Z" fill="#FFC4AF"/>
<path d="M198.877 112.854L199.512 114.735L199.945 116.024C203.002 116.568 206.009 114.842 207.08 111.929C208.152 109.015 206.979 105.752 204.298 104.187L202.964 104.638C199.568 105.78 197.739 109.457 198.877 112.854Z" fill="#EF927F"/>
<ellipse cx="204.502" cy="119.206" rx="0.740534" ry="0.666029" transform="rotate(-17.67 204.502 119.206)" fill="#230D30"/>
<ellipse cx="209.849" cy="117.504" rx="0.740534" ry="0.666029" transform="rotate(-17.67 209.849 117.504)" fill="#230D30"/>
<circle cx="222.723" cy="111.388" r="6.7935" fill="#673315"/>
<path d="M239.588 116.594C239.613 116.662 239.635 116.732 239.658 116.804C240.561 119.63 239.945 122.721 238.028 124.984C239.4 122.828 239.745 120.174 238.967 117.739C238.945 117.669 238.922 117.599 238.897 117.529C237.541 113.62 233.597 111.227 229.503 111.828C229.277 111.862 229.051 111.907 228.825 111.959C228.814 111.717 228.787 111.476 228.746 111.237C228.696 110.907 228.621 110.582 228.521 110.264C227.974 108.546 226.767 107.117 225.166 106.289C223.565 105.462 221.701 105.305 219.984 105.852C218.808 106.223 217.757 106.91 216.945 107.839C218.5 105.305 221.522 104.076 224.404 104.805C227.286 105.534 229.36 108.051 229.523 111.02C233.809 110.04 238.145 112.441 239.588 116.594Z" fill="#441A07"/>
<circle cx="220.714" cy="114.468" r="3.29628" fill="#F5A491"/>
<path d="M221.663 114.201C221.838 114.747 221.668 115.345 221.231 115.716C221.126 115.8 220.986 115.826 220.857 115.786C220.729 115.747 220.628 115.646 220.588 115.518L220.026 113.752C219.985 113.617 220.015 113.47 220.106 113.363C220.198 113.255 220.337 113.201 220.477 113.219C221.03 113.287 221.493 113.671 221.663 114.201Z" fill="#EF927F"/>
<circle cx="215.612" cy="104.295" r="7.15925" fill="#673315"/>
<path d="M222.715 105.155C222.339 101.537 219.31 98.7765 215.673 98.7367C212.036 98.6969 208.947 101.39 208.492 104.999C208.207 102.259 209.518 99.5993 211.865 98.1577C214.212 96.716 217.178 96.7485 219.492 98.2412C221.807 99.7339 223.06 102.422 222.715 105.155Z" fill="#441A07"/>
<circle cx="204.073" cy="104.159" r="7.15925" fill="#673315"/>
<circle cx="198.495" cy="111.648" r="7.15925" fill="#673315"/>
<path d="M208.882 98.8558C206.843 98.0652 204.555 98.2492 202.669 99.3554C200.783 100.462 199.506 102.369 199.201 104.534C199.129 105.034 199.112 105.541 199.149 106.044C198.946 106.09 198.74 106.144 198.537 106.209C198.137 106.337 197.749 106.498 197.376 106.692C195.31 107.781 193.904 109.81 193.61 112.127C193.315 114.444 194.169 116.76 195.898 118.331C193.071 117.23 191.245 114.468 191.339 111.436C191.434 108.404 193.43 105.761 196.32 104.839C196.523 104.773 196.729 104.719 196.934 104.674C196.727 101.758 198.315 99.0088 200.945 97.7309C203.574 96.4529 206.717 96.9027 208.882 98.8671V98.8558Z" fill="#AD8E88"/>
<circle cx="205.409" cy="104.728" r="3.82685" fill="#AD8E88"/>
<path d="M206.399 121.887C206.621 122.438 207.052 122.879 207.598 123.113C207.666 123.142 207.734 123.167 207.801 123.19C208.298 123.346 208.833 123.326 209.316 123.133L209.4 123.097C209.844 122.92 210.218 122.603 210.466 122.194C210.812 121.642 210.9 120.967 210.707 120.345C210.689 120.285 210.668 120.226 210.644 120.169C210.554 119.947 210.302 119.839 210.079 119.927L206.641 121.311C206.531 121.353 206.443 121.439 206.397 121.547C206.351 121.656 206.352 121.779 206.399 121.887Z" fill="#962F4A"/>
<path d="M209.234 122.794C209.276 122.902 209.329 123.005 209.394 123.101H209.405C210.487 122.666 211.054 121.474 210.71 120.36C210.543 120.376 210.378 120.416 210.222 120.48C209.784 120.656 209.434 120.998 209.249 121.432C209.063 121.866 209.058 122.356 209.234 122.794Z" fill="#E1617F"/>
<path d="M206.719 121.292C206.899 121.693 207.658 121.768 208.432 121.456C209.207 121.145 209.706 120.565 209.561 120.151L206.719 121.292Z" fill="white"/>
<path d="M215.505 138.537C217.649 135.4 221.93 134.595 225.066 136.739C228.203 138.883 229.008 143.163 226.864 146.3L212.325 167.574C210.181 170.711 205.901 171.516 202.764 169.372C199.627 167.228 198.822 162.948 200.966 159.811L215.505 138.537Z" fill="#F5A491"/>
<path d="M195.182 144.422C195.623 145.422 195.17 146.59 194.17 147.031C193.17 147.472 192.002 147.018 191.561 146.018L189.073 140.374C188.632 139.374 189.085 138.206 190.085 137.765C191.085 137.324 192.253 137.778 192.694 138.778L195.182 144.422Z" fill="#F5A491"/>
<path d="M182.315 132.572C182.389 129.806 184.691 127.624 187.457 127.698C190.223 127.772 192.405 130.075 192.331 132.841L192.101 141.404C192.026 144.169 189.724 146.351 186.958 146.277C184.192 146.203 182.01 143.9 182.084 141.134L182.315 132.572Z" fill="#AD8E88"/>
<path d="M181.572 133.077C181.647 130.312 183.949 128.13 186.715 128.204C189.481 128.278 191.663 130.581 191.589 133.347L191.358 141.909C191.284 144.675 188.982 146.857 186.216 146.783C183.45 146.709 181.268 144.406 181.342 141.64L181.572 133.077Z" fill="#441A07"/>
<path d="M181.239 145.155C181.217 145.986 181.873 146.678 182.704 146.702L189.703 146.889C189.804 146.892 189.906 146.884 190.006 146.864L183.91 146.702C183.51 146.691 183.131 146.522 182.857 146.232C182.582 145.942 182.433 145.554 182.444 145.155L182.878 129.595C182.896 128.88 183.417 128.277 184.122 128.154L183.205 128.129C182.806 128.119 182.418 128.267 182.128 128.542C181.838 128.816 181.669 129.195 181.659 129.595L181.239 145.155Z" fill="#673315"/>
<circle cx="187.675" cy="131.57" r="1.09726" fill="#AD8E88"/>
<circle cx="185.032" cy="131.498" r="0.571205" fill="#AD8E88"/>
<path d="M211.126 158.887C213.895 161.506 214.018 165.873 211.4 168.643C208.782 171.412 204.414 171.535 201.645 168.917L183.996 152.233C181.226 149.615 181.104 145.247 183.722 142.478C186.34 139.708 190.708 139.585 193.477 142.204L211.126 158.887Z" fill="#F5A491"/>
<ellipse cx="186.928" cy="145.248" rx="7.13297" ry="8.81331" transform="rotate(-58.0552 186.928 145.248)" fill="#F5A491"/>
<path d="M184.914 145.307C185.824 145.911 186.072 147.139 185.468 148.05C184.863 148.96 183.635 149.208 182.724 148.603L177.586 145.191C176.676 144.586 176.428 143.358 177.033 142.448C177.637 141.537 178.865 141.289 179.776 141.894L184.914 145.307Z" fill="#F5A491"/>
<path d="M177.032 142.45C177.235 142.144 177.52 141.901 177.854 141.748C177.82 141.791 177.786 141.836 177.757 141.881C177.466 142.318 177.361 142.852 177.464 143.367C177.568 143.881 177.871 144.334 178.308 144.624L178.398 144.685L179.301 145.288C179.41 145.753 179.561 146.206 179.753 146.643C180.379 148.047 181.326 149.284 182.519 150.255C182.886 150.56 183.274 150.84 183.679 151.093C184.002 151.294 184.334 151.479 184.668 151.644C184.68 151.658 184.694 151.672 184.709 151.684L186.086 152.985L202.36 168.369C204.718 170.592 208.305 170.873 210.982 169.046C208.31 171.446 204.244 171.394 201.635 168.927L183.986 152.242L183.946 152.201C183.614 152.037 183.282 151.851 182.957 151.65C180.636 150.196 179.103 148.038 178.577 145.848L177.579 145.187C176.676 144.58 176.432 143.357 177.032 142.45Z" fill="#FFC4AF"/>
<path d="M185.645 141.476C186.555 142.081 186.803 143.309 186.198 144.22C185.594 145.13 184.365 145.378 183.455 144.773L178.317 141.361C177.406 140.756 177.158 139.528 177.763 138.618C178.368 137.707 179.596 137.459 180.506 138.064L185.645 141.476Z" fill="#F5A491"/>
<path d="M188.613 139.063C189.524 139.668 189.772 140.896 189.167 141.807C188.562 142.717 187.334 142.965 186.424 142.36L180.953 138.727C180.042 138.122 179.794 136.894 180.399 135.983C181.004 135.073 182.232 134.825 183.142 135.43L188.613 139.063Z" fill="#F5A491"/>
<path d="M178.321 141.364C177.475 140.783 177.213 139.653 177.716 138.759C178.22 137.865 179.323 137.504 180.258 137.928C180.342 137.967 180.424 138.013 180.502 138.065L181.084 138.451C180.892 138.362 180.686 138.306 180.475 138.284C179.568 138.183 178.709 138.716 178.397 139.574C178.085 140.431 178.401 141.391 179.161 141.897" fill="#FFC4AF"/>
<path d="M183.145 135.431L183.728 135.817C182.971 135.469 182.078 135.632 181.493 136.224C180.907 136.816 180.755 137.71 181.111 138.463H181.091C180.898 138.374 180.692 138.317 180.481 138.296C180.393 138.186 180.317 138.066 180.255 137.939C179.877 137.136 180.079 136.18 180.75 135.599C181.42 135.018 182.395 134.954 183.136 135.442L183.145 135.431Z" fill="#FFC4AF"/>
<path d="M202.823 158.148C203.816 159.087 203.86 160.653 202.921 161.646C201.982 162.639 200.416 162.683 199.423 161.744L192.301 155.011C191.308 154.073 191.264 152.506 192.203 151.513C193.141 150.52 194.708 150.476 195.701 151.415L202.823 158.148Z" fill="#FFC4AF"/>
</svg>
