<svg width="167" height="221" viewBox="0 0 167 221" fill="none" xmlns="http://www.w3.org/2000/svg">
<path fill-rule="evenodd" clip-rule="evenodd" d="M30 0C13.4315 0 0 13.4315 0 30V191C0 207.569 13.4315 221 30 221H137C153.569 221 167 207.569 167 191V181.22V30C167 13.4315 153.569 0 137 0H30ZM30.4627 15C21.9229 15 15 21.9229 15 30.4627C15 39.0025 21.9229 45.9253 30.4627 45.9253C31.0607 45.9253 31.2466 47.2287 30.6945 47.4587C21.4785 51.2988 15 60.393 15 71.0003C15 81.6076 21.4785 90.7018 30.6945 94.5419C31.2466 94.7719 31.0607 96.0752 30.4627 96.0752C21.9229 96.0752 15 102.998 15 111.538C15 120.078 21.9229 127.001 30.4627 127.001H136.537C145.077 127.001 152 120.078 152 111.538C152 102.998 145.077 96.0752 136.537 96.0752C135.939 96.0752 135.753 94.7719 136.305 94.5419C145.522 90.7018 152 81.6076 152 71.0003C152 60.393 145.522 51.2988 136.305 47.4587C135.753 47.2287 135.939 45.9253 136.537 45.9253C145.077 45.9253 152 39.0025 152 30.4627C152 21.9229 145.077 15 136.537 15H30.4627Z" fill="white"/>
</svg>
