<svg width="320" height="320" viewBox="0 0 320 320" fill="none" xmlns="http://www.w3.org/2000/svg">
<rect width="320" height="320" fill="#B7C4CA"/>
<path d="M88.9453 81H99.4039C99.6832 80.9982 99.9517 81.1082 100.149 81.3055C100.347 81.5028 100.458 81.7711 100.457 82.0504V107.106H88.9453V81Z" fill="#6675AD"/>
<path d="M88.2073 81H98.6658V107.106H87.1523V82.0504C87.1523 81.773 87.2625 81.507 87.4587 81.3109C87.6548 81.1147 87.9208 81.0045 88.1982 81.0045L88.2073 81Z" fill="#7986BF"/>
<circle cx="92.7476" cy="89.0601" r="2.76323" fill="#6675AD"/>
<circle cx="92.7468" cy="89.0612" r="1.25457" fill="#F3F4FE"/>
<circle cx="92.7459" cy="101.894" r="4.49196" fill="#6675AD"/>
<circle cx="92.7482" cy="101.895" r="2.03726" fill="#F3F4FE"/>
<path d="M111.496 81H121.955C122.532 81 123 81.4682 123 82.0459V107.106H111.496V81Z" fill="#6675AD"/>
<path d="M110.745 81H121.204V107.106H109.699V82.0504C109.698 81.7722 109.808 81.505 110.004 81.3079C110.2 81.1108 110.467 81 110.745 81V81Z" fill="#7986BF"/>
<circle cx="115.294" cy="89.0601" r="2.76323" fill="#6675AD"/>
<circle cx="115.294" cy="89.0612" r="1.25457" fill="#F3F4FE"/>
<circle cx="115.293" cy="101.894" r="4.49196" fill="#6675AD"/>
<circle cx="115.295" cy="101.895" r="2.03726" fill="#F3F4FE"/>
<path d="M71 112.339H138.953L134.48 107.105H75.4761L71 112.339Z" fill="#D2D6FA"/>
<path d="M126.226 112.337V119.361L121.457 122.716V112.337H126.226Z" fill="#D2D6FA"/>
<path d="M89.6555 112.337V122.716L84.8867 119.361V112.337H89.6555Z" fill="#D2D6FA"/>
<path d="M84.8867 112.337H89.6555V114.508H84.8867V112.337Z" fill="#969ECC"/>
<path d="M121.457 112.337H126.226V114.508H121.457V112.337Z" fill="#969ECC"/>
<circle cx="160.19" cy="108.971" r="6.0528" fill="#332D52"/>
<path d="M152.1 131.879C155.275 129.442 159.823 130.039 162.261 133.213C164.698 136.387 164.101 140.936 160.927 143.373L142.525 157.504C139.351 159.941 134.802 159.344 132.364 156.17C129.927 152.996 130.524 148.447 133.698 146.01L152.1 131.879Z" fill="#FAEEDE"/>
<circle cx="138.132" cy="151.227" r="7.77699" fill="#F2E6D7"/>
<path d="M129.387 122.632C130.038 123.614 129.77 124.939 128.787 125.59C127.804 126.241 126.48 125.973 125.828 124.99L122.156 119.448C121.505 118.466 121.774 117.141 122.757 116.49C123.739 115.839 125.064 116.107 125.715 117.09L129.387 122.632Z" fill="#EA8681"/>
<circle cx="125.822" cy="125.264" r="4.22426" fill="#EA8681"/>
<path d="M152.1 131.879C155.275 129.442 159.823 130.039 162.261 133.213C164.698 136.387 164.101 140.936 160.927 143.373L142.525 157.504C139.351 159.941 134.802 159.344 132.364 156.17C129.927 152.996 130.524 148.447 133.698 146.01L152.1 131.879Z" fill="#F2E6D7"/>
<circle cx="138.132" cy="151.227" r="7.77699" fill="#FAEEDE"/>
<path d="M120.091 130.898C118.55 127.974 119.671 124.355 122.594 122.815C125.518 121.274 129.137 122.395 130.677 125.318L142.672 148.078C144.213 151.001 143.092 154.62 140.168 156.161C137.245 157.702 133.626 156.581 132.085 153.657L120.091 130.898Z" fill="#EF948C"/>
<path d="M127.305 121.952C130.308 123.255 131.686 126.746 130.383 129.748C129.079 132.751 125.589 134.129 122.586 132.826L117.829 130.761C114.826 129.458 113.448 125.967 114.751 122.965C116.054 119.962 119.545 118.584 122.548 119.887L127.305 121.952Z" fill="#EF948C"/>
<path d="M114.754 122.959C114.967 122.471 115.243 122.013 115.575 121.598C114.698 124.478 116.125 127.558 118.89 128.751L119.468 129.003L121.721 129.98L123.361 133.095L133.144 151.66C134.086 153.444 135.864 154.634 137.873 154.825C139.882 155.015 141.851 154.181 143.112 152.606C142.406 154.926 140.369 156.591 137.955 156.821C135.54 157.052 133.225 155.802 132.094 153.656L120.671 131.977L117.837 130.747C116.395 130.124 115.259 128.953 114.681 127.492C114.103 126.031 114.129 124.4 114.754 122.959Z" fill="#EA8681"/>
<path d="M126.252 121.495C127.338 121.967 127.837 123.229 127.365 124.315C126.894 125.401 125.631 125.9 124.545 125.428L113.534 120.65C112.448 120.178 111.949 118.916 112.421 117.83C112.892 116.743 114.155 116.245 115.241 116.716L126.252 121.495Z" fill="#EF948C"/>
<path d="M129.383 122.632C130.035 123.614 129.766 124.939 128.783 125.59C127.8 126.241 126.476 125.973 125.825 124.99L122.152 119.448C121.501 118.466 121.77 117.141 122.753 116.49C123.735 115.839 125.06 116.107 125.711 117.09L129.383 122.632Z" fill="#EF948C"/>
<circle cx="125.818" cy="125.263" r="4.22426" fill="#EF948C"/>
<circle cx="160.595" cy="139.561" r="11.3569" fill="#F2E6D7"/>
<path d="M174.435 190.85C164.979 191.064 157.139 183.572 156.924 174.115L156.341 148.407C156.126 138.95 163.618 131.11 173.075 130.895C182.532 130.681 190.372 138.173 190.586 147.63L191.17 173.338C191.384 182.795 183.892 190.635 174.435 190.85Z" fill="#FAEEDE"/>
<path d="M151.414 139.082C151.273 132.078 156.838 126.287 163.842 126.146L182.928 125.765C189.932 125.625 195.723 131.189 195.864 138.193C196.095 149.749 186.914 159.304 175.358 159.535L172.754 159.587C161.199 159.817 151.645 150.637 151.414 139.082V139.082Z" fill="#FAEEDE"/>
<path d="M175 159.289H175.021C186.574 159.027 195.726 149.448 195.464 137.896C195.305 130.894 189.5 125.346 182.498 125.504L163.417 125.938C162.545 125.957 161.677 126.066 160.828 126.264L179.145 125.847H179.44C186.329 125.85 191.955 131.352 192.113 138.238C192.346 148.503 185.097 157.421 175 159.289Z" fill="#FFF7EE"/>
<path d="M166.556 116.675L166.801 127.483C166.872 130.85 169.625 133.542 172.993 133.536H173.133C174.776 133.499 176.337 132.809 177.471 131.62C178.606 130.431 179.221 128.84 179.181 127.197L179.1 123.495L178.936 116.392C178.861 113.027 176.111 110.338 172.745 110.339H172.602C169.184 110.421 166.478 113.257 166.556 116.675Z" fill="#EF948C"/>
<path d="M137.239 191.695C131.871 191.817 127.421 187.564 127.299 182.196C127.177 176.828 131.43 172.378 136.798 172.256L181.4 171.244C186.768 171.122 191.219 175.375 191.341 180.743C191.462 186.111 187.209 190.561 181.841 190.683L137.239 191.695Z" fill="#332D52"/>
<path d="M171.953 181.665V239.722H191.4V181.665C191.4 176.295 187.047 171.941 181.677 171.941C176.306 171.941 171.953 176.295 171.953 181.665Z" fill="#666DA2"/>
<path d="M171.953 181.665V239.723H177.01V190.493C177.011 187.059 178.822 183.88 181.775 182.129C184.729 180.377 188.387 180.313 191.4 181.96V181.656C191.4 176.286 187.047 171.933 181.677 171.933C176.306 171.933 171.953 176.286 171.953 181.656L171.953 181.665Z" fill="#555A8B"/>
<path d="M171.953 231.356V239.719H191.4V234.41L171.953 231.356Z" fill="#141334"/>
<path d="M107.652 233.204L124.987 240.153L126.945 235.078L146.036 185.621C147.969 180.609 145.474 174.979 140.462 173.046C135.45 171.113 129.82 173.608 127.887 178.62L109.998 224.987L107.659 231.038L107.652 233.204Z" fill="#332D52"/>
<path d="M119.371 247.979L105.765 242.725L108.642 235.271L122.249 240.524L119.371 247.979Z" fill="#EA8681"/>
<path d="M188.969 248.7H174.383V241.232H188.969V248.7Z" fill="#EF948C"/>
<path d="M166.557 116.675L166.802 127.482C166.813 128.05 166.904 128.614 167.069 129.157H167.523C172.05 129.159 176.322 127.065 179.093 123.485L178.93 116.382C178.855 113.017 176.105 110.328 172.739 110.329H172.603C170.959 110.368 169.399 111.059 168.265 112.249C167.131 113.439 166.516 115.031 166.557 116.675Z" fill="#EA8681"/>
<path d="M155.812 111.611C155.813 119.386 161.888 125.806 169.651 126.235C169.912 126.248 170.173 126.255 170.439 126.255C175.713 126.321 180.616 123.544 183.273 118.987C185.929 114.429 185.929 108.795 183.273 104.237C180.616 99.6798 175.713 96.9033 170.439 96.9689C170.173 96.9689 169.912 96.9689 169.651 96.9893C161.888 97.4169 155.813 103.836 155.812 111.611Z" fill="#EF948C"/>
<path d="M164.414 115.563C164.415 116.43 164.761 117.261 165.376 117.872C165.451 117.947 165.53 118.018 165.603 118.083C166.189 118.566 166.925 118.828 167.683 118.825H167.817C169.518 118.82 170.93 117.512 171.066 115.817C171.066 115.726 171.066 115.635 171.066 115.545C171.067 115.375 171 115.211 170.88 115.091C170.759 114.972 170.596 114.906 170.426 114.907L165.022 114.921C164.679 114.934 164.409 115.219 164.414 115.563Z" fill="#962F4A"/>
<path d="M167.758 118.322C167.758 118.491 167.775 118.659 167.808 118.825H167.826C169.526 118.82 170.939 117.512 171.075 115.817C170.84 115.748 170.596 115.714 170.351 115.715C169.661 115.717 169.001 115.992 168.514 116.481C168.028 116.97 167.756 117.632 167.758 118.322Z" fill="#E1617F"/>
<path d="M165.164 114.928C165.191 115.57 166.183 116.081 167.399 116.079C168.615 116.076 169.602 115.559 169.624 114.917L165.164 114.928Z" fill="white"/>
<path d="M155.812 111.611C155.813 119.386 161.888 125.806 169.651 126.235C170.055 126.214 170.457 126.176 170.854 126.119C163.604 125.123 158.202 118.929 158.202 111.611C158.202 104.293 163.604 98.0982 170.854 97.1027C170.457 97.0482 170.055 97.0097 169.651 96.9893C161.888 97.4168 155.813 103.836 155.812 111.611Z" fill="#EA8681"/>
<path d="M182.541 137.658V137.81C182.683 142.646 185.91 146.483 189.848 146.539H190.102C194.199 146.433 197.452 142.279 197.362 137.265C197.316 134.488 196.727 132.242 195.093 130.62C194.116 129.72 192.955 129.042 191.69 128.635C190.657 128.329 189.561 128.301 188.514 128.554C185.057 129.388 182.468 133.179 182.541 137.658Z" fill="#FAEEDE"/>
<path d="M182.249 137.469V137.624C182.374 141.115 184.093 144.101 186.534 145.564C185.261 143.856 184.548 141.795 184.493 139.665C184.493 139.613 184.493 139.563 184.493 139.511C184.395 134.96 187.043 131.117 190.618 130.291C191.051 130.188 191.493 130.132 191.938 130.123C192.604 130.11 193.267 130.2 193.905 130.389C194.462 130.555 194.996 130.791 195.493 131.092C194.54 129.793 193.198 128.831 191.662 128.347C190.593 128.028 189.46 127.994 188.374 128.249C184.797 129.082 182.149 132.921 182.249 137.469Z" fill="#F2E6D7"/>
<path d="M185.289 141.132C183.602 137.503 185.176 133.194 188.805 131.507C192.434 129.82 196.744 131.395 198.431 135.024L208.21 156.064C209.897 159.693 208.323 164.002 204.694 165.689C201.065 167.376 196.755 165.801 195.068 162.172L185.289 141.132Z" fill="#FAEEDE"/>
<circle cx="201.125" cy="158.99" r="7.77699" fill="#F2E6D7"/>
<path d="M185.289 141.132C183.602 137.503 185.176 133.194 188.805 131.507C192.434 129.82 196.744 131.395 198.431 135.024L208.21 156.064C209.897 159.693 208.323 164.002 204.694 165.689C201.065 167.376 196.755 165.801 195.068 162.172L185.289 141.132Z" fill="#FAEEDE"/>
<path d="M185.016 135.716C186.434 133.477 188.962 132.191 191.607 132.363C194.252 132.535 196.592 134.138 197.709 136.542L207.487 157.582C208.28 159.283 208.381 161.225 207.768 162.999C208.505 161.838 208.898 160.492 208.902 159.117C208.901 158.064 208.669 157.024 208.222 156.071L198.444 135.031C197.201 132.35 194.455 130.693 191.505 130.842C188.554 130.992 185.989 132.919 185.025 135.712L185.016 135.716Z" fill="#FFF7EE"/>
<circle cx="201.125" cy="158.99" r="7.77699" fill="#F2E6D7"/>
<rect x="187.984" y="108.254" width="35.8812" height="14.0294" rx="7.01471" transform="rotate(-180 187.984 108.254)" fill="#332D52"/>
<circle cx="183.889" cy="108.971" r="6.0528" fill="#332D52"/>
<circle cx="184.971" cy="110.053" r="4.97065" fill="#49466B"/>
<circle cx="185.087" cy="111.613" r="4.85268" fill="#EF948C"/>
<path d="M184.707 113.131V110.098C184.707 109.944 184.781 109.801 184.906 109.711C185.03 109.621 185.19 109.596 185.335 109.644C186.192 109.919 186.773 110.715 186.773 111.614C186.773 112.514 186.192 113.31 185.335 113.585C185.19 113.632 185.03 113.607 184.906 113.517C184.782 113.427 184.708 113.284 184.707 113.131H184.707Z" fill="#EA8681"/>
<circle cx="160.19" cy="99.106" r="9.27204" fill="#332D52"/>
<path d="M151.762 99.1064C151.76 101.326 152.708 103.44 154.367 104.915C156.027 106.389 158.238 107.083 160.442 106.82C156.539 106.355 153.6 103.046 153.6 99.1155C153.6 95.1853 156.539 91.8759 160.442 91.4111C158.238 91.1483 156.027 91.8418 154.367 93.3162C152.708 94.7906 151.76 96.9049 151.762 99.1245V99.1064Z" fill="#49466B"/>
<circle cx="167.532" cy="93.4986" r="6.37949" fill="#332D52"/>
<path d="M160.441 110.466C160.475 111.392 161.236 112.125 162.162 112.125C163.089 112.125 163.849 111.392 163.883 110.466C163.883 110.331 163.867 110.197 163.835 110.066C163.651 110.842 162.959 111.389 162.162 111.389C161.365 111.389 160.673 110.842 160.489 110.066C160.457 110.197 160.441 110.331 160.441 110.466Z" fill="#332D52"/>
<path d="M169.895 110.466C169.895 111.417 170.665 112.188 171.616 112.188C172.567 112.188 173.338 111.417 173.338 110.466C173.339 110.331 173.323 110.197 173.291 110.066C173.105 110.84 172.413 111.386 171.616 111.386C170.82 111.386 170.128 110.84 169.942 110.066C169.91 110.197 169.894 110.331 169.895 110.466Z" fill="#332D52"/>
<path d="M171.953 252.412H190.484C190.484 247.901 187.237 244.045 182.793 243.278C182.273 243.19 181.746 243.146 181.218 243.146C178.761 243.146 176.404 244.122 174.666 245.86C172.928 247.597 171.953 249.954 171.953 252.412Z" fill="#332D52"/>
<path d="M171.953 252.411H176.232C176.234 248.275 178.874 244.602 182.793 243.28C182.273 243.192 181.746 243.148 181.218 243.148C178.761 243.148 176.405 244.123 174.667 245.861C172.929 247.598 171.953 249.954 171.953 252.411Z" fill="#49466B"/>
<path d="M169.387 250.735C169.388 250.917 169.406 251.097 169.441 251.275C169.459 251.362 169.481 251.447 169.507 251.532C169.532 251.615 169.563 251.697 169.598 251.777C169.697 252.015 169.832 252.238 169.997 252.437C170.051 252.503 170.108 252.564 170.169 252.625C170.23 252.685 170.293 252.742 170.36 252.795C170.838 253.191 171.439 253.407 172.059 253.405H191.833C192.927 253.408 193.822 252.536 193.849 251.443C193.876 250.35 193.025 249.435 191.933 249.383L177.109 248.394L172.189 248.065C171.746 248.042 171.304 248.131 170.904 248.324C170.788 248.38 170.676 248.445 170.569 248.516C170.464 248.586 170.363 248.662 170.267 248.743C170.172 248.83 170.083 248.923 170.002 249.022C169.946 249.088 169.895 249.157 169.847 249.229C169.676 249.481 169.55 249.761 169.475 250.057C169.452 250.142 169.434 250.228 169.421 250.316C169.399 250.454 169.387 250.595 169.387 250.735H169.387Z" fill="#332D52"/>
<path d="M169.387 250.735C169.388 250.917 169.406 251.097 169.441 251.275C169.457 251.362 169.479 251.448 169.507 251.532C169.531 251.615 169.562 251.697 169.598 251.777C169.697 252.015 169.832 252.238 169.997 252.437C170.051 252.503 170.108 252.564 170.169 252.625C170.23 252.685 170.293 252.742 170.36 252.795C170.838 253.191 171.439 253.407 172.059 253.405H178.4C177.179 253.409 176.112 252.583 175.807 251.401C175.503 250.219 176.039 248.981 177.109 248.394L172.189 248.065C171.746 248.042 171.304 248.131 170.904 248.324C170.673 248.436 170.458 248.58 170.267 248.752C170.172 248.839 170.083 248.932 170.002 249.031C169.946 249.097 169.894 249.166 169.847 249.238C169.676 249.49 169.55 249.77 169.475 250.066C169.452 250.151 169.434 250.237 169.421 250.325C169.399 250.46 169.388 250.598 169.387 250.735H169.387Z" fill="#49466B"/>
<path d="M120.133 250.314L105.244 244.056L107.604 238.443L120.073 243.684C120.714 243.954 121.223 244.467 121.486 245.112C121.749 245.756 121.745 246.479 121.475 247.121L120.133 250.314Z" fill="#49466B"/>
<path d="M93.9961 241.325L111.079 248.505C112.362 245.453 111.919 241.949 109.918 239.313C107.916 236.676 104.66 235.308 101.376 235.723C98.092 236.138 95.2787 238.273 93.9961 241.325V241.325Z" fill="#332D52"/>
<path d="M93.9961 241.325L98.7966 243.353C100.39 239.559 104.295 237.271 108.384 237.736C106.119 235.895 103.12 235.229 100.29 235.937C97.4588 236.646 95.127 238.646 93.9961 241.336L93.9961 241.325Z" fill="#49466B"/>
<path d="M121.264 249.5L96.7241 237.756C96.0647 237.44 95.3048 237.409 94.6216 237.669C93.9383 237.928 93.3913 238.457 93.1079 239.13C92.8327 239.784 92.8285 240.52 93.0962 241.176C93.3638 241.833 93.8813 242.356 94.5349 242.631L119.615 253.173C120.107 253.381 120.661 253.384 121.156 253.182C121.65 252.98 122.044 252.59 122.251 252.098C122.668 251.108 122.233 249.965 121.264 249.5Z" fill="#332D52"/>
<path d="M93.1077 239.133C92.5363 240.493 93.1751 242.059 94.5347 242.631L100.379 245.088C99.2181 244.606 98.5507 243.379 98.7757 242.142C99.0007 240.906 100.057 239.993 101.314 239.95L96.7263 237.751C96.0657 237.436 95.3046 237.405 94.6206 237.666C93.9367 237.927 93.3898 238.457 93.1077 239.133Z" fill="#49466B"/>
<path d="M201.125 169.934L202.656 174.299L205.349 181.987L230.382 253.416H235.965L216.777 181.987L214.712 174.299L213.539 169.934H201.125Z" fill="#441242"/>
<path d="M202.656 174.299L205.349 181.987H216.776L214.712 174.299H202.656Z" fill="#2F073A"/>
<path d="M121.164 169.934L119.633 174.299L116.94 181.987L91.9074 253.416H86.3242L105.513 181.987L107.577 174.299L108.75 169.934H121.164Z" fill="#441242"/>
<path d="M119.632 174.299L116.939 181.987H105.512L107.576 174.299H119.632Z" fill="#2F073A"/>
<path d="M229.207 177.623L96.2247 177.623C94.3905 177.624 92.9015 176.14 92.8965 174.306V169.946L232.535 169.946V174.306C232.53 176.14 231.041 177.624 229.207 177.623Z" fill="#441242"/>
<rect x="249.305" y="171.987" width="173.174" height="6.09817" rx="3.04909" transform="rotate(-180 249.305 171.987)" fill="#D8BA9F"/>
<path d="M76.1289 168.941C76.1302 170.624 77.4945 171.989 79.178 171.99H246.254C247.938 171.99 249.303 170.625 249.303 168.941C249.304 168.581 249.24 168.223 249.115 167.886C248.673 169.084 247.531 169.879 246.254 169.878H79.178C78.369 169.88 77.5928 169.558 77.0228 168.984C76.7093 168.675 76.469 168.3 76.3195 167.886C76.1934 168.223 76.1288 168.58 76.1289 168.941Z" fill="#C89F87"/>
<circle cx="227.479" cy="174.725" r="1.12753" fill="#D8BA9F"/>
<circle cx="227.23" cy="174.801" r="1.37481" fill="#2F073A"/>
<circle cx="227.479" cy="174.725" r="1.12753" fill="#D8BA9F"/>
<path d="M226.352 174.725C226.352 175.352 226.859 175.86 227.486 175.86H227.604C227.048 175.777 226.637 175.299 226.637 174.738C226.637 174.176 227.048 173.699 227.604 173.616C227.565 173.614 227.525 173.614 227.486 173.616C226.869 173.616 226.365 174.109 226.352 174.725H226.352Z" fill="#C89F87"/>
<path d="M227.477 175.342C227.534 175.361 227.593 175.37 227.654 175.37C228.009 175.37 228.298 175.081 228.298 174.725C228.298 174.37 228.009 174.081 227.654 174.081C227.593 174.081 227.534 174.09 227.477 174.108C227.755 174.184 227.947 174.437 227.947 174.725C227.947 175.014 227.755 175.266 227.477 175.342H227.477Z" fill="#F5EAE4"/>
<circle cx="221.171" cy="174.725" r="1.12753" fill="#D8BA9F"/>
<circle cx="220.926" cy="174.801" r="1.37481" fill="#2F073A"/>
<circle cx="221.171" cy="174.725" r="1.12753" fill="#D8BA9F"/>
<path d="M220.047 174.725C220.047 175.352 220.555 175.86 221.181 175.86H221.299C220.744 175.777 220.333 175.3 220.333 174.738C220.333 174.176 220.744 173.699 221.299 173.616C221.26 173.614 221.22 173.614 221.181 173.616C220.564 173.616 220.06 174.109 220.047 174.725H220.047Z" fill="#C89F87"/>
<path d="M221.172 175.342C221.229 175.361 221.289 175.37 221.349 175.37C221.705 175.37 221.993 175.081 221.993 174.725C221.993 174.37 221.705 174.081 221.349 174.081C221.289 174.081 221.229 174.09 221.172 174.108C221.45 174.184 221.643 174.437 221.643 174.725C221.643 175.014 221.45 175.266 221.172 175.342H221.172Z" fill="#F5EAE4"/>
<circle cx="98.565" cy="174.725" r="1.12753" fill="#D8BA9F"/>
<circle cx="98.8084" cy="174.801" r="1.37481" fill="#2F073A"/>
<circle cx="98.565" cy="174.725" r="1.12753" fill="#D8BA9F"/>
<path d="M99.6937 174.725C99.6937 175.352 99.1859 175.86 98.5594 175.86H98.4414C98.9969 175.777 99.408 175.299 99.408 174.738C99.408 174.176 98.9969 173.699 98.4414 173.616C98.4807 173.614 98.5201 173.614 98.5594 173.616C99.1762 173.616 99.6801 174.109 99.6937 174.725Z" fill="#C89F87"/>
<path d="M98.5634 175.342C98.5062 175.361 98.4465 175.37 98.3865 175.37C98.1563 175.37 97.9436 175.247 97.8285 175.048C97.7134 174.848 97.7134 174.603 97.8285 174.403C97.9436 174.204 98.1563 174.081 98.3865 174.081C98.4465 174.081 98.5062 174.09 98.5634 174.108C98.2883 174.187 98.0987 174.439 98.0987 174.725C98.0987 175.012 98.2883 175.263 98.5634 175.342Z" fill="#F5EAE4"/>
<circle cx="104.874" cy="174.725" r="1.12753" fill="#D8BA9F"/>
<circle cx="105.117" cy="174.801" r="1.37481" fill="#2F073A"/>
<circle cx="104.874" cy="174.725" r="1.12753" fill="#D8BA9F"/>
<path d="M105.994 174.725C105.994 175.352 105.487 175.86 104.86 175.86H104.742C105.298 175.777 105.709 175.299 105.709 174.738C105.709 174.176 105.298 173.699 104.742 173.616C104.781 173.614 104.821 173.614 104.86 173.616C105.477 173.616 105.981 174.109 105.994 174.725Z" fill="#C89F87"/>
<path d="M104.872 175.342C104.815 175.361 104.755 175.37 104.695 175.37C104.339 175.37 104.051 175.081 104.051 174.725C104.051 174.37 104.339 174.081 104.695 174.081C104.755 174.081 104.815 174.09 104.872 174.108C104.594 174.184 104.401 174.437 104.401 174.725C104.401 175.014 104.594 175.266 104.872 175.342Z" fill="#F5EAE4"/>
<path d="M173.072 154.337C174.251 154.229 175.295 155.097 175.402 156.277C175.51 157.456 174.642 158.499 173.463 158.607L166.814 159.216C165.635 159.323 164.592 158.455 164.484 157.276C164.376 156.097 165.244 155.054 166.423 154.946L173.072 154.337Z" fill="#EA8681"/>
<circle cx="173.912" cy="158.282" r="4.22426" fill="#EA8681"/>
<path d="M176.163 166.01C172.859 165.977 170.206 163.271 170.239 159.967C170.272 156.662 172.978 154.01 176.282 154.043L202.007 154.299C205.312 154.332 207.964 157.037 207.931 160.342C207.898 163.646 205.193 166.299 201.888 166.266L176.163 166.01Z" fill="#EF948C"/>
<path d="M171.681 155.401C174.254 153.378 177.98 153.823 180.003 156.396C182.027 158.969 181.581 162.695 179.008 164.719L174.931 167.925C172.358 169.948 168.632 169.502 166.609 166.929C164.585 164.356 165.031 160.63 167.604 158.607L171.681 155.401Z" fill="#EF948C"/>
<path d="M170.78 156.107C171.71 155.376 173.058 155.537 173.79 156.467C174.522 157.398 174.361 158.746 173.43 159.478L163.994 166.898C163.064 167.63 161.716 167.468 160.984 166.538C160.252 165.607 160.413 164.259 161.344 163.527L170.78 156.107Z" fill="#EF948C"/>
<path d="M173.072 154.338C174.251 154.23 175.295 155.098 175.402 156.278C175.51 157.457 174.642 158.5 173.463 158.608L166.814 159.217C165.635 159.324 164.592 158.456 164.484 157.277C164.376 156.098 165.244 155.055 166.423 154.947L173.072 154.338Z" fill="#EF948C"/>
<circle cx="173.912" cy="158.282" r="4.22426" fill="#EF948C"/>
<path d="M176.163 166.01C172.859 165.977 170.206 163.271 170.239 159.967C170.272 156.662 172.978 154.01 176.282 154.043L202.007 154.299C205.312 154.332 207.964 157.037 207.931 160.342C207.898 163.646 205.193 166.299 201.888 166.266L176.163 166.01Z" fill="#EF948C"/>
<path d="M171.681 155.401C174.254 153.378 177.98 153.823 180.003 156.396C182.027 158.969 181.581 162.695 179.008 164.719L174.931 167.925C172.358 169.948 168.632 169.502 166.609 166.929C164.585 164.356 165.031 160.63 167.604 158.607L171.681 155.401Z" fill="#EF948C"/>
<path d="M166.035 165.431C168.058 168.004 171.785 168.45 174.359 166.427L175.039 165.889L176.782 164.528L179.236 164.551L201.283 164.778C204.588 164.81 207.293 162.159 207.327 158.854V158.793C207.327 158.308 207.268 157.825 207.15 157.354C207.657 158.25 207.923 159.261 207.921 160.29V160.351C207.889 163.656 205.184 166.309 201.88 166.277L177.378 166.034L174.951 167.942C173.368 169.185 171.262 169.541 169.359 168.886C167.456 168.232 166.015 166.656 165.531 164.703C165.681 164.958 165.849 165.201 166.035 165.431Z" fill="#F3A6A0"/>
<path d="M170.78 156.107C171.71 155.376 173.058 155.537 173.79 156.467C174.522 157.398 174.361 158.746 173.43 159.478L163.994 166.898C163.064 167.63 161.716 167.468 160.984 166.538C160.252 165.607 160.413 164.259 161.344 163.527L170.78 156.107Z" fill="#EF948C"/>
<path d="M173.693 159.956C174.505 159.317 175.682 159.458 176.321 160.27C176.96 161.083 176.819 162.259 176.007 162.898L173.267 165.052C172.455 165.691 171.278 165.55 170.639 164.738C170 163.925 170.141 162.749 170.954 162.11L173.693 159.956Z" fill="#F3A6A0"/>
<circle cx="159.287" cy="110.608" r="6.25925" stroke="white" stroke-width="2.85"/>
<circle cx="174.056" cy="110.608" r="6.25925" stroke="white" stroke-width="2.85"/>
<path d="M165.543 110.853H167.803" stroke="white" stroke-width="2.85"/>
<path d="M107.652 233.204L124.987 240.153L126.945 235.078L109.998 224.987L107.659 231.04L107.652 233.204Z" fill="#141334"/>
<path d="M132.966 163.999H129.418V163.318C129.418 162.674 129.94 162.152 130.584 162.152H131.803C132.447 162.152 132.969 162.674 132.969 163.318V163.999L132.966 163.999Z" fill="#ABB2D8"/>
<path d="M136.513 163.999H132.965V163.318C132.965 162.674 133.487 162.152 134.131 162.152H135.35C135.994 162.152 136.516 162.674 136.516 163.318V163.999L136.513 163.999Z" fill="#ABB2D8"/>
<path d="M140.064 163.999H136.516V163.318C136.516 162.674 137.038 162.152 137.682 162.152H138.9C139.544 162.152 140.066 162.674 140.066 163.318V163.999L140.064 163.999Z" fill="#ABB2D8"/>
<path d="M143.615 163.999H140.067V163.318C140.067 162.674 140.589 162.152 141.233 162.152H142.451C143.095 162.152 143.617 162.674 143.617 163.318V163.999L143.615 163.999Z" fill="#ABB2D8"/>
<path d="M147.162 163.999H143.614V163.318C143.614 162.674 144.136 162.152 144.78 162.152H145.998C146.642 162.152 147.164 162.674 147.164 163.318V163.999L147.162 163.999Z" fill="#ABB2D8"/>
<path d="M150.711 163.999H147.163V163.318C147.163 162.674 147.685 162.152 148.329 162.152H149.545C150.189 162.152 150.711 162.674 150.711 163.318V163.999V163.999Z" fill="#ABB2D8"/>
<path d="M154.256 163.999H150.707V163.318C150.707 162.674 151.229 162.152 151.873 162.152H153.092C153.736 162.152 154.258 162.674 154.258 163.318V163.999L154.256 163.999Z" fill="#ABB2D8"/>
<rect x="158.977" y="165.889" width="40.5047" height="2.89255" rx="1.44627" transform="rotate(-180 158.977 165.889)" fill="#5D6295"/>
<path d="M129.629 165.889H95.8254C94.409 165.889 93.1738 164.926 92.8285 163.552L86.2494 137.381C86.0173 136.456 86.2242 135.477 86.8102 134.726C87.3962 133.974 88.2958 133.535 89.2486 133.535H119.077C120.493 133.535 121.729 134.498 122.074 135.872L129.629 165.889Z" fill="#666DA2"/>
<path d="M86.2454 137.383L92.8246 163.552C93.1713 164.926 94.4066 165.889 95.8237 165.891H129.627L128.899 162.998H102.196C100.779 162.998 99.5433 162.034 99.1972 160.659L92.6181 134.49C92.5398 134.178 92.51 133.856 92.5296 133.535H89.2446C88.2916 133.536 87.3921 133.976 86.8062 134.727C86.2204 135.479 86.0135 136.458 86.2454 137.383Z" fill="#5D6295"/>
<circle cx="105.821" cy="150.577" r="1.69242" fill="#ABB2D8"/>
<path d="M103.559 153.11C104.294 154.245 105.646 154.82 106.974 154.562C108.302 154.303 109.34 153.264 109.596 151.935C109.851 150.606 109.274 149.256 108.137 148.522C108.97 149.834 108.781 151.548 107.682 152.646C106.584 153.745 104.87 153.934 103.559 153.101L103.559 153.11Z" fill="#ABB2D8"/>
<path d="M171.953 241.277H191.4L193.383 236.279L168.414 232.358L171.953 241.277Z" fill="#332D52"/>
<circle cx="189.78" cy="239.194" r="1.21374" fill="#141334"/>
<circle cx="189.854" cy="239.522" r="0.884779" fill="#666DA2"/>
<path d="M189.844 240.101C189.883 240.109 189.922 240.112 189.962 240.113C190.274 240.093 190.517 239.834 190.517 239.522C190.517 239.209 190.274 238.95 189.962 238.931C189.922 238.931 189.882 238.935 189.844 238.944C190.116 239.004 190.31 239.244 190.31 239.523C190.31 239.801 190.116 240.042 189.844 240.101Z" fill="#332D52"/>
<path d="M189.987 238.783C189.937 238.772 189.886 238.767 189.835 238.768C189.435 238.79 189.121 239.121 189.121 239.522C189.121 239.923 189.435 240.254 189.835 240.276C189.886 240.277 189.937 240.272 189.987 240.26C189.639 240.185 189.391 239.878 189.391 239.522C189.391 239.166 189.639 238.859 189.987 238.783Z" fill="#9DA5D1"/>
<path d="M106.199 234.387L124.249 241.622L127.949 237.722L106.231 224.793L106.199 234.387Z" fill="#262344"/>
<circle cx="123.62" cy="238.357" r="1.21374" fill="#141334"/>
<circle cx="123.693" cy="238.687" r="0.884779" fill="#666DA2"/>
<path d="M123.691 239.27C123.73 239.279 123.77 239.283 123.809 239.283C124.122 239.264 124.365 239.005 124.365 238.692C124.365 238.379 124.122 238.121 123.809 238.101C123.77 238.098 123.731 238.098 123.691 238.101C123.963 238.161 124.157 238.401 124.157 238.68C124.157 238.958 123.963 239.199 123.691 239.258L123.691 239.27Z" fill="#332D52"/>
<path d="M123.827 237.946C123.777 237.934 123.726 237.929 123.675 237.93C123.274 237.952 122.961 238.283 122.961 238.684C122.961 239.085 123.274 239.416 123.675 239.438C123.726 239.439 123.777 239.434 123.827 239.423C123.479 239.347 123.231 239.04 123.231 238.684C123.231 238.328 123.479 238.021 123.827 237.946Z" fill="#9DA5D1"/>
</svg>
