<svg width="320" height="320" viewBox="0 0 320 320" fill="none" xmlns="http://www.w3.org/2000/svg">
<rect width="320" height="320" fill="#FAE1D9"/>
<path d="M136.267 158.748C139.312 166.323 145.727 172.036 153.602 174.186C142.468 167.401 138.034 153.449 143.208 141.48C148.382 129.512 161.583 123.184 174.154 126.646C164.53 120.762 152.217 121.713 143.61 129.005C135.003 136.298 132.043 148.288 136.267 158.748Z" fill="#F0F1FC"/>
<path d="M188.797 160.663C174.398 169.872 156.843 168.151 149.482 156.851C138.833 158.084 129.112 154.27 124.949 146.208C120.631 137.856 123.505 127.291 131.274 119.198C129.704 118.503 128.338 117.418 127.305 116.046C123.65 111.161 125.146 103.726 130.457 98.4675C129.288 95.7967 129.001 92.9841 129.809 90.3134C131.968 83.1677 141.22 79.5193 151.163 81.5548H151.178C153.587 79.8896 156.27 78.661 159.104 77.9249C170.206 75.029 181.115 79.9604 183.468 88.9441C184.18 91.7396 184.03 94.6851 183.039 97.3943L183.091 97.4436C185.185 99.3101 186.643 101.783 187.264 104.518C187.943 107.63 187.421 110.788 185.957 113.681C192.584 114.631 198.323 117.869 201.768 123.26C209.065 134.668 203.261 151.423 188.797 160.663Z" fill="#6C4A67"/>
<path d="M133.325 90.3014C132.52 92.9721 132.804 95.7847 133.972 98.4555C128.643 103.726 127.166 111.162 130.818 116.034C131.853 117.403 133.219 118.488 134.787 119.186C127.021 127.279 124.156 137.844 128.467 146.196C131.878 152.799 139.024 156.558 147.354 157.021C137.553 157.539 128.831 153.715 124.949 146.196C120.631 137.844 123.505 127.279 131.274 119.186C129.704 118.491 128.338 117.406 127.305 116.034C123.65 111.149 125.146 103.714 130.457 98.4555C129.288 95.7847 129.001 92.9721 129.809 90.3014C131.703 84.0439 139.036 80.4757 147.508 81.0493C140.588 81.5366 134.95 84.929 133.325 90.3014Z" fill="#775674"/>
<path d="M108.219 169.237C108.222 173.26 110.484 176.941 114.073 178.76C117.661 180.58 121.968 180.229 125.215 177.853L132.45 172.564L132.478 172.543L133.779 171.593L153.973 156.83C157.085 154.561 158.733 150.791 158.286 146.966C157.839 143.141 155.366 139.853 151.814 138.363C151.54 138.245 151.259 138.138 150.982 138.054C147.713 136.975 144.125 137.544 141.35 139.581L112.598 160.598C109.843 162.613 108.215 165.823 108.219 169.237Z" fill="#EF948C"/>
<path d="M108.219 169.236C108.218 171.501 108.94 173.707 110.279 175.534C110.615 175.994 110.988 176.425 111.395 176.823C109.052 172.155 110.421 166.478 114.633 163.392L143.395 142.362C147.626 139.269 153.475 139.701 157.205 143.383C156.937 142.861 156.628 142.362 156.28 141.89C154.606 139.602 152.092 138.072 149.29 137.638C146.489 137.204 143.629 137.9 141.341 139.574L112.598 160.598C109.843 162.613 108.215 165.823 108.219 169.236Z" fill="#E87A74"/>
<path d="M113.407 178.367C109.31 176.265 107.692 171.24 109.794 167.143C111.896 163.046 116.921 161.429 121.018 163.531L145.747 176.218C149.844 178.32 151.461 183.345 149.359 187.442C147.257 191.539 142.232 193.156 138.135 191.054L113.407 178.367Z" fill="#EF948C"/>
<ellipse cx="146.748" cy="184.648" rx="11.1888" ry="8.82027" transform="rotate(-19.15 146.748 184.648)" fill="#EF948C"/>
<path d="M145.502 191.151C144.008 190.695 142.661 189.85 141.601 188.703L135.785 185.711L117.41 176.286C114.99 175.052 113.324 172.714 112.948 170.023C112.571 167.332 113.531 164.627 115.52 162.775C112.055 163.488 109.42 166.312 108.946 169.817C108.473 173.322 110.265 176.743 113.416 178.35L137.623 190.766C140.164 193.603 144.969 194.618 149.65 193.002C151.001 192.538 152.271 191.864 153.413 191.006C150.857 191.889 148.088 191.94 145.502 191.151Z" fill="#E87A74"/>
<path d="M183.027 97.3911C183.144 95.8597 183.007 94.3194 182.62 92.833C180.276 83.8523 169.358 78.921 158.256 81.8169C150.663 83.8061 144.939 88.9317 142.836 94.853C143.403 87.3774 149.871 80.3181 159.095 77.9064C170.197 75.0105 181.105 79.9418 183.459 88.9255C184.177 91.7258 184.027 94.6785 183.027 97.3911Z" fill="#2B2137"/>
<path d="M188.796 160.663C178.831 167.032 167.362 168.176 158.801 164.531C166.643 166.227 175.997 164.549 184.296 159.245C198.76 149.992 204.564 133.246 197.249 121.817C194.981 118.314 191.699 115.587 187.84 113.999C193.653 115.26 198.634 118.372 201.746 123.251C209.064 134.668 203.26 151.423 188.796 160.663Z" fill="#2B2137"/>
<path d="M170.007 124.956C158.624 127.442 147.836 122.323 145.912 113.521C145.546 111.836 145.52 110.096 145.838 108.401C145.863 108.522 145.884 108.642 145.912 108.762C147.836 117.564 158.624 122.683 170.007 120.195C179.176 118.193 185.939 111.868 187.21 104.87C188.851 113.545 181.246 122.489 170.007 124.956Z" fill="#2B2137"/>
<path d="M117.367 261.366L110.069 242.012L119.087 238.612L126.385 257.966L117.367 261.366Z" fill="#EF948C"/>
<path d="M121.848 259.679L114.55 240.324L119.086 238.614L126.384 257.968L121.848 259.679Z" fill="#E87A74"/>
<path d="M107.012 243.333L114.37 262.851C117.884 261.556 120.433 258.477 121.05 254.784C121.667 251.09 120.257 247.35 117.355 244.983C114.454 242.616 110.506 241.986 107.012 243.333Z" fill="white"/>
<path d="M113.112 263.876L105.217 242.932C104.885 242.054 104.916 241.08 105.303 240.225C105.69 239.37 106.401 238.704 107.28 238.374C108.213 238.021 109.252 238.079 110.14 238.534C111.029 238.988 111.683 239.797 111.943 240.761L117.778 262.371C118.101 263.589 117.453 264.856 116.276 265.307C115.007 265.778 113.595 265.14 113.112 263.876Z" fill="#2B2137"/>
<path d="M185.434 262.342L194.397 243.7L203.083 247.877L194.119 266.518L185.434 262.342Z" fill="#EF948C"/>
<path d="M185.438 262.341L194.401 243.699L198.05 245.454L189.087 264.096L185.438 262.341Z" fill="#E87A74"/>
<path d="M197.256 267.708L206.295 248.896C202.935 247.281 198.968 247.582 195.889 249.685C192.811 251.788 191.088 255.373 191.37 259.091C191.652 262.809 193.896 266.093 197.256 267.708Z" fill="white"/>
<path d="M207.903 249.112L198.21 269.288C197.361 271.048 195.247 271.789 193.485 270.944C192.586 270.511 191.911 269.719 191.627 268.762C191.343 267.806 191.476 266.774 191.992 265.92L203.588 246.775C204.252 245.703 205.616 245.304 206.753 245.849C207.962 246.441 208.474 247.893 207.903 249.112Z" fill="#2B2137"/>
<ellipse cx="159.084" cy="216.709" rx="28.9002" ry="28.9002" fill="#57879E"/>
<path d="M216.23 217.096C218.924 224.781 214.878 233.194 207.194 235.888L128.353 263.529C127.597 263.794 126.77 263.396 126.505 262.641L117.709 237.551C117.444 236.795 117.842 235.968 118.597 235.703L197.441 208.062C205.126 205.368 213.54 209.413 216.234 217.098L216.23 217.096Z" fill="#57879E"/>
<path d="M207.187 235.882L128.344 263.517C127.981 263.645 127.582 263.624 127.234 263.457C126.887 263.291 126.621 262.993 126.493 262.629L125.121 258.666L203.794 231.092C207.485 229.799 210.51 227.093 212.205 223.568C213.899 220.044 214.124 215.991 212.83 212.301C212.698 211.925 212.556 211.558 212.395 211.2C216.155 214.724 217.802 219.955 216.741 224.998C215.679 230.04 212.063 234.163 207.202 235.872L207.187 235.882Z" fill="#639FB7"/>
<path d="M151.859 116.774V135.473C151.937 139.102 154.902 142.003 158.532 142.003C162.162 142.003 165.126 139.102 165.204 135.473V116.774C165.126 113.145 162.162 110.244 158.532 110.244C154.902 110.244 151.937 113.145 151.859 116.774H151.859Z" fill="#EF948C"/>
<path d="M210.499 169.234C210.496 173.258 208.233 176.939 204.644 178.759C201.055 180.579 196.748 180.229 193.5 177.853L186.268 172.564L186.24 172.543L184.951 171.593L164.757 156.827C161.647 154.557 160 150.788 160.447 146.963C160.894 143.139 163.366 139.851 166.916 138.36C167.191 138.242 167.468 138.138 167.749 138.051C171.017 136.973 174.605 137.54 177.38 139.575L206.135 160.602C208.884 162.618 210.505 165.825 210.499 169.234Z" fill="#EF948C"/>
<path d="M210.498 169.233C210.5 171.499 209.778 173.707 208.438 175.534C208.103 175.996 207.728 176.429 207.318 176.826C209.666 172.157 208.292 166.474 204.071 163.392L175.31 142.359C171.081 139.274 165.239 139.708 161.512 143.383C161.779 142.862 162.089 142.362 162.437 141.891C165.922 137.126 172.61 136.088 177.376 139.571L206.131 160.598C208.881 162.615 210.504 165.823 210.498 169.233Z" fill="#E87A74"/>
<path d="M139.663 168.623V197.289C139.427 204.381 143.075 211.038 149.181 214.654C155.286 218.27 162.877 218.27 168.983 214.654C175.088 211.038 178.737 204.381 178.5 197.289V168.623L139.663 168.623Z" fill="#FBE7EB"/>
<path d="M139.664 161.878V190.559L178.501 182.146V161.878H139.664Z" fill="#FCB651"/>
<path d="M186.453 163.337V164.342C186.454 167.916 185.034 171.344 182.507 173.871C179.98 176.398 176.553 177.817 172.979 177.816H144.073C136.632 177.814 130.602 171.782 130.602 164.342V163.337C130.608 156.32 133.25 149.562 138.003 144.401C138.262 144.126 138.518 143.858 138.783 143.596C139.224 143.152 139.687 142.717 140.165 142.301C141.164 141.423 142.228 140.622 143.348 139.904C143.551 139.769 143.755 139.642 143.965 139.519C145.408 138.631 146.931 137.88 148.513 137.274C155.149 134.723 162.508 134.799 169.09 137.487C170.481 138.053 171.823 138.736 173.099 139.528C173.559 139.806 174.006 140.102 174.45 140.41C176.229 141.648 177.861 143.085 179.313 144.694C180.25 145.731 181.106 146.838 181.873 148.006C184.874 152.555 186.467 157.887 186.453 163.337Z" fill="white"/>
<path d="M186.453 163.337V164.345C186.453 171.786 180.422 177.818 172.982 177.819H163.992C176.135 169.403 180.369 153.416 173.984 140.093L174.453 140.401C175.301 140.988 176.115 141.623 176.89 142.304C182.976 147.593 186.464 155.265 186.45 163.328L186.453 163.337Z" fill="#FFEFED"/>
<path d="M151.859 116.774V131.205C156.053 133.232 160.916 133.359 165.21 131.553V116.774C165.132 113.145 162.168 110.244 158.538 110.244C154.908 110.244 151.944 113.145 151.866 116.774H151.859Z" fill="#E87A74"/>
<circle cx="141.84" cy="109.253" r="6.81258" fill="#EF948C"/>
<ellipse cx="158.927" cy="107.556" rx="19.2627" ry="23.275" fill="#EF948C"/>
<ellipse cx="176.449" cy="109.253" rx="6.81257" ry="6.81258" fill="#EF948C"/>
<path d="M137.824 109.027C137.823 107.838 138.536 106.765 139.631 106.304C139.893 106.205 140.187 106.242 140.416 106.402C140.645 106.563 140.779 106.826 140.776 107.106V110.948C140.775 111.244 140.622 111.518 140.371 111.674C140.121 111.83 139.807 111.846 139.542 111.716C138.493 111.233 137.822 110.182 137.824 109.027Z" fill="#E87A74"/>
<path d="M179.665 109.015C179.665 110.203 178.953 111.274 177.858 111.735C177.597 111.835 177.303 111.799 177.073 111.639C176.843 111.479 176.708 111.216 176.711 110.936V107.093C176.712 106.798 176.865 106.525 177.115 106.368C177.366 106.212 177.679 106.194 177.945 106.322C178.995 106.806 179.668 107.858 179.665 109.015Z" fill="#E87A74"/>
<circle cx="151.766" cy="110.236" r="1.4649" fill="#2B2137"/>
<circle cx="166.082" cy="110.236" r="1.4649" fill="#2B2137"/>
<path d="M163.173 115.596C163.18 116.719 162.736 117.797 161.939 118.588C161.841 118.687 161.742 118.776 161.631 118.865C160.867 119.497 159.908 119.844 158.917 119.849H158.744C157.839 119.858 156.955 119.581 156.215 119.06C155.209 118.352 154.564 117.24 154.448 116.016C154.436 115.899 154.43 115.782 154.43 115.664C154.427 115.448 154.513 115.24 154.667 115.088C154.822 114.932 155.033 114.844 155.253 114.844L162.331 114.788C162.55 114.783 162.762 114.865 162.921 115.017C163.079 115.168 163.17 115.377 163.173 115.596Z" fill="#962F4A"/>
<path d="M158.829 119.198C158.834 119.417 158.814 119.635 158.771 119.849H158.749C156.537 119.882 154.669 118.214 154.453 116.012C154.76 115.921 155.079 115.873 155.4 115.871C156.296 115.856 157.162 116.198 157.805 116.823C158.449 117.447 158.817 118.302 158.829 119.198Z" fill="#E1617F"/>
<path d="M162.178 114.779C162.153 115.606 160.864 116.278 159.27 116.294C157.675 116.309 156.377 115.652 156.34 114.826L162.178 114.779Z" fill="white"/>
<path d="M157.074 119.528C157.606 119.741 158.176 119.846 158.749 119.837H158.922C159.508 119.832 160.087 119.708 160.624 119.473C159.517 118.857 158.166 118.874 157.074 119.516L157.074 119.528Z" fill="white"/>
<path d="M196.33 242.119L185.317 265.683C184.91 266.553 183.875 266.929 183.005 266.522L114.833 234.661C107.456 231.213 104.27 222.437 107.718 215.06C111.164 207.687 119.932 204.5 127.308 207.94L195.479 239.801C196.35 240.208 196.726 241.243 196.319 242.114L196.33 242.119Z" fill="#8CB7CB"/>
<path d="M161.125 240.701C162.406 241.3 162.96 242.824 162.361 244.106C161.762 245.387 160.238 245.94 158.956 245.341L128.636 231.171C127.355 230.572 126.802 229.048 127.4 227.766C127.999 226.485 129.524 225.931 130.805 226.53L161.125 240.701Z" fill="#A1D1E2"/>
<path d="M187.342 261.368L185.319 265.686C185.125 266.104 184.773 266.428 184.34 266.585C183.907 266.743 183.429 266.721 183.012 266.525L114.825 234.667C110.664 232.725 107.647 228.956 106.663 224.472C105.679 219.987 106.841 215.301 109.807 211.796C107.622 218.832 110.968 226.401 117.643 229.52L185.831 261.384C186.31 261.612 186.868 261.606 187.342 261.368Z" fill="#A1D1E2"/>
<path d="M180.563 191.031C176.466 193.133 171.441 191.516 169.339 187.419C167.237 183.322 168.854 178.296 172.951 176.194L197.679 163.508C201.776 161.406 206.802 163.023 208.904 167.12C211.006 171.217 209.388 176.242 205.291 178.344L180.563 191.031Z" fill="#EF948C"/>
<ellipse cx="171.986" cy="184.683" rx="8.82027" ry="11.1888" transform="rotate(-70.85 171.986 184.683)" fill="#EF948C"/>
<path d="M173.229 191.149C174.722 190.693 176.068 189.849 177.127 188.703L182.931 185.712L201.318 176.281C203.29 175.273 204.779 173.522 205.456 171.415C206.134 169.307 205.945 167.016 204.93 165.049C204.493 164.192 203.909 163.419 203.206 162.764C206.67 163.476 209.307 166.299 209.781 169.804C210.255 173.309 208.463 176.731 205.312 178.338L181.106 190.754C178.564 193.591 173.76 194.606 169.078 192.99C167.727 192.523 166.457 191.849 165.312 190.992C167.869 191.879 170.64 191.934 173.229 191.149Z" fill="#E87A74"/>
<rect x="124.66" y="163.879" width="71.4071" height="53.3595" rx="20.44" fill="#3F2A3C"/>
<path d="M196.067 170.186V210.935C196.067 212.607 195.402 214.211 194.219 215.393C193.036 216.575 191.432 217.239 189.76 217.238H130.979C129.306 217.239 127.702 216.575 126.519 215.393C125.336 214.211 124.672 212.607 124.672 210.935V206.774H143.463C167.148 206.768 186.346 187.565 186.346 163.879H189.76C193.243 163.879 196.067 166.703 196.067 170.186Z" fill="#2B2137"/>
<path d="M165.211 187.806C165.209 189.935 163.636 191.737 161.526 192.026C159.416 192.314 157.417 191.001 156.844 188.95C159.135 188.865 160.948 186.984 160.949 184.691C160.948 184.305 160.896 183.922 160.794 183.55H160.949C163.3 183.55 165.207 185.454 165.211 187.806Z" fill="#6E4965"/>
<ellipse cx="171.814" cy="93.4656" rx="11.4509" ry="11.4509" fill="#6C4A67"/>
<ellipse cx="142.846" cy="97.3915" rx="9.56043" ry="9.56043" fill="#6C4A67"/>
<ellipse cx="159.679" cy="84.2843" rx="15.2843" ry="15.2843" fill="#6C4A67"/>
<path d="M179.314 144.694C175.135 149.376 167.506 152.506 158.79 152.506C149.89 152.506 142.121 149.24 138.004 144.395C138.263 144.121 138.519 143.852 138.784 143.59C139.225 143.146 139.688 142.711 140.166 142.295C141.165 141.417 142.229 140.616 143.348 139.899C143.552 139.763 143.756 139.636 143.965 139.513C145.409 138.625 146.932 137.874 148.514 137.268C155.15 134.717 162.509 134.793 169.091 137.481C170.482 138.047 171.823 138.73 173.1 139.522C173.559 139.8 174.007 140.096 174.451 140.404C176.231 141.644 177.862 143.083 179.314 144.694Z" fill="#EF948C"/>
<ellipse cx="168.941" cy="91.7106" rx="7.42937" ry="7.42938" fill="#775674"/>
<circle cx="160.365" cy="84.2841" r="10.205" fill="#775674"/>
</svg>
