<svg width="56" height="56" viewBox="0 0 56 56" fill="none" xmlns="http://www.w3.org/2000/svg">
<rect width="56" height="56" rx="28" fill="white"/>
<path fill-rule="evenodd" clip-rule="evenodd" d="M33.7772 34H22.2228C20.3944 34 19.3508 32.1609 20.4478 30.8721C20.9334 30.3016 21.2327 29.6249 21.3133 28.9153L21.7605 24.9752C22.0016 22.8506 23.5877 21.1072 25.7301 20.3737V20.2699C25.7301 19.0163 26.7463 18 28 18C29.2537 18 30.2699 19.0163 30.2699 20.2699V20.3737C32.4123 21.1072 33.9984 22.8506 34.2395 24.9752L34.6867 28.9153C34.7673 29.6249 35.0666 30.3016 35.5522 30.8721C36.6492 32.1609 35.6056 34 33.7772 34ZM30.9721 36.0715C30.5147 37.1992 29.3565 38 28 38C26.6435 38 25.4853 37.1992 25.0279 36.0715C25.0088 36.0245 25 35.974 25 35.9233C25 35.6895 25.1895 35.5 25.4233 35.5H30.5767C30.8105 35.5 31 35.6895 31 35.9233C31 35.974 30.9912 36.0245 30.9721 36.0715Z" fill="#DE755E"/>
</svg>
