<svg width="24" height="25" viewBox="0 0 24 25" fill="none" xmlns="http://www.w3.org/2000/svg">
  <path
    d="M21.863 9.72C19.3728 6.09 15.7291 4 11.8914 4C9.97257 4 8.10761 4.52 6.40436 5.49C4.7011 6.47 3.17033 7.9 1.91984 9.72C0.841826 11.29 0.841826 13.84 1.91984 15.41C4.41004 19.05 8.05371 21.13 11.8914 21.13C13.8103 21.13 15.6752 20.61 17.3785 19.64C19.0818 18.66 20.6125 17.23 21.863 15.41C22.941 13.85 22.941 11.29 21.863 9.72ZM11.8914 16.61C9.47668 16.61 7.53627 14.8 7.53627 12.57C7.53627 10.34 9.47668 8.53 11.8914 8.53C14.3062 8.53 16.2466 10.34 16.2466 12.57C16.2466 14.8 14.3062 16.61 11.8914 16.61Z"
    fill="#A0A1A4" />
  <path
    d="M11.8907 9.70996C10.1982 9.70996 8.81836 10.99 8.81836 12.57C8.81836 14.14 10.1982 15.42 11.8907 15.42C13.5832 15.42 14.9738 14.14 14.9738 12.57C14.9738 11 13.5832 9.70996 11.8907 9.70996Z"
    fill="#A0A1A4" />
</svg>