<svg width="1215" height="249" viewBox="0 0 1215 249" fill="none" xmlns="http://www.w3.org/2000/svg">
<path d="M624 69.6797C624 70.0444 623.855 70.3941 623.597 70.652C623.339 70.9098 622.99 71.0547 622.625 71.0547H608.875V84.8047C608.875 85.1694 608.73 85.5191 608.472 85.777C608.214 86.0348 607.865 86.1797 607.5 86.1797C607.135 86.1797 606.786 86.0348 606.528 85.777C606.27 85.5191 606.125 85.1694 606.125 84.8047V71.0547H592.375C592.01 71.0547 591.661 70.9098 591.403 70.652C591.145 70.3941 591 70.0444 591 69.6797C591 69.315 591.145 68.9653 591.403 68.7074C591.661 68.4496 592.01 68.3047 592.375 68.3047H606.125V54.5547C606.125 54.19 606.27 53.8403 606.528 53.5824C606.786 53.3246 607.135 53.1797 607.5 53.1797C607.865 53.1797 608.214 53.3246 608.472 53.5824C608.73 53.8403 608.875 54.19 608.875 54.5547V68.3047H622.625C622.99 68.3047 623.339 68.4496 623.597 68.7074C623.855 68.9653 624 69.315 624 69.6797Z" fill="#DE755E"/>
<path d="M461.591 114.26C463.111 114.913 463.871 116.053 463.871 117.68C463.871 118.88 463.418 119.86 462.511 120.62C461.618 121.38 460.431 121.76 458.951 121.76C457.644 121.76 456.571 121.473 455.731 120.9C454.904 120.327 454.318 119.54 453.971 118.54L455.551 117.64C455.964 119.213 457.098 120 458.951 120C459.911 120 460.658 119.787 461.191 119.36C461.738 118.933 462.011 118.353 462.011 117.62C462.011 116.887 461.758 116.307 461.251 115.88C460.744 115.44 460.051 115.22 459.171 115.22H457.531V113.52H458.711C459.551 113.52 460.224 113.313 460.731 112.9C461.251 112.473 461.511 111.92 461.511 111.24C461.511 110.56 461.271 110.013 460.791 109.6C460.311 109.187 459.658 108.98 458.831 108.98C457.284 108.98 456.251 109.667 455.731 111.04L454.171 110.14C455.011 108.207 456.564 107.24 458.831 107.24C460.178 107.24 461.264 107.613 462.091 108.36C462.931 109.093 463.351 110.04 463.351 111.2C463.351 112.547 462.764 113.567 461.591 114.26ZM474.18 113.22V111.5H475.92V121.5H474.18V119.78C473.327 121.1 472.067 121.76 470.4 121.76C468.987 121.76 467.793 121.253 466.82 120.24C465.833 119.213 465.34 117.967 465.34 116.5C465.34 115.047 465.833 113.807 466.82 112.78C467.807 111.753 469 111.24 470.4 111.24C472.067 111.24 473.327 111.9 474.18 113.22ZM470.62 120.08C471.633 120.08 472.48 119.74 473.16 119.06C473.84 118.353 474.18 117.5 474.18 116.5C474.18 115.487 473.84 114.64 473.16 113.96C472.48 113.267 471.633 112.92 470.62 112.92C469.62 112.92 468.78 113.267 468.1 113.96C467.42 114.64 467.08 115.487 467.08 116.5C467.08 117.5 467.42 118.353 468.1 119.06C468.78 119.74 469.62 120.08 470.62 120.08ZM478.556 111.5H485.116V113.18H480.296V121.5H478.556V111.5ZM492.162 111.24C493.562 111.24 494.756 111.753 495.742 112.78C496.729 113.807 497.222 115.047 497.222 116.5C497.222 117.967 496.729 119.213 495.742 120.24C494.769 121.253 493.576 121.76 492.162 121.76C490.509 121.76 489.249 121.1 488.382 119.78V125.5H486.642V111.5H488.382V113.22C489.249 111.9 490.509 111.24 492.162 111.24ZM491.942 120.08C492.942 120.08 493.782 119.74 494.462 119.06C495.142 118.353 495.482 117.5 495.482 116.5C495.482 115.487 495.142 114.64 494.462 113.96C493.782 113.267 492.942 112.92 491.942 112.92C490.929 112.92 490.082 113.267 489.402 113.96C488.722 114.64 488.382 115.487 488.382 116.5C488.382 117.5 488.722 118.353 489.402 119.06C490.082 119.74 490.929 120.08 491.942 120.08ZM503.008 119.34L505.888 111.5H507.748L503.668 122.12C503.241 123.253 502.641 124.113 501.868 124.7C501.095 125.3 500.215 125.567 499.228 125.5V123.88C500.441 123.973 501.341 123.307 501.928 121.88L502.088 121.52L497.748 111.5H499.588L503.008 119.34ZM514.386 116.38C515.493 116.847 516.046 117.64 516.046 118.76C516.046 119.627 515.706 120.347 515.026 120.92C514.346 121.48 513.406 121.76 512.206 121.76C510.206 121.76 508.866 120.96 508.186 119.36L509.646 118.5C510.019 119.593 510.879 120.14 512.226 120.14C512.879 120.14 513.393 120 513.766 119.72C514.139 119.44 514.326 119.067 514.326 118.6C514.326 118.2 514.173 117.873 513.866 117.62C513.573 117.367 513.173 117.24 512.666 117.24H511.206V115.66H512.286C512.793 115.66 513.186 115.54 513.466 115.3C513.746 115.047 513.886 114.707 513.886 114.28C513.886 113.84 513.719 113.493 513.386 113.24C513.053 112.973 512.606 112.84 512.046 112.84C510.926 112.84 510.166 113.313 509.766 114.26L508.346 113.44C509.053 111.973 510.286 111.24 512.046 111.24C513.113 111.24 513.966 111.52 514.606 112.08C515.259 112.627 515.586 113.313 515.586 114.14C515.586 115.153 515.186 115.9 514.386 116.38ZM519.651 118.52L525.191 111.5H526.591V121.5H524.871V114.48L519.331 121.5H517.931V111.5H519.651V118.52ZM528.12 111.5H536.68V113.18H533.28V121.5H531.54V113.18H528.12V111.5ZM547.414 117.3H539.034C539.207 118.18 539.614 118.873 540.254 119.38C540.894 119.873 541.694 120.12 542.654 120.12C543.974 120.12 544.934 119.633 545.534 118.66L547.014 119.5C546.027 121.007 544.561 121.76 542.614 121.76C541.041 121.76 539.747 121.267 538.734 120.28C537.747 119.267 537.254 118.007 537.254 116.5C537.254 114.98 537.741 113.727 538.714 112.74C539.687 111.74 540.947 111.24 542.494 111.24C543.961 111.24 545.154 111.76 546.074 112.8C547.007 113.813 547.474 115.053 547.474 116.52C547.474 116.773 547.454 117.033 547.414 117.3ZM542.494 112.88C541.574 112.88 540.801 113.14 540.174 113.66C539.561 114.18 539.181 114.887 539.034 115.78H545.714C545.567 114.86 545.201 114.147 544.614 113.64C544.027 113.133 543.321 112.88 542.494 112.88ZM556.194 118.52L561.734 111.5H563.134V121.5H561.414V114.48L555.874 121.5H554.474V111.5H556.194V118.52ZM566.703 111.5H574.123V121.5H572.383V113.18H568.443V117.26C568.443 118.86 568.123 120 567.483 120.68C566.843 121.347 565.903 121.62 564.663 121.5V119.86C565.356 119.953 565.87 119.8 566.203 119.4C566.536 118.987 566.703 118.26 566.703 117.22V111.5ZM578.479 118.52L584.019 111.5H585.419V121.5H583.699V114.48L578.159 121.5H576.759V111.5H578.479V118.52ZM593.068 111.5H601.728V121.5H599.988V113.16H594.808V121.5H593.068V111.5ZM613.977 117.3H605.597C605.77 118.18 606.177 118.873 606.817 119.38C607.457 119.873 608.257 120.12 609.217 120.12C610.537 120.12 611.497 119.633 612.097 118.66L613.577 119.5C612.59 121.007 611.123 121.76 609.177 121.76C607.603 121.76 606.31 121.267 605.297 120.28C604.31 119.267 603.817 118.007 603.817 116.5C603.817 114.98 604.303 113.727 605.277 112.74C606.25 111.74 607.51 111.24 609.057 111.24C610.523 111.24 611.717 111.76 612.637 112.8C613.57 113.813 614.037 115.053 614.037 116.52C614.037 116.773 614.017 117.033 613.977 117.3ZM609.057 112.88C608.137 112.88 607.363 113.14 606.737 113.66C606.123 114.18 605.743 114.887 605.597 115.78H612.277C612.13 114.86 611.763 114.147 611.177 113.64C610.59 113.133 609.883 112.88 609.057 112.88ZM621.557 111.24C622.957 111.24 624.15 111.753 625.137 112.78C626.123 113.807 626.617 115.047 626.617 116.5C626.617 117.967 626.123 119.213 625.137 120.24C624.163 121.253 622.97 121.76 621.557 121.76C619.903 121.76 618.643 121.1 617.777 119.78V125.5H616.037V111.5H617.777V113.22C618.643 111.9 619.903 111.24 621.557 111.24ZM621.337 120.08C622.337 120.08 623.177 119.74 623.857 119.06C624.537 118.353 624.877 117.5 624.877 116.5C624.877 115.487 624.537 114.64 623.857 113.96C623.177 113.267 622.337 112.92 621.337 112.92C620.323 112.92 619.477 113.267 618.797 113.96C618.117 114.64 617.777 115.487 617.777 116.5C617.777 117.5 618.117 118.353 618.797 119.06C619.477 119.74 620.323 120.08 621.337 120.08ZM638.293 117.3H629.913C630.086 118.18 630.493 118.873 631.133 119.38C631.773 119.873 632.573 120.12 633.533 120.12C634.853 120.12 635.813 119.633 636.413 118.66L637.893 119.5C636.906 121.007 635.44 121.76 633.493 121.76C631.92 121.76 630.626 121.267 629.613 120.28C628.626 119.267 628.133 118.007 628.133 116.5C628.133 114.98 628.62 113.727 629.593 112.74C630.566 111.74 631.826 111.24 633.373 111.24C634.84 111.24 636.033 111.76 636.953 112.8C637.886 113.813 638.353 115.053 638.353 116.52C638.353 116.773 638.333 117.033 638.293 117.3ZM633.373 112.88C632.453 112.88 631.68 113.14 631.053 113.66C630.44 114.18 630.06 114.887 629.913 115.78H636.593C636.446 114.86 636.08 114.147 635.493 113.64C634.906 113.133 634.2 112.88 633.373 112.88ZM638.843 111.5H647.403V113.18H644.003V121.5H642.263V113.18H638.843V111.5ZM656.817 113.22V111.5H658.557V121.5H656.817V119.78C655.963 121.1 654.703 121.76 653.037 121.76C651.623 121.76 650.43 121.253 649.457 120.24C648.47 119.213 647.977 117.967 647.977 116.5C647.977 115.047 648.47 113.807 649.457 112.78C650.443 111.753 651.637 111.24 653.037 111.24C654.703 111.24 655.963 111.9 656.817 113.22ZM653.257 120.08C654.27 120.08 655.117 119.74 655.797 119.06C656.477 118.353 656.817 117.5 656.817 116.5C656.817 115.487 656.477 114.64 655.797 113.96C655.117 113.267 654.27 112.92 653.257 112.92C652.257 112.92 651.417 113.267 650.737 113.96C650.057 114.64 649.717 115.487 649.717 116.5C649.717 117.5 650.057 118.353 650.737 119.06C651.417 119.74 652.257 120.08 653.257 120.08ZM674.793 111.5V119.84H676.173V124.18H674.453V121.5H661.193V111.5H662.933V119.84H667.133V111.5H668.873V119.84H673.053V111.5H674.793ZM679.769 118.52L685.309 111.5H686.709V121.5H684.989V114.48L679.449 121.5H678.049V111.5H679.769V118.52ZM688.237 111.5H696.797V113.18H693.397V121.5H691.657V113.18H688.237V111.5ZM707.531 117.3H699.151C699.325 118.18 699.731 118.873 700.371 119.38C701.011 119.873 701.811 120.12 702.771 120.12C704.091 120.12 705.051 119.633 705.651 118.66L707.131 119.5C706.145 121.007 704.678 121.76 702.731 121.76C701.158 121.76 699.865 121.267 698.851 120.28C697.865 119.267 697.371 118.007 697.371 116.5C697.371 114.98 697.858 113.727 698.831 112.74C699.805 111.74 701.065 111.24 702.611 111.24C704.078 111.24 705.271 111.76 706.191 112.8C707.125 113.813 707.591 115.053 707.591 116.52C707.591 116.773 707.571 117.033 707.531 117.3ZM702.611 112.88C701.691 112.88 700.918 113.14 700.291 113.66C699.678 114.18 699.298 114.887 699.151 115.78H705.831C705.685 114.86 705.318 114.147 704.731 113.64C704.145 113.133 703.438 112.88 702.611 112.88ZM720.891 121.7V125.5H719.171V121.7C717.611 121.527 716.365 120.96 715.431 120C714.498 119.053 714.031 117.887 714.031 116.5C714.031 115.113 714.498 113.947 715.431 113C716.365 112.04 717.611 111.473 719.171 111.3V107.5H720.891V111.3C722.451 111.473 723.698 112.04 724.631 113C725.565 113.947 726.031 115.113 726.031 116.5C726.031 117.887 725.565 119.053 724.631 120C723.698 120.96 722.451 121.527 720.891 121.7ZM715.751 116.5C715.751 117.433 716.051 118.22 716.651 118.86C717.265 119.487 718.105 119.873 719.171 120.02V112.98C718.118 113.113 717.285 113.5 716.671 114.14C716.058 114.767 715.751 115.553 715.751 116.5ZM720.891 112.98V120.02C721.945 119.873 722.771 119.487 723.371 118.86C723.985 118.22 724.291 117.433 724.291 116.5C724.291 115.567 723.985 114.787 723.371 114.16C722.771 113.52 721.945 113.127 720.891 112.98ZM736.368 113.22V111.5H738.108V121.5H736.368V119.78C735.514 121.1 734.254 121.76 732.588 121.76C731.174 121.76 729.981 121.253 729.008 120.24C728.021 119.213 727.528 117.967 727.528 116.5C727.528 115.047 728.021 113.807 729.008 112.78C729.994 111.753 731.188 111.24 732.588 111.24C734.254 111.24 735.514 111.9 736.368 113.22ZM732.808 120.08C733.821 120.08 734.668 119.74 735.348 119.06C736.028 118.353 736.368 117.5 736.368 116.5C736.368 115.487 736.028 114.64 735.348 113.96C734.668 113.267 733.821 112.92 732.808 112.92C731.808 112.92 730.968 113.267 730.288 113.96C729.608 114.64 729.268 115.487 729.268 116.5C729.268 117.5 729.608 118.353 730.288 119.06C730.968 119.74 731.808 120.08 732.808 120.08ZM747.784 110H742.384V108.48H747.784V110ZM742.464 118.52L748.004 111.5H749.404V121.5H747.684V114.48L742.144 121.5H740.744V111.5H742.464V118.52ZM752.972 111.5H760.392V121.5H758.652V113.18H754.712V117.26C754.712 118.86 754.392 120 753.752 120.68C753.112 121.347 752.172 121.62 750.932 121.5V119.86C751.626 119.953 752.139 119.8 752.472 119.4C752.806 118.987 752.972 118.26 752.972 117.22V111.5Z" fill="#DE755E"/>
<path d="M464.869 166.02V167.6H463.049V166.02C461.049 165.873 459.442 165.327 458.229 164.38C457.029 163.42 456.429 162.127 456.429 160.5C456.429 158.873 457.029 157.58 458.229 156.62C459.442 155.673 461.049 155.127 463.049 154.98V153.4H464.869V154.98C466.896 155.127 468.502 155.673 469.689 156.62C470.902 157.58 471.509 158.873 471.509 160.5C471.509 162.127 470.902 163.42 469.689 164.38C468.502 165.327 466.896 165.873 464.869 166.02ZM464.869 156.68V164.32C466.402 164.213 467.582 163.84 468.409 163.2C469.236 162.547 469.649 161.647 469.649 160.5C469.649 159.353 469.236 158.46 468.409 157.82C467.582 157.167 466.402 156.787 464.869 156.68ZM459.509 157.82C458.682 158.46 458.269 159.353 458.269 160.5C458.269 161.647 458.682 162.54 459.509 163.18C460.336 163.82 461.516 164.193 463.049 164.3V156.68C461.516 156.787 460.336 157.167 459.509 157.82ZM481.801 166.24C480.788 167.253 479.541 167.76 478.061 167.76C476.581 167.76 475.334 167.253 474.321 166.24C473.308 165.227 472.801 163.98 472.801 162.5C472.801 161.02 473.308 159.773 474.321 158.76C475.334 157.747 476.581 157.24 478.061 157.24C479.541 157.24 480.788 157.747 481.801 158.76C482.828 159.787 483.341 161.033 483.341 162.5C483.341 163.967 482.828 165.213 481.801 166.24ZM478.061 166.06C479.061 166.06 479.901 165.72 480.581 165.04C481.261 164.36 481.601 163.513 481.601 162.5C481.601 161.487 481.261 160.64 480.581 159.96C479.901 159.28 479.061 158.94 478.061 158.94C477.074 158.94 476.241 159.28 475.561 159.96C474.881 160.64 474.541 161.487 474.541 162.5C474.541 163.513 474.881 164.36 475.561 165.04C476.241 165.72 477.074 166.06 478.061 166.06ZM490.912 157.24C492.312 157.24 493.506 157.753 494.492 158.78C495.479 159.807 495.972 161.047 495.972 162.5C495.972 163.967 495.479 165.213 494.492 166.24C493.519 167.253 492.326 167.76 490.912 167.76C489.259 167.76 487.999 167.1 487.132 165.78V171.5H485.392V157.5H487.132V159.22C487.999 157.9 489.259 157.24 490.912 157.24ZM490.692 166.08C491.692 166.08 492.532 165.74 493.212 165.06C493.892 164.353 494.232 163.5 494.232 162.5C494.232 161.487 493.892 160.64 493.212 159.96C492.532 159.267 491.692 158.92 490.692 158.92C489.679 158.92 488.832 159.267 488.152 159.96C487.472 160.64 487.132 161.487 487.132 162.5C487.132 163.5 487.472 164.353 488.152 165.06C488.832 165.74 489.679 166.08 490.692 166.08ZM506.189 157.5H508.049V167.5H506.349V160.24L503.169 165.36H502.949L499.769 160.24V167.5H498.049V157.5H499.909L503.049 162.56L506.189 157.5ZM518.985 159.22V157.5H520.725V167.5H518.985V165.78C518.131 167.1 516.871 167.76 515.205 167.76C513.791 167.76 512.598 167.253 511.625 166.24C510.638 165.213 510.145 163.967 510.145 162.5C510.145 161.047 510.638 159.807 511.625 158.78C512.611 157.753 513.805 157.24 515.205 157.24C516.871 157.24 518.131 157.9 518.985 159.22ZM515.425 166.08C516.438 166.08 517.285 165.74 517.965 165.06C518.645 164.353 518.985 163.5 518.985 162.5C518.985 161.487 518.645 160.64 517.965 159.96C517.285 159.267 516.438 158.92 515.425 158.92C514.425 158.92 513.585 159.267 512.905 159.96C512.225 160.64 511.885 161.487 511.885 162.5C511.885 163.5 512.225 164.353 512.905 165.06C513.585 165.74 514.425 166.08 515.425 166.08ZM522.241 157.5H530.801V159.18H527.401V167.5H525.661V159.18H522.241V157.5ZM544.806 162.2H537.506V160.52H544.806V162.2ZM556.439 167.76C555.412 167.76 554.512 167.547 553.739 167.12C552.979 166.68 552.419 166.06 552.059 165.26L553.639 164.34C554.065 165.407 554.999 165.94 556.439 165.94C557.345 165.94 558.045 165.727 558.539 165.3C559.045 164.86 559.299 164.227 559.299 163.4V153.5H561.139V163.4C561.139 164.8 560.692 165.88 559.799 166.64C558.905 167.387 557.785 167.76 556.439 167.76ZM563.951 153.5H569.031C570.311 153.5 571.385 153.933 572.251 154.8C573.118 155.667 573.551 156.733 573.551 158C573.551 159.267 573.118 160.333 572.251 161.2C571.385 162.067 570.311 162.5 569.031 162.5H565.811V167.5H563.951V153.5ZM565.811 160.76H569.031C569.818 160.76 570.458 160.5 570.951 159.98C571.458 159.433 571.711 158.773 571.711 158C571.711 157.2 571.458 156.54 570.951 156.02C570.445 155.5 569.805 155.24 569.031 155.24H565.811V160.76ZM582.15 160.56H589.15V161.4C589.15 163.227 588.524 164.747 587.27 165.96C586.017 167.16 584.357 167.76 582.29 167.76C580.157 167.76 578.39 167.06 576.99 165.66C575.604 164.233 574.91 162.513 574.91 160.5C574.91 158.487 575.604 156.773 576.99 155.36C578.39 153.947 580.144 153.24 582.25 153.24C583.53 153.24 584.717 153.553 585.81 154.18C586.917 154.807 587.75 155.62 588.31 156.62L586.71 157.56C586.31 156.8 585.704 156.193 584.89 155.74C584.077 155.273 583.19 155.04 582.23 155.04C580.617 155.04 579.304 155.567 578.29 156.62C577.264 157.673 576.75 158.967 576.75 160.5C576.75 162.033 577.264 163.327 578.29 164.38C579.33 165.42 580.67 165.94 582.31 165.94C583.684 165.94 584.804 165.607 585.67 164.94C586.55 164.26 587.09 163.36 587.29 162.24H582.15V160.56ZM590.816 165.44H592.816L591.516 170.3H590.016L590.816 165.44ZM604.095 167.76C603.068 167.76 602.168 167.547 601.395 167.12C600.635 166.68 600.075 166.06 599.715 165.26L601.295 164.34C601.722 165.407 602.655 165.94 604.095 165.94C605.002 165.94 605.702 165.727 606.195 165.3C606.702 164.86 606.955 164.227 606.955 163.4V153.5H608.795V163.4C608.795 164.8 608.348 165.88 607.455 166.64C606.562 167.387 605.442 167.76 604.095 167.76ZM611.607 153.5H616.687C617.967 153.5 619.041 153.933 619.907 154.8C620.774 155.667 621.207 156.733 621.207 158C621.207 159.267 620.774 160.333 619.907 161.2C619.041 162.067 617.967 162.5 616.687 162.5H613.467V167.5H611.607V153.5ZM613.467 160.76H616.687C617.474 160.76 618.114 160.5 618.607 159.98C619.114 159.433 619.367 158.773 619.367 158C619.367 157.2 619.114 156.54 618.607 156.02C618.101 155.5 617.461 155.24 616.687 155.24H613.467V160.76ZM625.264 161.3V165.74H631.764V167.5H623.404V153.5H631.664V155.26H625.264V159.56H631.164V161.3H625.264ZM640.412 160.56H647.412V161.4C647.412 163.227 646.785 164.747 645.532 165.96C644.279 167.16 642.619 167.76 640.552 167.76C638.419 167.76 636.652 167.06 635.252 165.66C633.865 164.233 633.172 162.513 633.172 160.5C633.172 158.487 633.865 156.773 635.252 155.36C636.652 153.947 638.405 153.24 640.512 153.24C641.792 153.24 642.979 153.553 644.072 154.18C645.179 154.807 646.012 155.62 646.572 156.62L644.972 157.56C644.572 156.8 643.965 156.193 643.152 155.74C642.339 155.273 641.452 155.04 640.492 155.04C638.879 155.04 637.565 155.567 636.552 156.62C635.525 157.673 635.012 158.967 635.012 160.5C635.012 162.033 635.525 163.327 636.552 164.38C637.592 165.42 638.932 165.94 640.572 165.94C641.945 165.94 643.065 165.607 643.932 164.94C644.812 164.26 645.352 163.36 645.552 162.24H640.412V160.56ZM649.078 165.44H651.078L649.778 170.3H648.278L649.078 165.44ZM658.717 153.5H663.797C665.077 153.5 666.15 153.933 667.017 154.8C667.883 155.667 668.317 156.733 668.317 158C668.317 159.267 667.883 160.333 667.017 161.2C666.15 162.067 665.077 162.5 663.797 162.5H660.577V167.5H658.717V153.5ZM660.577 160.76H663.797C664.583 160.76 665.223 160.5 665.717 159.98C666.223 159.433 666.477 158.773 666.477 158C666.477 157.2 666.223 156.54 665.717 156.02C665.21 155.5 664.57 155.24 663.797 155.24H660.577V160.76ZM670.514 153.5H675.974C677.867 153.5 679.447 154.18 680.714 155.54C681.98 156.887 682.614 158.54 682.614 160.5C682.614 162.447 681.98 164.107 680.714 165.48C679.447 166.827 677.867 167.5 675.974 167.5H670.514V153.5ZM672.374 165.74H675.974C677.4 165.74 678.567 165.24 679.474 164.24C680.38 163.227 680.834 161.98 680.834 160.5C680.834 159.02 680.38 157.773 679.474 156.76C678.567 155.76 677.4 155.26 675.974 155.26H672.374V165.74ZM692.929 153.5V155.26H686.729V159.8H692.669V161.56H686.729V167.5H684.869V153.5H692.929ZM694.586 165.44H696.586L695.286 170.3H693.786L694.586 165.44ZM704.225 153.5H709.305C710.585 153.5 711.658 153.933 712.525 154.8C713.391 155.667 713.825 156.733 713.825 158C713.825 159.267 713.391 160.333 712.525 161.2C711.658 162.067 710.585 162.5 709.305 162.5H706.085V167.5H704.225V153.5ZM706.085 160.76H709.305C710.091 160.76 710.731 160.5 711.225 159.98C711.731 159.433 711.985 158.773 711.985 158C711.985 157.2 711.731 156.54 711.225 156.02C710.718 155.5 710.078 155.24 709.305 155.24H706.085V160.76ZM724.721 163.94V153.5H726.581V167.5H725.081L717.881 157.04V167.5H716.021V153.5H717.521L724.721 163.94ZM736.076 160.56H743.076V161.4C743.076 163.227 742.45 164.747 741.196 165.96C739.943 167.16 738.283 167.76 736.216 167.76C734.083 167.76 732.316 167.06 730.916 165.66C729.53 164.233 728.836 162.513 728.836 160.5C728.836 158.487 729.53 156.773 730.916 155.36C732.316 153.947 734.07 153.24 736.176 153.24C737.456 153.24 738.643 153.553 739.736 154.18C740.843 154.807 741.676 155.62 742.236 156.62L740.636 157.56C740.236 156.8 739.63 156.193 738.816 155.74C738.003 155.273 737.116 155.04 736.156 155.04C734.543 155.04 733.23 155.567 732.216 156.62C731.19 157.673 730.676 158.967 730.676 160.5C730.676 162.033 731.19 163.327 732.216 164.38C733.256 165.42 734.596 165.94 736.236 165.94C737.61 165.94 738.73 165.607 739.596 164.94C740.476 164.26 741.016 163.36 741.216 162.24H736.076V160.56ZM757.638 162.2H750.338V160.52H757.638V162.2ZM541.785 187.66V183.5H543.525V193.5H541.785V189.32H536.605V193.5H534.865V183.5H536.605V187.66H541.785ZM555.774 189.3H547.394C547.567 190.18 547.974 190.873 548.614 191.38C549.254 191.873 550.054 192.12 551.014 192.12C552.334 192.12 553.294 191.633 553.894 190.66L555.374 191.5C554.387 193.007 552.92 193.76 550.974 193.76C549.4 193.76 548.107 193.267 547.094 192.28C546.107 191.267 545.614 190.007 545.614 188.5C545.614 186.98 546.1 185.727 547.074 184.74C548.047 183.74 549.307 183.24 550.854 183.24C552.32 183.24 553.514 183.76 554.434 184.8C555.367 185.813 555.834 187.053 555.834 188.52C555.834 188.773 555.814 189.033 555.774 189.3ZM550.854 184.88C549.934 184.88 549.16 185.14 548.534 185.66C547.92 186.18 547.54 186.887 547.394 187.78H554.074C553.927 186.86 553.56 186.147 552.974 185.64C552.387 185.133 551.68 184.88 550.854 184.88ZM567.374 193.76C565.894 193.76 564.674 193.273 563.714 192.3C562.754 191.313 562.274 190.06 562.274 188.54C562.274 186.82 562.52 185.507 563.014 184.6C563.52 183.68 564.547 182.847 566.094 182.1C566.174 182.06 566.267 182.013 566.374 181.96C566.494 181.907 566.634 181.847 566.794 181.78C566.967 181.7 567.114 181.633 567.234 181.58L568.314 181.1C569.38 180.567 569.947 179.927 570.014 179.18L571.414 179.98C571.32 180.447 571.167 180.82 570.954 181.1C570.94 181.127 570.9 181.187 570.834 181.28C570.767 181.36 570.72 181.42 570.694 181.46C570.667 181.487 570.62 181.533 570.554 181.6C570.5 181.653 570.44 181.707 570.374 181.76C570.32 181.813 570.247 181.867 570.154 181.92C569.66 182.227 569.307 182.427 569.094 182.52C569.014 182.56 568.927 182.6 568.834 182.64C568.754 182.68 568.687 182.713 568.634 182.74C568.58 182.767 568.54 182.787 568.514 182.8L567.854 183.08L567.214 183.34C566.32 183.727 565.66 184.12 565.234 184.52C564.807 184.92 564.5 185.427 564.314 186.04C564.727 185.533 565.247 185.147 565.874 184.88C566.514 184.613 567.167 184.48 567.834 184.48C569.1 184.48 570.16 184.907 571.014 185.76C571.894 186.627 572.334 187.727 572.334 189.06C572.334 190.42 571.867 191.547 570.934 192.44C569.987 193.32 568.8 193.76 567.374 193.76ZM570.594 189.06C570.594 188.167 570.3 187.44 569.714 186.88C569.14 186.307 568.38 186.02 567.434 186.02C566.594 186.02 565.82 186.293 565.114 186.84C564.434 187.387 564.094 188.093 564.094 188.96C564.094 189.867 564.407 190.613 565.034 191.2C565.66 191.787 566.44 192.08 567.374 192.08C568.32 192.08 569.087 191.793 569.674 191.22C570.287 190.647 570.594 189.927 570.594 189.06ZM582.621 192.24C581.608 193.253 580.361 193.76 578.881 193.76C577.401 193.76 576.155 193.253 575.141 192.24C574.128 191.227 573.621 189.98 573.621 188.5C573.621 187.02 574.128 185.773 575.141 184.76C576.155 183.747 577.401 183.24 578.881 183.24C580.361 183.24 581.608 183.747 582.621 184.76C583.648 185.787 584.161 187.033 584.161 188.5C584.161 189.967 583.648 191.213 582.621 192.24ZM578.881 192.06C579.881 192.06 580.721 191.72 581.401 191.04C582.081 190.36 582.421 189.513 582.421 188.5C582.421 187.487 582.081 186.64 581.401 185.96C580.721 185.28 579.881 184.94 578.881 184.94C577.895 184.94 577.061 185.28 576.381 185.96C575.701 186.64 575.361 187.487 575.361 188.5C575.361 189.513 575.701 190.36 576.381 191.04C577.061 191.72 577.895 192.06 578.881 192.06ZM586.781 183.5H594.201V193.5H592.461V185.18H588.521V189.26C588.521 190.86 588.201 192 587.561 192.68C586.921 193.347 585.981 193.62 584.741 193.5V191.86C585.434 191.953 585.948 191.8 586.281 191.4C586.614 190.987 586.781 190.26 586.781 189.22V183.5ZM598.578 187.1H601.058C602.058 187.1 602.884 187.4 603.538 188C604.204 188.587 604.538 189.353 604.538 190.3C604.538 191.247 604.204 192.02 603.538 192.62C602.871 193.207 602.044 193.5 601.058 193.5H596.838V183.5H598.578V187.1ZM598.578 191.88H601.058C601.564 191.88 601.984 191.733 602.318 191.44C602.651 191.147 602.818 190.767 602.818 190.3C602.818 189.833 602.644 189.453 602.298 189.16C601.964 188.853 601.551 188.7 601.058 188.7H598.578V191.88ZM618.368 191.84V183.5H620.108V193.5H606.408V183.5H608.148V191.84H612.388V183.5H614.128V191.84H618.368ZM632.375 189.3H623.995C624.168 190.18 624.575 190.873 625.215 191.38C625.855 191.873 626.655 192.12 627.615 192.12C628.935 192.12 629.895 191.633 630.495 190.66L631.975 191.5C630.988 193.007 629.522 193.76 627.575 193.76C626.002 193.76 624.708 193.267 623.695 192.28C622.708 191.267 622.215 190.007 622.215 188.5C622.215 186.98 622.702 185.727 623.675 184.74C624.648 183.74 625.908 183.24 627.455 183.24C628.922 183.24 630.115 183.76 631.035 184.8C631.968 185.813 632.435 187.053 632.435 188.52C632.435 188.773 632.415 189.033 632.375 189.3ZM627.455 184.88C626.535 184.88 625.762 185.14 625.135 185.66C624.522 186.18 624.142 186.887 623.995 187.78H630.675C630.528 186.86 630.162 186.147 629.575 185.64C628.988 185.133 628.282 184.88 627.455 184.88ZM647.875 193.5H638.835V191.98L643.775 186.94C645.095 185.62 645.755 184.487 645.755 183.54C645.755 182.767 645.515 182.16 645.035 181.72C644.569 181.267 643.982 181.04 643.275 181.04C641.955 181.04 640.995 181.667 640.395 182.92L638.835 182C639.262 181.107 639.862 180.427 640.635 179.96C641.409 179.48 642.282 179.24 643.255 179.24C644.442 179.24 645.462 179.627 646.315 180.4C647.182 181.187 647.615 182.227 647.615 183.52C647.615 184.933 646.782 186.473 645.115 188.14L641.535 191.7H647.875V193.5ZM666.162 179.5H668.262V193.5H666.422V182.56L661.842 190.18H661.602L657.022 182.58V193.5H655.162V179.5H657.262L661.722 186.9L666.162 179.5ZM673.116 185H676.516C677.716 185 678.743 185.413 679.596 186.24C680.436 187.053 680.856 188.053 680.856 189.24C680.856 190.44 680.436 191.453 679.596 192.28C678.783 193.093 677.756 193.5 676.516 193.5H671.256V179.5H679.656V181.26H673.116V185ZM673.116 191.76H676.516C677.209 191.76 677.796 191.52 678.276 191.04C678.769 190.56 679.016 189.96 679.016 189.24C679.016 188.533 678.769 187.94 678.276 187.46C677.796 186.98 677.209 186.74 676.516 186.74H673.116V191.76Z" fill="#A0A1A4"/>
<rect x="0.75" y="0.75" width="1213.5" height="247.5" rx="29.25" stroke="#DE755E" stroke-width="1.5" stroke-dasharray="15 15"/>
</svg>
