<svg width="178" height="157" viewBox="0 0 178 157" fill="none" xmlns="http://www.w3.org/2000/svg">
<path d="M177.738 47.8357V26.6484H109.786V47.8501L110.955 49.5308C111.76 50.6156 112.921 51.4164 114.257 51.8078C116.268 52.4367 118.446 51.9524 120.202 50.8392C121.511 49.9919 123.058 49.5362 124.642 49.5308C129.384 49.5308 133.196 53.5753 133.196 58.6173C133.196 63.6593 129.387 67.6748 124.642 67.6748C123.058 67.6694 121.511 67.2137 120.202 66.3664C118.431 65.2243 116.237 64.74 114.227 65.3978C112.899 65.7724 111.745 66.5653 110.955 67.6459L109.786 69.2976V90.8066H132.446L134.216 89.6933C135.359 88.947 136.196 87.851 136.589 86.5886C137.278 84.6803 136.768 82.6129 135.568 80.9213C134.674 79.6794 134.192 78.2114 134.186 76.707C134.186 72.2036 138.451 68.5856 143.733 68.5856C149.016 68.5856 153.308 72.1999 153.308 76.707C153.301 78.2114 152.82 79.6794 151.925 80.9213C150.756 82.5731 150.246 84.6513 150.904 86.5633C151.319 87.8302 152.164 88.931 153.308 89.6933L155.078 90.8066H177.738V69.2976L177.784 69.2362L177.761 47.8501L177.738 47.8357Z" fill="white"/>
<path d="M177.738 91.0028H155.067C155.029 91.0021 154.993 90.9921 154.96 90.9739L153.189 89.8606C152.011 89.0739 151.141 87.9389 150.714 86.633C150.074 84.7861 150.455 82.6573 151.758 80.8501C152.631 79.6381 153.1 78.2052 153.106 76.737C153.106 72.36 148.897 68.7854 143.722 68.7854C138.546 68.7854 134.365 72.3492 134.365 76.737C134.372 78.205 134.841 79.6375 135.713 80.8501C137.042 82.7115 137.423 84.8259 136.757 86.68C136.354 87.9807 135.49 89.1094 134.312 89.8751L132.552 90.9847C132.52 91.0034 132.483 91.0134 132.446 91.0136H109.786C109.736 91.0136 109.687 90.9946 109.651 90.9607C109.616 90.9268 109.596 90.8808 109.596 90.8329V69.2987C109.596 69.264 109.606 69.2302 109.626 69.2011L110.795 67.5204C111.605 66.4004 112.797 65.5795 114.169 65.1964C116.108 64.5639 118.359 64.9253 120.308 66.1867C121.582 67.0245 123.092 67.4791 124.642 67.4915C129.254 67.4915 133.021 63.5157 133.021 58.6147C133.021 53.7136 129.269 49.7089 124.642 49.7089C123.095 49.7139 121.585 50.1596 120.308 50.9884C118.37 52.2245 116.142 52.5823 114.215 51.9788C112.839 51.5742 111.643 50.748 110.814 49.6294L109.641 47.9452C109.622 47.9158 109.612 47.8821 109.611 47.8476V26.6495C109.611 26.6015 109.631 26.5556 109.667 26.5217C109.702 26.4878 109.751 26.4688 109.801 26.4688H177.738C177.788 26.4688 177.837 26.4878 177.872 26.5217C177.908 26.5556 177.928 26.6015 177.928 26.6495V47.797C177.943 47.8223 177.951 47.851 177.951 47.8801L177.974 69.2661C177.973 69.3018 177.963 69.3367 177.943 69.3673V90.822C177.944 90.847 177.938 90.8718 177.928 90.8947C177.917 90.9176 177.902 90.9382 177.882 90.9552C177.863 90.9722 177.84 90.9852 177.815 90.9934C177.79 91.0016 177.764 91.0048 177.738 91.0028ZM155.135 90.6413H177.536V69.2987C177.536 69.2634 177.548 69.2291 177.57 69.2011V69.183L177.547 47.9054C177.532 47.8801 177.524 47.8514 177.525 47.8223V26.8157H109.977V47.7789L111.119 49.4126C111.899 50.4647 113.024 51.2424 114.318 51.6245C116.15 52.1956 118.256 51.8486 120.095 50.6776C121.435 49.809 123.019 49.3419 124.642 49.3367C129.464 49.3367 133.401 53.4932 133.401 58.6038C133.401 63.7145 129.479 67.8421 124.642 67.8421C123.019 67.8369 121.435 67.3698 120.095 66.5012C118.233 65.3048 116.116 64.9578 114.288 65.5542C112.999 65.9096 111.879 66.6754 111.115 67.7228L109.973 69.3565V90.6305H132.385L134.11 89.5462C135.214 88.8223 136.021 87.7588 136.395 86.5354C137.023 84.7969 136.661 82.791 135.397 81.0236C134.483 79.7508 133.991 78.248 133.984 76.7081C133.984 72.1287 138.352 68.3951 143.722 68.3951C149.092 68.3951 153.486 72.1178 153.486 76.7081C153.481 78.2483 152.989 79.7516 152.074 81.0236C150.836 82.7693 150.474 84.7644 151.076 86.5065C151.475 87.7365 152.293 88.8058 153.403 89.5462L155.135 90.6413Z" fill="black"/>
<path d="M131.504 42.7067C131.058 43.0392 130.19 43.2019 128.906 43.2019C127.601 43.1992 126.311 42.9344 125.121 42.4248C123.884 41.9115 122.499 41.3248 120.966 40.6646C119.235 39.9408 117.453 39.3298 115.634 38.8357C113.729 38.3346 111.778 38.0019 109.808 37.8418V39.8478C112.787 40.1878 115.672 41.0623 118.308 42.4248C121.16 43.9256 123.7 45.9074 125.803 48.2728C126.267 48.7969 126.709 49.3571 127.132 49.8992C127.337 49.9643 127.539 50.0402 127.737 50.1233L127.802 50.1486C128.209 50.3182 128.6 50.5201 128.971 50.7522H128.998C129.18 50.8679 129.359 50.9884 129.535 51.1136L129.584 51.1498C129.923 51.4057 130.242 51.6834 130.54 51.9811L130.631 52.0751C130.761 52.2124 130.89 52.3534 131.012 52.4979L131.138 52.6497C131.222 52.7558 131.302 52.8606 131.378 52.9642C131.458 53.069 131.53 53.1738 131.603 53.2823C131.675 53.3907 131.717 53.4485 131.77 53.5353C131.823 53.622 131.896 53.7377 131.957 53.8425L131.987 53.9039C132.796 55.3415 133.217 56.9474 133.21 58.5773C133.21 59.6024 133.045 60.6216 132.718 61.5988C133.092 62.9072 133.404 64.2325 133.655 65.5746H135.438V40.2417H133.358C132.566 41.5597 131.948 42.3814 131.504 42.7067Z" fill="#263238"/>
<path d="M109.786 90.823H132.446L134.216 89.7098C134.464 89.5583 134.696 89.3853 134.91 89.1929C132.407 87.4374 129.664 86.0146 126.756 84.9641C123.938 83.9786 121.836 83.2979 120.449 82.922L109.786 79.998V90.8411V90.823Z" fill="#263238"/>
<path d="M155.143 90.8381L153.372 89.7284C152.232 88.9798 151.396 87.8846 151 86.6237C150.31 84.7154 150.821 82.648 152.02 80.9528C152.915 79.7109 153.396 78.2429 153.403 76.7385C153.403 72.2351 149.141 68.5918 143.859 68.5918C138.577 68.5918 134.281 72.2351 134.281 76.7385C134.292 78.2422 134.773 79.7091 135.664 80.9528C136.833 82.6046 137.343 84.6865 136.684 86.5948C136.272 87.8634 135.426 88.9658 134.281 89.7284L132.51 90.8381H109.851V112.347L108.678 114.028C107.865 115.105 106.707 115.903 105.376 116.305C103.365 116.934 101.187 116.449 99.4353 115.336C98.1308 114.477 96.5789 114.02 94.991 114.028C90.2496 114.028 86.4375 118.072 86.4375 123.085C86.4375 128.098 90.2496 132.19 94.991 132.19C96.5767 132.184 98.1243 131.728 99.4353 130.881C101.206 129.739 103.396 129.226 105.407 129.884C106.733 130.278 107.884 131.079 108.678 132.161L109.851 133.841V155.321H177.826V90.8381H155.143Z" fill="#DE755E"/>
<path d="M109.832 155.522C109.795 155.522 109.758 155.511 109.727 155.491C109.696 155.471 109.671 155.443 109.657 155.41C109.647 155.388 109.641 155.364 109.641 155.339C109.641 155.315 109.647 155.291 109.657 155.269V133.876L108.515 132.242C107.744 131.191 106.626 130.414 105.339 130.034C103.53 129.444 101.416 129.799 99.5346 131.009C98.1932 131.879 96.6079 132.346 94.9837 132.35C90.1624 132.35 86.2246 128.194 86.2246 123.083C86.2246 117.972 90.1472 113.845 94.9837 113.845C96.6162 113.834 98.2124 114.303 99.5537 115.186C101.389 116.357 103.491 116.704 105.327 116.133C106.617 115.743 107.741 114.969 108.53 113.924L109.672 112.291V90.836C109.672 90.7881 109.692 90.7422 109.728 90.7083C109.764 90.6744 109.812 90.6553 109.863 90.6553H132.465L134.19 89.571C135.297 88.8293 136.114 87.7604 136.513 86.5314C137.119 84.7929 136.753 82.7941 135.516 81.0484C134.604 79.775 134.112 78.2726 134.103 76.7329C134.103 72.1391 138.486 68.4199 143.871 68.4199C149.256 68.4199 153.605 72.1535 153.605 76.7329C153.6 78.2732 153.107 79.7764 152.192 81.0484C150.928 82.8158 150.566 84.8218 151.194 86.5567C151.567 87.7814 152.374 88.8462 153.479 89.571L155.205 90.6553H177.811C177.861 90.6553 177.91 90.6744 177.945 90.7083C177.981 90.7422 178.001 90.7881 178.001 90.836V155.319C178 155.367 177.98 155.413 177.944 155.446C177.909 155.48 177.861 155.499 177.811 155.5L109.832 155.522ZM103.552 129.394C104.2 129.394 104.843 129.494 105.457 129.69C106.824 130.096 108.009 130.924 108.823 132.043L109.996 133.724C110.016 133.753 110.026 133.787 110.027 133.821V155.146H177.601V91.0168H155.132C155.095 91.0161 155.058 91.0061 155.026 90.9879L153.255 89.8746C152.076 89.1073 151.212 87.9775 150.81 86.6759C150.143 84.8362 150.524 82.7002 151.853 80.8496C152.725 79.637 153.195 78.2045 153.201 76.7365C153.201 72.3415 149.012 68.785 143.848 68.785C138.684 68.785 134.461 72.3559 134.461 76.7365C134.472 78.2106 134.946 79.6479 135.824 80.8641C137.123 82.7002 137.504 84.8109 136.864 86.647C136.438 87.9534 135.567 89.0886 134.388 89.8746L132.617 90.9842C132.585 91.003 132.548 91.013 132.511 91.0131H110.042V112.338C110.041 112.372 110.031 112.406 110.011 112.435L108.838 114.116C108.005 115.229 106.813 116.053 105.441 116.465C103.491 117.073 101.252 116.715 99.329 115.479C98.0564 114.638 96.5415 114.192 94.9913 114.199C90.3833 114.199 86.6131 118.175 86.6131 123.076C86.6131 127.977 90.368 131.982 94.9913 131.982C96.5396 131.977 98.0506 131.531 99.329 130.702C100.568 129.876 102.039 129.42 103.552 129.394Z" fill="black"/>
<path d="M135.807 132.005C138.997 128.988 141.52 125.396 143.226 121.441C144.95 117.49 145.832 113.254 145.823 108.978C145.823 104.191 144.759 100.223 142.632 97.0763C140.674 94.1081 138.16 91.506 135.213 89.3995L134.946 89.2188C134.738 89.4044 134.515 89.5748 134.28 89.7284L132.509 90.838H109.85V95.3631L115.84 97.004C117.968 97.622 120.049 98.3755 122.07 99.2594C124.261 100.208 126.289 101.466 128.084 102.989C129.985 104.635 131.523 106.623 132.608 108.837C133.796 111.184 134.39 114.048 134.39 117.429C134.351 119.932 133.951 122.419 133.202 124.82C132.388 127.538 130.971 130.059 129.047 132.215C127.067 134.47 124.401 136.349 121.05 137.85C118.059 139.185 114.328 139.926 109.857 140.072V142.046C115.097 141.884 119.817 140.978 124.017 139.328C128.417 137.648 132.424 135.16 135.807 132.005Z" fill="#263238"/>
<path d="M94.9753 114.009C96.5606 114.014 98.1077 114.471 99.4158 115.321C101.16 116.459 103.35 116.944 105.391 116.318C106.709 115.908 107.855 115.109 108.662 114.038L109.832 112.357V90.8518H87.1721L85.4013 89.7386C84.2588 88.9861 83.4132 87.8936 82.9982 86.6339C82.3089 84.7255 82.8497 82.6581 84.0493 80.9666C84.9443 79.7235 85.4259 78.2542 85.4317 76.7487C85.4317 72.2488 81.1398 68.6309 75.8538 68.6309C70.5679 68.6309 66.3102 72.2452 66.3102 76.7487C66.3015 78.2563 66.7844 79.7296 67.6926 80.9666C68.8618 82.6184 69.3721 84.6966 68.7132 86.605C68.2894 87.8682 67.4464 88.9674 66.3102 89.7386L64.5393 90.8518H41.8799V155.342H109.832V133.837L108.662 132.156C107.86 131.069 106.698 130.266 105.361 129.876C103.319 129.251 101.171 129.735 99.3892 130.844C98.0907 131.694 96.5523 132.151 94.9753 132.156C90.234 132.156 86.3914 128.112 86.3914 123.095C86.3914 118.079 90.234 114.009 94.9753 114.009Z" fill="white"/>
<path d="M109.832 155.523H41.8799C41.8294 155.523 41.7809 155.504 41.7452 155.47C41.7095 155.436 41.6895 155.39 41.6895 155.342V90.8478C41.6895 90.7998 41.7095 90.7539 41.7452 90.72C41.7809 90.6861 41.8294 90.667 41.8799 90.667H64.4822L66.2074 89.5827C67.3082 88.835 68.1234 87.7683 68.5304 86.5431C69.1321 84.8046 68.7703 82.8059 67.5326 81.0638C66.6066 79.7954 66.1135 78.2877 66.1198 76.7446C66.1198 72.1689 70.4879 68.4316 75.8538 68.4316C81.2197 68.4316 85.6221 72.1544 85.6221 76.7446C85.6155 78.2858 85.1235 79.79 84.2092 81.0638C82.9335 82.8456 82.5602 84.8552 83.181 86.572C83.5793 87.7937 84.3971 88.8536 85.5041 89.5827L87.2292 90.667H109.832C109.882 90.667 109.93 90.6861 109.966 90.72C110.002 90.7539 110.022 90.7998 110.022 90.8478V112.357C110.022 112.392 110.011 112.427 109.992 112.458L108.822 114.139C107.993 115.243 106.814 116.066 105.456 116.488C103.468 117.099 101.229 116.726 99.3092 115.469C98.0315 114.641 96.5221 114.196 94.9753 114.189C90.3482 114.189 86.597 118.187 86.597 123.095C86.597 128.003 90.3635 131.975 94.9753 131.975C96.5133 131.965 98.0131 131.52 99.2825 130.696C101.236 129.467 103.472 129.106 105.418 129.706C106.795 130.108 107.992 130.934 108.819 132.055L109.992 133.736C110.011 133.766 110.022 133.801 110.022 133.837V155.342C110.022 155.366 110.017 155.389 110.007 155.411C109.998 155.433 109.984 155.453 109.966 155.47C109.949 155.487 109.928 155.5 109.904 155.509C109.881 155.518 109.857 155.523 109.832 155.523ZM42.0703 155.161H109.641V133.891L108.499 132.254C107.718 131.203 106.594 130.428 105.3 130.049C103.464 129.485 101.347 129.828 99.4882 130.996C98.1574 131.861 96.5843 132.328 94.9715 132.337C90.135 132.337 86.2124 128.191 86.2124 123.095C86.2124 117.999 90.1502 113.828 94.9715 113.828C96.5943 113.834 98.1779 114.301 99.5187 115.169C101.343 116.361 103.46 116.719 105.326 116.145C106.606 115.749 107.72 114.975 108.502 113.936L109.645 112.302V91.0285H87.1759C87.138 91.0301 87.1006 91.0199 87.0693 90.9996L85.2946 89.9008C84.1177 89.1254 83.2467 87.9999 82.8192 86.7021C82.1604 84.8769 82.5488 82.7516 83.8932 80.8758C84.7648 79.6618 85.2343 78.2282 85.2413 76.7591C85.2413 72.3821 81.0293 68.8075 75.8538 68.8075C70.6783 68.8075 66.5006 72.3677 66.5006 76.7591C66.4965 78.2275 66.97 79.6614 67.8564 80.865C69.1588 82.7047 69.5396 84.819 68.8998 86.666C68.463 87.967 67.5947 89.0992 66.4244 89.8936L64.646 90.9851C64.6146 91.0055 64.5772 91.0156 64.5393 91.014H42.0703V155.161Z" fill="black"/>
<path d="M109.831 140.068C109.275 140.086 108.711 140.097 108.132 140.097C106.053 140.097 107.038 140.5 106.053 140.097C104.769 140.097 103.433 140.04 102.046 139.931C101.294 140.091 102.046 139.931 99.9024 139.721C98.9579 139.609 97.9982 139.479 97.0005 139.324C93.5443 138.736 90.2574 137.464 87.354 135.59C84.1855 133.619 81.2417 130.615 78.5225 126.576C75.8034 122.538 73.6517 116.951 72.0675 109.816H70.4375V140.097H72.6616C72.9642 139.221 73.4427 138.408 74.0706 137.705C74.6152 137.141 75.632 136.859 77.1173 136.859C79.1482 136.922 81.1542 137.303 83.0544 137.987C85.3394 138.738 87.467 139.395 89.4372 139.956C90.9173 140.332 92.3023 140.661 93.592 140.943C94.8383 141.221 96.0994 141.434 97.3699 141.583C98.1798 141.674 99.0239 141.755 99.9024 141.825V141.944H102.046C103.246 142.006 104.579 142.042 106.053 142.042L108.132 142.071C108.703 142.071 109.275 142.071 109.831 142.042V140.068Z" fill="#263238"/>
<path d="M79.1942 82.6396C80.2765 83.6834 81.4498 84.6386 82.7016 85.4949C82.5537 83.8756 83.0196 82.2594 84.0155 80.9372C84.91 79.6952 85.3916 78.2272 85.3979 76.7229C85.3821 75.5696 85.0948 74.4343 84.5572 73.4C84.0195 72.3656 83.245 71.4584 82.2903 70.7448C80.4603 69.3684 78.1893 68.6274 75.8543 68.6448C74.9548 68.6461 74.0591 68.7554 73.1885 68.9701C73.5287 74.5193 75.5306 79.0758 79.1942 82.6396Z" fill="#263238"/>
<path d="M15.8058 63.8488C14.8651 63.8271 11.8223 65.2946 11.8223 65.2946L14.7585 74.1678L34.2875 72.0245C34.4891 71.9975 34.6749 71.9056 34.8135 71.7641C34.9522 71.6226 35.0354 71.4402 35.0492 71.2474C35.1824 70.6149 38.9641 53.7359 38.9641 53.7359L34.5922 52.8359L30.1555 65.2042C30.1555 65.2042 16.7426 63.8741 15.8058 63.8488Z" fill="#263238"/>
<path d="M14.6218 74.3538L11.5752 65.1951L11.7161 65.1264C11.8418 65.065 14.7627 63.659 15.7681 63.659H15.791C16.6821 63.6807 28.4384 64.8481 29.9922 64.9999L34.4441 52.6172L39.1664 53.5894L39.1283 53.7629C39.0902 53.9328 35.3429 70.6491 35.2172 71.2708C35.1969 71.501 35.0945 71.7177 34.927 71.8853C34.7594 72.0528 34.5367 72.1612 34.2956 72.1924L14.778 74.3538H14.6218ZM12.0512 65.3794L14.8922 73.9599L34.2651 71.8346C34.5812 71.7949 34.783 71.5816 34.8592 71.2021C34.9811 70.613 38.3324 55.6605 38.7361 53.8533L34.7259 53.0292L30.2854 65.383H30.1369C29.9998 65.383 16.7316 64.0493 15.81 64.0277C15.1055 63.9987 12.9843 64.9565 12.0512 65.3866V65.3794Z" fill="#263238"/>
<path d="M43.2665 45.5578L41.7432 45.7421L39.702 46.2915L41.2748 44.9433C41.2748 44.9433 42.8476 44.2819 43.099 44.1229C43.3503 43.9638 43.1942 43.512 43.0609 43.5301C42.3915 43.5817 41.7286 43.6918 41.0806 43.859C40.654 44.0397 38.4148 45.424 38.4148 45.424L39.9685 43.6169C39.9685 43.6169 41.6785 42.2976 41.8156 41.9796C41.9527 41.6615 41.8156 41.2965 41.3814 41.4374C40.5603 41.8628 39.8001 42.3863 39.1193 42.9952C38.8032 43.3313 37.078 44.8674 37.078 44.8674L37.2799 44.3723C37.2799 44.3723 38.9251 42.2506 39.1003 41.8856C39.2754 41.5205 39.2221 41.1049 39.0317 41.0398C38.8413 40.9748 38.4338 41.2856 38.1368 41.7627C37.8397 42.2398 35.5433 44.8566 35.4405 45.0843C35.3376 45.312 35.1663 51.0118 35.1663 51.0118L34.5684 52.8551L38.5442 53.6719L38.8679 51.7527C38.8679 51.7527 39.2792 51.1491 39.462 50.8275C39.6448 50.5058 40.1475 48.2649 40.1475 48.2649L41.846 46.8625C42.413 46.676 42.9611 46.4413 43.4836 46.1614C43.8644 45.912 43.4417 45.5361 43.2665 45.5578Z" fill="#263238"/>
<path d="M38.7185 53.8674L34.3428 52.9674L34.994 50.9614C35.0473 49.2229 35.1768 45.2219 35.2834 44.9905C35.6762 44.4453 36.0996 43.9205 36.5516 43.4183C37.1609 42.6954 37.8502 41.875 37.9949 41.6473C38.2958 41.1738 38.7795 40.7545 39.1146 40.863C39.1695 40.8833 39.2192 40.9145 39.2606 40.9543C39.3019 40.9942 39.3339 41.0419 39.3545 41.0943C39.451 41.3779 39.4292 41.6857 39.2936 41.9545C39.1679 42.2111 38.41 43.2231 37.8997 43.8882C38.3605 43.4725 38.8442 43.028 38.9927 42.8689C39.6959 42.2353 40.4848 41.6932 41.3386 41.2569C41.4362 41.2146 41.545 41.2017 41.6505 41.2198C41.756 41.2378 41.8532 41.2861 41.9289 41.3581C42.0089 41.4532 42.0589 41.5678 42.0731 41.6887C42.0872 41.8096 42.065 41.9319 42.0089 42.0412C41.868 42.3701 40.5465 43.4075 40.1047 43.74L39.3164 44.658C39.9791 44.2604 40.7636 43.7978 41.0073 43.693C41.6386 43.5097 42.2906 43.398 42.9496 43.3605H43.041C43.1819 43.3605 43.3075 43.44 43.3761 43.6135C43.4302 43.7277 43.4428 43.8558 43.4118 43.9775C43.3807 44.0992 43.3079 44.2077 43.2047 44.2857C42.961 44.4412 41.6395 45.0086 41.3805 45.1098L40.4399 45.9158L41.6928 45.5797L43.2161 45.3881C43.334 45.3919 43.4482 45.428 43.5449 45.4922C43.6416 45.5563 43.7166 45.6457 43.7607 45.7496C43.8045 45.8503 43.8093 45.9624 43.7745 46.0662C43.7397 46.17 43.6674 46.2588 43.5703 46.317C43.0495 46.5928 42.5025 46.8215 41.9365 47.0001L40.3371 48.3302C40.1583 49.1913 39.9281 50.042 39.6477 50.8783C39.484 51.1638 39.1565 51.6554 39.0651 51.7855L38.7185 53.8674ZM34.8302 52.6999L38.4062 53.4228L38.7261 51.6156C38.7261 51.6156 39.1374 51.012 39.3126 50.7012C39.5827 49.8699 39.8051 49.0253 39.9791 48.1712V48.1097L41.788 46.6315C42.3308 46.4632 42.856 46.2479 43.357 45.9881C43.4408 45.9303 43.4294 45.8869 43.4256 45.8688C43.4133 45.8317 43.3926 45.7977 43.365 45.7689C43.3373 45.7402 43.3034 45.7176 43.2656 45.7026L41.769 45.8833L38.9699 46.6387L41.2015 44.7448C41.8261 44.4809 42.8201 44.0472 42.9953 43.9388C43.009 43.9275 43.0201 43.9136 43.0279 43.8981C43.0358 43.8825 43.0402 43.8656 43.041 43.8484C43.0478 43.7917 43.0386 43.7343 43.0143 43.6822H42.9914C42.3719 43.7164 41.7585 43.8183 41.1635 43.9858C40.8359 44.1231 39.2936 45.0701 38.5205 45.5399L37.5037 46.1688L39.8496 43.4328C40.4997 42.9676 41.1004 42.4435 41.6433 41.8678C41.67 41.8225 41.684 41.7715 41.684 41.7196C41.684 41.6677 41.67 41.6167 41.6433 41.5714C41.6014 41.528 41.5062 41.5461 41.4529 41.5714C40.6629 41.9866 39.93 42.4928 39.2707 43.0786C38.9546 43.4183 37.2904 44.8857 37.218 44.9652L36.6049 45.5074L37.1381 44.2315C37.7931 43.3822 38.8175 42.0304 38.9394 41.7738C38.9907 41.6815 39.0203 41.5797 39.0262 41.4755C39.0321 41.3714 39.0142 41.2672 38.9737 41.1702C38.6903 41.3141 38.4594 41.5358 38.311 41.8063C38.1549 42.0521 37.4884 42.8472 36.841 43.6135C36.3269 44.2279 35.6985 44.9942 35.6224 45.1062C35.5576 45.352 35.4281 48.8326 35.3672 50.965V51.012L34.8302 52.6999Z" fill="#263238"/>
<path d="M87.6604 12.7C86.3345 13.5244 85.2987 14.7064 84.6861 16.0938C83.8597 17.9263 82.2983 19.4624 80.2532 19.9756C78.9044 20.3533 77.4603 20.2831 76.1593 19.7768L74.2132 18.9708L62.0609 1.17383L5.03906 36.2582L41.8616 90.1119L60.8232 78.4448L61.6991 76.5834C62.2078 75.3487 62.2839 73.9914 61.9162 72.7124C61.3754 70.7715 59.7569 69.2896 57.8032 68.5234C56.3401 67.9439 55.0942 66.9604 54.2272 65.7006C51.6452 61.9236 53.1723 56.6648 57.6052 53.9432C62.038 51.2216 67.7162 52.0348 70.2945 55.8118C71.1532 57.0769 71.5911 58.5579 71.5512 60.0623C71.5093 62.0935 72.2481 64.1175 73.92 65.3609C74.9854 66.1974 76.3088 66.6821 77.6902 66.7415H79.8381L98.853 55.0419L86.5179 36.9847L86.5369 34.9679C86.5788 33.6528 87.092 32.3906 87.9917 31.3897C89.3017 29.803 91.4192 29.0765 93.5556 29.1199C95.1409 29.1584 96.7015 28.7428 98.0342 27.9272C101.991 25.4947 102.894 20.1166 100.022 15.9095C97.1507 11.7024 91.5943 10.2675 87.6604 12.7Z" fill="#DE755E"/>
<path d="M41.8614 90.2799C41.8296 90.2795 41.7984 90.2717 41.7705 90.2572C41.7426 90.2427 41.7189 90.222 41.7014 90.1967L4.88267 36.3431C4.86808 36.3241 4.85812 36.3022 4.85351 36.2791C4.8489 36.256 4.84975 36.2321 4.85601 36.2094C4.86005 36.1858 4.86926 36.1634 4.88303 36.1435C4.89681 36.1235 4.91485 36.1066 4.93599 36.0937L61.954 1.02379C61.996 0.997631 62.0472 0.988273 62.0964 0.99775C62.1456 1.00723 62.1889 1.03477 62.2168 1.07439L74.331 18.8208L76.2352 19.6051C77.4901 20.0937 78.8828 20.1625 80.1844 19.8003C82.0505 19.334 83.6119 17.957 84.4916 16.0233C85.1181 14.6023 86.1794 13.3924 87.5383 12.5499C91.5827 10.0596 97.2571 11.5234 100.189 15.8028C103.122 20.0822 102.193 25.5832 98.1482 28.0916C96.7894 28.9266 95.1965 29.3524 93.5782 29.3132C91.3275 29.2662 89.3548 30.0722 88.1628 31.5143C87.286 32.4812 86.787 33.7053 86.7499 34.9805L86.7309 36.9431L99.0279 54.9425C99.0551 54.9833 99.0646 55.0325 99.0546 55.0798C99.0424 55.1268 99.0126 55.1679 98.9708 55.1955L79.9559 66.8951C79.9253 66.9139 79.8896 66.9239 79.8531 66.924H77.7052C76.281 66.8669 74.9155 66.3693 73.8169 65.5072C72.2174 64.3145 71.3263 62.3302 71.3758 60.0604C71.4142 58.5864 70.9842 57.1356 70.1419 55.8967C67.6322 52.2245 62.0607 51.4113 57.7192 54.0895C53.3777 56.7677 51.8848 61.9218 54.3945 65.5939C55.2401 66.824 56.4554 67.7847 57.8829 68.3517C60.0422 69.1974 61.5808 70.7697 62.1064 72.6636C62.4866 73.977 62.4077 75.3721 61.8817 76.6394L61.0058 78.5044C60.9903 78.537 60.9651 78.5646 60.9334 78.5839L41.9604 90.2582C41.9297 90.2728 41.8957 90.2802 41.8614 90.2799ZM5.30159 36.3142L41.9147 89.8498L60.6668 78.3092L61.5199 76.502C62.0147 75.3043 62.0869 73.9866 61.7255 72.7467C61.2342 70.9685 59.7719 69.4938 57.723 68.6806C56.2259 68.0858 54.951 67.0786 54.0632 65.7891C51.4393 61.9471 52.9816 56.5617 57.4907 53.7823C61.9997 51.0029 67.8188 51.8631 70.4389 55.7051C71.314 56.9967 71.7622 58.5071 71.7262 60.0423C71.6805 62.2109 72.5183 64.0759 74.0111 65.1964C75.0427 66.0105 76.3268 66.4815 77.6671 66.5373H79.7541L98.5633 54.9714L86.3386 37.0768C86.3172 37.0471 86.3065 37.0116 86.3082 36.9756L86.3272 34.9624C86.3639 33.6056 86.8925 32.3022 87.8239 31.2722C89.0882 29.7397 91.1752 28.8831 93.5363 28.9337C95.0952 28.9855 96.6333 28.5818 97.9426 27.7771C101.812 25.3953 102.68 20.1147 99.8734 16.0088C97.0667 11.9029 91.617 10.4717 87.7477 12.8535C86.4517 13.656 85.4394 14.8094 84.842 16.1643C83.9242 18.1991 82.2637 19.6521 80.272 20.14C78.8899 20.5192 77.4133 20.4428 76.0829 19.9232L74.1406 19.1172C74.1065 19.1038 74.0774 19.0812 74.0568 19.0521L62.0073 1.41414L5.30159 36.3142Z" fill="black"/>
<path d="M47.0453 50.9121L44.2995 52.8675L42.3611 57.8661C42.3611 57.8661 36.8771 75.8294 36.2335 76.7474C35.5899 77.6654 33.8685 78.3811 33.8685 78.3811L31.0732 74.5029L42.0412 51.7326L44.5128 51.1217L47.0453 50.9121Z" fill="#263238"/>
<path d="M33.7972 78.6057L30.8496 74.5215L41.8937 51.5922L44.4529 50.956L47.69 50.6777L44.4453 52.9801L42.5411 57.9281C42.324 58.651 37.0457 75.9167 36.3945 76.8492C35.7433 77.7817 34.0181 78.5154 33.9458 78.5443L33.7972 78.6057ZM31.2952 74.4854L33.9381 78.1503C34.3571 77.9624 35.5795 77.3624 36.0784 76.6468C36.5773 75.9311 40.6484 62.8038 42.1717 57.8161L44.133 52.756L46.3875 51.1548L44.5253 51.3139L42.1679 51.8994L31.2952 74.4854Z" fill="#263238"/>
<path d="M92.6493 45.9514L90.9851 46.4285L68.1352 12.9814C68.6341 12.7247 69.133 12.4898 69.6319 12.2585L68.4894 10.5742C68.0057 10.8092 67.5145 11.0549 67.0118 11.3224L65.2638 12.432L64.8829 12.6597C63.8661 13.285 62.8988 13.9428 61.981 14.6223L60.332 15.909C58.3968 17.5121 56.6627 19.3216 55.1641 21.3016C52.7532 24.4475 51.0073 28.007 50.0229 31.7832C49.0922 35.4716 48.9988 39.3057 49.7487 43.031C50.5394 46.989 52.1539 50.7575 54.4977 54.1162C54.8404 54.6222 55.1984 55.1065 55.564 55.5619C56.1707 54.9384 56.8563 54.3884 57.6052 53.9246C62.0381 51.1958 67.7163 52.0162 70.2945 55.7932C71.1533 57.0583 71.5912 58.5393 71.5513 60.0437C71.4778 61.6691 72.018 63.266 73.0746 64.5471C76.7763 64.7351 80.9045 64.311 85.4592 63.2749L98.8645 55.027L92.6493 45.9514ZM84.9261 48.167C83.2047 48.6332 79.3126 49.6561 77.5189 50.0139C74.93 50.5476 72.2718 50.712 69.6319 50.5018C67.1002 50.3002 64.6383 49.6115 62.3961 48.4778C60.1492 47.3477 58.1638 45.5201 56.4399 42.9948C54.3428 39.9226 53.265 36.9215 53.2067 33.9915C53.1259 31.183 53.7348 28.3951 54.9851 25.8484C56.2238 23.3541 57.8976 21.0763 59.9359 19.1113C60.4653 18.5981 62.6284 16.7511 63.154 16.3029L84.9261 48.167ZM90.9851 46.4285L85.3678 48.0405L84.9261 48.167L74.04 32.2349L63.154 16.3029C64.067 15.5775 65.0246 14.9041 66.0216 14.2861L68.1352 12.9814L90.9851 46.4285Z" fill="#263238"/>
<path d="M89.9443 11.7515C92.3423 12.6408 94.6194 13.7996 96.7269 15.2032C98.3484 16.2755 99.8987 17.4416 101.369 18.6946C101.08 17.7074 100.635 16.7678 100.048 15.908C97.6638 12.449 93.5241 10.8768 89.9443 11.7515Z" fill="#263238"/>
<path d="M21.5406 63.0879L23.3115 63.6228L23.4676 66.4059L22.1347 65.3215V66.4059C23.6745 70.2079 24.9767 74.0928 26.0344 78.0404C27.9386 84.9872 28.2204 89.4075 28.03 93.6471C27.8396 97.8867 27.4587 100.775 27.4587 100.775L25.2727 93.8278L20.2534 66.3155L19.9678 64.1469L21.5406 63.0879Z" fill="#BFBFBF"/>
<path d="M27.5331 101.654L25.0882 93.8758L20.046 66.3381L19.7451 64.0575L21.5084 62.8828L23.4925 63.4828L23.6791 66.8116L22.3233 65.7092V66.3634C23.854 70.1653 25.1535 74.0475 26.2154 77.9907C28.2567 85.4507 28.3862 89.9181 28.2186 93.6517C28.0282 97.8479 27.6512 100.761 27.6474 100.79L27.5331 101.654ZM20.1526 64.2382L20.423 66.2947L25.4576 93.8035L27.3617 99.8756C27.4912 98.7081 27.7045 96.4709 27.8302 93.6444C27.9939 89.9506 27.8682 85.5086 25.8384 78.1028C24.7798 74.1626 23.4815 70.284 21.9501 66.4863V66.4212V64.943L23.2602 66.0273L23.1345 63.79L21.5807 63.3201L20.1526 64.2382Z" fill="#263238"/>
<path d="M26.224 93.291C26.224 93.291 27.8388 101.318 28.2196 104.745C28.6004 108.171 32.066 119.311 31.5976 124.284C31.3957 126.453 31.0644 146.223 31.0644 146.223L32.424 147.163L32.0431 150.26C32.0431 150.26 37.2339 152.841 38.3459 153.191C39.4579 153.542 38.9628 152.487 39.4579 153.553C39.953 154.619 37.9765 155.197 35.1317 155.432C33.402 155.571 31.6616 155.531 29.9409 155.313L28.6956 154.594L28.3338 155.284C28.3338 155.284 26.6049 155.23 26.0869 155.23C25.7599 155.229 25.4332 155.211 25.1082 155.176C25.1082 155.176 24.6474 152.989 24.5293 152.06C24.4113 151.131 24.358 150.145 24.358 150.145C24.358 150.145 23.4364 149.107 23.4364 148.561C23.4364 148.016 24.1295 145.88 24.1295 145.88L23.2993 133.161L22.9451 125.097L20.2526 114.113C20.2526 114.113 17.9943 126.124 17.7277 126.673C17.4611 127.222 9.08283 147.904 9.08283 147.904L9.77214 148.449L9.01047 150.911L11.2003 153.26C11.2003 153.26 14.7724 154.901 14.7724 155.176C14.7724 155.45 14.3116 155.899 14.3116 155.899C12.6403 155.958 10.9667 155.922 9.29991 155.79C8.01483 155.662 6.74177 155.442 5.4916 155.132C4.79849 154.97 3.81975 153.932 3.81975 153.932L3.13045 154.316L0.19043 152.729C0.19043 152.729 0.952091 149.064 1.28722 148.189C1.4919 147.666 1.85165 147.211 2.32308 146.877L3.81975 144.582L9.6617 123.431L9.91685 104.185L9.2961 100.653L10.4919 93.7862L26.224 93.291Z" fill="#263238"/>
<path d="M12.5827 156.077C11.4841 156.085 10.3858 156.039 9.29228 155.939C8.03485 155.812 6.78881 155.598 5.56394 155.3L5.46873 155.278C4.8594 155.133 4.08632 154.407 3.80831 154.129L3.15328 154.49L0 152.791L0.0266581 152.661C0.0571245 152.513 0.788321 148.975 1.13107 148.096C1.34624 147.551 1.71833 147.074 2.20501 146.719L3.6674 144.478L9.49412 123.374L9.74927 104.153L9.12471 100.622L10.351 93.592H10.5071L26.3802 93.1113L26.4106 93.2631C26.4106 93.3426 28.033 101.338 28.41 104.735C28.5357 105.884 29.0193 107.93 29.5791 110.301C30.7026 115.061 32.1002 120.989 31.788 124.31C31.5937 126.36 31.2815 144.659 31.2548 146.141L32.6258 147.084L32.245 150.164C33.0066 150.547 37.409 152.715 38.403 153.03C38.8333 153.167 38.9285 153.059 38.9819 152.997C39.0077 152.962 39.0426 152.933 39.0832 152.915C39.1239 152.896 39.1689 152.887 39.2142 152.889C39.3627 152.911 39.3932 152.972 39.6293 153.478C39.6933 153.604 39.724 153.743 39.7187 153.883C39.7134 154.023 39.6723 154.159 39.5988 154.28C39.1799 154.953 37.6947 155.397 35.1469 155.607C33.4021 155.745 31.6466 155.707 29.9105 155.491L29.8419 155.466L28.7832 154.862L28.4557 155.48H28.3338C28.3338 155.48 26.6049 155.426 26.0945 155.426C25.7599 155.424 25.4257 155.406 25.093 155.372L24.9559 155.354L24.9292 155.227C24.9292 155.137 24.4646 153.023 24.3503 152.097C24.2513 151.302 24.1942 150.46 24.179 150.232C23.9809 150.001 23.2535 149.119 23.2535 148.577C23.2535 148.035 23.8362 146.206 23.9428 145.873L23.1317 133.183L22.7775 125.116L20.2869 114.996C19.7423 117.888 18.1466 126.255 17.9105 126.739C17.6744 127.223 10.0082 146.137 9.31893 147.836L10.0006 148.378L9.23896 150.854L11.3335 153.106C14.9781 154.779 14.9781 155.039 14.9781 155.166C14.9781 155.495 14.5477 155.921 14.464 156.004L14.4106 156.051H14.3345C14.3345 156.051 13.5766 156.077 12.5827 156.077ZM3.87686 153.67L3.97968 153.778C4.24246 154.056 5.03459 154.804 5.55633 154.927L5.65153 154.949C6.8608 155.246 8.09179 155.456 9.33417 155.578C10.9653 155.709 12.6034 155.746 14.2393 155.69C14.3893 155.548 14.5084 155.38 14.5896 155.195C14.3345 154.953 12.6626 154.111 11.1317 153.388L11.0708 153.344L8.82766 150.937L9.57028 148.494L8.86956 147.941L8.91907 147.822C9.26181 146.976 17.2973 127.126 17.5677 126.58C17.7582 126.19 19.1748 118.882 20.0812 114.064L20.2412 113.2L23.1545 125.058L23.5163 133.155L24.3199 145.92V145.953C24.0224 146.811 23.7946 147.689 23.6382 148.581C23.6382 148.942 24.1752 149.665 24.5141 150.048L24.556 150.095V150.153C24.556 150.153 24.6131 151.143 24.7274 152.058C24.8264 152.838 25.1729 154.544 25.2758 155.029C25.5478 155.055 25.8211 155.068 26.0945 155.068C26.5363 155.068 27.8197 155.108 28.2234 155.119L28.6233 154.36L30.0057 155.144C31.6989 155.354 33.411 155.392 35.1126 155.256C38.2697 154.996 39.0733 154.421 39.2675 154.107C39.3109 154.035 39.3337 153.953 39.3337 153.87C39.3337 153.787 39.3109 153.706 39.2675 153.633L39.1342 153.352C39.004 153.424 38.8565 153.465 38.7054 153.469C38.5543 153.474 38.4044 153.442 38.2697 153.377C37.1577 153.015 32.1536 150.54 31.9403 150.435L31.8222 150.377L32.2031 147.261L30.8511 146.329V146.235C30.8511 145.429 31.1824 126.421 31.3843 124.285C31.6928 121.032 30.3027 115.123 29.1831 110.388C28.6233 108.006 28.1358 105.949 28.0063 104.782C27.6598 101.659 26.2659 94.6149 26.0412 93.4908L10.6557 93.9571L9.4865 100.636L10.1034 104.139L9.84829 123.457L3.99873 144.637L2.45255 147.005C2.01443 147.318 1.679 147.743 1.48524 148.23C1.18819 148.989 0.563631 151.956 0.426532 152.611L3.14947 154.082L3.87686 153.67Z" fill="#263238"/>
<path d="M21.1317 46.6833C21.1317 46.6833 22.8645 48.4146 22.9559 49.1953C23.0473 49.976 22.636 50.753 22.8645 51.1C23.093 51.447 25.2371 53.4349 25.1495 53.6951C25.0619 53.9553 23.9613 54.6927 23.9613 54.6927L20.4957 63.049L12.3726 60.2624L13.2828 57.6636L9.63443 54.2445C9.63443 54.2445 9.40593 50.5217 12.1898 47.923C14.9737 45.3243 21.1317 46.6833 21.1317 46.6833Z" fill="white"/>
<path d="M20.604 63.2719L12.1343 60.3804L13.0674 57.7202L9.44947 54.33V54.2613C9.44947 54.1059 9.24763 50.4265 12.062 47.7989C14.8763 45.1713 20.9239 46.4435 21.1791 46.4977H21.2324L21.2743 46.5375C21.4571 46.7218 23.0528 48.3446 23.148 49.1543C23.1781 49.5274 23.1485 49.9027 23.0604 50.2675C22.982 50.5015 22.9714 50.7512 23.0299 50.9903C23.1023 51.1024 23.464 51.471 23.8106 51.8253C25.1397 53.1806 25.4063 53.5204 25.3339 53.7409C25.2616 53.9613 24.4885 54.5469 24.1229 54.7962L20.604 63.2719ZM12.6066 60.1635L20.3793 62.8128L23.8068 54.5722L23.8525 54.5396C24.2533 54.2875 24.6226 53.9929 24.9531 53.6613C24.5247 53.0987 24.0497 52.5693 23.5326 52.0783C23.2388 51.7976 22.9629 51.5008 22.7062 51.1891C22.5827 50.8779 22.5759 50.5358 22.6872 50.2205C22.7651 49.8886 22.7933 49.5479 22.7709 49.2085C22.7024 48.6338 21.5332 47.3435 21.0382 46.8411C20.4212 46.7182 14.8649 45.6917 12.3285 48.0627C9.84553 50.3795 9.81506 53.665 9.82648 54.1746L13.5053 57.6263L12.6066 60.1635Z" fill="#263238"/>
<path d="M17.0237 48.5001C17.0237 48.5001 21.9059 47.0291 22.1344 45.4243C22.3629 43.8196 18.3947 42.916 14.9253 43.6171C11.4559 44.3183 7.44576 47.9544 7.30866 50.9796C7.17156 54.0048 11.7796 57.0408 12.0538 57.1709C12.328 57.301 12.2823 57.948 12.8155 58.1215C13.3486 58.295 13.5467 58.4251 14.2779 57.8613C15.0091 57.2974 14.8225 55.6927 14.8225 55.6927C14.8225 55.6927 12.7698 55.3927 12.4956 54.0481C12.2214 52.7036 13.4553 52.0133 14.2779 52.447C15.1005 52.8807 15.7822 54.4819 15.965 54.9589C16.1478 55.436 16.1478 58.595 17.3321 59.3757C18.5165 60.1564 22.5343 60.8033 23.7644 60.76C24.9945 60.7166 25.1354 60.2829 24.8612 59.3142C24.587 58.3456 24.13 56.4987 24.0995 56.0613C24.069 55.624 24.4803 54.8505 23.9624 54.677C23.4445 54.5035 22.2753 55.4975 21.0452 56.4517C20.5528 56.857 20.0338 57.2324 19.4915 57.5757C19.4915 57.5757 19.4915 57.4492 17.9681 55.1107C16.4448 52.7723 15.824 51.688 15.824 51.5579C15.824 51.4277 18.5165 51.1277 18.2423 50.0434C18.0667 49.3965 17.6287 48.8417 17.0237 48.5001Z" fill="#263238"/>
<path d="M23.6478 60.9361C22.2197 60.9361 18.4266 60.2964 17.2384 59.5157C16.2825 58.8868 16.0502 56.935 15.9131 55.7676C15.8934 55.5136 15.8553 55.2612 15.7989 55.0122C15.7227 54.8098 15.0372 53.0316 14.1956 52.5978C14.0308 52.517 13.8453 52.4822 13.6606 52.4976C13.4758 52.5129 13.2995 52.5778 13.1521 52.6846C12.9474 52.838 12.7952 53.0455 12.7145 53.2809C12.6339 53.5163 12.6285 53.7691 12.6989 54.0074C12.9426 55.2074 14.8468 55.5038 14.8658 55.5074L15.0105 55.5291V55.6664C15.0105 55.7351 15.1971 57.3724 14.3936 57.9904C13.6738 58.547 13.392 58.4892 12.8703 58.323L12.7484 58.2832C12.5877 58.2185 12.4447 58.1197 12.3305 57.9944C12.2163 57.8691 12.1339 57.7206 12.0896 57.5603C12.0616 57.4669 12.0122 57.3805 11.9448 57.3073C11.8953 57.2856 6.95215 54.1882 7.09687 50.9497C7.24158 47.7113 11.4917 44.0825 14.8658 43.4174C17.5316 42.8861 20.6506 43.2909 21.8198 44.321C21.9916 44.4546 22.1257 44.6266 22.2101 44.8215C22.2945 45.0164 22.3266 45.2282 22.3035 45.4378C22.094 46.8836 18.636 48.1486 17.4288 48.5426C17.9176 48.9079 18.2656 49.4161 18.419 49.9883C18.6703 50.9714 17.0594 51.3834 16.2863 51.5822L16.054 51.6437C16.1721 51.8822 16.6062 52.6484 18.1257 55.005C19.0169 56.3857 19.3901 57.0109 19.5462 57.3001C19.7481 57.1627 20.1518 56.8772 20.8982 56.2989L21.3019 55.9845C22.6386 54.9435 23.4802 54.3147 24.002 54.4954C24.5237 54.6761 24.3828 55.1929 24.318 55.5797C24.2805 55.7288 24.2626 55.8818 24.2647 56.0351C24.3066 56.4471 24.7522 58.276 25.0264 59.2518C25.1559 59.7072 25.2435 60.1699 24.9921 60.4952C24.7865 60.759 24.4056 60.8891 23.7544 60.9108L23.6478 60.9361ZM13.7462 52.1316C13.9631 52.1296 14.1768 52.1807 14.3669 52.2798C15.2923 52.7677 16.0083 54.5387 16.1416 54.8893C16.2128 55.1645 16.2587 55.4451 16.2787 55.7279C16.4006 56.7616 16.6253 58.6808 17.4402 59.2157C18.5485 59.9386 22.5167 60.6072 23.7544 60.5711C24.2647 60.553 24.5732 60.4663 24.6989 60.3036C24.8246 60.141 24.8169 59.8627 24.676 59.3711C24.4133 58.4675 23.941 56.5628 23.8915 56.0929C23.887 55.9071 23.9062 55.7214 23.9486 55.5399C24.0286 55.1134 24.04 54.9146 23.8801 54.8604C23.5335 54.7411 22.4367 55.5833 21.5532 56.2881L21.1457 56.6061C20.6455 57.0173 20.1189 57.3988 19.5691 57.7483L19.2835 57.9037V57.6218C19.2454 57.535 19.0207 57.1049 17.8058 55.2182C15.6351 51.8424 15.6351 51.6617 15.6351 51.5714C15.6351 51.4015 15.776 51.3653 16.1949 51.2569C16.8538 51.0907 18.2209 50.7401 18.0572 50.1003C17.8928 49.494 17.482 48.9742 16.9147 48.6546L16.5339 48.4522L16.9642 48.3221C18.2895 47.9245 21.7703 46.6161 21.9417 45.3981C21.9573 45.2457 21.9323 45.0921 21.8691 44.9513C21.8059 44.8105 21.7064 44.687 21.5799 44.5921C20.4907 43.6343 17.524 43.2692 14.9648 43.7789C11.3926 44.5017 7.62622 48.1161 7.49674 50.9714C7.36726 53.8267 11.7278 56.7977 12.1353 56.9929C12.2971 57.0973 12.4135 57.254 12.4628 57.4338C12.5542 57.6507 12.6418 57.8603 12.8855 57.9362L13.015 57.976C13.4453 58.1169 13.5748 58.1603 14.1575 57.7085C14.6411 57.3471 14.6792 56.3278 14.6487 55.8327C14.146 55.7315 12.5656 55.3158 12.3104 54.0725C12.229 53.7662 12.2429 53.4442 12.3503 53.1452C12.4578 52.8463 12.6543 52.5834 12.916 52.3882C13.1669 52.2154 13.4705 52.1253 13.7805 52.1316H13.7462Z" fill="#263238"/>
<path d="M20.8878 51.0022L20.5488 50.8396C20.6287 50.6431 20.754 50.4661 20.9155 50.3216C21.077 50.1771 21.2705 50.0688 21.4819 50.0046C21.6227 49.9769 21.768 49.9776 21.9085 50.0069C22.0489 50.0362 22.1813 50.0933 22.2968 50.1745L22.0645 50.46C21.9923 50.4119 21.9105 50.3781 21.8241 50.3607C21.7377 50.3433 21.6485 50.3427 21.5618 50.3588C21.3105 50.4131 21.0858 50.6299 20.8878 51.0022Z" fill="#263238"/>
<path d="M23.2246 56.9447C22.7478 56.9435 22.2785 56.8319 21.8574 56.6194L22.0478 56.3086C22.5413 56.5498 23.1036 56.6335 23.6511 56.5471L23.7235 56.9086C23.5588 56.9359 23.3917 56.948 23.2246 56.9447Z" fill="white"/>
<path d="M22.1265 52.1432C22.2141 52.5046 22.1608 52.8227 22.0123 52.8661C21.8638 52.9095 21.6771 52.6311 21.5934 52.2697C21.5096 51.9083 21.5591 51.5866 21.7076 51.5468C21.8561 51.5071 22.0427 51.7782 22.1265 52.1432Z" fill="#263238"/>
<path d="M12.2816 59.3691L21.5396 63.0919L20.8579 65.7737L11.459 61.1004L12.2816 59.3691Z" fill="white"/>
<path d="M20.9831 66.0392L11.2109 61.1743L12.1821 59.125L21.7752 62.9779L20.9831 66.0392ZM11.706 61.0117L20.7279 65.5007L21.3182 63.1911L12.3763 59.5985L11.706 61.0117Z" fill="#263238"/>
<path d="M20.8574 65.7734C20.8574 65.7734 24.1326 70.8335 24.8904 79.4899C25.6483 88.1462 26.2233 93.293 26.2233 93.293L22.2284 93.7412L20.8574 65.7734Z" fill="white"/>
<path d="M22.0495 93.9425L20.6328 65.082L21.0136 65.6784C21.0479 65.729 24.3231 70.8686 25.0771 79.4743C25.8312 88.0801 26.4024 93.2088 26.4062 93.2703L26.4291 93.4474L22.0495 93.9425ZM21.086 66.5495L22.4113 93.5377L26.014 93.1329C25.9073 92.1534 25.378 87.1837 24.7001 79.5032C24.1098 72.7806 21.9733 68.212 21.086 66.5495Z" fill="#263238"/>
<path d="M11.4585 61.0977L10.4074 63.306C10.4074 63.306 7.29986 69.9925 7.38745 71.4744C7.47504 72.9563 9.12024 87.9341 9.12024 87.9341L5.47949 103.993C5.47949 103.993 10.6816 107.314 15.6248 107.726C20.568 108.138 23.6794 107.152 23.6794 107.152C23.6794 107.152 24.2011 96.8218 23.6794 90.2365C23.1577 83.6511 22.4646 71.8865 21.859 69.501C21.2535 67.1155 20.8498 65.771 20.8498 65.771L11.4585 61.0977Z" fill="#BFBFBF"/>
<path d="M17.9911 108.004C17.2523 108.004 16.4678 107.975 15.6071 107.906C10.6563 107.494 5.42753 104.176 5.37421 104.144L5.26758 104.075L8.92736 87.9227C8.82454 86.9902 7.28217 72.934 7.19839 71.4847C7.1108 69.9775 10.1079 63.5042 10.245 63.2331L11.3875 60.8477L21.0149 65.6475L21.0378 65.7234C21.0378 65.7234 21.4491 67.0932 22.047 69.457C22.5078 71.2642 23.0067 78.2832 23.4523 84.4818C23.6008 86.5709 23.7417 88.5624 23.875 90.225C24.3891 96.7308 23.875 107.053 23.875 107.158V107.281L23.7531 107.321C21.877 107.81 19.9364 108.04 17.9911 108.004ZM5.69411 103.909C6.45577 104.379 11.1933 107.162 15.6414 107.545C19.941 107.906 22.8772 107.183 23.5056 107.014C23.5627 105.806 23.9816 96.3549 23.5056 90.2503C23.3761 88.5877 23.2314 86.5962 23.0829 84.5071C22.6411 78.3194 22.1384 71.3112 21.689 69.5438C21.1711 67.498 20.7979 66.2077 20.7027 65.8969L11.5627 61.3464L10.5954 63.3777C10.5649 63.4428 7.50686 70.0425 7.59065 71.463C7.67443 72.8834 9.30439 87.7636 9.32343 87.9154V87.9407V87.9697L5.69411 103.909Z" fill="#263238"/>
<path d="M22.0502 84.7396L18.0286 66.6715L10.332 63.4656L10.4882 63.1367L18.36 66.4149L22.4234 84.6673L22.0502 84.7396Z" fill="#263238"/>
<path d="M13.0615 66.0417C13.0615 66.0417 16.2757 64.9574 17.205 65.0911C18.1342 65.2248 31.2462 68.1777 31.2462 68.1777L37.3205 56.4492L41.5363 57.8733C41.5363 57.8733 35.5077 74.1378 35.2944 74.7667C35.255 74.9562 35.1478 75.127 34.9909 75.2501C34.8341 75.3733 34.6373 75.4412 34.4338 75.4426L14.7753 75.1968" fill="#BFBFBF"/>
<path d="M34.4349 75.613L14.7764 75.3672V75.0058L34.4311 75.2516C34.751 75.2516 34.9795 75.0672 35.109 74.6986C35.3108 74.1275 40.6463 59.7135 41.2899 57.975L37.413 56.663L31.3464 68.3771L31.1979 68.3446C31.0684 68.3156 18.0858 65.3953 17.1757 65.2615C16.4559 65.1531 14.0033 65.9049 13.1236 66.2013L12.9941 65.8615C13.1274 65.8181 16.2655 64.7772 17.2328 64.9037C18.1163 65.0338 29.6174 67.6181 31.1369 67.9578L37.2302 56.2148L41.8002 57.7546L41.7355 57.9244C41.6745 58.0871 35.7069 74.2106 35.4936 74.8106C35.4418 75.0398 35.3081 75.2448 35.1151 75.3911C34.9222 75.5373 34.6818 75.6157 34.4349 75.613Z" fill="#263238"/>
<path d="M37.3223 56.4382L38.1639 54.6816L41.7361 55.8708L41.1534 57.7321L37.3223 56.4382Z" fill="white"/>
<path d="M41.2783 57.9666L37.0625 56.5425L38.0603 54.457L41.96 55.7546L41.2783 57.9666ZM37.5804 56.3329L41.027 57.4967L41.4992 55.9823L38.2659 54.898L37.5804 56.3329Z" fill="#263238"/>
<path d="M38.1514 54.6819C38.1514 54.6819 39.0882 49.0507 39.2215 48.8375C39.3548 48.6242 41.9901 46.3075 42.3481 45.8737C42.7061 45.44 43.1517 45.1942 43.3307 45.281C43.5097 45.3677 43.5059 45.787 43.285 46.1267C43.0641 46.4665 41.1409 48.3712 41.1409 48.3712L40.8743 48.8375C40.8743 48.8375 42.7785 47.5255 43.1593 47.2291C43.9165 46.7078 44.7407 46.2803 45.6118 45.9569C46.0574 45.8737 46.1488 46.2532 45.9698 46.5496C45.7908 46.846 43.9171 47.9484 43.9171 47.9484L42.1311 49.5567C42.1311 49.5567 44.5417 48.4724 44.9873 48.3279C45.6535 48.2427 46.3265 48.2148 46.9981 48.2447C47.1314 48.2447 47.219 48.711 46.9524 48.8375C46.6858 48.964 45.0482 49.4302 45.0482 49.4302L43.3078 50.576L45.4062 50.2796H46.9295C47.1085 50.2796 47.4665 50.7025 47.0628 50.9121C46.5142 51.1166 45.9469 51.2727 45.3681 51.3784L43.483 52.5639C43.1844 53.3992 42.8412 54.2195 42.4548 55.0216C42.2339 55.318 41.7426 55.871 41.7426 55.871L38.1514 54.6819Z" fill="white"/>
<path d="M41.7956 56.0823L37.9492 54.8064L37.9759 54.6582C38.2577 52.9523 38.9318 48.9657 39.0689 48.7452C39.5336 48.2545 40.0242 47.7864 40.5389 47.3428C41.2396 46.6995 42.0355 45.9694 42.2107 45.7597C42.5916 45.3296 43.1095 44.9718 43.4256 45.12C43.4776 45.1468 43.5228 45.1839 43.5583 45.2288C43.5938 45.2737 43.6187 45.3254 43.6312 45.3802C43.6919 45.673 43.629 45.9767 43.456 46.226C43.2999 46.4645 42.4087 47.3753 41.8147 47.9717C42.325 47.6103 42.8657 47.2488 43.0371 47.0934C43.819 46.5493 44.6747 46.108 45.5811 45.7814C45.6835 45.7505 45.7935 45.7506 45.8958 45.7817C45.9982 45.8128 46.0878 45.8733 46.1523 45.9549C46.2211 46.0575 46.2576 46.1766 46.2576 46.2983C46.2576 46.4199 46.2211 46.539 46.1523 46.6416C45.9695 46.9489 44.5224 47.8199 44.0539 48.0874L43.1476 48.9042C43.8559 48.5898 44.6975 48.2247 44.9527 48.1524C45.604 48.0467 46.2662 48.0151 46.9254 48.0585H47.0168C47.1577 48.0585 47.2682 48.1669 47.3139 48.3476C47.3526 48.4674 47.3482 48.5961 47.3013 48.7132C47.2544 48.8304 47.1677 48.9294 47.0549 48.9946C46.7921 49.1175 45.4021 49.515 45.1507 49.5909L44.1073 50.2777L45.3945 50.0933H46.9102C47.0277 50.1109 47.1371 50.1611 47.2245 50.2377C47.312 50.3142 47.3735 50.4137 47.4014 50.5234C47.4313 50.6287 47.4214 50.7406 47.3734 50.8396C47.3254 50.9387 47.2424 51.0186 47.1387 51.0656C46.5853 51.2776 46.0113 51.4374 45.4249 51.5427L43.6312 52.6703C43.3384 53.5029 42.9951 54.3187 42.603 55.1136C42.3783 55.4136 41.8984 55.9522 41.8794 55.9739L41.7956 56.0823ZM38.3681 54.5643L41.6661 55.6486C41.8147 55.4787 42.1231 55.1209 42.2869 54.9076C42.6652 54.1213 42.9996 53.3166 43.2885 52.4969L43.3075 52.439L45.3031 51.1921C45.8636 51.0928 46.4131 50.944 46.9444 50.7475C47.0358 50.6969 47.032 50.6535 47.0282 50.6355C47.0208 50.5962 47.0042 50.5591 46.9799 50.5266C46.9555 50.4941 46.9239 50.4671 46.8873 50.4475H45.3868L42.5154 50.8632L44.9832 49.2512C45.6382 49.0668 46.6855 48.7596 46.8873 48.6693C46.9029 48.6605 46.9162 48.6485 46.9261 48.634C46.936 48.6196 46.9423 48.6032 46.9444 48.5861C46.9581 48.5315 46.9581 48.4746 46.9444 48.4199H46.9102C46.291 48.3762 45.6685 48.4017 45.0555 48.4958C44.7128 48.5934 43.0562 49.3379 42.2259 49.7138L41.1292 50.2162L43.8293 47.7874C44.5356 47.4046 45.2013 46.9579 45.8172 46.4537C45.8483 46.4108 45.8677 46.3613 45.8737 46.3096C45.8797 46.2579 45.872 46.2055 45.8515 46.1573C45.8134 46.1067 45.7144 46.1175 45.661 46.1284C44.8228 46.4448 44.0286 46.8575 43.2961 47.3573C42.9153 47.6573 41.0835 48.9259 41.0111 48.9801L40.3332 49.4427L41.0301 48.2428C41.7918 47.4802 42.9914 46.2621 43.1476 46.0236C43.2136 45.9399 43.2583 45.8428 43.2781 45.74C43.298 45.6371 43.2924 45.5313 43.2618 45.4308C42.9608 45.5356 42.7022 45.7278 42.523 45.9802C42.3326 46.2043 41.5633 46.9127 40.8207 47.5958C40.2266 48.1416 39.4878 48.8211 39.4116 48.9259C39.2936 49.1644 38.7299 52.4463 38.3757 54.5643H38.3681Z" fill="#263238"/>
</svg>
