<svg width="172" height="171" viewBox="0 0 172 171" fill="none" xmlns="http://www.w3.org/2000/svg">
<path d="M170.258 158.457C170.258 164.532 165.333 169.457 159.258 169.457H151.943V168.457H137.314V169.457H122.686V168.457H108.057V169.457H93.4279V168.457H78.799V169.457H64.1702V168.457H49.5413V169.457H34.9124V168.457H20.2836V169.457H12.9691C6.89398 169.457 1.96912 164.532 1.96912 158.457V151.157H2.96912V136.557H1.96912V121.957H2.96912V107.357H1.96912V92.757H2.96912V78.157H1.96912V63.557H2.96912V48.957H1.96912V34.357H2.96912V19.757H1.96912V12.457C1.96912 6.3819 6.894 1.45703 12.9691 1.45703H20.2836V2.45703H34.9124V1.45703H49.5413V2.45703H64.1702V1.45703H78.799V2.45703H93.4279V1.45703H108.057V2.45703H122.686V1.45703H137.315V2.45703H151.943V1.45703H159.258C165.333 1.45703 170.258 6.3819 170.258 12.457V19.757H169.258V34.357H170.258V48.957H169.258V63.557H170.258V78.157H169.258V92.757H170.258V107.357H169.258V121.957H170.258V136.557H169.258V151.157H170.258V158.457Z" stroke="#DE755E" stroke-width="2" stroke-dasharray="16 16"/>
<path fill-rule="evenodd" clip-rule="evenodd" d="M76.6628 64.5644L73.2057 69.75H70.7474C65.3166 69.75 60.9141 74.1525 60.9141 79.5833V96.7917C60.9141 102.222 65.3166 106.625 70.7474 106.625H100.247C105.678 106.625 110.081 102.222 110.081 96.7917V79.5833C110.081 74.1525 105.678 69.75 100.247 69.75H97.7891L94.332 64.5644C93.4201 63.1966 91.885 62.375 90.2411 62.375H80.7537C79.1098 62.375 77.5747 63.1966 76.6628 64.5644ZM92.873 88.1875C92.873 92.2606 89.5711 95.5625 85.498 95.5625C81.4249 95.5625 78.123 92.2606 78.123 88.1875C78.123 84.1144 81.4249 80.8125 85.498 80.8125C89.5711 80.8125 92.873 84.1144 92.873 88.1875ZM85.4974 72.2077C86.8551 72.2077 87.9557 71.107 87.9557 69.7493C87.9557 68.3916 86.8551 67.291 85.4974 67.291C84.1397 67.291 83.0391 68.3916 83.0391 69.7493C83.0391 71.107 84.1397 72.2077 85.4974 72.2077Z" fill="#DE755E"/>
</svg>
