<svg width="24" height="25" viewBox="0 0 24 25" fill="none" xmlns="http://www.w3.org/2000/svg">
<path d="M11.9932 21.5915C9.66642 21.5915 7.33963 20.7107 5.56129 18.9324C5.09593 18.467 4.68042 17.9517 4.29816 17.3368C3.93252 16.7551 4.11532 15.9906 4.69702 15.625C5.27872 15.2594 6.04329 15.4422 6.40893 16.0239C6.69147 16.4892 6.9906 16.8549 7.323 17.1873C9.8991 19.7634 14.0873 19.7634 16.6634 17.1873C17.6606 16.1901 18.2922 14.8937 18.5083 13.4478C18.608 12.7664 19.2395 12.2677 19.9209 12.3841C20.6023 12.4838 21.0677 13.1154 20.9846 13.7968C20.7021 15.7746 19.8212 17.5529 18.4418 18.949C16.6468 20.7107 14.32 21.5915 11.9932 21.5915Z" fill="#DE755E"/>
<path d="M4.25176 12.6311C4.18528 12.6311 4.13544 12.6311 4.06896 12.6145C3.38754 12.5148 2.90554 11.8831 3.00526 11.2017C3.2878 9.22395 4.16866 7.44565 5.54811 6.04957C9.08817 2.50952 14.8553 2.50952 18.412 6.04957C18.8773 6.51493 19.2928 7.0302 19.6751 7.66176C20.0407 8.24346 19.8579 9.00793 19.2762 9.37357C18.6945 9.73921 17.93 9.55641 17.5644 8.97471C17.2818 8.52597 16.9826 8.14369 16.6502 7.81129C14.0742 5.23519 9.88592 5.23519 7.30983 7.81129C6.31263 8.80849 5.68109 10.1048 5.46503 11.5508C5.39855 12.1823 4.8667 12.6311 4.25176 12.6311Z" fill="#DE755E"/>
<path d="M5.05119 22.3563C4.36977 22.3563 3.80469 21.7912 3.80469 21.1098V16.6723C3.80469 15.9909 4.36977 15.4258 5.05119 15.4258H9.48869C10.1701 15.4258 10.7352 15.9909 10.7352 16.6723C10.7352 17.3537 10.1701 17.9188 9.48869 17.9188H6.29768V21.1098C6.29768 21.7912 5.74923 22.3563 5.05119 22.3563Z" fill="#DE755E"/>
<path d="M18.9418 9.57503H14.5043C13.8229 9.57503 13.2578 9.00995 13.2578 8.32854C13.2578 7.64712 13.8229 7.08204 14.5043 7.08204H17.6953V3.89103C17.6953 3.20961 18.2604 2.64453 18.9418 2.64453C19.6232 2.64453 20.1883 3.20961 20.1883 3.89103V8.32854C20.1883 9.02657 19.6232 9.57503 18.9418 9.57503Z" fill="#DE755E"/>
</svg>
