<svg width="405" height="329" viewBox="0 0 405 329" fill="none" xmlns="http://www.w3.org/2000/svg">
<path fill-rule="evenodd" clip-rule="evenodd" d="M40 0C17.9086 0 0 17.9086 0 40V289C0 311.091 17.9086 329 40 329H365C387.091 329 405 311.091 405 289V269.78V40C405 17.9086 387.091 0 365 0H40ZM222.112 45.3306C259.931 26.7902 316.596 33.8836 348.678 61.1742C375.131 83.6766 376.61 112.885 355.113 132.835C376.615 152.785 375.138 181.996 348.683 204.5C316.602 231.791 259.937 238.884 222.118 220.344L202.502 210.728L182.887 220.344C145.068 238.884 88.4028 231.791 56.3213 204.5C29.8662 181.996 28.3892 152.785 49.8913 132.835C28.395 112.885 29.874 83.6766 56.3268 61.1742C88.4083 33.8836 145.074 26.7902 182.892 45.3306L202.502 54.9443L222.112 45.3306Z" fill="white"/>
</svg>
