<svg width="405" height="329" viewBox="0 0 405 329" fill="none" xmlns="http://www.w3.org/2000/svg">
<path fill-rule="evenodd" clip-rule="evenodd" d="M40 0C17.9086 0 0 17.9086 0 40V289C0 311.091 17.9086 329 40 329H365C387.091 329 405 311.091 405 289V269.78V40C405 17.9086 387.091 0 365 0H40ZM203.897 230.999C203.897 230.999 203.897 230.999 203.897 230.999H259.069C320.332 230.999 369.996 181.335 369.996 120.072C369.996 73.088 331.908 35 284.924 35H271.554C246.181 35 223.942 48.4119 211.537 68.5328C208.675 73.1752 196.321 73.1753 193.458 68.533C181.054 48.4126 158.814 35.0011 133.443 35.0011H120.072C73.088 35.0011 35 73.0891 35 120.073C35 181.336 84.6637 231 145.927 231H203.896C203.896 231 203.896 231 203.896 231L203.897 230.999Z" fill="white"/>
</svg>
