<svg width="23" height="23" viewBox="0 0 23 23" fill="none" xmlns="http://www.w3.org/2000/svg">
<path d="M7.1875 4.31234H6.94792V1.9165C6.94792 1.52359 6.62208 1.19775 6.22917 1.19775C5.83625 1.19775 5.51042 1.52359 5.51042 1.9165V4.31234H5.27083C3.74708 4.31234 2.875 5.18442 2.875 6.70817V12.4582C2.875 13.9819 3.74708 14.854 5.27083 14.854H5.51042V21.0832C5.51042 21.4761 5.83625 21.8019 6.22917 21.8019C6.62208 21.8019 6.94792 21.4761 6.94792 21.0832V14.854H7.1875C8.71125 14.854 9.58333 13.9819 9.58333 12.4582V6.70817C9.58333 5.18442 8.71125 4.31234 7.1875 4.31234Z" fill="#383742"/>
<path d="M17.7291 8.14567H17.4895V1.9165C17.4895 1.52359 17.1637 1.19775 16.7708 1.19775C16.3779 1.19775 16.052 1.52359 16.052 1.9165V8.14567H15.8125C14.2887 8.14567 13.4166 9.01775 13.4166 10.5415V16.2915C13.4166 17.8153 14.2887 18.6873 15.8125 18.6873H16.052V21.0832C16.052 21.4761 16.3779 21.8019 16.7708 21.8019C17.1637 21.8019 17.4895 21.4761 17.4895 21.0832V18.6873H17.7291C19.2529 18.6873 20.125 17.8153 20.125 16.2915V10.5415C20.125 9.01775 19.2529 8.14567 17.7291 8.14567Z" fill="#383742"/>
</svg>
