<svg width="48" height="48" viewBox="0 0 48 48" fill="none" xmlns="http://www.w3.org/2000/svg">
<path fill-rule="evenodd" clip-rule="evenodd" d="M16.8125 7.7812L14 12H12C7.58172 12 4 15.5817 4 20V34C4 38.4183 7.58172 42 12 42H36C40.4183 42 44 38.4183 44 34V20C44 15.5817 40.4183 12 36 12H34L31.1875 7.7812C30.4456 6.6684 29.1967 6 27.8593 6H20.1407C18.8033 6 17.5544 6.6684 16.8125 7.7812ZM30 27C30 30.3137 27.3137 33 24 33C20.6863 33 18 30.3137 18 27C18 23.6863 20.6863 21 24 21C27.3137 21 30 23.6863 30 27ZM24 14C25.1046 14 26 13.1046 26 12C26 10.8954 25.1046 10 24 10C22.8954 10 22 10.8954 22 12C22 13.1046 22.8954 14 24 14Z" fill="white"/>
</svg>
