<svg width="54" height="54" viewBox="0 0 54 54" fill="none" xmlns="http://www.w3.org/2000/svg">
<circle cx="27" cy="27" r="27" fill="#DE755E"/>
<path fill-rule="evenodd" clip-rule="evenodd" d="M20 17H34C35.1046 17 36 17.8954 36 19V34.1543C36 35.5396 34.6259 36.5053 33.3226 36.0361L31.7608 35.4739C31.2728 35.2982 30.7356 35.319 30.2626 35.5318L27.8207 36.6307C27.2988 36.8655 26.7012 36.8655 26.1793 36.6307L23.7374 35.5318C23.2644 35.319 22.7272 35.2982 22.2392 35.4739L20.6774 36.0361C19.3741 36.5053 18 35.5396 18 34.1543V19C18 17.8954 18.8954 17 20 17ZM32 22.75C32.4142 22.75 32.75 22.4142 32.75 22C32.75 21.5858 32.4142 21.25 32 21.25L22 21.25C21.5858 21.25 21.25 21.5858 21.25 22C21.25 22.4142 21.5858 22.75 22 22.75L32 22.75ZM32.75 26C32.75 26.4142 32.4142 26.75 32 26.75L22 26.75C21.5858 26.75 21.25 26.4142 21.25 26C21.25 25.5858 21.5858 25.25 22 25.25L32 25.25C32.4142 25.25 32.75 25.5858 32.75 26ZM27 30.75C27.4142 30.75 27.75 30.4142 27.75 30C27.75 29.5858 27.4142 29.25 27 29.25H22C21.5858 29.25 21.25 29.5858 21.25 30C21.25 30.4142 21.5858 30.75 22 30.75H27Z" fill="white"/>
</svg>
