<svg width="54" height="54" viewBox="0 0 54 54" fill="none" xmlns="http://www.w3.org/2000/svg">
<circle cx="27" cy="27" r="27" fill="#DE755E"/>
<path fill-rule="evenodd" clip-rule="evenodd" d="M31.168 18.7188H32.0013C33.8423 18.7188 35.3346 20.2111 35.3346 22.0521V27.8854C35.3346 28.8059 34.5884 29.5521 33.668 29.5521H29.5013C28.5808 29.5521 27.8346 30.2983 27.8346 31.2188V33.7188C27.8346 34.6392 27.0884 35.3854 26.168 35.3854H22.0013C20.1604 35.3854 18.668 33.893 18.668 32.0521V22.0521C18.668 20.2111 20.1604 18.7188 22.0013 18.7188H22.8346H23.668H30.3346H31.168ZM23.668 23.3736V19.9688H30.3346V23.3736C30.3346 24.116 29.437 24.4878 28.912 23.9628L27.5906 22.6413C27.2651 22.3159 26.7375 22.3159 26.412 22.6413L25.0906 23.9628C24.5656 24.4878 23.668 24.116 23.668 23.3736ZM35.0657 32.546C35.3385 32.2342 35.3069 31.7604 34.9952 31.4877C34.6835 31.2149 34.2096 31.2465 33.9369 31.5582L31.6503 34.1714C31.5622 34.2721 31.4104 34.2856 31.306 34.202L29.9698 33.1331C29.6464 32.8743 29.1744 32.9268 28.9157 33.2502C28.6569 33.5737 28.7093 34.0456 29.0328 34.3044L30.3689 35.3733C31.1002 35.9584 32.1625 35.864 32.7792 35.1592L35.0657 32.546Z" fill="white"/>
</svg>
