<svg width="54" height="54" viewBox="0 0 54 54" fill="none" xmlns="http://www.w3.org/2000/svg">
<circle cx="27" cy="27" r="27" fill="#DE755E"/>
<path d="M33.04 28.55C32.62 28.96 32.38 29.55 32.44 30.18C32.53 31.26 33.52 32.05 34.6 32.05H36.5V33.24C36.5 35.31 34.81 37 32.74 37H22.63C22.94 36.74 23.21 36.42 23.42 36.06C23.79 35.46 24 34.75 24 34C24 31.79 22.21 30 20 30C19.06 30 18.19 30.33 17.5 30.88V26.51C17.5 24.44 19.19 22.75 21.26 22.75H32.74C34.81 22.75 36.5 24.44 36.5 26.51V27.95H34.48C33.92 27.95 33.41 28.17 33.04 28.55Z" fill="white" stroke="white" stroke-width="1.5" stroke-linecap="round" stroke-linejoin="round"/>
<path d="M17.5 27.4093V22.8394C17.5 21.6494 18.23 20.5893 19.34 20.1693L27.28 17.1693C28.52 16.6993 29.85 17.6194 29.85 18.9494V22.7493" stroke="white" stroke-width="1.5" stroke-linecap="round" stroke-linejoin="round"/>
<path d="M37.5588 28.9692V31.0292C37.5588 31.5792 37.1188 32.0292 36.5588 32.0492H34.5988C33.5188 32.0492 32.5288 31.2592 32.4388 30.1792C32.3788 29.5492 32.6188 28.9592 33.0388 28.5492C33.4088 28.1692 33.9188 27.9492 34.4788 27.9492H36.5588C37.1188 27.9692 37.5588 28.4192 37.5588 28.9692Z" stroke="white" stroke-width="1.5" stroke-linecap="round" stroke-linejoin="round"/>
<path d="M22 27H29" stroke="white" stroke-width="1.5" stroke-linecap="round" stroke-linejoin="round"/>
<path d="M24 34C24 34.75 23.79 35.46 23.42 36.06C23.21 36.42 22.94 36.74 22.63 37C21.93 37.63 21.01 38 20 38C18.54 38 17.27 37.22 16.58 36.06C16.21 35.46 16 34.75 16 34C16 32.74 16.58 31.61 17.5 30.88C18.19 30.33 19.06 30 20 30C22.21 30 24 31.79 24 34Z" stroke="white" stroke-width="1.5" stroke-miterlimit="10" stroke-linecap="round" stroke-linejoin="round"/>
<path d="M18.4414 33.9995L19.4314 34.9895L21.5614 33.0195" stroke="white" stroke-width="1.5" stroke-linecap="round" stroke-linejoin="round"/>
</svg>
