<?xml version="1.0" encoding="utf-8"?>
<svg xmlns="http://www.w3.org/2000/svg" xmlns:xlink="http://www.w3.org/1999/xlink"
  style="margin: auto; background: none; display: block; shape-rendering: auto;" width="60px"
  height="60px" viewBox="0 0 100 100" preserveAspectRatio="xMidYMid">
  <g transform="rotate(0 50 50)">
    <rect x="47" y="27.5" rx="3" ry="3.64" width="6" height="13" fill="#de755e">
      <animate attributeName="opacity" values="1;0" keyTimes="0;1" dur="0.7407407407407407s"
        begin="-0.6481481481481481s" repeatCount="indefinite"></animate>
    </rect>
  </g>
  <g transform="rotate(45 50 50)">
    <rect x="47" y="27.5" rx="3" ry="3.64" width="6" height="13" fill="#de755e">
      <animate attributeName="opacity" values="1;0" keyTimes="0;1" dur="0.7407407407407407s"
        begin="-0.5555555555555555s" repeatCount="indefinite"></animate>
    </rect>
  </g>
  <g transform="rotate(90 50 50)">
    <rect x="47" y="27.5" rx="3" ry="3.64" width="6" height="13" fill="#de755e">
      <animate attributeName="opacity" values="1;0" keyTimes="0;1" dur="0.7407407407407407s"
        begin="-0.4629629629629629s" repeatCount="indefinite"></animate>
    </rect>
  </g>
  <g transform="rotate(135 50 50)">
    <rect x="47" y="27.5" rx="3" ry="3.64" width="6" height="13" fill="#de755e">
      <animate attributeName="opacity" values="1;0" keyTimes="0;1" dur="0.7407407407407407s"
        begin="-0.37037037037037035s" repeatCount="indefinite"></animate>
    </rect>
  </g>
  <g transform="rotate(180 50 50)">
    <rect x="47" y="27.5" rx="3" ry="3.64" width="6" height="13" fill="#de755e">
      <animate attributeName="opacity" values="1;0" keyTimes="0;1" dur="0.7407407407407407s"
        begin="-0.27777777777777773s" repeatCount="indefinite"></animate>
    </rect>
  </g>
  <g transform="rotate(225 50 50)">
    <rect x="47" y="27.5" rx="3" ry="3.64" width="6" height="13" fill="#de755e">
      <animate attributeName="opacity" values="1;0" keyTimes="0;1" dur="0.7407407407407407s"
        begin="-0.18518518518518517s" repeatCount="indefinite"></animate>
    </rect>
  </g>
  <g transform="rotate(270 50 50)">
    <rect x="47" y="27.5" rx="3" ry="3.64" width="6" height="13" fill="#de755e">
      <animate attributeName="opacity" values="1;0" keyTimes="0;1" dur="0.7407407407407407s"
        begin="-0.09259259259259259s" repeatCount="indefinite"></animate>
    </rect>
  </g>
  <g transform="rotate(315 50 50)">
    <rect x="47" y="27.5" rx="3" ry="3.64" width="6" height="13" fill="#de755e">
      <animate attributeName="opacity" values="1;0" keyTimes="0;1" dur="0.7407407407407407s"
        begin="0s" repeatCount="indefinite"></animate>
    </rect>
  </g>
</svg>