<svg width="20" height="20" viewBox="0 0 20 20" fill="none" xmlns="http://www.w3.org/2000/svg">
<path fill-rule="evenodd" clip-rule="evenodd" d="M6.90039 0.625C7.24557 0.625 7.52539 0.904822 7.52539 1.25V2.5H12.9434V1.25C12.9434 0.904822 13.2232 0.625 13.5684 0.625C13.9135 0.625 14.1934 0.904822 14.1934 1.25V2.52605C16.1863 2.75372 17.7344 4.44608 17.7344 6.5V6.66912C17.7344 6.93434 17.629 7.18869 17.4415 7.37623L7.17751 17.6402C7.00049 17.8172 6.7604 17.9167 6.51006 17.9167C4.42481 17.9167 2.73438 16.2262 2.73438 14.141V6.5C2.73438 4.44608 4.28242 2.75372 6.27539 2.52605V1.25C6.27539 0.904822 6.55521 0.625 6.90039 0.625ZM12.7337 7.70801C13.0789 7.70801 13.3587 7.42819 13.3587 7.08301C13.3587 6.73783 13.0789 6.45801 12.7337 6.45801H6.90039C6.55521 6.45801 6.27539 6.73783 6.27539 7.08301C6.27539 7.42819 6.55521 7.70801 6.90039 7.70801H12.7337ZM10.2337 11.0413C10.5789 11.0413 10.8587 10.7615 10.8587 10.4163C10.8587 10.0712 10.5789 9.79134 10.2337 9.79134H6.90039C6.55521 9.79134 6.27539 10.0712 6.27539 10.4163C6.27539 10.7615 6.55521 11.0413 6.90039 11.0413H10.2337ZM8.35872 13.7497C8.35872 14.0949 8.0789 14.3747 7.73372 14.3747H6.90039C6.55521 14.3747 6.27539 14.0949 6.27539 13.7497C6.27539 13.4045 6.55521 13.1247 6.90039 13.1247H7.73372C8.0789 13.1247 8.35872 13.4045 8.35872 13.7497ZM17.3258 10.8255C16.7811 10.2808 15.898 10.2808 15.3533 10.8255L11.1743 15.0045C11.0737 15.1051 11.0005 15.2296 10.9615 15.3664L10.4808 17.0527C10.3733 17.4297 10.7217 17.7781 11.0987 17.6706L12.785 17.1898C12.9218 17.1509 13.0463 17.0776 13.1468 16.9771L17.3258 12.7981C17.8706 12.2534 17.8706 11.3702 17.3258 10.8255Z" fill="white"/>
</svg>
