<svg width="20" height="20" viewBox="0 0 20 20" fill="none" xmlns="http://www.w3.org/2000/svg">
<path fill-rule="evenodd" clip-rule="evenodd" d="M3.33398 11.25V15.8333C3.33398 17.214 4.45327 18.3333 5.83398 18.3333H14.1673C15.548 18.3333 16.6673 17.214 16.6673 15.8333V11.25H12.9172C12.2615 11.25 11.644 10.9413 11.2506 10.4167L10.0006 8.75L8.75057 10.4167C8.35712 10.9413 7.73965 11.25 7.0839 11.25H3.33398Z" fill="white"/>
<path fill-rule="evenodd" clip-rule="evenodd" d="M9.37565 3.49242L8.77593 2.89269C8.53185 2.64862 8.13612 2.64862 7.89204 2.89269C7.64797 3.13677 7.64797 3.5325 7.89204 3.77658L8.96945 4.85399C9.53897 5.4235 10.4623 5.4235 11.0318 4.85399L12.1093 3.77658C12.3533 3.5325 12.3533 3.13677 12.1093 2.89269C11.8652 2.64862 11.4695 2.64862 11.2254 2.89269L10.6257 3.49242V1.66797C10.6257 1.32279 10.3458 1.04297 10.0007 1.04297C9.65547 1.04297 9.37565 1.32279 9.37565 1.66797V3.49242Z" fill="white"/>
<path d="M3.79159 6.69922H10.0042H16.2192C16.4802 6.69922 16.7261 6.8215 16.8836 7.02961L18.0971 8.63281C18.5126 9.18171 18.1211 9.96909 17.4327 9.96909H12.9417C12.6838 9.96909 12.4403 9.8496 12.2825 9.64552L10.0042 6.69922L7.73153 9.64481C7.57375 9.84931 7.33005 9.96909 7.07175 9.96909H2.53605C1.84131 9.96909 1.45161 9.16892 1.87997 8.62195L3.1355 7.01874C3.29346 6.81705 3.53541 6.69922 3.79159 6.69922Z" fill="white"/>
</svg>
