<svg width="65" height="65" viewBox="0 0 65 65" fill="none" xmlns="http://www.w3.org/2000/svg">
<circle cx="32.5" cy="32.5" r="32.5" fill="#DE755E"/>
<path d="M36.3899 24.7402C39.6274 24.9152 41.251 26.1111 41.251 30.5541V36.3875C41.251 40.2763 40.2788 42.2208 35.4176 42.2208H29.5843C24.7232 42.2208 23.751 40.2763 23.751 36.3875V30.5541C23.751 26.1208 25.3746 24.9152 28.6121 24.7402" fill="white"/>
<path d="M28.6104 32.6934H35.4159" stroke="#DE755E" stroke-width="1.5" stroke-miterlimit="10" stroke-linecap="round" stroke-linejoin="round"/>
<path d="M28.6104 36.582H32.8687" stroke="#DE755E" stroke-width="1.5" stroke-miterlimit="10" stroke-linecap="round" stroke-linejoin="round"/>
<path d="M30.5548 26.6662H34.4437C36.3881 26.6662 36.3881 25.694 36.3881 24.7218C36.3881 22.7773 35.4159 22.7773 34.4437 22.7773H30.5548C29.5826 22.7773 28.6104 22.7773 28.6104 24.7218C28.6104 26.6662 29.5826 26.6662 30.5548 26.6662Z" stroke="white" stroke-width="1.5" stroke-miterlimit="10" stroke-linecap="round" stroke-linejoin="round"/>
</svg>
