<svg width="315" height="155" viewBox="0 0 315 155" fill="none" xmlns="http://www.w3.org/2000/svg">
<path d="M168.75 39.623C168.75 39.8717 168.651 40.1101 168.475 40.286C168.3 40.4618 168.061 40.5605 167.812 40.5605H158.438V49.9355C158.438 50.1842 158.339 50.4226 158.163 50.5985C157.987 50.7743 157.749 50.873 157.5 50.873C157.251 50.873 157.013 50.7743 156.837 50.5985C156.661 50.4226 156.562 50.1842 156.562 49.9355V40.5605H147.188C146.939 40.5605 146.7 40.4618 146.525 40.286C146.349 40.1101 146.25 39.8717 146.25 39.623C146.25 39.3744 146.349 39.136 146.525 38.9601C146.7 38.7843 146.939 38.6855 147.188 38.6855H156.562V29.3105C156.562 29.0619 156.661 28.8234 156.837 28.6476C157.013 28.4718 157.251 28.373 157.5 28.373C157.749 28.373 157.987 28.4718 158.163 28.6476C158.339 28.8234 158.438 29.0619 158.438 29.3105V38.6855H167.812C168.061 38.6855 168.3 38.7843 168.475 38.9601C168.651 39.136 168.75 39.3744 168.75 39.623Z" fill="#DE755E"/>
<path d="M130.703 67.432C131.767 67.8893 132.299 68.6873 132.299 69.826C132.299 70.666 131.981 71.352 131.347 71.884C130.721 72.416 129.891 72.682 128.855 72.682C127.94 72.682 127.189 72.4813 126.601 72.08C126.022 71.6787 125.611 71.128 125.369 70.428L126.475 69.798C126.764 70.8993 127.557 71.45 128.855 71.45C129.527 71.45 130.049 71.3007 130.423 71.002C130.805 70.7033 130.997 70.2973 130.997 69.784C130.997 69.2707 130.819 68.8647 130.465 68.566C130.11 68.258 129.625 68.104 129.009 68.104H127.861V66.914H128.687C129.275 66.914 129.746 66.7693 130.101 66.48C130.465 66.1813 130.647 65.794 130.647 65.318C130.647 64.842 130.479 64.4593 130.143 64.17C129.807 63.8807 129.349 63.736 128.771 63.736C127.688 63.736 126.965 64.2167 126.601 65.178L125.509 64.548C126.097 63.1947 127.184 62.518 128.771 62.518C129.713 62.518 130.474 62.7793 131.053 63.302C131.641 63.8153 131.935 64.478 131.935 65.29C131.935 66.2327 131.524 66.9467 130.703 67.432ZM139.515 66.704V65.5H140.733V72.5H139.515V71.296C138.918 72.22 138.036 72.682 136.869 72.682C135.88 72.682 135.044 72.3273 134.363 71.618C133.672 70.8993 133.327 70.0267 133.327 69C133.327 67.9827 133.672 67.1147 134.363 66.396C135.054 65.6773 135.889 65.318 136.869 65.318C138.036 65.318 138.918 65.78 139.515 66.704ZM137.023 71.506C137.732 71.506 138.325 71.268 138.801 70.792C139.277 70.2973 139.515 69.7 139.515 69C139.515 68.2907 139.277 67.698 138.801 67.222C138.325 66.7367 137.732 66.494 137.023 66.494C136.323 66.494 135.735 66.7367 135.259 67.222C134.783 67.698 134.545 68.2907 134.545 69C134.545 69.7 134.783 70.2973 135.259 70.792C135.735 71.268 136.323 71.506 137.023 71.506ZM142.578 65.5H147.17V66.676H143.796V72.5H142.578V65.5ZM152.102 65.318C153.082 65.318 153.918 65.6773 154.608 66.396C155.299 67.1147 155.644 67.9827 155.644 69C155.644 70.0267 155.299 70.8993 154.608 71.618C153.927 72.3273 153.092 72.682 152.102 72.682C150.945 72.682 150.063 72.22 149.456 71.296V75.3H148.238V65.5H149.456V66.704C150.063 65.78 150.945 65.318 152.102 65.318ZM151.948 71.506C152.648 71.506 153.236 71.268 153.712 70.792C154.188 70.2973 154.426 69.7 154.426 69C154.426 68.2907 154.188 67.698 153.712 67.222C153.236 66.7367 152.648 66.494 151.948 66.494C151.239 66.494 150.646 66.7367 150.17 67.222C149.694 67.698 149.456 68.2907 149.456 69C149.456 69.7 149.694 70.2973 150.17 70.792C150.646 71.268 151.239 71.506 151.948 71.506ZM159.694 70.988L161.71 65.5H163.012L160.156 72.934C159.858 73.7273 159.438 74.3293 158.896 74.74C158.355 75.16 157.739 75.3467 157.048 75.3V74.166C157.898 74.2313 158.528 73.7647 158.938 72.766L159.05 72.514L156.012 65.5H157.3L159.694 70.988ZM167.659 68.916C168.434 69.2427 168.821 69.798 168.821 70.582C168.821 71.1887 168.583 71.6927 168.107 72.094C167.631 72.486 166.973 72.682 166.133 72.682C164.733 72.682 163.795 72.122 163.319 71.002L164.341 70.4C164.602 71.1653 165.204 71.548 166.147 71.548C166.604 71.548 166.964 71.45 167.225 71.254C167.486 71.058 167.617 70.7967 167.617 70.47C167.617 70.19 167.51 69.9613 167.295 69.784C167.09 69.6067 166.81 69.518 166.455 69.518H165.433V68.412H166.189C166.544 68.412 166.819 68.328 167.015 68.16C167.211 67.9827 167.309 67.7447 167.309 67.446C167.309 67.138 167.192 66.8953 166.959 66.718C166.726 66.5313 166.413 66.438 166.021 66.438C165.237 66.438 164.705 66.7693 164.425 67.432L163.431 66.858C163.926 65.8313 164.789 65.318 166.021 65.318C166.768 65.318 167.365 65.514 167.813 65.906C168.27 66.2887 168.499 66.7693 168.499 67.348C168.499 68.0573 168.219 68.58 167.659 68.916ZM171.345 70.414L175.223 65.5H176.203V72.5H174.999V67.586L171.121 72.5H170.141V65.5H171.345V70.414ZM177.273 65.5H183.265V66.676H180.885V72.5H179.667V66.676H177.273V65.5ZM185.55 68.02H187.286C187.986 68.02 188.565 68.23 189.022 68.65C189.489 69.0607 189.722 69.5973 189.722 70.26C189.722 70.9227 189.489 71.464 189.022 71.884C188.556 72.2947 187.977 72.5 187.286 72.5H184.332V65.5H185.55V68.02ZM185.55 71.366H187.286C187.641 71.366 187.935 71.2633 188.168 71.058C188.402 70.8527 188.518 70.5867 188.518 70.26C188.518 69.9333 188.397 69.6673 188.154 69.462C187.921 69.2473 187.632 69.14 187.286 69.14H185.55V71.366Z" fill="#DE755E"/>
<path d="M57.6584 104.464V105.57H56.3844V104.464C54.9844 104.361 53.8597 103.979 53.0104 103.316C52.1704 102.644 51.7504 101.739 51.7504 100.6C51.7504 99.4613 52.1704 98.556 53.0104 97.884C53.8597 97.2213 54.9844 96.8387 56.3844 96.736V95.63H57.6584V96.736C59.0771 96.8387 60.2017 97.2213 61.0324 97.884C61.8817 98.556 62.3064 99.4613 62.3064 100.6C62.3064 101.739 61.8817 102.644 61.0324 103.316C60.2017 103.979 59.0771 104.361 57.6584 104.464ZM57.6584 97.926V103.274C58.7317 103.199 59.5577 102.938 60.1364 102.49C60.7151 102.033 61.0044 101.403 61.0044 100.6C61.0044 99.7973 60.7151 99.172 60.1364 98.724C59.5577 98.2667 58.7317 98.0007 57.6584 97.926ZM53.9064 98.724C53.3277 99.172 53.0384 99.7973 53.0384 100.6C53.0384 101.403 53.3277 102.028 53.9064 102.476C54.4851 102.924 55.3111 103.185 56.3844 103.26V97.926C55.3111 98.0007 54.4851 98.2667 53.9064 98.724ZM69.5107 104.618C68.8014 105.327 67.9287 105.682 66.8927 105.682C65.8567 105.682 64.984 105.327 64.2747 104.618C63.5654 103.909 63.2107 103.036 63.2107 102C63.2107 100.964 63.5654 100.091 64.2747 99.382C64.984 98.6727 65.8567 98.318 66.8927 98.318C67.9287 98.318 68.8014 98.6727 69.5107 99.382C70.2294 100.101 70.5887 100.973 70.5887 102C70.5887 103.027 70.2294 103.899 69.5107 104.618ZM66.8927 104.492C67.5927 104.492 68.1807 104.254 68.6567 103.778C69.1327 103.302 69.3707 102.709 69.3707 102C69.3707 101.291 69.1327 100.698 68.6567 100.222C68.1807 99.746 67.5927 99.508 66.8927 99.508C66.202 99.508 65.6187 99.746 65.1427 100.222C64.6667 100.698 64.4287 101.291 64.4287 102C64.4287 102.709 64.6667 103.302 65.1427 103.778C65.6187 104.254 66.202 104.492 66.8927 104.492ZM75.8886 98.318C76.8686 98.318 77.7039 98.6773 78.3946 99.396C79.0853 100.115 79.4306 100.983 79.4306 102C79.4306 103.027 79.0853 103.899 78.3946 104.618C77.7133 105.327 76.8779 105.682 75.8886 105.682C74.7313 105.682 73.8493 105.22 73.2426 104.296V108.3H72.0246V98.5H73.2426V99.704C73.8493 98.78 74.7313 98.318 75.8886 98.318ZM75.7346 104.506C76.4346 104.506 77.0226 104.268 77.4986 103.792C77.9746 103.297 78.2126 102.7 78.2126 102C78.2126 101.291 77.9746 100.698 77.4986 100.222C77.0226 99.7367 76.4346 99.494 75.7346 99.494C75.0253 99.494 74.4326 99.7367 73.9566 100.222C73.4806 100.698 73.2426 101.291 73.2426 102C73.2426 102.7 73.4806 103.297 73.9566 103.792C74.4326 104.268 75.0253 104.506 75.7346 104.506ZM86.582 98.5H87.884V105.5H86.694V100.418L84.468 104.002H84.314L82.088 100.418V105.5H80.884V98.5H82.186L84.384 102.042L86.582 98.5ZM95.5393 99.704V98.5H96.7573V105.5H95.5393V104.296C94.942 105.22 94.06 105.682 92.8933 105.682C91.904 105.682 91.0687 105.327 90.3873 104.618C89.6967 103.899 89.3513 103.027 89.3513 102C89.3513 100.983 89.6967 100.115 90.3873 99.396C91.078 98.6773 91.9133 98.318 92.8933 98.318C94.06 98.318 94.942 98.78 95.5393 99.704ZM93.0473 104.506C93.7567 104.506 94.3493 104.268 94.8253 103.792C95.3013 103.297 95.5393 102.7 95.5393 102C95.5393 101.291 95.3013 100.698 94.8253 100.222C94.3493 99.7367 93.7567 99.494 93.0473 99.494C92.3473 99.494 91.7593 99.7367 91.2833 100.222C90.8073 100.698 90.5693 101.291 90.5693 102C90.5693 102.7 90.8073 103.297 91.2833 103.792C91.7593 104.268 92.3473 104.506 93.0473 104.506ZM97.8187 98.5H103.811V99.676H101.431V105.5H100.213V99.676H97.8187V98.5ZM113.614 101.79H108.504V100.614H113.614V101.79ZM121.757 105.682C121.039 105.682 120.409 105.533 119.867 105.234C119.335 104.926 118.943 104.492 118.691 103.932L119.797 103.288C120.096 104.035 120.749 104.408 121.757 104.408C122.392 104.408 122.882 104.259 123.227 103.96C123.582 103.652 123.759 103.209 123.759 102.63V95.7H125.047V102.63C125.047 103.61 124.735 104.366 124.109 104.898C123.484 105.421 122.7 105.682 121.757 105.682ZM127.016 95.7H130.572C131.468 95.7 132.219 96.0033 132.826 96.61C133.432 97.2167 133.736 97.9633 133.736 98.85C133.736 99.7367 133.432 100.483 132.826 101.09C132.219 101.697 131.468 102 130.572 102H128.318V105.5H127.016V95.7ZM128.318 100.782H130.572C131.122 100.782 131.57 100.6 131.916 100.236C132.27 99.8533 132.448 99.3913 132.448 98.85C132.448 98.29 132.27 97.828 131.916 97.464C131.561 97.1 131.113 96.918 130.572 96.918H128.318V100.782ZM139.755 100.642H144.655V101.23C144.655 102.509 144.217 103.573 143.339 104.422C142.462 105.262 141.3 105.682 139.853 105.682C138.36 105.682 137.123 105.192 136.143 104.212C135.173 103.213 134.687 102.009 134.687 100.6C134.687 99.1907 135.173 97.9913 136.143 97.002C137.123 96.0127 138.351 95.518 139.825 95.518C140.721 95.518 141.552 95.7373 142.317 96.176C143.092 96.6147 143.675 97.184 144.067 97.884L142.947 98.542C142.667 98.01 142.243 97.5853 141.673 97.268C141.104 96.9413 140.483 96.778 139.811 96.778C138.682 96.778 137.763 97.1467 137.053 97.884C136.335 98.6213 135.975 99.5267 135.975 100.6C135.975 101.673 136.335 102.579 137.053 103.316C137.781 104.044 138.719 104.408 139.867 104.408C140.829 104.408 141.613 104.175 142.219 103.708C142.835 103.232 143.213 102.602 143.353 101.818H139.755V100.642ZM145.822 104.058H147.222L146.312 107.46H145.262L145.822 104.058ZM155.117 105.682C154.398 105.682 153.768 105.533 153.227 105.234C152.695 104.926 152.303 104.492 152.051 103.932L153.157 103.288C153.455 104.035 154.109 104.408 155.117 104.408C155.751 104.408 156.241 104.259 156.587 103.96C156.941 103.652 157.119 103.209 157.119 102.63V95.7H158.407V102.63C158.407 103.61 158.094 104.366 157.469 104.898C156.843 105.421 156.059 105.682 155.117 105.682ZM160.375 95.7H163.931C164.827 95.7 165.579 96.0033 166.185 96.61C166.792 97.2167 167.095 97.9633 167.095 98.85C167.095 99.7367 166.792 100.483 166.185 101.09C165.579 101.697 164.827 102 163.931 102H161.677V105.5H160.375V95.7ZM161.677 100.782H163.931C164.482 100.782 164.93 100.6 165.275 100.236C165.63 99.8533 165.807 99.3913 165.807 98.85C165.807 98.29 165.63 97.828 165.275 97.464C164.921 97.1 164.473 96.918 163.931 96.918H161.677V100.782ZM169.935 101.16V104.268H174.485V105.5H168.633V95.7H174.415V96.932H169.935V99.942H174.065V101.16H169.935ZM180.538 100.642H185.438V101.23C185.438 102.509 185 103.573 184.122 104.422C183.245 105.262 182.083 105.682 180.636 105.682C179.143 105.682 177.906 105.192 176.926 104.212C175.956 103.213 175.47 102.009 175.47 100.6C175.47 99.1907 175.956 97.9913 176.926 97.002C177.906 96.0127 179.134 95.518 180.608 95.518C181.504 95.518 182.335 95.7373 183.1 96.176C183.875 96.6147 184.458 97.184 184.85 97.884L183.73 98.542C183.45 98.01 183.026 97.5853 182.456 97.268C181.887 96.9413 181.266 96.778 180.594 96.778C179.465 96.778 178.546 97.1467 177.836 97.884C177.118 98.6213 176.758 99.5267 176.758 100.6C176.758 101.673 177.118 102.579 177.836 103.316C178.564 104.044 179.502 104.408 180.65 104.408C181.612 104.408 182.396 104.175 183.002 103.708C183.618 103.232 183.996 102.602 184.136 101.818H180.538V100.642ZM186.605 104.058H188.005L187.095 107.46H186.045L186.605 104.058ZM193.352 95.7H196.908C197.804 95.7 198.555 96.0033 199.162 96.61C199.768 97.2167 200.072 97.9633 200.072 98.85C200.072 99.7367 199.768 100.483 199.162 101.09C198.555 101.697 197.804 102 196.908 102H194.654V105.5H193.352V95.7ZM194.654 100.782H196.908C197.458 100.782 197.906 100.6 198.252 100.236C198.606 99.8533 198.784 99.3913 198.784 98.85C198.784 98.29 198.606 97.828 198.252 97.464C197.897 97.1 197.449 96.918 196.908 96.918H194.654V100.782ZM201.61 95.7H205.432C206.757 95.7 207.863 96.176 208.75 97.128C209.636 98.0707 210.08 99.228 210.08 100.6C210.08 101.963 209.636 103.125 208.75 104.086C207.863 105.029 206.757 105.5 205.432 105.5H201.61V95.7ZM202.912 104.268H205.432C206.43 104.268 207.247 103.918 207.882 103.218C208.516 102.509 208.834 101.636 208.834 100.6C208.834 99.564 208.516 98.6913 207.882 97.982C207.247 97.282 206.43 96.932 205.432 96.932H202.912V104.268ZM217.3 95.7V96.932H212.96V100.11H217.118V101.342H212.96V105.5H211.658V95.7H217.3ZM218.46 104.058H219.86L218.95 107.46H217.9L218.46 104.058ZM225.207 95.7H228.763C229.659 95.7 230.411 96.0033 231.017 96.61C231.624 97.2167 231.927 97.9633 231.927 98.85C231.927 99.7367 231.624 100.483 231.017 101.09C230.411 101.697 229.659 102 228.763 102H226.509V105.5H225.207V95.7ZM226.509 100.782H228.763C229.314 100.782 229.762 100.6 230.107 100.236C230.462 99.8533 230.639 99.3913 230.639 98.85C230.639 98.29 230.462 97.828 230.107 97.464C229.753 97.1 229.305 96.918 228.763 96.918H226.509V100.782ZM239.555 103.008V95.7H240.857V105.5H239.807L234.767 98.178V105.5H233.465V95.7H234.515L239.555 103.008ZM247.503 100.642H252.403V101.23C252.403 102.509 251.965 103.573 251.087 104.422C250.21 105.262 249.048 105.682 247.601 105.682C246.108 105.682 244.871 105.192 243.891 104.212C242.921 103.213 242.435 102.009 242.435 100.6C242.435 99.1907 242.921 97.9913 243.891 97.002C244.871 96.0127 246.099 95.518 247.573 95.518C248.469 95.518 249.3 95.7373 250.065 96.176C250.84 96.6147 251.423 97.184 251.815 97.884L250.695 98.542C250.415 98.01 249.991 97.5853 249.421 97.268C248.852 96.9413 248.231 96.778 247.559 96.778C246.43 96.778 245.511 97.1467 244.801 97.884C244.083 98.6213 243.723 99.5267 243.723 100.6C243.723 101.673 244.083 102.579 244.801 103.316C245.529 104.044 246.467 104.408 247.615 104.408C248.577 104.408 249.361 104.175 249.967 103.708C250.583 103.232 250.961 102.602 251.101 101.818H247.503V100.642ZM262.597 101.79H257.487V100.614H262.597V101.79ZM107.794 120.412V117.5H109.012V124.5H107.794V121.574H104.168V124.5H102.95V117.5H104.168V120.412H107.794ZM117.586 121.56H111.72C111.842 122.176 112.126 122.661 112.574 123.016C113.022 123.361 113.582 123.534 114.254 123.534C115.178 123.534 115.85 123.193 116.27 122.512L117.306 123.1C116.616 124.155 115.589 124.682 114.226 124.682C113.125 124.682 112.22 124.337 111.51 123.646C110.82 122.937 110.474 122.055 110.474 121C110.474 119.936 110.815 119.059 111.496 118.368C112.178 117.668 113.06 117.318 114.142 117.318C115.169 117.318 116.004 117.682 116.648 118.41C117.302 119.119 117.628 119.987 117.628 121.014C117.628 121.191 117.614 121.373 117.586 121.56ZM114.142 118.466C113.498 118.466 112.957 118.648 112.518 119.012C112.089 119.376 111.823 119.871 111.72 120.496H116.396C116.294 119.852 116.037 119.353 115.626 118.998C115.216 118.643 114.721 118.466 114.142 118.466ZM125.706 124.682C124.67 124.682 123.816 124.341 123.144 123.66C122.472 122.969 122.136 122.092 122.136 121.028C122.136 119.824 122.309 118.905 122.654 118.27C123.009 117.626 123.728 117.043 124.81 116.52C124.866 116.492 124.932 116.459 125.006 116.422C125.09 116.385 125.188 116.343 125.3 116.296C125.422 116.24 125.524 116.193 125.608 116.156L126.364 115.82C127.111 115.447 127.508 114.999 127.554 114.476L128.534 115.036C128.469 115.363 128.362 115.624 128.212 115.82C128.203 115.839 128.175 115.881 128.128 115.946C128.082 116.002 128.049 116.044 128.03 116.072C128.012 116.091 127.979 116.123 127.932 116.17C127.895 116.207 127.853 116.245 127.806 116.282C127.769 116.319 127.718 116.357 127.652 116.394C127.307 116.609 127.06 116.749 126.91 116.814C126.854 116.842 126.794 116.87 126.728 116.898C126.672 116.926 126.626 116.949 126.588 116.968C126.551 116.987 126.523 117.001 126.504 117.01L126.042 117.206L125.594 117.388C124.969 117.659 124.507 117.934 124.208 118.214C123.91 118.494 123.695 118.849 123.564 119.278C123.854 118.923 124.218 118.653 124.656 118.466C125.104 118.279 125.562 118.186 126.028 118.186C126.915 118.186 127.657 118.485 128.254 119.082C128.87 119.689 129.178 120.459 129.178 121.392C129.178 122.344 128.852 123.133 128.198 123.758C127.536 124.374 126.705 124.682 125.706 124.682ZM127.96 121.392C127.96 120.767 127.755 120.258 127.344 119.866C126.943 119.465 126.411 119.264 125.748 119.264C125.16 119.264 124.619 119.455 124.124 119.838C123.648 120.221 123.41 120.715 123.41 121.322C123.41 121.957 123.63 122.479 124.068 122.89C124.507 123.301 125.053 123.506 125.706 123.506C126.369 123.506 126.906 123.305 127.316 122.904C127.746 122.503 127.96 121.999 127.96 121.392ZM136.38 123.618C135.671 124.327 134.798 124.682 133.762 124.682C132.726 124.682 131.853 124.327 131.144 123.618C130.435 122.909 130.08 122.036 130.08 121C130.08 119.964 130.435 119.091 131.144 118.382C131.853 117.673 132.726 117.318 133.762 117.318C134.798 117.318 135.671 117.673 136.38 118.382C137.099 119.101 137.458 119.973 137.458 121C137.458 122.027 137.099 122.899 136.38 123.618ZM133.762 123.492C134.462 123.492 135.05 123.254 135.526 122.778C136.002 122.302 136.24 121.709 136.24 121C136.24 120.291 136.002 119.698 135.526 119.222C135.05 118.746 134.462 118.508 133.762 118.508C133.071 118.508 132.488 118.746 132.012 119.222C131.536 119.698 131.298 120.291 131.298 121C131.298 121.709 131.536 122.302 132.012 122.778C132.488 123.254 133.071 123.492 133.762 123.492ZM139.292 117.5H144.486V124.5H143.268V118.676H140.51V121.532C140.51 122.652 140.286 123.45 139.838 123.926C139.39 124.393 138.732 124.584 137.864 124.5V123.352C138.349 123.417 138.708 123.31 138.942 123.03C139.175 122.741 139.292 122.232 139.292 121.504V117.5ZM147.549 120.02H149.285C149.985 120.02 150.564 120.23 151.021 120.65C151.488 121.061 151.721 121.597 151.721 122.26C151.721 122.923 151.488 123.464 151.021 123.884C150.555 124.295 149.976 124.5 149.285 124.5H146.331V117.5H147.549V120.02ZM147.549 123.366H149.285C149.64 123.366 149.934 123.263 150.167 123.058C150.401 122.853 150.517 122.587 150.517 122.26C150.517 121.933 150.396 121.667 150.153 121.462C149.92 121.247 149.631 121.14 149.285 121.14H147.549V123.366ZM161.402 123.338V117.5H162.62V124.5H153.03V117.5H154.248V123.338H157.216V117.5H158.434V123.338H161.402ZM171.207 121.56H165.341C165.463 122.176 165.747 122.661 166.195 123.016C166.643 123.361 167.203 123.534 167.875 123.534C168.799 123.534 169.471 123.193 169.891 122.512L170.927 123.1C170.237 124.155 169.21 124.682 167.847 124.682C166.746 124.682 165.841 124.337 165.131 123.646C164.441 122.937 164.095 122.055 164.095 121C164.095 119.936 164.436 119.059 165.117 118.368C165.799 117.668 166.681 117.318 167.763 117.318C168.79 117.318 169.625 117.682 170.269 118.41C170.923 119.119 171.249 119.987 171.249 121.014C171.249 121.191 171.235 121.373 171.207 121.56ZM167.763 118.466C167.119 118.466 166.578 118.648 166.139 119.012C165.71 119.376 165.444 119.871 165.341 120.496H170.017C169.915 119.852 169.658 119.353 169.247 118.998C168.837 118.643 168.342 118.466 167.763 118.466ZM181.778 115.848L179.65 118.718C180.415 118.858 181.031 119.185 181.498 119.698C181.964 120.211 182.198 120.846 182.198 121.602C182.198 122.563 181.871 123.315 181.218 123.856C180.555 124.407 179.762 124.682 178.838 124.682C178.072 124.682 177.405 124.509 176.836 124.164C176.266 123.819 175.86 123.329 175.618 122.694L176.71 122.05C176.999 122.955 177.708 123.408 178.838 123.408C179.454 123.408 179.948 123.249 180.322 122.932C180.704 122.605 180.896 122.162 180.896 121.602C180.896 121.042 180.704 120.599 180.322 120.272C179.948 119.945 179.454 119.782 178.838 119.782H178.502L177.984 118.984L180.252 115.918H175.898V114.7H181.778V115.848ZM189.468 124.5H183.14V123.436L186.598 119.908C187.522 118.984 187.984 118.191 187.984 117.528C187.984 116.987 187.816 116.562 187.48 116.254C187.153 115.937 186.742 115.778 186.248 115.778C185.324 115.778 184.652 116.217 184.232 117.094L183.14 116.45C183.438 115.825 183.858 115.349 184.4 115.022C184.941 114.686 185.552 114.518 186.234 114.518C187.064 114.518 187.778 114.789 188.376 115.33C188.982 115.881 189.286 116.609 189.286 117.514C189.286 118.503 188.702 119.581 187.536 120.748L185.03 123.24H189.468V124.5ZM202.269 114.7H203.739V124.5H202.451V116.842L199.245 122.176H199.077L195.871 116.856V124.5H194.569V114.7H196.039L199.161 119.88L202.269 114.7ZM207.136 118.55H209.516C210.356 118.55 211.075 118.839 211.672 119.418C212.26 119.987 212.554 120.687 212.554 121.518C212.554 122.358 212.26 123.067 211.672 123.646C211.103 124.215 210.384 124.5 209.516 124.5H205.834V114.7H211.714V115.932H207.136V118.55ZM207.136 123.282H209.516C210.002 123.282 210.412 123.114 210.748 122.778C211.094 122.442 211.266 122.022 211.266 121.518C211.266 121.023 211.094 120.608 210.748 120.272C210.412 119.936 210.002 119.768 209.516 119.768H207.136V123.282Z" fill="#A0A1A4"/>
<rect x="1" y="1" width="313" height="153" rx="29" stroke="#DE755E" stroke-width="2" stroke-dasharray="15 15"/>
</svg>
