<svg width="38" height="36" viewBox="0 0 38 36" fill="none" xmlns="http://www.w3.org/2000/svg">
<path d="M34.9999 16.0006L32.9999 13.0006C32.5748 12.5195 31.9999 11.6421 31.9999 11.0006V9.00061C31.9999 7.30079 30.8024 6.00061 28.9999 6.00061H25.9999C25.3198 6.00061 24.5101 5.40151 23.9999 5.00061L20.9999 3.00061C19.8266 2.05448 18.1732 2.05448 16.9999 3.00061L13.9999 5.00061C13.4898 5.40151 12.6801 6.00061 11.9999 6.00061H8.99994C7.19749 6.00061 5.99994 7.30079 5.99994 9.00061V11.0006C5.99994 11.626 5.42504 12.5195 4.99994 13.0006L2.99994 16.0006C2.01369 17.1231 2.01369 18.9102 2.99994 20.0006L4.99994 23.0006C5.42504 23.4657 5.99994 24.3752 5.99994 25.0006V27.0006C5.99994 28.7004 7.19749 30.0006 8.99994 30.0006H11.9999C12.6631 30.0006 13.4898 30.5997 13.9999 31.0006L16.9999 33.0006C18.1732 33.9467 19.8266 33.9467 20.9999 33.0006L23.9999 31.0006C24.5101 30.5997 25.3198 30.0006 25.9999 30.0006H28.9999C30.8024 30.0006 31.9999 28.7004 31.9999 27.0006V25.0006C31.9999 24.3592 32.5748 23.4817 32.9999 23.0006L34.9999 20.0006C36.0372 18.9102 36.0032 17.1231 34.9999 16.0006Z" fill="#DE755E"/>
<path d="M34.9999 16.0006L32.9999 13.0006C32.5748 12.5195 31.9999 11.6421 31.9999 11.0006V9.00061C31.9999 7.30079 30.8024 6.00061 28.9999 6.00061H25.9999C25.3198 6.00061 24.5101 5.40151 23.9999 5.00061L20.9999 3.00061C19.8266 2.05448 18.1732 2.05448 16.9999 3.00061L13.9999 5.00061C13.4898 5.40151 12.6801 6.00061 11.9999 6.00061H8.99994C7.19749 6.00061 5.99994 7.30079 5.99994 9.00061V11.0006C5.99994 11.626 5.42504 12.5195 4.99994 13.0006L2.99994 16.0006C2.01369 17.1231 2.01369 18.9102 2.99994 20.0006L4.99994 23.0006C5.42504 23.4657 5.99994 24.3752 5.99994 25.0006V27.0006C5.99994 28.7004 7.19749 30.0006 8.99994 30.0006H11.9999C12.6631 30.0006 13.4898 30.5997 13.9999 31.0006L16.9999 33.0006C18.1732 33.9467 19.8266 33.9467 20.9999 33.0006L23.9999 31.0006C24.5101 30.5997 25.3198 30.0006 25.9999 30.0006H28.9999C30.8024 30.0006 31.9999 28.7004 31.9999 27.0006V25.0006C31.9999 24.3592 32.5748 23.4817 32.9999 23.0006L34.9999 20.0006C36.0372 18.9102 36.0032 17.1231 34.9999 16.0006Z" stroke="white" stroke-width="2.7"/>
<path d="M26 13L18 22L14 17" stroke="white" stroke-width="2.54458" stroke-linecap="round" stroke-linejoin="round"/>
</svg>
