<svg width="38" height="36" viewBox="0 0 38 36" fill="none" xmlns="http://www.w3.org/2000/svg">
<path d="M34.9995 15.9987L32.9994 12.9987C32.5743 12.5176 31.9994 11.6401 31.9994 10.9987V8.99866C31.9994 7.29883 30.8019 5.99866 28.9994 5.99866H25.9994C25.3193 5.99866 24.5096 5.39956 23.9994 4.99866L20.9994 2.99866C19.8262 2.05253 18.1727 2.05253 16.9994 2.99866L13.9994 4.99866C13.4893 5.39956 12.6796 5.99866 11.9994 5.99866H8.99945C7.197 5.99866 5.99945 7.29883 5.99945 8.99866V10.9987C5.99945 11.6241 5.42455 12.5176 4.99945 12.9987L2.99945 15.9987C2.0132 17.1212 2.0132 18.9082 2.99945 19.9987L4.99945 22.9987C5.42455 23.4637 5.99945 24.3733 5.99945 24.9987V26.9987C5.99945 28.6985 7.197 29.9987 8.99945 29.9987H11.9994C12.6626 29.9987 13.4893 30.5978 13.9994 30.9987L16.9994 32.9987C18.1727 33.9448 19.8262 33.9448 20.9994 32.9987L23.9994 30.9987C24.5096 30.5978 25.3193 29.9987 25.9994 29.9987H28.9994C30.8019 29.9987 31.9994 28.6985 31.9994 26.9987V24.9987C31.9994 24.3572 32.5743 23.4797 32.9994 22.9987L34.9995 19.9987C36.0367 18.9082 36.0027 17.1212 34.9995 15.9987Z" fill="#FFB42F"/>
<path d="M34.9995 15.9987L32.9994 12.9987C32.5743 12.5176 31.9994 11.6401 31.9994 10.9987V8.99866C31.9994 7.29883 30.8019 5.99866 28.9994 5.99866H25.9994C25.3193 5.99866 24.5096 5.39956 23.9994 4.99866L20.9994 2.99866C19.8262 2.05253 18.1727 2.05253 16.9994 2.99866L13.9994 4.99866C13.4893 5.39956 12.6796 5.99866 11.9994 5.99866H8.99945C7.197 5.99866 5.99945 7.29883 5.99945 8.99866V10.9987C5.99945 11.6241 5.42455 12.5176 4.99945 12.9987L2.99945 15.9987C2.0132 17.1212 2.0132 18.9082 2.99945 19.9987L4.99945 22.9987C5.42455 23.4637 5.99945 24.3733 5.99945 24.9987V26.9987C5.99945 28.6985 7.197 29.9987 8.99945 29.9987H11.9994C12.6626 29.9987 13.4893 30.5978 13.9994 30.9987L16.9994 32.9987C18.1727 33.9448 19.8262 33.9448 20.9994 32.9987L23.9994 30.9987C24.5096 30.5978 25.3193 29.9987 25.9994 29.9987H28.9994C30.8019 29.9987 31.9994 28.6985 31.9994 26.9987V24.9987C31.9994 24.3572 32.5743 23.4797 32.9994 22.9987L34.9995 19.9987C36.0367 18.9082 36.0027 17.1212 34.9995 15.9987Z" stroke="white" stroke-width="2.7"/>
<path d="M26 13L18 22L14 17" stroke="white" stroke-width="2.54458" stroke-linecap="round" stroke-linejoin="round"/>
</svg>
