<svg width="21" height="21" viewBox="0 0 21 21" fill="none" xmlns="http://www.w3.org/2000/svg">
<path d="M14 7.49084V18.8509C14 20.3009 12.96 20.9108 11.69 20.2108L7.76001 18.0208C7.34001 17.7908 6.65999 17.7908 6.23999 18.0208L2.31 20.2108C1.04 20.9108 0 20.3009 0 18.8509V7.49084C0 5.78084 1.39999 4.38086 3.10999 4.38086H10.89C12.6 4.38086 14 5.78084 14 7.49084Z" fill="#383742"/>
<path d="M20.5 3.10999V14.47C20.5 15.92 19.46 16.53 18.19 15.83L14.5 13.77V6.98999C14.5 5.27999 13.1 3.88 11.39 3.88H6.5V3.10999C6.5 1.39999 7.89999 0 9.60999 0H17.39C19.1 0 20.5 1.39999 20.5 3.10999Z" fill="#383742"/>
</svg>
