<svg width="34" height="34" viewBox="0 0 34 34" fill="none" xmlns="http://www.w3.org/2000/svg">
<g id="vuesax/bulk/message">
<g id="vuesax/bulk/message_2">
<g id="message">
<path id="Vector" d="M2.83398 18.3738V9.90217C2.83398 5.99217 6.00732 2.83301 9.91732 2.83301H24.084C27.994 2.83301 31.1673 5.99217 31.1673 9.90217V19.7905C31.1673 23.6863 27.994 26.8455 24.084 26.8455H21.959C21.5198 26.8455 21.0948 27.058 20.8257 27.4122L18.7007 30.2313C17.7657 31.478 16.2357 31.478 15.3007 30.2313L13.1757 27.4122C12.949 27.1005 12.439 26.8455 12.0423 26.8455H9.91732C6.00732 26.8455 2.83398 23.6863 2.83398 19.7905V18.3738Z" fill="white"/>
<path id="Vector_2" d="M17.0007 17.0003C16.2073 17.0003 15.584 16.3628 15.584 15.5837C15.584 14.8045 16.2215 14.167 17.0007 14.167C17.7798 14.167 18.4173 14.8045 18.4173 15.5837C18.4173 16.3628 17.794 17.0003 17.0007 17.0003Z" fill="#DE755E"/>
<path id="Vector_3" d="M22.6667 17.0003C21.8733 17.0003 21.25 16.3628 21.25 15.5837C21.25 14.8045 21.8875 14.167 22.6667 14.167C23.4458 14.167 24.0833 14.8045 24.0833 15.5837C24.0833 16.3628 23.46 17.0003 22.6667 17.0003Z" fill="#DE755E"/>
<path id="Vector_4" d="M11.3327 17.0003C10.5393 17.0003 9.91602 16.3628 9.91602 15.5837C9.91602 14.8045 10.5535 14.167 11.3327 14.167C12.1118 14.167 12.7493 14.8045 12.7493 15.5837C12.7493 16.3628 12.126 17.0003 11.3327 17.0003Z" fill="#DE755E"/>
</g>
</g>
</g>
</svg>
