<svg width="95" height="176" viewBox="0 0 95 176" fill="none" xmlns="http://www.w3.org/2000/svg">
<g filter="url(#filter0_b_601_33537)">
<path fill-rule="evenodd" clip-rule="evenodd" d="M95 47C95 21.0426 73.9574 -9.19802e-07 48 -2.05444e-06L47 -2.09815e-06C21.0426 -3.23278e-06 -9.19806e-07 21.0426 -2.05444e-06 47C-2.57268e-06 58.8559 4.38982 69.6865 11.6327 77.9551C16.2588 83.2363 16.2588 92.7637 11.6327 98.0449C4.38982 106.313 -5.12053e-06 117.144 -5.63877e-06 129C-6.7734e-06 154.957 21.0426 176 47 176L48 176C73.9574 176 95 154.957 95 129C95 117.144 90.6102 106.314 83.3673 98.0449C78.7412 92.7637 78.7412 83.2363 83.3673 77.9551C90.6102 69.6865 95 58.8559 95 47Z" fill="white" fill-opacity="0.5"/>
</g>
<defs>
<filter id="filter0_b_601_33537" x="-13" y="-13" width="121" height="202" filterUnits="userSpaceOnUse" color-interpolation-filters="sRGB">
<feFlood flood-opacity="0" result="BackgroundImageFix"/>
<feGaussianBlur in="BackgroundImageFix" stdDeviation="6.5"/>
<feComposite in2="SourceAlpha" operator="in" result="effect1_backgroundBlur_601_33537"/>
<feBlend mode="normal" in="SourceGraphic" in2="effect1_backgroundBlur_601_33537" result="shape"/>
</filter>
</defs>
</svg>
