<svg viewBox="0 0 22 22" xmlns="http://www.w3.org/2000/svg">
<path d="M12.7309 2.51014L14.4909 6.03014C14.7309 6.52014 15.3709 6.99014 15.9109 7.08014L19.1009 7.61014C21.1409 7.95014 21.6209 9.43014 20.1509 10.8901L17.6709 13.3701C17.2509 13.7901 17.0209 14.6001 17.1509 15.1801L17.8609 18.2501C18.4209 20.6801 17.1309 21.6201 14.9809 20.3501L11.9909 18.5801C11.4509 18.2601 10.5609 18.2601 10.0109 18.5801L7.02089 20.3501C4.88089 21.6201 3.58089 20.6701 4.14089 18.2501L4.85089 15.1801C4.98089 14.6001 4.75089 13.7901 4.33089 13.3701L1.85089 10.8901C0.390886 9.43014 0.860886 7.95014 2.90089 7.61014L6.09089 7.08014C6.62089 6.99014 7.26089 6.52014 7.50089 6.03014L9.26089 2.51014C10.2209 0.600137 11.7809 0.600137 12.7309 2.51014Z" fill="#DE755E" stroke="#DE755E" stroke-width="1.5" stroke-linecap="round" stroke-linejoin="round"/>
</svg>
