<svg width="16" height="15" viewBox="0 0 16 15" fill="none" xmlns="http://www.w3.org/2000/svg">
<path d="M15.3338 13.7198C15.4035 13.7895 15.4587 13.8722 15.4964 13.9632C15.5342 14.0543 15.5536 14.1519 15.5536 14.2504C15.5536 14.349 15.5342 14.4465 15.4964 14.5376C15.4587 14.6286 15.4035 14.7114 15.3338 14.781C15.2641 14.8507 15.1814 14.906 15.0903 14.9437C14.9993 14.9814 14.9017 15.0008 14.8032 15.0008C14.7046 15.0008 14.607 14.9814 14.516 14.9437C14.4249 14.906 14.3422 14.8507 14.2725 14.781L8.05315 8.56073L1.83378 14.781C1.69305 14.9218 1.50217 15.0008 1.30315 15.0008C1.10413 15.0008 0.913257 14.9218 0.772526 14.781C0.631796 14.6403 0.552734 14.4494 0.552734 14.2504C0.552734 14.0514 0.631796 13.8605 0.772526 13.7198L6.99284 7.50042L0.772526 1.28104C0.631796 1.14031 0.552734 0.94944 0.552734 0.750417C0.552734 0.551394 0.631796 0.360523 0.772526 0.219792C0.913257 0.0790615 1.10413 0 1.30315 0C1.50217 0 1.69305 0.0790615 1.83378 0.219792L8.05315 6.44011L14.2725 0.219792C14.4133 0.0790615 14.6041 -3.92322e-09 14.8032 0C15.0022 3.92322e-09 15.193 0.0790615 15.3338 0.219792C15.4745 0.360523 15.5536 0.551394 15.5536 0.750417C15.5536 0.94944 15.4745 1.14031 15.3338 1.28104L9.11347 7.50042L15.3338 13.7198Z" fill="black"/>
</svg>
