<svg width="405" height="520" viewBox="0 0 405 520" fill="none" xmlns="http://www.w3.org/2000/svg">
<path fill-rule="evenodd" clip-rule="evenodd" d="M365 0H36.4712C16.3287 0 0 16.3287 0 36.4712V480C0 502.091 17.9086 520 40 520H365C387.091 520 405 502.091 405 480V40C405 17.9086 387.091 0 365 0ZM199.453 369.407C191.072 398.463 178.533 416.925 164.528 416.93C148.996 416.936 135.284 394.238 127.055 359.56C126.589 357.593 123.716 357.386 122.93 359.25C114.657 378.873 103.2 391.026 90.5435 391.03C65.3419 391.04 44.9296 342.879 44.9513 283.46C44.973 224.041 65.4205 175.865 90.6221 175.856C103.282 175.852 114.734 188.003 122.993 207.632C123.777 209.495 126.65 209.287 127.119 207.32C135.374 172.655 149.098 149.962 164.626 149.956C178.635 149.951 191.163 168.414 199.523 197.479C200.1 199.485 203.123 199.484 203.701 197.478C212.082 168.422 224.621 149.96 238.626 149.955C254.163 149.949 267.878 172.659 276.106 207.353C276.572 209.321 279.446 209.527 280.231 207.663C288.505 188.023 299.968 175.859 312.63 175.854C337.831 175.845 358.244 224.006 358.222 283.425C358.2 342.843 337.753 391.019 312.551 391.028C299.885 391.033 288.428 378.87 280.168 359.224C279.384 357.361 276.51 357.569 276.042 359.537C267.788 394.218 254.06 416.923 238.528 416.929C224.519 416.934 211.991 398.471 203.631 369.406C203.054 367.4 200.032 367.401 199.453 369.407Z" fill="white"/>
</svg>
