<svg width="405" height="520" viewBox="0 0 405 520" fill="none" xmlns="http://www.w3.org/2000/svg">
<path fill-rule="evenodd" clip-rule="evenodd" d="M365 0H36.4712C16.3287 0 0 16.3287 0 36.4712V480C0 502.091 17.9086 520 40 520H365C387.091 520 405 502.091 405 480V40C405 17.9086 387.091 0 365 0ZM329.281 284.086C327.833 285.511 328.103 287.946 329.819 289.032C345.704 299.086 355.351 312.072 356.242 327.04C358.704 368.403 293.366 409.231 210.304 418.231C127.242 427.232 57.9118 400.996 55.4495 359.633C54.5229 344.068 63.1977 328.578 78.8052 314.831C80.3257 313.492 80.1948 311.054 78.5499 309.871C63.3026 298.904 54.0278 284.962 53.0801 269.041C50.4076 224.147 114.964 180.523 197.27 171.604C279.576 162.686 348.465 191.85 351.138 236.744C352.12 253.25 344.015 269.585 329.281 284.086Z" fill="white"/>
</svg>
