<svg width="167" height="221" viewBox="0 0 167 221" fill="none" xmlns="http://www.w3.org/2000/svg">
<path fill-rule="evenodd" clip-rule="evenodd" d="M30 0C13.4315 0 0 13.4315 0 30V191C0 207.569 13.4315 221 30 221H137C153.569 221 167 207.569 167 191V181.22V30C167 13.4315 153.569 0 137 0H30ZM82.404 98.9201C79.228 115.224 73.3899 126.158 66.7175 126.161C59.6179 126.163 53.4719 113.789 50.4764 95.7354C50.3048 94.7011 48.6055 94.633 48.3277 95.6443C45.0535 107.562 39.503 115.402 33.2095 115.404C23.1547 115.408 15.0109 95.4038 15.0199 70.7237C15.0289 46.0437 23.1873 26.0336 33.2421 26.0299C39.537 26.0276 45.0829 33.8673 48.3481 45.7868C48.625 46.7978 50.3244 46.7287 50.4968 45.6943C53.5063 27.6454 59.66 15.2728 66.758 15.2702C73.4321 15.2678 79.2634 26.2026 82.4269 42.5114C82.6302 43.5593 84.3823 43.5587 84.5865 42.5108C87.7625 26.2063 93.6005 15.2726 100.273 15.2702C107.375 15.2676 113.523 27.6499 116.517 45.7133C116.689 46.7479 118.389 46.8159 118.667 45.8044C121.94 33.8793 127.493 26.0332 133.788 26.0309C143.843 26.0272 151.987 46.0314 151.978 70.7114C151.969 95.3915 143.811 115.402 133.756 115.405C127.458 115.408 121.91 107.561 118.645 95.6317C118.369 94.6203 116.668 94.6893 116.496 95.7239C113.487 113.78 107.332 126.158 100.232 126.161C93.5584 126.163 87.7271 115.228 84.5635 98.9194C84.3603 97.8716 82.6081 97.8721 82.404 98.9201Z" fill="white"/>
</svg>
