<svg width="167" height="221" viewBox="0 0 167 221" fill="none" xmlns="http://www.w3.org/2000/svg">
<path fill-rule="evenodd" clip-rule="evenodd" d="M30 0C13.4315 0 0 13.4315 0 30V191C0 207.569 13.4315 221 30 221H137C153.569 221 167 207.569 167 191V181.22V30C167 13.4315 153.569 0 137 0H30ZM64.8673 21.1227C51.1982 10.7495 31.7044 13.4184 21.3266 27.084C10.9488 40.7496 13.6169 60.2369 27.2859 70.6101L32.1041 74.2665L27.5478 77.7243C13.8787 88.0975 11.2107 107.585 21.5885 121.25C31.9663 134.916 51.46 137.585 65.1291 127.212L83.5 113.27L101.871 127.212C115.54 137.585 135.034 134.916 145.412 121.25C155.789 107.585 153.121 88.0975 139.452 77.7243L134.896 74.2665L139.714 70.6101C153.383 60.2369 156.051 40.7496 145.673 27.084C135.296 13.4184 115.802 10.7495 102.133 21.1227L83.5 35.2629L64.8673 21.1227Z" fill="white"/>
</svg>
