<svg width="167" height="221" viewBox="0 0 167 221" fill="none" xmlns="http://www.w3.org/2000/svg">
<path fill-rule="evenodd" clip-rule="evenodd" d="M30 0C13.4315 0 0 13.4315 0 30V191C0 207.569 13.4315 221 30 221H137C153.569 221 167 207.569 167 191V181.22V30C167 13.4315 153.569 0 137 0H30ZM141.409 64.3871C140.04 65.8845 140.314 68.3117 141.964 69.4929C147.987 73.806 151.605 79.1723 151.97 85.2718C153.079 103.836 123.623 122.163 86.179 126.206C48.7346 130.248 17.4807 118.476 16.3715 99.9113C15.9934 93.5813 19.1687 87.2789 25.0027 81.561C26.4477 80.1448 26.3094 77.7147 24.7357 76.4431C18.9248 71.7477 15.4248 65.9791 15.0362 59.4746C13.832 39.3197 42.958 19.731 80.0909 15.722C117.224 11.7131 148.302 24.802 149.506 44.9569C149.908 51.6827 146.933 58.3454 141.409 64.3871Z" fill="white"/>
</svg>
