<svg width="54" height="54" viewBox="0 0 54 54" fill="none" xmlns="http://www.w3.org/2000/svg">
<circle cx="27" cy="27" r="27" fill="#DE755E"/>
<path fill-rule="evenodd" clip-rule="evenodd" d="M31.3346 18.666H22.668C20.4588 18.666 18.668 20.4569 18.668 22.666V31.3327C18.668 33.5418 20.4588 35.3327 22.668 35.3327H31.3346C33.5438 35.3327 35.3346 33.5418 35.3346 31.3327V22.666C35.3346 20.4569 33.5438 18.666 31.3346 18.666ZM30.912 25.5719C30.8153 25.8054 30.5874 25.9577 30.3346 25.9577L23.6679 25.9577C23.3228 25.9577 23.0429 25.6779 23.0429 25.3327C23.0429 24.9875 23.3228 24.7077 23.6679 24.7077H28.8257L28.226 24.108C27.9819 23.8639 27.9819 23.4682 28.226 23.2241C28.4701 22.98 28.8658 22.98 29.1099 23.2241L30.7766 24.8907C30.9553 25.0695 31.0088 25.3383 30.912 25.5719ZM23.668 28.041C23.4152 28.041 23.1873 28.1933 23.0906 28.4268C22.9938 28.6604 23.0473 28.9292 23.226 29.108L24.8927 30.7746C25.1368 31.0187 25.5325 31.0187 25.7766 30.7746C26.0207 30.5305 26.0207 30.1348 25.7766 29.8907L25.1769 29.291H30.3347C30.6798 29.291 30.9597 29.0112 30.9597 28.666C30.9597 28.3208 30.6798 28.041 30.3347 28.041H23.668Z" fill="white"/>
</svg>
