<svg width="175" height="142" viewBox="0 0 175 142" fill="none" xmlns="http://www.w3.org/2000/svg">
<path d="M79.3504 119.386L49.8757 131.178L15.6787 96.9813L38.0832 93.7402L79.3504 119.386Z" fill="#FFB42F"/>
<path opacity="0.5" d="M79.3504 119.386L49.8757 131.178L15.6787 96.9813L38.0832 93.7402L79.3504 119.386Z" fill="white"/>
<path d="M115.607 135.01C119.514 135.01 122.681 132.898 122.681 130.292C122.681 127.686 119.514 125.574 115.607 125.574C111.7 125.574 108.532 127.686 108.532 130.292C108.532 132.898 111.7 135.01 115.607 135.01Z" fill="#FFB42F"/>
<path opacity="0.5" d="M115.607 135.01C119.514 135.01 122.681 132.898 122.681 130.292C122.681 127.686 119.514 125.574 115.607 125.574C111.7 125.574 108.532 127.686 108.532 130.292C108.532 132.898 111.7 135.01 115.607 135.01Z" fill="white"/>
<path d="M87.9014 103.508L131.092 106.931L121.506 101.996L87.9014 103.508Z" fill="#FFB42F"/>
<path opacity="0.5" d="M87.9014 103.508L131.092 106.931L121.506 101.996L87.9014 103.508Z" fill="white"/>
<path d="M97.6294 90.2031L84.8154 89.1552L86.4249 87.2539H93.7958L97.6294 90.2031Z" fill="#FFB42F"/>
<path opacity="0.5" d="M97.6294 90.2031L84.8154 89.1552L86.4249 87.2539H93.7958L97.6294 90.2031Z" fill="white"/>
<path d="M139.181 141.349C144.145 141.349 148.17 138.908 148.17 135.897C148.17 132.886 144.145 130.445 139.181 130.445C134.216 130.445 130.191 132.886 130.191 135.897C130.191 138.908 134.216 141.349 139.181 141.349Z" fill="#FFB42F"/>
<path opacity="0.5" d="M139.181 141.349C144.145 141.349 148.17 138.908 148.17 135.897C148.17 132.886 144.145 130.445 139.181 130.445C134.216 130.445 130.191 132.886 130.191 135.897C130.191 138.908 134.216 141.349 139.181 141.349Z" fill="white"/>
<path d="M85.9149 123.232L81.0732 131.187L91.7957 133.265L95.9476 125.311L85.9149 123.232Z" fill="white" stroke="#383742" stroke-linecap="round" stroke-linejoin="round"/>
<path d="M94.2196 114.244L89.3779 121.504L99.4062 124.617L103.558 117.357L94.2196 114.244Z" fill="#FFB42F"/>
<mask id="mask0_930_45515" style="mask-type:luminance" maskUnits="userSpaceOnUse" x="89" y="114" width="15" height="11">
<path d="M94.2196 114.242L89.3779 121.503L99.4062 124.615L103.558 117.355L94.2196 114.242Z" fill="white"/>
</mask>
<g mask="url(#mask0_930_45515)">
<path opacity="0.5" d="M94.2196 114.242L89.3779 121.503L99.4062 124.615L103.558 117.355L94.2196 114.242Z" fill="white" stroke="#383742" stroke-miterlimit="10"/>
</g>
<path d="M94.2196 114.244L89.3779 121.504L99.4062 124.617L103.558 117.357L94.2196 114.244Z" stroke="#383742" stroke-linecap="round" stroke-linejoin="round"/>
<path d="M104.942 128.08L96.293 130.499L99.7507 136.035L109.783 133.612L104.942 128.08Z" fill="#FFB42F" stroke="#383742" stroke-linecap="round" stroke-linejoin="round"/>
<path d="M129.61 126.664L130.495 133.381C130.495 136.162 133.877 138.421 138.051 138.421C142.225 138.421 145.612 136.162 145.612 133.381L146.523 126.664H129.61Z" fill="#FFB42F" stroke="#383742" stroke-linecap="round" stroke-linejoin="round"/>
<path d="M138.061 132.312C142.738 132.312 146.529 129.784 146.529 126.666C146.529 123.548 142.738 121.02 138.061 121.02C133.385 121.02 129.594 123.548 129.594 126.666C129.594 129.784 133.385 132.312 138.061 132.312Z" fill="#FFB42F" stroke="#383742" stroke-linecap="round" stroke-linejoin="round"/>
<path d="M138.061 131.465C142.039 131.465 145.264 129.315 145.264 126.663C145.264 124.011 142.039 121.861 138.061 121.861C134.083 121.861 130.858 124.011 130.858 126.663C130.858 129.315 134.083 131.465 138.061 131.465Z" fill="#FFB42F" stroke="#383742" stroke-linecap="round" stroke-linejoin="round"/>
<path d="M138.063 131.472C141.973 131.472 145.142 129.71 145.142 127.537C145.142 125.363 141.973 123.602 138.063 123.602C134.154 123.602 130.984 125.363 130.984 127.537C130.984 129.71 134.154 131.472 138.063 131.472Z" fill="#383742" stroke="#383742" stroke-linecap="round" stroke-linejoin="round"/>
<path d="M140.613 113.776C139.384 112.984 137.518 113.055 136.77 114.518C135.665 116.65 136.457 120.598 136.059 121.151C135.661 121.704 134.48 121.863 133.927 120.678C133.375 119.493 133.375 117.914 132.663 117.835C131.951 117.755 131.005 118.073 130.845 119.891C130.686 121.708 131.005 123.76 132.269 124.706C133.534 125.652 134.953 125.338 135.364 125.736C135.776 126.134 135.364 126.753 135.364 127.16C135.364 128.929 137.677 129.813 139.14 129.371C141.272 128.738 141.037 126.603 141.351 125.736C141.665 124.869 143.407 124.785 144.04 123.446C144.672 122.106 145.618 119.413 144.274 118.387C142.93 117.362 141.904 117.835 141.749 118.94C141.565 119.818 141.268 120.668 140.865 121.469C141.811 119.599 142.74 115.146 140.613 113.776Z" fill="#FFB42F"/>
<mask id="mask1_930_45515" style="mask-type:luminance" maskUnits="userSpaceOnUse" x="130" y="113" width="15" height="17">
<path d="M140.611 113.776C139.382 112.984 137.516 113.055 136.769 114.518C135.663 116.65 136.455 120.598 136.057 121.151C135.659 121.704 134.478 121.863 133.925 120.678C133.373 119.493 133.373 117.914 132.661 117.835C131.949 117.755 131.003 118.073 130.844 119.891C130.684 121.708 131.003 123.76 132.267 124.706C133.532 125.652 134.951 125.338 135.362 125.736C135.774 126.134 135.362 126.753 135.362 127.16C135.362 128.929 137.675 129.813 139.139 129.371C141.27 128.738 141.035 126.603 141.349 125.736C141.663 124.869 143.405 124.785 144.038 123.446C144.67 122.106 145.616 119.413 144.272 118.387C142.928 117.362 141.902 117.835 141.747 118.94C141.563 119.818 141.266 120.668 140.863 121.469C141.809 119.599 142.738 115.146 140.611 113.776Z" fill="white"/>
</mask>
<g mask="url(#mask1_930_45515)">
<path opacity="0.2" d="M140.611 113.776C139.382 112.984 137.516 113.055 136.769 114.518C135.663 116.65 136.455 120.598 136.057 121.151C135.659 121.704 134.478 121.863 133.925 120.678C133.373 119.493 133.373 117.914 132.661 117.835C131.949 117.755 131.003 118.073 130.844 119.891C130.684 121.708 131.003 123.76 132.267 124.706C133.532 125.652 134.951 125.338 135.362 125.736C135.774 126.134 135.362 126.753 135.362 127.16C135.362 128.929 137.675 129.813 139.139 129.371C141.27 128.738 141.035 126.603 141.349 125.736C141.663 124.869 143.405 124.785 144.038 123.446C144.67 122.106 145.616 119.413 144.272 118.387C142.928 117.362 141.902 117.835 141.747 118.94C141.563 119.818 141.266 120.668 140.863 121.469C141.809 119.599 142.738 115.146 140.611 113.776Z" fill="#383742"/>
</g>
<path d="M140.613 113.776C139.384 112.984 137.518 113.055 136.77 114.518C135.665 116.65 136.457 120.598 136.059 121.151C135.661 121.704 134.48 121.863 133.927 120.678C133.375 119.493 133.375 117.914 132.663 117.835C131.951 117.755 131.005 118.073 130.845 119.891C130.686 121.708 131.005 123.76 132.269 124.706C133.534 125.652 134.953 125.338 135.364 125.736C135.776 126.134 135.364 126.753 135.364 127.16C135.364 128.929 137.677 129.813 139.14 129.371C141.272 128.738 141.037 126.603 141.351 125.736C141.665 124.869 143.407 124.785 144.04 123.446C144.672 122.106 145.618 119.413 144.274 118.387C142.93 117.362 141.904 117.835 141.749 118.94C141.565 119.818 141.268 120.668 140.865 121.469C141.811 119.599 142.74 115.146 140.613 113.776Z" stroke="#383742" stroke-linecap="round" stroke-linejoin="round"/>
<path d="M138.667 114.359C138.308 114.595 138.008 114.91 137.789 115.279C137.57 115.648 137.437 116.063 137.402 116.491C137.322 117.914 137.402 122.416 136.849 123.048C136.297 123.68 134.479 123.521 133.312 122.416C132.145 121.31 132.662 118.945 132.662 118.945" stroke="#383742" stroke-width="0.5" stroke-linecap="round" stroke-linejoin="round"/>
<path d="M133.012 123.809C133.421 124.127 133.895 124.354 134.4 124.472C135.824 124.786 136.85 124.078 137.088 124.786C137.327 125.493 136.85 128.027 136.85 128.027" stroke="#383742" stroke-width="0.5" stroke-linecap="round" stroke-linejoin="round"/>
<path d="M132.19 122.965C132.338 123.172 132.507 123.364 132.695 123.535" stroke="#383742" stroke-width="0.5" stroke-linecap="round" stroke-linejoin="round"/>
<path d="M138.642 126.731C138.721 125.554 138.73 124.372 138.668 123.194C138.527 121.425 139.349 118.14 139.552 116.654" stroke="#383742" stroke-width="0.5" stroke-linecap="round" stroke-linejoin="round"/>
<path d="M138.507 128.58C138.507 128.58 138.551 128.098 138.6 127.391" stroke="#383742" stroke-width="0.5" stroke-linecap="round" stroke-linejoin="round"/>
<path d="M143.978 120.666C144.017 120.281 144.039 120.047 144.039 120.047" stroke="#383742" stroke-width="0.5" stroke-linecap="round" stroke-linejoin="round"/>
<path d="M140.245 127.152C140.245 127.152 140.563 124.548 141.196 124.057C141.828 123.567 143.641 123.266 143.8 122.081C143.827 121.895 143.849 121.718 143.871 121.555" stroke="#383742" stroke-width="0.5" stroke-linecap="round" stroke-linejoin="round"/>
<path d="M142.934 119.021C142.768 119.133 142.636 119.287 142.552 119.468C142.468 119.649 142.435 119.849 142.456 120.047C142.489 120.521 142.388 120.994 142.165 121.413C141.943 121.831 141.607 122.18 141.196 122.417" stroke="#383742" stroke-width="0.5" stroke-linecap="round" stroke-linejoin="round"/>
<path d="M139.64 115.754C139.664 115.312 139.655 114.869 139.613 114.428" stroke="#383742" stroke-width="0.5" stroke-linecap="round" stroke-linejoin="round"/>
<path d="M109.528 114.017L110.7 126.353V127.658C110.7 129.426 113.185 130.828 116.254 130.828C119.322 130.828 121.807 129.409 121.807 127.658V126.353L122.873 113.889L109.528 114.017Z" fill="white" stroke="#383742" stroke-linecap="round" stroke-linejoin="round"/>
<path d="M121.859 125.687L122.473 118.502C121.647 119.789 119.179 120.713 116.261 120.713C113.188 120.713 110.619 119.678 109.934 118.285L110.632 125.643C111.764 126.585 113.856 127.221 116.261 127.221C118.666 127.221 120.727 126.616 121.859 125.687Z" fill="#FFB42F" stroke="#383742" stroke-linecap="round" stroke-linejoin="round"/>
<path d="M109.748 116.345V116.261L109.69 115.766L109.748 116.345Z" fill="white" stroke="#383742" stroke-linecap="round" stroke-linejoin="round"/>
<path d="M123.084 112.189C121.908 110.703 119.295 109.664 116.253 109.664C113.21 109.664 110.597 110.703 109.417 112.189H108.749V113.957C108.749 116.327 112.109 118.246 116.266 118.246C120.422 118.246 123.783 116.327 123.783 113.957V112.189H123.084Z" fill="#FFB42F" stroke="#383742" stroke-linecap="round" stroke-linejoin="round"/>
<path opacity="0.2" d="M123.084 112.189C121.908 110.703 119.295 109.664 116.253 109.664C113.21 109.664 110.597 110.703 109.417 112.189H108.749V113.957C108.749 116.327 112.109 118.246 116.266 118.246C120.422 118.246 123.783 116.327 123.783 113.957V112.189H123.084Z" fill="#383742"/>
<path d="M116.253 116.478C120.397 116.478 123.756 114.558 123.756 112.189C123.756 109.821 120.397 107.9 116.253 107.9C112.108 107.9 108.749 109.821 108.749 112.189C108.749 114.558 112.108 116.478 116.253 116.478Z" fill="white" stroke="#383742" stroke-linecap="round" stroke-linejoin="round"/>
<path d="M122.223 109.797C121.192 108.497 118.911 107.586 116.253 107.586C113.596 107.586 111.315 108.492 110.284 109.797H109.714V111.335C109.714 113.405 112.645 115.081 116.267 115.081C119.888 115.081 122.82 113.405 122.82 111.335V109.797H122.223Z" fill="#FFB42F" stroke="#383742" stroke-linecap="round" stroke-linejoin="round"/>
<path d="M116.251 113.541C119.87 113.541 122.804 111.864 122.804 109.796C122.804 107.728 119.87 106.051 116.251 106.051C112.632 106.051 109.698 107.728 109.698 109.796C109.698 111.864 112.632 113.541 116.251 113.541Z" fill="white" stroke="#383742" stroke-linecap="round" stroke-linejoin="round"/>
<path d="M50.1143 73.4283C50.1143 73.4283 50.6272 73.0878 53.8815 74.4541C57.1358 75.8204 58.4137 75.5242 61.5796 74.967C65.3822 74.3038 68.5392 73.6405 68.9195 75.1793C69.5783 77.8322 66.9165 77.8013 62.1279 78.3142C57.3392 78.8271 54.5624 77.3636 53.0237 76.6782C52.3154 76.3874 51.6297 76.0445 50.9721 75.6524L50.1143 73.4283Z" fill="white" stroke="#383742" stroke-linecap="round" stroke-linejoin="round"/>
<path d="M42.7575 74.8C42.7575 74.8 47.0376 79.7611 48.9168 78.3904C50.796 77.0197 50.628 72.5759 48.9168 71.2052C47.2057 69.8345 42.417 72.4035 42.7575 74.8Z" fill="white" stroke="#383742" stroke-linecap="round" stroke-linejoin="round"/>
<path d="M55.7703 61.1123C55.7703 61.1123 55.9427 65.7329 54.7445 68.8104C53.5462 71.8878 51.3221 73.9439 50.9817 75.6551C50.6412 77.3663 50.8092 79.7628 49.098 80.4481C47.3869 81.1335 47.3869 79.9352 47.5593 78.5645C47.7317 77.1938 48.0722 72.0647 48.0722 72.0647L42.4169 75.4826C42.4169 75.4826 43.9557 79.7628 40.7058 80.2757C37.4558 80.7886 33.5206 75.8275 33.0077 72.078C32.4948 68.3284 34.5464 59.9273 38.1412 57.7032C41.736 55.4791 46.3522 55.824 48.7531 55.824C51.1541 55.824 54.7356 57.5219 55.7703 61.1123Z" fill="white" stroke="#383742" stroke-linecap="round" stroke-linejoin="round"/>
<path d="M42.1305 56.3652C42.1305 56.3652 41.2461 56.8074 39.703 59.2348C38.1598 61.6623 41.2461 63.7538 42.9042 62.6528C44.5624 61.5518 43.1209 59.2348 44.3369 58.1294C45.0364 57.536 45.5057 56.7162 45.6634 55.8125L42.1305 56.3652Z" fill="#383742"/>
<path d="M37.1678 59.7794C36.7725 60.0616 36.4404 60.4234 36.193 60.8414C35.9455 61.2594 35.7881 61.7245 35.7308 62.2068C35.6202 63.75 38.3838 60.8803 38.711 59.5539C39.0382 58.2274 37.1678 59.7794 37.1678 59.7794Z" fill="#383742"/>
<path d="M47.0379 56.3218C46.6455 57.0346 46.4542 57.8406 46.4846 58.6537C46.5149 59.4669 46.7658 60.2564 47.2103 60.938C48.749 63.3345 52.1714 64.3603 53.5377 62.6491C54.904 60.938 55.4213 60.0846 54.9084 59.2312C54.3955 58.3778 49.4344 54.9511 47.0379 56.3218Z" fill="#FFB42F" stroke="#383742" stroke-linecap="round" stroke-linejoin="round"/>
<path d="M59.6963 47.9367C59.0468 48.0073 58.3898 47.9368 57.7701 47.7299C57.1505 47.5231 56.5828 47.1849 56.1059 46.7385C54.3947 45.1997 52.8516 41.7774 52.1706 41.9454C51.4897 42.1134 49.0755 47.0789 49.0755 47.0789C49.0755 47.0789 44.9678 47.4238 44.6273 48.6177C44.2868 49.8115 46.166 55.4624 47.7225 57.8589C48.4482 58.9264 49.4145 59.8086 50.5434 60.4345C51.6723 61.0604 52.9324 61.4125 54.2223 61.4625C56.2739 61.4625 62.4333 61.9755 63.2911 59.9194C64.1489 57.8633 63.4591 51.7084 63.4591 51.7084C63.4591 51.7084 66.2005 48.9714 65.0022 48.4585C63.804 47.9456 59.6963 47.9367 59.6963 47.9367Z" fill="white" stroke="#383742" stroke-linecap="round" stroke-linejoin="round"/>
<path d="M58.8662 56.5014C58.6584 56.2317 58.4595 55.9576 58.2649 55.6746C57.9421 55.197 57.1772 54.4675 55.7048 54.9317C53.6089 55.5906 52.1675 57.5847 54.4932 59.234C56.682 60.8037 61.0771 59.3888 58.8662 56.5014Z" fill="#383742"/>
<path d="M49.0903 47.0815C49.0903 47.0815 51.4868 48.4522 52.8531 47.9393C54.2194 47.4264 53.366 41.6075 52.1721 41.948C50.9783 42.2884 48.9178 44.8574 49.0903 47.0815Z" fill="white" stroke="#383742" stroke-linecap="round" stroke-linejoin="round"/>
<path d="M65.0027 48.4511C65.0027 48.4511 62.7919 48.2786 61.4079 49.8174C60.024 51.3561 60.895 52.9125 62.7787 53.2397C64.6623 53.5669 65.6837 48.4511 65.0027 48.4511Z" fill="white" stroke="#383742" stroke-linecap="round" stroke-linejoin="round"/>
<path d="M51.6577 58.0322C51.6577 58.0322 49.4469 56.321 49.9466 57.6873C50.4462 59.0536 51.3129 59.2305 52.1574 58.8856C53.0019 58.5407 51.6577 58.0322 51.6577 58.0322Z" fill="#FFB42F" stroke="#383742" stroke-linecap="round" stroke-linejoin="round"/>
<path d="M50.4384 53.7458C50.3102 54.1879 49.9476 54.4975 49.6292 54.409C49.3109 54.3206 49.1561 53.8784 49.2843 53.423C49.4126 52.9676 49.7751 52.6713 50.0935 52.7597C50.4119 52.8482 50.5666 53.2948 50.4384 53.7458Z" fill="#383742"/>
<path d="M55.7124 57.7814C55.3012 58.0202 54.8281 57.9848 54.6689 57.6974C54.5097 57.41 54.6954 56.9899 55.1111 56.7512C55.263 56.6304 55.4549 56.5715 55.6484 56.5862C55.842 56.601 56.0228 56.6883 56.1546 56.8308C56.3138 57.1182 56.1192 57.5427 55.7124 57.7814Z" fill="white"/>
<path d="M40.3669 68.6434C40.3669 68.6434 39.854 72.4062 40.5349 73.9494C41.2159 75.4925 41.9057 81.307 43.2764 81.4662C44.6471 81.6254 44.1297 78.371 44.1297 77.8714C44.1297 77.3717 44.3022 71.8845 44.3022 71.8845C44.3022 71.8845 45.5005 69.3155 46.1814 67.9492" fill="white"/>
<path d="M40.3669 68.6434C40.3669 68.6434 39.854 72.4062 40.5349 73.9494C41.2159 75.4925 41.9057 81.307 43.2764 81.4662C44.6471 81.6254 44.1297 78.371 44.1297 77.8714C44.1297 77.3717 44.3022 71.8845 44.3022 71.8845C44.3022 71.8845 45.5005 69.3155 46.1814 67.9492" stroke="#383742" stroke-linecap="round" stroke-linejoin="round"/>
<path d="M34.7188 68.4708C34.7188 68.4708 39.3394 67.1001 39.8523 72.2336" stroke="#383742" stroke-linecap="round" stroke-linejoin="round"/>
<path d="M48.0625 72.0765C48.0625 72.0765 51.9978 70.0204 52.1702 65.5723" stroke="#383742" stroke-linecap="round" stroke-linejoin="round"/>
<path d="M0.5 79.0768L3.41386 78.418" stroke="#383742" stroke-linecap="round" stroke-linejoin="round"/>
<path d="M24.8184 96.2695L48.315 89.6061C49.0618 89.5269 49.8131 89.708 50.4418 90.119L88.6757 114.549C88.8386 114.654 88.9652 114.807 89.0384 114.986C89.1116 115.166 89.1278 115.364 89.0848 115.553C89.0419 115.742 88.9419 115.913 88.7983 116.044C88.6548 116.174 88.4746 116.257 88.2822 116.282L56.128 126.297L24.8184 96.2695Z" fill="#FFB42F" stroke="#383742" stroke-linecap="round" stroke-linejoin="round"/>
<path d="M38.5586 97.6751L41.8881 99.9699L45.7349 98.8822L42.4098 96.5918L38.5586 97.6751Z" fill="#383742"/>
<path d="M40.6304 104.09L37.3054 101.795L33.4541 102.883L36.7836 105.177L40.6304 104.09Z" fill="#383742"/>
<path d="M46.9229 99.0799L50.2479 101.37L54.0948 100.283L50.7697 97.9922L46.9229 99.0799Z" fill="#383742"/>
<path d="M50.8018 101.754L54.1268 104.044L57.9737 102.956L54.6486 100.666L50.8018 101.754Z" fill="#383742"/>
<path d="M42.4346 100.345L45.7596 102.64L49.6065 101.552L46.2814 99.2617L42.4346 100.345Z" fill="#383742"/>
<path d="M34.0684 98.9432L37.3934 101.238L41.2447 100.15L37.9152 97.8555L34.0684 98.9432Z" fill="#383742"/>
<path d="M60.6201 113.506L57.2907 111.211L53.4482 112.299L56.7733 114.593L60.6201 113.506Z" fill="#383742"/>
<path d="M56.127 114.773L52.8019 112.479L48.9551 113.566L52.2846 115.857L56.127 114.773Z" fill="#383742"/>
<path d="M44.5039 106.762L41.1789 104.467L37.332 105.555L40.6571 107.845L44.5039 106.762Z" fill="#383742"/>
<path d="M64.4942 116.177L61.1691 113.887L57.3223 114.97L60.6473 117.265L64.4942 116.177Z" fill="#383742"/>
<path d="M48.3814 109.435L45.0519 107.141L41.2051 108.228L44.5346 110.519L48.3814 109.435Z" fill="#383742"/>
<path d="M52.2559 112.103L48.9308 109.809L45.084 110.896L48.4091 113.191L52.2559 112.103Z" fill="#383742"/>
<path d="M54.6729 104.424L57.9979 106.714L61.8448 105.626L58.5197 103.336L54.6729 104.424Z" fill="#383742"/>
<path d="M37.9473 101.617L41.2723 103.911L45.1192 102.824L41.7941 100.533L37.9473 101.617Z" fill="#383742"/>
<path d="M68.9844 114.906L65.6593 112.615L61.8125 113.703L65.1376 115.993L68.9844 114.906Z" fill="#383742"/>
<path d="M57.3584 106.896L54.0334 104.605L50.1865 105.689L53.5116 107.984L57.3584 106.896Z" fill="#383742"/>
<path d="M48.9932 105.49L45.6681 103.195L41.8213 104.283L45.1464 106.578L48.9932 105.49Z" fill="#383742"/>
<path d="M32.8801 98.7504L30.9346 97.4062L28.3037 98.1447L29.8424 99.6082L32.8801 98.7504Z" fill="#383742"/>
<path d="M36.7541 101.42L33.429 99.125L30.2764 100.018L32.8807 102.485L32.9072 102.503L36.7541 101.42Z" fill="#383742"/>
<path d="M46.3086 103.021L49.6381 105.312L53.4849 104.224L50.1554 101.934L46.3086 103.021Z" fill="#383742"/>
<path d="M52.8701 108.162L49.5451 105.871L45.6982 106.954L49.0233 109.249L52.8701 108.162Z" fill="#383742"/>
<path d="M69.5967 110.964L66.2716 108.674L62.4248 109.762L65.7499 112.052L69.5967 110.964Z" fill="#383742"/>
<path d="M58.5459 107.092L61.8754 109.382L65.7222 108.294L62.3972 106.004L58.5459 107.092Z" fill="#383742"/>
<path d="M65.1094 112.236L61.7843 109.945L57.9375 111.033L61.2626 113.323L65.1094 112.236Z" fill="#383742"/>
<path d="M61.2305 109.566L57.9054 107.275L54.0586 108.359L57.3881 110.654L61.2305 109.566Z" fill="#383742"/>
<path d="M56.7422 110.833L53.4171 108.543L49.5703 109.626L52.8954 111.921L56.7422 110.833Z" fill="#383742"/>
<path d="M40.0159 108.027L36.6908 105.736L36.3945 105.82L39.0166 108.31L40.0159 108.027Z" fill="#383742"/>
<path d="M69.5353 115.285L65.6885 116.373L69.6768 119.119L73.4264 117.965L69.5353 115.285Z" fill="#383742"/>
<path d="M65.0421 116.557L61.1953 117.64L65.303 120.47L69.0481 119.316L65.0421 116.557Z" fill="#383742"/>
<path d="M47.7671 113.37L44.442 111.08L42.5098 111.624L45.1362 114.118L47.7671 113.37Z" fill="#383742"/>
<path d="M73.4752 113.634L70.1457 111.344L66.2988 112.431L69.6283 114.722L73.4752 113.634Z" fill="#383742"/>
<path d="M51.6403 116.041L48.3152 113.746L45.5693 114.524L48.1914 117.014L51.6403 116.041Z" fill="#383742"/>
<path d="M55.5174 118.715L52.1923 116.42L48.624 117.428L51.2505 119.917L55.5174 118.715Z" fill="#383742"/>
<path d="M60.0078 117.443L56.6828 115.148L52.8359 116.236L56.161 118.531L60.0078 117.443Z" fill="#383742"/>
<path d="M81.7348 113.845L79.524 112.461L74.6602 113.836L78.4186 116.427L81.3457 115.543C81.5385 115.526 81.721 115.448 81.867 115.321C82.013 115.194 82.1149 115.024 82.1581 114.835C82.2014 114.647 82.1837 114.449 82.1076 114.271C82.0316 114.093 81.901 113.944 81.7348 113.845Z" fill="#383742"/>
<path d="M56.0664 119.09L51.6846 120.328L55.1335 123.6L60.3024 122.008L56.0664 119.09Z" fill="#383742"/>
<path d="M75.4185 109.859L70.7891 111.168L74.1141 113.459L78.9558 112.092L75.4185 109.859Z" fill="#383742"/>
<path d="M74.0236 114.02L70.1768 115.107L74.0501 117.778L77.7997 116.624L74.0236 114.02Z" fill="#383742"/>
<path d="M46.9893 94.7628L50.1331 93.8741L48.1036 92.5918L45.0703 93.4408L46.9893 94.7628Z" fill="#383742"/>
<path d="M64.6758 120.663L60.5548 117.82L56.708 118.908L60.9263 121.817L64.6758 120.663Z" fill="#383742"/>
<path d="M47.5381 95.1417L50.8632 97.4321L54.2546 96.4771L50.7172 94.2441L47.5381 95.1417Z" fill="#383742"/>
<path d="M55.2881 100.482L58.6132 102.772L62.4865 101.68L58.9536 99.4473L55.2881 100.482Z" fill="#383742"/>
<path d="M51.4102 97.814L54.7397 100.104L58.3698 99.0786L54.8325 96.8457L51.4102 97.814Z" fill="#383742"/>
<path d="M59.1631 103.154L62.4882 105.445L66.6047 104.286L63.0718 102.049L59.1631 103.154Z" fill="#383742"/>
<path d="M63.0391 105.824L66.3641 108.114L70.7195 106.885L67.1866 104.652L63.0391 105.824Z" fill="#383742"/>
<path d="M71.3038 107.254L66.9131 108.496L70.2382 110.787L74.8367 109.491L71.3038 107.254Z" fill="#383742"/>
<path d="M43.0488 96.4139L46.3739 98.7043L50.2207 97.6166L46.8957 95.3262L43.0488 96.4139Z" fill="#383742"/>
<path d="M35.2812 104.768L35.9622 105.409L36.139 105.356L35.2812 104.768Z" fill="#383742"/>
<path d="M33.5207 98.5695L37.3675 97.4818L35.4309 96.1465L31.5752 97.2254L33.5207 98.5695Z" fill="#383742"/>
<path d="M38.008 97.2975L41.8548 96.2098L39.927 94.8789L36.0713 95.9622L38.008 97.2975Z" fill="#383742"/>
<path d="M40.5732 94.7024L42.5011 96.0289L46.3479 94.9412L44.4245 93.6191L40.5732 94.7024Z" fill="#383742"/>
<path d="M43.8895 110.703L40.5645 108.408L39.4502 108.722L42.0767 111.212L43.8895 110.703Z" fill="#383742"/>
<path d="M56.1063 126.297L45.9365 85.1266C45.7048 84.1907 45.2055 83.3425 44.4995 82.6859L17.0853 57.1243C16.9688 57.0161 16.8206 56.9482 16.6626 56.9304C16.5046 56.9127 16.3451 56.9461 16.2075 57.0258C16.0699 57.1055 15.9615 57.2272 15.8982 57.3731C15.835 57.519 15.8202 57.6813 15.8561 57.8362L24.8187 96.2691L56.1063 126.297Z" fill="#FFB42F" stroke="#383742" stroke-linecap="round" stroke-linejoin="round"/>
<path d="M40.7363 81.0039L43.8713 83.7453C43.8713 83.7453 44.8485 83.9399 45.8256 88.8346" stroke="#383742" stroke-width="0.5" stroke-linecap="round" stroke-linejoin="round"/>
<path d="M46.4141 91.373L52.1932 116.417" stroke="#383742" stroke-width="0.5" stroke-linecap="round" stroke-linejoin="round"/>
<path d="M29.4938 79.8844C30.8512 83.1829 30.7274 86.3621 29.2152 86.9855C27.703 87.609 25.3728 85.438 24.0154 82.1217C22.6579 78.8055 22.7817 75.644 24.2939 75.025C25.8061 74.406 28.1363 76.5858 29.4938 79.8844Z" fill="#FFB42F"/>
<path opacity="0.6" d="M29.4938 79.8844C30.8512 83.1829 30.7274 86.3621 29.2152 86.9855C27.703 87.609 25.3728 85.438 24.0154 82.1217C22.6579 78.8055 22.7817 75.644 24.2939 75.025C25.8061 74.406 28.1363 76.5858 29.4938 79.8844Z" fill="white"/>
<path d="M28.5022 85.2572C29.577 84.8147 29.6652 82.554 28.6991 80.2078C27.7331 77.8617 26.0786 76.3186 25.0038 76.7611C23.9289 77.2037 23.8408 79.4644 24.8068 81.8105C25.7729 84.1567 27.4273 85.6998 28.5022 85.2572Z" stroke="#383742" stroke-miterlimit="10"/>
<path d="M31.5884 93.406C32.2959 95.1172 32.0041 96.8593 30.9429 97.2971C29.8817 97.7348 28.4491 96.7002 27.7416 94.9934C27.0341 93.2866 27.3304 91.5401 28.3916 91.1024C29.4528 90.6646 30.8854 91.6993 31.5884 93.406Z" fill="#383742"/>
<path d="M30.1264 96.3064C29.4587 96.3064 28.7335 95.7007 28.3577 94.7544C28.1461 94.2679 28.0727 93.7324 28.1455 93.2069C28.1649 92.9877 28.2412 92.7773 28.3668 92.5966C28.4925 92.4159 28.6631 92.2712 28.8618 92.1766C29.609 91.8671 30.5641 92.5171 31.0328 93.6534C31.4971 94.7898 31.276 95.9217 30.5287 96.2313C30.4007 96.282 30.2641 96.3075 30.1264 96.3064ZM29.242 92.5436C29.1661 92.5429 29.0908 92.5579 29.021 92.5878C28.8939 92.6559 28.7865 92.7555 28.709 92.8771C28.6316 92.9986 28.5867 93.1381 28.5788 93.282C28.5155 93.7328 28.5799 94.1924 28.7645 94.6085C29.1226 95.4928 29.8522 96.05 30.3563 95.8422C30.8604 95.6343 30.9797 94.7191 30.6172 93.8436C30.2855 93.0698 29.6842 92.5436 29.242 92.5436Z" fill="#FFB42F"/>
<g opacity="0.5">
<path d="M30.1273 96.3064C29.4597 96.3064 28.7345 95.7007 28.3587 94.7544C28.1471 94.2679 28.0737 93.7324 28.1464 93.2069C28.1659 92.9877 28.2422 92.7773 28.3678 92.5966C28.4934 92.4159 28.664 92.2712 28.8627 92.1766C29.61 91.8671 30.5651 92.5171 31.0338 93.6534C31.498 94.7898 31.277 95.9217 30.5297 96.2313C30.4017 96.282 30.265 96.3075 30.1273 96.3064ZM29.243 92.5436C29.167 92.5429 29.0918 92.5579 29.0219 92.5878C28.8949 92.6559 28.7874 92.7555 28.71 92.8771C28.6326 92.9986 28.5877 93.1381 28.5798 93.282C28.5165 93.7328 28.5809 94.1924 28.7655 94.6085C29.1236 95.4928 29.8532 96.05 30.3573 95.8422C30.8613 95.6343 30.9807 94.7191 30.6181 93.8436C30.2865 93.0698 29.6852 92.5436 29.243 92.5436Z" fill="white"/>
</g>
<path d="M39.4737 93.9592L36.9578 97.9387C36.893 98.0355 36.8584 98.1494 36.8584 98.2659C36.8584 98.3824 36.893 98.4963 36.9578 98.5931L42.3434 106.446C42.3906 106.516 42.4518 106.575 42.5233 106.619C42.5947 106.664 42.6747 106.693 42.758 106.704C42.8414 106.716 42.9263 106.71 43.0072 106.687C43.0881 106.664 43.1632 106.624 43.2277 106.57L46.0178 104.293C46.129 104.203 46.2041 104.076 46.2292 103.936C46.2544 103.795 46.228 103.65 46.1548 103.528L40.4907 93.9813C40.4401 93.8922 40.3672 93.8178 40.2791 93.7653C40.1911 93.7128 40.091 93.684 39.9885 93.6818C39.886 93.6796 39.7847 93.704 39.6945 93.7526C39.6043 93.8012 39.5282 93.8724 39.4737 93.9592Z" fill="#383742"/>
<path d="M35.0961 99.2326C35.0961 99.2326 42.0646 98.0741 46.8533 107.89L48.0427 106.427C48.0427 106.427 43.4309 98.7462 39.6725 98.0609C35.9141 97.3755 34.5479 97.3711 34.5479 97.3711L35.0961 99.2326Z" fill="#FFB42F"/>
<path opacity="0.5" d="M35.0961 99.2326C35.0961 99.2326 42.0646 98.0741 46.8533 107.89L48.0427 106.427C48.0427 106.427 43.4309 98.7462 39.6725 98.0609C35.9141 97.3755 34.5479 97.3711 34.5479 97.3711L35.0961 99.2326Z" fill="white"/>
<path d="M5.04004 78.0475L16.4125 75.4785" stroke="#383742" stroke-linecap="round" stroke-linejoin="round"/>
<path d="M77.2481 102.809C75.8848 103.024 74.5104 103.161 73.1315 103.22C70.9959 103.304 70.0895 103.304 70.4167 103.799C70.7439 104.294 73.2996 104.785 74.2016 104.949C75.1036 105.112 77.2481 102.809 77.2481 102.809Z" fill="white" stroke="#383742" stroke-miterlimit="10"/>
<path d="M157.438 120.695L153.631 118.705" stroke="#383742" stroke-linecap="round" stroke-linejoin="round"/>
<path d="M81.3887 74.2236C81.3887 74.2236 82.189 72.822 82.525 74.5597L81.3887 74.2236Z" fill="#383742"/>
<path d="M151.275 117.471L58.4561 68.9785" stroke="#383742" stroke-linecap="round" stroke-linejoin="round"/>
<path d="M60.8945 87.9737L80.3984 100.549L96.4401 94.0048L74.8315 83.0215L60.8945 87.9737Z" fill="#383742" stroke="#383742" stroke-linecap="round" stroke-linejoin="round"/>
<path d="M73.4305 85.3496L65.6572 88.0955" stroke="white" stroke-width="0.5" stroke-linecap="round" stroke-linejoin="round"/>
<path d="M66.8779 89.0098L80.9034 97.8531L92.3333 93.4314" stroke="white" stroke-width="0.5" stroke-linecap="round" stroke-linejoin="round"/>
<path d="M141.258 28.5488C141.258 28.5488 152.427 30.3175 156.022 36.3044C159.617 42.2913 157.048 51.7005 155.849 54.9505C154.766 57.8997 157.967 60.3625 159.935 61.9632C164.357 65.5536 166.634 70.6207 164.334 76.1345C162.902 79.5657 156.53 81.1045 157.392 85.2343C158.255 89.3641 162.009 95.1564 157.22 99.4366C152.166 103.947 144.583 101.621 140.152 97.4071C135.169 92.6671 133.454 84.4207 136.005 78.0491C139.1 70.351 140.794 65.3899 137.884 62.1312C134.975 58.8724 131.212 56.8252 131.212 52.209C131.212 47.5928 135.32 46.2221 137.031 41.5971C138.742 36.9721 136.345 32.1878 136.345 32.1878L141.258 28.5488Z" fill="#383742" stroke="#383742" stroke-linecap="round" stroke-linejoin="round"/>
<path d="M151.72 36.5352C153.878 38.1667 155.841 40.9126 155.16 45.3784C153.781 54.4428 147.082 55.0353 151.415 60.7481C155.748 66.4608 159.693 63.8963 158.901 70.9886C158.11 78.0809 155.554 80.641 155.554 80.641" stroke="white" stroke-miterlimit="10"/>
<path d="M147.101 34.3516C147.964 34.5547 148.804 34.8512 149.603 35.2359" stroke="white" stroke-miterlimit="10"/>
<path d="M144.933 36.916C144.933 36.916 150.645 38.4901 152.418 43.2169C154.192 47.9436 147.112 51.8877 146.706 54.8414" stroke="white" stroke-miterlimit="10"/>
<path d="M144.681 114.028C144.601 111.317 144.566 107.7 144.729 103.884C145.074 96.0139 154.484 85.5744 154.824 83.6952C155.164 81.816 154.311 81.4844 154.311 81.4844L135.661 73.4414C126.99 79.1365 124.881 95.7 124.363 103.429L144.681 114.028Z" fill="#FFB42F" stroke="#383742" stroke-linecap="round" stroke-linejoin="round"/>
<path d="M152.287 81.9824C152.287 81.9824 153.852 82.9596 152.287 84.5249C150.722 86.0901 146.415 92.7447 144.646 96.6579" stroke="#383742" stroke-width="0.5" stroke-linecap="round" stroke-linejoin="round"/>
<path d="M143.87 98.6055C143.87 98.6055 142.499 101.736 142.698 104.867C142.897 107.997 142.893 110.933 142.893 110.933" stroke="#383742" stroke-width="0.5" stroke-linecap="round" stroke-linejoin="round"/>
<path d="M107.287 77.7361C108.109 79.8761 109.1 84.4791 108.441 87.11C108.101 88.4762 106.96 91.3459 105.947 93.7911L131.093 106.932C131.067 101.697 131.133 93.4329 131.801 91.8986C132.787 89.5949 140.684 67.8847 140.202 62.9501C139.72 58.0156 130.169 50.9409 130.169 50.9409L131.633 38.9141L122.918 44.1802C122.918 44.1802 121.927 48.9468 120.941 50.1008C119.955 51.2549 111.894 52.8953 109.591 55.849C107.287 58.8026 108.109 67.8581 108.109 68.3489C108.109 68.8397 106.465 75.6137 107.287 77.7361Z" fill="white"/>
<mask id="mask2_930_45515" style="mask-type:luminance" maskUnits="userSpaceOnUse" x="105" y="38" width="36" height="69">
<path d="M107.286 77.74C108.108 79.8801 109.099 84.483 108.44 87.1139C108.1 88.4802 106.959 91.3498 105.946 93.795L131.092 106.936C131.066 101.701 131.132 93.4368 131.8 91.9025C132.786 89.5988 140.683 67.8886 140.201 62.954C139.719 58.0195 130.168 50.9448 130.168 50.9448L131.632 38.918L122.917 44.1841C122.917 44.1841 121.926 48.9507 120.94 50.1047C119.954 51.2588 111.893 52.8992 109.59 55.8529C107.286 58.8065 108.108 67.862 108.108 68.3528C108.108 68.8436 106.464 75.6176 107.286 77.74Z" fill="white"/>
</mask>
<g mask="url(#mask2_930_45515)">
<g style="mix-blend-mode:multiply" opacity="0.5">
<path d="M140.186 62.9363C139.691 58.0018 130.153 50.9271 130.153 50.9271L131.63 38.918L122.915 44.1841C122.915 44.1841 122.628 45.5593 122.212 47.014C122.773 46.9654 123.401 46.8858 124.104 46.762C127.429 46.1739 129.194 44.9933 129.194 44.9933L127.425 52.4305C127.425 52.4305 136.428 57.7365 138.775 64.1744C139.094 65.0587 139.434 65.8856 139.784 66.708C140.081 65.4736 140.216 64.2057 140.186 62.9363Z" fill="#FFB42F"/>
</g>
</g>
<path d="M107.287 77.7361C108.109 79.8761 109.1 84.4791 108.441 87.11C108.101 88.4762 106.96 91.3459 105.947 93.7911L131.093 106.932C131.067 101.697 131.133 93.4329 131.801 91.8986C132.787 89.5949 140.684 67.8847 140.202 62.9501C139.72 58.0156 130.169 50.9409 130.169 50.9409L131.633 38.9141L122.918 44.1802C122.918 44.1802 121.927 48.9468 120.941 50.1008C119.955 51.2549 111.894 52.8953 109.591 55.849C107.287 58.8026 108.109 67.8581 108.109 68.3489C108.109 68.8397 106.465 75.6137 107.287 77.7361Z" stroke="#383742" stroke-linecap="round" stroke-linejoin="round"/>
<path d="M107.287 77.7315C108.109 79.8716 109.1 84.4745 108.441 87.1054C108.101 88.4717 106.96 91.3413 105.947 93.7865L131.093 106.928C131.067 101.692 131.133 93.4283 131.801 91.894C132.787 89.5904 140.684 67.8801 140.202 62.9455C139.897 59.8725 136.085 55.977 133.251 53.47C130.461 56.428 124.408 61.9463 119.986 59.4878C116.007 57.277 116.259 53.9166 116.847 51.918C114.158 52.9084 110.944 54.173 109.622 55.8709C107.318 58.8334 108.14 67.8801 108.14 68.3709C108.14 68.8617 106.465 75.6091 107.287 77.7315Z" fill="#383742" stroke="#383742" stroke-linecap="round" stroke-linejoin="round"/>
<path d="M121.977 71.8874L116.503 69.3185C116.503 69.3185 114.959 66.7539 114.106 66.7539C113.253 66.7539 112.735 70.3487 112.735 70.3487C112.735 70.3487 109.83 73.0857 110.856 75.8227C111.882 78.5597 115.645 82.6674 120.265 81.1287C124.886 79.5899 123.515 74.8013 123.515 74.8013C123.515 74.8013 125.399 71.5514 125.399 70.866C125.399 70.1807 121.977 71.8874 121.977 71.8874Z" fill="white" stroke="#383742" stroke-linecap="round" stroke-linejoin="round"/>
<path d="M110.25 18.842C110.25 18.842 111.404 24.767 111.236 28.8791C111.068 32.9913 109.428 34.6273 109.91 36.4446C110.392 38.2619 116.325 45.0004 119.942 45.6549C123.559 46.3093 132.115 40.7203 134.582 38.253C137.05 35.7857 137.377 32.1688 137.05 30.6876C136.722 29.2063 135.405 17.3652 130.47 12.5942C125.536 7.82328 112.554 8.31851 110.25 18.842Z" fill="white"/>
<mask id="mask3_930_45515" style="mask-type:luminance" maskUnits="userSpaceOnUse" x="109" y="9" width="29" height="37">
<path d="M110.248 18.8459C110.248 18.8459 111.402 24.7709 111.234 28.883C111.066 32.9952 109.426 34.6312 109.908 36.4485C110.39 38.2658 116.323 45.0044 119.94 45.6588C123.557 46.3132 132.113 40.7242 134.58 38.2569C137.048 35.7896 137.375 32.1727 137.048 30.6915C136.72 29.2102 135.403 17.3691 130.468 12.5981C125.534 7.82719 112.552 8.32241 110.248 18.8459Z" fill="white"/>
</mask>
<g mask="url(#mask3_930_45515)">
<g style="mix-blend-mode:multiply" opacity="0.5">
<path d="M130.495 12.5973C128.651 10.8287 125.68 9.7675 122.562 9.70117L122.359 15.8384C122.359 15.8384 121.377 21.9049 124.901 26.7952C128.425 31.6856 131.556 33.0607 131.945 35.0151C132.334 36.9694 130.565 38.915 126.073 42.2577C124.316 43.5873 122.434 44.7424 120.453 45.7066C124.304 45.8437 132.241 40.6217 134.602 38.2561C137.07 35.7889 137.397 32.172 137.07 30.6907C136.742 29.2095 135.416 17.3683 130.495 12.5973Z" fill="#FFB42F"/>
</g>
</g>
<path d="M110.25 18.842C110.25 18.842 111.404 24.767 111.236 28.8791C111.068 32.9913 109.428 34.6273 109.91 36.4446C110.392 38.2619 116.325 45.0004 119.942 45.6548C123.559 46.3093 132.115 40.7203 134.582 38.253C137.05 35.7857 137.377 32.1688 137.05 30.6876C136.722 29.2063 135.405 17.3652 130.47 12.5942C125.536 7.82328 112.554 8.31851 110.25 18.842Z" stroke="#383742" stroke-linecap="round" stroke-linejoin="round"/>
<path d="M116.501 31.0137C116.501 31.0137 116.006 34.1398 115.175 35.1258C115.82 35.6888 116.626 36.0351 117.478 36.1162" stroke="#383742" stroke-linecap="round" stroke-linejoin="round"/>
<path d="M116.828 38.9112C117.9 39.3862 119.068 39.604 120.238 39.5472C121.409 39.4904 122.551 39.1605 123.571 38.584" stroke="#383742" stroke-linecap="round" stroke-linejoin="round"/>
<path d="M122.749 29.3708C122.749 29.9191 122.493 30.3612 122.174 30.3612C121.856 30.3612 121.6 29.9191 121.6 29.3708C121.6 28.8225 121.856 28.3848 122.174 28.3848C122.493 28.3848 122.749 28.8269 122.749 29.3708Z" fill="#383742"/>
<path d="M114.61 28.0583C114.61 28.6022 114.353 29.0443 114.035 29.0443C113.716 29.0443 113.46 28.6022 113.46 28.0583C113.46 27.5144 113.716 27.0723 114.035 27.0723C114.353 27.0723 114.61 27.5144 114.61 28.0583Z" fill="#383742"/>
<path d="M112.39 23.7812C112.851 23.4933 113.365 23.301 113.902 23.216C114.439 23.1309 114.988 23.1547 115.516 23.286" stroke="#383742" stroke-linecap="round" stroke-linejoin="round"/>
<path d="M120.116 23.9447C120.116 23.9447 121.102 23.4495 123.242 24.7671" stroke="#383742" stroke-linecap="round" stroke-linejoin="round"/>
<path d="M121.105 14.4037C121.105 14.4037 116.502 18.1887 114.198 20.4879C111.894 22.7872 110.908 24.4364 107.455 22.9596C104.002 21.4828 101.53 16.3758 106.129 10.2916C110.727 4.20742 119.619 2.39455 128.334 4.86182C137.049 7.3291 140.675 12.9225 141.329 19.0111C141.984 25.0997 140.666 31.8383 137.571 33.6511C134.476 35.464 127.534 28.0578 125.066 23.4504C123.52 20.5387 122.196 17.5146 121.105 14.4037Z" fill="#383742" stroke="#383742" stroke-linecap="round" stroke-linejoin="round"/>
<path d="M121.105 14.4023C121.105 14.4023 108.685 16.2329 108.097 18.9876C107.509 21.7423 111.25 20.9596 111.25 20.9596" stroke="white" stroke-miterlimit="10"/>
<path d="M106.495 16.2188C105.655 18.0139 106.323 19.1857 106.323 19.1857" stroke="white" stroke-miterlimit="10"/>
<path d="M133.509 8.54948C133.509 8.54948 121.491 6.58185 121.491 11.8967C121.491 11.8967 114.204 9.33654 109.477 12.8827C108.768 13.3999 108.117 13.9929 107.536 14.6514" stroke="white" stroke-miterlimit="10"/>
<path d="M122.095 13.0781C122.095 13.0781 125.159 22.9649 131.553 25.4897" stroke="white" stroke-miterlimit="10"/>
<path d="M128.472 15.7383C130.935 17.7722 134.459 19.7797 138.641 19.5807" stroke="white" stroke-miterlimit="10"/>
<path d="M124.642 11.6992C125.217 12.4912 125.85 13.2404 126.534 13.941" stroke="white" stroke-miterlimit="10"/>
<path d="M109.099 24.6026L128.342 27.8923C128.342 27.8923 128.342 30.8194 127.519 32.3139C126.697 33.8084 125.711 33.8261 123.571 33.8261C121.431 33.8261 118.455 32.4996 118.309 32.0177C117.968 30.8504 118.198 26.9991 118.198 26.9991L116.664 26.7515C116.664 26.7515 116.863 31.2395 116.041 31.7347C115.218 32.2299 109.788 31.2395 108.802 29.9262C107.816 28.613 108.44 24.4346 109.099 24.6026Z" stroke="#383742" stroke-linecap="round" stroke-linejoin="round"/>
<path d="M128.343 27.8914L136.899 26.4102V27.5598L128.343 29.6999V27.8914Z" fill="#FFB42F" stroke="#383742" stroke-linecap="round" stroke-linejoin="round"/>
<path d="M143.213 28.9189C143.882 24.7598 142.315 21.0493 139.713 20.6312C137.112 20.2131 134.461 23.2458 133.792 27.4048C133.124 31.5639 134.691 35.2745 137.293 35.6926C139.894 36.1107 142.545 33.078 143.213 28.9189Z" fill="#FFB42F" stroke="#383742" stroke-linecap="round" stroke-linejoin="round"/>
<path d="M144.588 29.0852C144.026 32.5871 142.076 35.1826 140.241 34.8864C138.406 34.5901 137.367 31.5171 137.929 28.0152C138.49 24.5132 140.436 21.9221 142.275 22.2184C144.115 22.5146 145.149 25.5877 144.588 29.0852Z" fill="#FFB42F" stroke="#383742" stroke-linecap="round" stroke-linejoin="round"/>
<path d="M141.994 14.4041C142.312 19.0072 141.811 23.6303 140.513 28.0581C140.513 28.0581 140.349 30.7111 142.817 29.5394C145.284 28.3677 144.957 18.3526 144.625 14.2405C144.293 10.1284 141.176 11.278 141.994 14.4041Z" fill="white" stroke="#383742" stroke-linecap="round" stroke-linejoin="round"/>
<path d="M132.786 6.66972C132.786 6.66972 136.566 5.68369 138.534 9.14141C140.502 12.5991 140.179 15.7208 142.956 16.048C145.732 16.3752 145.918 13.2535 144.437 9.30502C142.956 5.35649 139.834 2.39399 135.554 2.06679C131.274 1.73959 129.169 5.19289 129.169 5.19289C129.169 5.19289 131.468 5.52009 132.786 6.66972Z" fill="#FFB42F" stroke="#383742" stroke-linecap="round" stroke-linejoin="round"/>
<path d="M132.456 68.1906L121.105 94.0174C121.105 94.0174 90.1802 99.7655 87.3857 99.7655C84.5912 99.7655 78.9846 101.738 77.8438 102.419C76.703 103.099 65.5207 108.233 67.674 108.551C69.0005 108.75 72.4317 106.862 72.4317 106.862C72.4317 106.862 67.0019 109.515 67.4927 110.316C67.9835 111.116 74.5674 107.848 74.5674 107.848C74.5674 107.848 68.5495 111.386 69.7831 111.585C70.9062 111.784 72.2637 111.142 73.4177 110.316C74.4242 109.698 75.5081 109.216 76.6411 108.883C76.6411 108.883 73.9881 110.652 73.6742 111.456C73.3603 112.261 74.333 111.784 75.319 111.456C77.1642 110.661 78.9481 109.729 80.656 108.671C81.3104 108.175 83.2868 107.189 84.6045 106.04L87.2354 103.736C87.2354 103.736 104.834 104.227 112.881 103.9C120.928 103.573 124.89 102.75 127.853 99.7876C130.815 96.8251 139.203 78.0729 141.175 72.9748C143.147 67.8766 141.834 64.9141 139.848 61.4785" fill="white"/>
<mask id="mask4_930_45515" style="mask-type:luminance" maskUnits="userSpaceOnUse" x="67" y="61" width="76" height="51">
<path d="M132.456 68.1906L121.105 94.0174C121.105 94.0174 90.1802 99.7655 87.3857 99.7655C84.5912 99.7655 78.9846 101.738 77.8438 102.419C76.703 103.099 65.5207 108.233 67.674 108.551C69.0005 108.75 72.4317 106.862 72.4317 106.862C72.4317 106.862 67.0019 109.515 67.4927 110.316C67.9835 111.116 74.5674 107.848 74.5674 107.848C74.5674 107.848 68.5495 111.386 69.7831 111.585C70.9062 111.784 72.2637 111.142 73.4177 110.316C74.4242 109.698 75.5081 109.216 76.6411 108.883C76.6411 108.883 73.9881 110.652 73.6742 111.456C73.3603 112.261 74.333 111.784 75.319 111.456C77.1642 110.661 78.9481 109.729 80.656 108.671C81.3104 108.175 83.2868 107.189 84.6045 106.04L87.2354 103.736C87.2354 103.736 104.834 104.227 112.881 103.9C120.928 103.573 124.89 102.75 127.853 99.7876C130.815 96.8251 139.203 78.0729 141.175 72.9748C143.147 67.8766 141.834 64.9141 139.848 61.4785" fill="white"/>
</mask>
<g mask="url(#mask4_930_45515)">
<g style="mix-blend-mode:multiply" opacity="0.5">
<path d="M132.917 85.112C127.611 95.0916 123.132 98.2221 118.436 100.588C113.74 102.953 87.9043 103.524 87.9043 103.524L88.992 103.785C93.6569 103.9 106.378 104.169 112.869 103.904C120.93 103.577 124.878 102.754 127.841 99.7918C130.803 96.8293 139.191 78.0771 141.163 72.979C142.078 70.6178 142.282 68.7165 142.047 67.0098L140.929 67.7128C138.611 73.6687 135.935 79.479 132.917 85.112Z" fill="#FFB42F"/>
</g>
</g>
<path d="M132.456 68.1906L121.105 94.0174C121.105 94.0174 90.1802 99.7655 87.3857 99.7655C84.5912 99.7655 78.9846 101.738 77.8438 102.419C76.703 103.099 65.5207 108.233 67.674 108.551C69.0005 108.75 72.4317 106.862 72.4317 106.862C72.4317 106.862 67.0019 109.515 67.4927 110.316C67.9835 111.116 74.5674 107.848 74.5674 107.848C74.5674 107.848 68.5495 111.386 69.7831 111.585C70.9062 111.784 72.2637 111.142 73.4177 110.316C74.4242 109.698 75.5081 109.216 76.6411 108.883C76.6411 108.883 73.9881 110.652 73.6742 111.456C73.3603 112.261 74.333 111.784 75.319 111.456C77.1642 110.661 78.9481 109.729 80.656 108.671C81.3104 108.175 83.2868 107.189 84.6045 106.04L87.2354 103.736C87.2354 103.736 104.834 104.227 112.881 103.9C120.928 103.573 124.89 102.75 127.853 99.7876C130.815 96.8251 139.203 78.0729 141.175 72.9748C143.147 67.8766 141.834 64.9141 139.848 61.4785" stroke="#383742" stroke-miterlimit="10"/>
<path d="M132.265 67.5401L128.812 76.4939C131.35 75.1409 136.112 73.3236 139.91 76.0517C140.445 74.796 140.883 73.7348 141.174 72.9787C143.151 67.8805 141.833 64.918 139.848 61.4824" fill="#383742"/>
<path d="M132.265 67.5401L128.812 76.4939C131.35 75.1409 136.112 73.3236 139.91 76.0517C140.445 74.796 140.883 73.7348 141.174 72.9787C143.151 67.8805 141.833 64.918 139.848 61.4824" stroke="#383742" stroke-linecap="round" stroke-linejoin="round"/>
<path d="M107.825 79.4238C104.487 80.401 91.3014 84.2611 90.0766 84.5485C89.318 84.7332 88.5486 84.8706 87.773 84.9597C87.773 84.9597 83.1656 82.9833 81.932 82.0812C80.6983 81.1792 79.2171 81.7496 78.4787 82.0812C77.7403 82.4129 77.1522 84.7121 78.5627 84.7121C79.9732 84.7121 80.2075 84.6281 81.7684 85.9457C83.3292 87.2634 83.3336 87.9222 84.4833 88.413C85.6329 88.9038 87.5298 88.5766 88.5158 88.413C89.4001 88.2671 104.69 87.2501 108.453 87.0512C108.944 84.9818 108.453 81.7496 107.825 79.4238Z" fill="white"/>
<mask id="mask5_930_45515" style="mask-type:luminance" maskUnits="userSpaceOnUse" x="77" y="79" width="32" height="10">
<path d="M107.827 79.4258C104.489 80.403 91.3034 84.2631 90.0786 84.5505C89.32 84.7352 88.5506 84.8725 87.7749 84.9617C87.7749 84.9617 83.1676 82.9852 81.9339 82.0832C80.7003 81.1812 79.219 81.7516 78.4806 82.0832C77.7422 82.4148 77.1541 84.7141 78.5646 84.7141C79.9751 84.7141 80.2095 84.6301 81.7703 85.9477C83.3312 87.2654 83.3356 87.9242 84.4852 88.415C85.6348 88.9058 87.5317 88.5786 88.5178 88.415C89.4021 88.2691 104.692 87.2521 108.455 87.0531C108.946 84.9838 108.455 81.7516 107.827 79.4258Z" fill="white"/>
</mask>
<g mask="url(#mask5_930_45515)">
<g style="mix-blend-mode:multiply" opacity="0.5">
<path d="M108.353 81.8047L88.5176 88.4372C89.4019 88.2912 104.692 87.2743 108.455 87.0753C108.791 85.6338 108.667 83.6662 108.353 81.8047Z" fill="#FFB42F"/>
</g>
</g>
<path d="M107.825 79.4238C104.487 80.401 91.3014 84.2611 90.0766 84.5485C89.318 84.7332 88.5486 84.8706 87.773 84.9597C87.773 84.9597 83.1656 82.9833 81.932 82.0812C80.6983 81.1792 79.2171 81.7496 78.4787 82.0812C77.7403 82.4129 77.1522 84.7121 78.5627 84.7121C79.9732 84.7121 80.2075 84.6281 81.7684 85.9457C83.3292 87.2634 83.3336 87.9222 84.4833 88.413C85.6329 88.9038 87.5298 88.5766 88.5158 88.413C89.4001 88.2671 104.69 87.2501 108.453 87.0512C108.944 84.9818 108.453 81.7496 107.825 79.4238Z" stroke="#383742" stroke-linecap="round" stroke-linejoin="round"/>
<path d="M74.859 84.793C74.859 84.793 73.1301 85.779 72.6482 86.9286C72.1662 88.0783 73.139 87.7511 73.4706 87.5079C73.8022 87.2647 75.1995 86.1062 75.1995 86.1062L74.859 84.793Z" fill="white" stroke="#383742" stroke-linecap="round" stroke-linejoin="round"/>
<path d="M75.3546 83.9688C75.0308 84.1764 74.7747 84.474 74.6177 84.8251C74.4606 85.1762 74.4093 85.5655 74.4702 85.9452C74.6338 87.3425 76.1151 89.3985 76.2831 88.5761C76.4511 87.7537 75.3546 83.9688 75.3546 83.9688Z" fill="white" stroke="#383742" stroke-linecap="round" stroke-linejoin="round"/>
<path d="M77.4096 82.7363C77.4096 82.7363 75.8444 83.1475 75.3536 83.97C74.8628 84.7924 75.6808 88.3341 76.26 88.5773C76.3829 88.6326 76.5168 88.659 76.6514 88.6546C76.7861 88.6502 76.9179 88.6151 77.0369 88.5519C77.1559 88.4888 77.259 88.3993 77.3381 88.2903C77.4173 88.1813 77.4705 88.0556 77.4937 87.9229C77.6573 87.3437 77.4096 82.7363 77.4096 82.7363Z" fill="white" stroke="#383742" stroke-linecap="round" stroke-linejoin="round"/>
<path d="M79.3853 81.9121C79.3853 81.9121 77.3248 81.9121 77.0816 82.9026C76.8384 83.893 76.4228 88.1643 76.834 88.8231C77.2452 89.482 77.9041 89.2344 78.2313 88.4119C78.5585 87.5895 79.3853 81.9121 79.3853 81.9121Z" fill="white" stroke="#383742" stroke-linecap="round" stroke-linejoin="round"/>
<path d="M81.257 74.25L77.8789 89.6329L78.4095 91.5961C78.4175 91.6262 78.4332 91.6536 78.4552 91.6757C78.4771 91.6977 78.5045 91.7136 78.5346 91.7216C78.5646 91.7297 78.5963 91.7297 78.6263 91.7217C78.6564 91.7136 78.6838 91.6977 78.7058 91.6757L80.1826 90.2077L82.6499 74.6612L81.257 74.25Z" fill="#383742"/>
<path d="M84.5678 86.666C84.5678 86.666 82.6754 87.4089 81.1941 88.0677C79.7129 88.7265 78.2316 89.0537 78.3952 89.9601C78.5588 90.8666 79.2177 90.535 80.2877 90.2078C81.756 89.6957 83.2733 89.3371 84.8155 89.1377C86.8715 88.8901 88.5164 86.9976 88.5164 86.9976" fill="white"/>
<path d="M84.5678 86.666C84.5678 86.666 82.6754 87.4089 81.1941 88.0677C79.7129 88.7265 78.2316 89.0537 78.3952 89.9601C78.5588 90.8666 79.2177 90.535 80.2877 90.2078C81.756 89.6957 83.2733 89.3371 84.8155 89.1377C86.8715 88.8901 88.5164 86.9976 88.5164 86.9976" stroke="#383742" stroke-linecap="round" stroke-linejoin="round"/>
<path d="M77.9219 89.873L78.2668 91.3233C78.2837 91.3932 78.3186 91.4575 78.3681 91.5097C78.4176 91.5619 78.4799 91.6002 78.5488 91.6207C78.6177 91.6413 78.6908 91.6435 78.7608 91.627C78.8308 91.6105 78.8952 91.5759 78.9477 91.5267L79.7569 90.7574" stroke="white" stroke-width="0.5" stroke-linecap="round" stroke-linejoin="round"/>
<path d="M77.8818 89.6347L79.6284 81.8438" stroke="white" stroke-width="0.5" stroke-linecap="round" stroke-linejoin="round"/>
<path d="M17.4541 59.082L39.7613 79.8284" stroke="#383742" stroke-width="0.5" stroke-linecap="round" stroke-linejoin="round"/>
</svg>
