<svg width="405" height="329" viewBox="0 0 405 329" fill="none" xmlns="http://www.w3.org/2000/svg">
<path fill-rule="evenodd" clip-rule="evenodd" d="M40 0C17.9086 0 0 17.9086 0 40V289C0 311.091 17.9086 329 40 329H365C387.091 329 405 311.091 405 289V269.78V40C405 17.9086 387.091 0 365 0H40ZM203.897 230.999L203.897 230.999H259.155C320.371 230.999 369.996 181.374 369.996 120.158C369.996 73.1266 331.87 35 284.838 35H271.119C245.945 35 223.874 48.2849 211.534 68.2265C208.666 72.8611 196.329 72.8612 193.461 68.2266C181.122 48.2856 159.051 35.0011 133.877 35.0011H120.158C73.1266 35.0011 35 73.1277 35 120.159C35 181.375 84.6251 231 145.841 231H203.896C203.896 231 203.896 231 203.896 231C203.896 231 203.897 231 203.897 230.999C203.897 230.999 203.897 230.999 203.897 230.999Z" fill="white"/>
</svg>
