<svg width="405" height="329" viewBox="0 0 405 329" fill="none" xmlns="http://www.w3.org/2000/svg">
<path fill-rule="evenodd" clip-rule="evenodd" d="M40 0C17.9086 0 0 17.9086 0 40V289C0 311.091 17.9086 329 40 329H365C387.091 329 405 311.091 405 289V269.78V40C405 17.9086 387.091 0 365 0H40ZM209.968 231C233.426 230.993 254.899 222.182 271.459 207.591C281.01 214.513 292.028 218.458 303.762 218.455C340.281 218.443 369.901 180.182 369.92 132.997C369.94 85.8115 340.351 47.5698 303.832 47.5817C292.123 47.5854 281.124 51.5213 271.581 58.4227C255.025 43.8111 233.537 34.9926 210.051 35C182.912 35.0085 158.431 46.8001 141.139 65.6928C130.004 54.435 116.004 47.7326 100.796 47.7375C64.4774 47.7493 35.0194 86.01 35 133.195C34.9806 180.381 64.4071 218.622 100.726 218.611C115.994 218.606 130.049 211.841 141.215 200.496C158.484 219.293 182.899 231.009 209.968 231Z" fill="white"/>
</svg>
