<svg width="405" height="329" viewBox="0 0 405 329" fill="none" xmlns="http://www.w3.org/2000/svg">
<path fill-rule="evenodd" clip-rule="evenodd" d="M40 0C17.9086 0 0 17.9086 0 40V289C0 311.091 17.9086 329 40 329H365C387.091 329 405 311.091 405 289V269.78V40C405 17.9086 387.091 0 365 0H40ZM211.236 37.4163C206.833 31.6626 198.167 31.6626 193.764 37.4163L179.29 56.3314C176.078 60.5295 170.333 61.8489 165.611 59.4733L135.125 44.1368C127.384 40.2428 118.39 46.4114 119.234 55.035L119.792 60.7433C120.508 68.06 113.984 74.0065 106.765 72.6164L75.9669 66.6862C67.1522 64.9889 61.4578 75.7205 67.8049 82.0684C73.4551 87.7193 69.6074 97.3878 61.6195 97.6113L44.0476 98.1029C34.6851 98.3648 32.3251 111.226 40.9847 114.795C48.6865 117.969 47.9221 129.118 39.8593 131.211L38.6567 131.524C29.0176 134.026 29.8397 147.975 39.706 149.328L47.412 150.384C55.4205 151.483 57.6856 161.985 50.8417 166.287C43.1844 171.1 47.1095 182.952 56.1258 182.243L81.1657 180.274C89.2434 179.638 94.8597 188.145 91.1018 195.324C86.8158 203.511 94.6432 212.765 103.428 209.897L135.731 199.35C141.535 197.455 147.771 200.648 149.626 206.465L154.164 220.699C156.485 227.978 165.338 230.732 171.379 226.055L195.766 207.174C199.731 204.104 205.269 204.104 209.234 207.174L233.621 226.055C239.662 230.732 248.515 227.978 250.836 220.699L255.374 206.465C257.229 200.648 263.465 197.455 269.269 199.35L301.572 209.897C310.357 212.765 318.184 203.511 313.898 195.324C310.14 188.145 315.757 179.638 323.834 180.274L348.874 182.243C357.89 182.952 361.816 171.1 354.158 166.287C347.314 161.985 349.579 151.483 357.588 150.384L365.294 149.328C375.16 147.975 375.982 134.026 366.343 131.524L365.141 131.211C357.078 129.118 356.314 117.969 364.015 114.795C372.675 111.226 370.315 98.3648 360.952 98.1029L343.381 97.6113C335.393 97.3878 331.545 87.7193 337.195 82.0684C343.542 75.7205 337.848 64.9889 329.033 66.6862L298.235 72.6164C291.016 74.0065 284.492 68.06 285.208 60.7433L285.766 55.035C286.611 46.4114 277.616 40.2428 269.875 44.1368L239.389 59.4733C234.667 61.8489 228.922 60.5295 225.71 56.3314L211.236 37.4163Z" fill="white"/>
</svg>
