<svg width="250" height="250" viewBox="0 0 250 250" fill="none" xmlns="http://www.w3.org/2000/svg">
<path d="M119.249 24.2743C120.685 18.2104 129.315 18.2104 130.751 24.2743C132.029 29.6679 139.36 30.4939 141.806 25.5199C144.556 19.9278 152.969 21.848 153.021 28.0794C153.066 33.6222 160.03 36.0589 163.522 31.7538C167.447 26.9139 175.222 30.658 173.885 36.7446C172.696 42.1586 178.943 46.0837 183.305 42.6636C188.209 38.8184 194.955 44.1987 192.298 49.8353C189.934 54.849 195.151 60.0658 200.165 57.702C205.801 55.0445 211.182 61.7911 207.336 66.6951C203.916 71.0571 207.841 77.3039 213.255 76.115C219.342 74.7784 223.086 82.5531 218.246 86.4785C213.941 89.9701 216.378 96.9336 221.921 96.9793C228.152 97.0307 230.072 105.444 224.48 108.194C219.506 110.64 220.332 117.971 225.726 119.249C231.79 120.685 231.79 129.315 225.726 130.751C220.332 132.029 219.506 139.36 224.48 141.806C230.072 144.556 228.152 152.969 221.921 153.021C216.378 153.066 213.941 160.03 218.246 163.522C223.086 167.447 219.342 175.222 213.255 173.885C207.841 172.696 203.916 178.943 207.336 183.305C211.182 188.209 205.801 194.955 200.165 192.298C195.151 189.934 189.934 195.151 192.298 200.165C194.955 205.801 188.209 211.182 183.305 207.336C178.943 203.916 172.696 207.841 173.885 213.255C175.222 219.342 167.447 223.086 163.522 218.246C160.03 213.941 153.066 216.378 153.021 221.921C152.969 228.152 144.556 230.072 141.806 224.48C139.36 219.506 132.029 220.332 130.751 225.726C129.315 231.79 120.685 231.79 119.249 225.726C117.971 220.332 110.64 219.506 108.194 224.48C105.444 230.072 97.0307 228.152 96.9793 221.921C96.9336 216.378 89.9701 213.941 86.4785 218.246C82.5531 223.086 74.7784 219.342 76.115 213.255C77.3039 207.841 71.0571 203.916 66.6951 207.336C61.7911 211.182 55.0445 205.801 57.702 200.165C60.0658 195.151 54.849 189.934 49.8353 192.298C44.1987 194.955 38.8184 188.209 42.6636 183.305C46.0837 178.943 42.1586 172.696 36.7446 173.885C30.658 175.222 26.9139 167.447 31.7539 163.522C36.0589 160.03 33.6222 153.066 28.0794 153.021C21.848 152.969 19.9278 144.556 25.5199 141.806C30.4939 139.36 29.6679 132.029 24.2743 130.751C18.2104 129.315 18.2104 120.685 24.2743 119.249C29.6679 117.971 30.4939 110.64 25.5199 108.194C19.9278 105.444 21.848 97.0307 28.0794 96.9793C33.6222 96.9336 36.0589 89.9701 31.7538 86.4785C26.9139 82.5531 30.658 74.7784 36.7446 76.115C42.1586 77.3039 46.0837 71.0571 42.6636 66.6951C38.8184 61.7911 44.1987 55.0445 49.8353 57.702C54.849 60.0658 60.0658 54.849 57.702 49.8353C55.0445 44.1987 61.7911 38.8184 66.6951 42.6636C71.0571 46.0837 77.3039 42.1586 76.115 36.7446C74.7784 30.658 82.5531 26.9139 86.4785 31.7538C89.9701 36.0589 96.9336 33.6222 96.9793 28.0794C97.0307 21.848 105.444 19.9278 108.194 25.5199C110.64 30.4939 117.971 29.6679 119.249 24.2743Z" fill="white"/>
<path d="M206.541 136.985L195.389 135.95L195.591 133.767L202.824 134.439L197.938 130.82L197.961 130.565L203.415 127.905L196.198 127.236L196.402 125.037L207.554 126.072L207.344 128.334L201.773 131.047L206.751 134.723L206.541 136.985Z" fill="#383742"/>
<path d="M193.125 145.309L199.698 147.171L194.433 140.69L194.891 139.074L205.667 142.126L205.065 144.251L198.476 142.384L203.757 148.869L203.299 150.485L192.523 147.433L193.125 145.309Z" fill="#383742"/>
<path d="M199.791 159.259C199.338 160.237 198.628 160.907 197.66 161.27C196.693 161.633 195.73 161.593 194.772 161.149C193.814 160.706 193.16 159.997 192.811 159.025C192.462 158.052 192.514 157.077 192.967 156.099L193.794 154.313L190.454 152.767L191.382 150.763L201.545 155.47L199.791 159.259ZM194.84 156.967C194.642 157.392 194.624 157.813 194.784 158.228C194.955 158.648 195.257 158.958 195.693 159.16C196.138 159.366 196.571 159.396 196.991 159.25C197.412 159.104 197.72 158.818 197.918 158.392L198.745 156.606L195.667 155.181L194.84 156.967Z" fill="#383742"/>
<path d="M180.431 172.845L179.687 173.787L176.348 171.147L177.717 169.415L179.399 170.745L183.24 165.888L181.558 164.558L182.927 162.826L186.266 165.465L185.591 166.319C185.885 167.34 186.685 168.367 187.99 169.399L192.144 172.683L187.56 178.482L180.431 172.845ZM184.122 168.176L181.8 171.113L187.31 175.47L189.156 173.135L186.595 171.111C185.324 170.105 184.499 169.127 184.122 168.176Z" fill="#383742"/>
<path d="M171.723 178.546L176.302 183.616L175.285 175.328L176.532 174.202L184.039 182.515L182.4 183.994L177.81 178.912L178.838 187.212L177.591 188.338L170.084 180.025L171.723 178.546Z" fill="#383742"/>
<path d="M165.611 190.303C164.409 190.417 163.477 189.97 162.815 188.962C162.264 188.124 162.136 187.239 162.429 186.306C162.722 185.373 163.368 184.579 164.366 183.922C166.105 182.78 167.751 182.751 169.306 183.836L168.303 185.777C167.421 185.055 166.489 185.016 165.508 185.661C165 185.995 164.683 186.356 164.556 186.746C164.429 187.136 164.486 187.513 164.726 187.879C164.966 188.244 165.29 188.446 165.698 188.484C166.097 188.529 166.542 188.389 167.032 188.067L168.196 187.303L169.276 188.948L168.394 189.528C167.93 189.832 167.634 190.167 167.504 190.533C167.38 190.908 167.432 191.27 167.661 191.617C167.889 191.965 168.179 192.164 168.531 192.213C168.889 192.272 169.286 192.158 169.723 191.871C170.525 191.343 170.829 190.582 170.634 189.587L172.796 189.468C173.036 191.212 172.389 192.588 170.856 193.596C169.929 194.205 169.007 194.453 168.091 194.34C167.175 194.228 166.447 193.761 165.908 192.941C165.357 192.103 165.258 191.224 165.611 190.303Z" fill="#383742"/>
<path d="M152.269 190.744L153.72 192.297L157.778 190.436L157.548 188.323L159.715 187.33L160.821 199.144L158.334 200.285L150.088 191.745L152.269 190.744ZM157.998 192.606L155.206 193.886L158.51 197.405L157.998 192.606Z" fill="#383742"/>
<path d="M149.96 204.627L150.435 206.355L145.961 207.586L145.486 205.858L149.96 204.627ZM142.414 194.025L144.226 200.612L147.042 192.752L148.662 192.306L151.632 203.105L149.503 203.691L147.687 197.088L144.875 204.964L143.255 205.409L140.285 194.61L142.414 194.025Z" fill="#383742"/>
<path d="M131.764 207.154L129.583 207.382L128.42 196.243L130.6 196.015L131.082 200.63L135.219 200.198L134.737 195.583L136.933 195.353L138.097 206.493L135.901 206.722L135.439 202.298L131.301 202.73L131.764 207.154Z" fill="#383742"/>
<path d="M118.344 196.012L118.906 198.061L123.363 198.302L124.143 196.325L126.524 196.454L122.005 207.426L119.273 207.278L115.947 195.882L118.344 196.012ZM122.549 200.325L119.481 200.159L120.768 204.811L122.549 200.325Z" fill="#383742"/>
<path d="M43.1636 139.235L42.7334 137.069L51.3446 138.784C53.6535 139.239 54.9499 140.482 55.2339 142.513L53.2095 142.916C53.1454 142.319 52.9734 141.864 52.6935 141.55C52.401 141.227 51.9903 140.994 51.4612 140.849L44.5012 145.967L44.0709 143.801L48.8982 140.346L43.1636 139.235Z" fill="#383742"/>
<path d="M47.3996 120.311C47.9912 119.346 48.8575 118.878 49.9984 118.909C50.9474 118.935 51.7167 119.292 52.3063 119.98C52.8959 120.668 53.1775 121.503 53.151 122.483L53.0226 127.234L41.8267 126.931L41.946 122.517C41.9719 121.557 42.2923 120.76 42.9069 120.126C43.5113 119.481 44.2719 119.17 45.1889 119.195C46.1166 119.22 46.8535 119.592 47.3996 120.311ZM44.0093 122.573L43.9496 124.78L46.4127 124.846L46.4724 122.639C46.4816 122.298 46.3719 122.012 46.1434 121.782C45.9151 121.541 45.6251 121.416 45.2732 121.406C44.9213 121.397 44.6251 121.501 44.3845 121.718C44.1438 121.936 44.0188 122.221 44.0093 122.573ZM51.0877 122.428C51.0978 122.055 50.9836 121.742 50.745 121.49C50.4957 121.238 50.1791 121.107 49.7952 121.096C49.422 121.086 49.1095 121.201 48.8576 121.439C48.5951 121.677 48.4588 121.983 48.4487 122.356L48.38 124.899L51.019 124.971L51.0877 122.428Z" fill="#383742"/>
<path d="M54.5675 110.168L52.4659 110.483L51.6967 114.88L53.5668 115.889L53.156 118.238L42.799 112.446L43.2704 109.751L54.9811 107.804L54.5675 110.168ZM49.7849 113.831L50.3142 110.805L45.542 111.529L49.7849 113.831Z" fill="#383742"/>
<path d="M57.2399 101.428C56.6836 103.019 55.6954 104.148 54.2755 104.815C52.8556 105.483 51.3704 105.545 49.8198 105.003C48.2592 104.457 47.1366 103.483 46.4521 102.079C45.7576 100.673 45.6885 99.1739 46.2449 97.583C46.5794 96.6265 47.114 95.8247 47.8488 95.1776C48.5771 94.517 49.403 94.0939 50.3267 93.9085L50.7403 96.0702C50.1755 96.1665 49.6777 96.4105 49.2469 96.8022C48.806 97.1905 48.4799 97.6866 48.2687 98.2908C47.9095 99.3178 47.9412 100.261 48.3638 101.121C48.7899 101.97 49.5164 102.575 50.5434 102.934C51.5604 103.29 52.5002 103.268 53.3629 102.869C54.2291 102.46 54.8418 101.742 55.201 100.715C55.4123 100.111 55.4715 99.5215 55.3787 98.9466C55.2794 98.3582 55.0422 97.8571 54.6671 97.4434L56.3377 96.0106C56.9445 96.7313 57.3336 97.5736 57.505 98.5376C57.6663 99.498 57.5779 100.462 57.2399 101.428Z" fill="#383742"/>
<path d="M57.0738 76.9016L66.4564 83.0176L65.2507 84.8673L57.6373 79.9046L55.4793 83.2154L63.0927 88.1781L61.8869 90.0278L52.5043 83.9118L57.0738 76.9016Z" fill="#383742"/>
<path d="M73.5344 72.5422C73.5846 74.1329 73.0578 75.5219 71.9537 76.7092C70.8497 77.8966 69.5026 78.5229 67.9124 78.5883C66.3217 78.6385 64.9288 78.108 63.7337 76.9967C62.5385 75.8854 61.9121 74.5383 61.8546 72.9554C61.7965 71.3575 62.3195 69.9648 63.4236 68.7775C64.5276 67.5901 65.8786 66.9674 67.4766 66.9093C69.0667 66.844 70.4593 67.367 71.6545 68.4783C72.8497 69.5896 73.4763 70.9442 73.5344 72.5422ZM67.8678 76.4275C68.8399 76.3847 69.6746 75.9883 70.3719 75.2384C71.0692 74.4885 71.4039 73.6272 71.3761 72.6546C71.3405 71.6747 70.9321 70.8216 70.151 70.0953C69.3698 69.3689 68.4893 69.0235 67.5094 69.0592C66.5295 69.0948 65.691 69.4875 64.9937 70.2374C64.2964 70.9873 63.9655 71.8522 64.0011 72.8321C64.0368 73.812 64.4452 74.6651 65.2263 75.3914C66.0075 76.1178 66.888 76.4632 67.8678 76.4275Z" fill="#383742"/>
<path d="M82.4007 64.361L83.3555 63.634L85.9338 67.0201L84.1771 68.3577L82.8783 66.652L77.9519 70.4032L79.2508 72.109L77.4941 73.4466L74.9157 70.0605L75.7813 69.4014C75.7501 68.3392 75.2305 67.1461 74.2224 65.8222L71.014 61.6087L76.8951 57.1305L82.4007 64.361ZM77.6653 67.9668L80.6441 65.6986L76.3888 60.1103L74.0211 61.9132L75.9985 64.5101C76.9807 65.8 77.5363 66.9522 77.6653 67.9668Z" fill="#383742"/>
<path d="M90.9305 49.1943C91.9163 48.7598 92.8922 48.7261 93.8582 49.093C94.8242 49.46 95.5202 50.1266 95.946 51.093C96.3718 52.0593 96.3942 53.0227 96.0132 53.9833C95.6322 54.9438 94.9488 55.6413 93.9629 56.0757L92.162 56.8693L93.646 60.2369L91.6255 61.1272L87.1091 50.8783L90.9305 49.1943ZM93.1306 54.187C93.5601 53.9977 93.8519 53.6943 94.0059 53.2768C94.1556 52.8494 94.1337 52.4161 93.9401 51.9769C93.7423 51.5279 93.4373 51.2193 93.0252 51.0513C92.6131 50.8832 92.1923 50.8938 91.7628 51.083L89.9619 51.8766L91.3297 54.9806L93.1306 54.187Z" fill="#383742"/>
<path d="M103.811 44.6707L105.937 44.077L104.882 52.7937C104.604 55.1305 103.463 56.5177 101.459 56.9553L100.904 54.9673C101.494 54.8581 101.935 54.652 102.227 54.349C102.526 54.0329 102.728 53.6055 102.832 53.0669L97.1994 46.5162L99.3261 45.9225L103.138 50.4732L103.811 44.6707Z" fill="#383742"/>
<path d="M119.197 53.3613L116.673 53.6742L112.058 48.9581L112.703 54.1663L110.512 54.4379L109.134 43.3229L111.326 43.0513L111.934 47.9578L115.136 42.579L117.661 42.2661L114.218 48.1745L119.197 53.3613Z" fill="#383742"/>
<path d="M131.719 52.0517C130.534 53.1136 129.131 53.6039 127.512 53.5226C125.893 53.4413 124.546 52.813 123.473 51.6377C122.411 50.4523 121.921 49.0446 122.003 47.4147C122.085 45.7847 122.713 44.4385 123.888 43.3761C125.074 42.3035 126.477 41.8079 128.096 41.8892C129.715 41.9705 131.061 42.6041 132.134 43.7901C133.207 44.9654 133.702 46.368 133.621 47.9979C133.539 49.6279 132.905 50.9791 131.719 52.0517ZM125.099 50.2134C125.757 50.93 126.598 51.3139 127.62 51.3653C128.643 51.4166 129.518 51.1188 130.244 50.4717C130.972 49.814 131.362 48.9525 131.415 47.8872C131.469 46.8219 131.167 45.9256 130.509 45.1984C129.851 44.4711 129.011 44.0819 127.988 44.0305C126.966 43.9792 126.091 44.2823 125.364 44.94C124.636 45.5977 124.246 46.4592 124.192 47.5246C124.139 48.5899 124.441 49.4862 125.099 50.2134Z" fill="#383742"/>
<path d="M139.567 42.2684L139.963 40.5207L144.488 41.5461L144.092 43.2938L139.567 42.2684ZM141.22 55.1767L142.729 48.5136L136.538 54.116L134.9 53.7447L137.375 42.8216L139.528 43.3095L138.015 49.9882L144.21 44.3702L145.848 44.7415L143.373 55.6646L141.22 55.1767Z" fill="#383742"/>
<circle cx="177" cy="76" r="3" fill="#DE755E"/>
<circle cx="75" cy="183" r="3" fill="#DE755E"/>
</svg>
