<svg width="57" height="57" viewBox="0 0 57 57" fill="none" xmlns="http://www.w3.org/2000/svg">
<path d="M20.6693 23.3346C23.6148 23.3346 26.0026 20.9468 26.0026 18.0013C26.0026 15.0558 23.6148 12.668 20.6693 12.668C17.7238 12.668 15.3359 15.0558 15.3359 18.0013C15.3359 20.9468 17.7238 23.3346 20.6693 23.3346Z" fill="white"/>
<path d="M28.6672 2H20.6672C7.33382 2 2.00049 7.33333 2.00049 20.6667V36.6667C2.00049 50 7.33382 55.3333 20.6672 55.3333H36.6672C50.0005 55.3333 55.3338 50 55.3338 36.6667V26" stroke="white" stroke-width="3" stroke-linecap="round" stroke-linejoin="round"/>
<path d="M39.6592 10.2936C38.7792 7.52023 39.8192 4.08022 42.6992 3.14689C44.2192 2.66689 46.1125 3.06689 47.1792 4.53356C48.1925 3.01356 50.1392 2.64022 51.6592 3.14689C54.5659 4.08022 55.6059 7.52023 54.7258 10.2936C53.3392 14.6669 48.5392 16.9602 47.2058 16.9602C45.8458 16.9602 41.0725 14.7202 39.6592 10.2936Z" fill="white"/>
<path d="M3.79004 47.1977L16.9367 38.371C19.0434 36.9577 22.0834 37.1177 23.9767 38.7444L24.8567 39.5177C26.9367 41.3044 30.2967 41.3044 32.3767 39.5177L43.47 29.9977C45.55 28.211 48.91 28.211 50.99 29.9977L55.3367 33.731" stroke="white" stroke-width="1.5" stroke-linecap="round" stroke-linejoin="round"/>
<path d="M54.7769 33.6951V39.7463C54.7769 49.3646 49.0428 55.0987 39.4245 55.0987H17.2811C10.543 55.0987 5.68092 52.2713 3.40845 47.2507L3.69911 47.0393L16.6998 38.3194C18.8137 36.8925 21.7996 37.051 23.6757 38.6893L24.5741 39.4292C26.6352 41.1996 29.9647 41.1996 32.0257 39.4292L43.0181 29.9958C45.0792 28.2254 48.4087 28.2254 50.4697 29.9958L54.7769 33.6951Z" fill="white"/>
</svg>
