<svg width="24" height="24" viewBox="0 0 24 24" fill="none" xmlns="http://www.w3.org/2000/svg">
<path d="M21.6799 16.9601L18.5499 9.65013C17.4899 7.17013 15.5399 7.07013 14.2299 9.43013L12.3399 12.8401C11.3799 14.5701 9.58993 14.7201 8.34993 13.1701L8.12993 12.8901C6.83993 11.2701 5.01993 11.4701 4.08993 13.3201L2.36993 16.7701C1.15993 19.1701 2.90993 22.0001 5.58993 22.0001H18.3499C20.9499 22.0001 22.6999 19.3501 21.6799 16.9601Z" fill="#86BDD7"/>
<path d="M6.96997 8C8.62682 8 9.96997 6.65685 9.96997 5C9.96997 3.34315 8.62682 2 6.96997 2C5.31312 2 3.96997 3.34315 3.96997 5C3.96997 6.65685 5.31312 8 6.96997 8Z" fill="#86BDD7"/>
</svg>
