<svg width="25" height="25" viewBox="0 0 25 25" fill="none" xmlns="http://www.w3.org/2000/svg">
<path d="M19.5495 6.08709H19.1552L15.8239 2.75574C15.5578 2.48962 15.1241 2.48962 14.8481 2.75574C14.582 3.02185 14.582 3.45552 14.8481 3.73149L17.2037 6.08709H7.62364L9.97924 3.73149C10.2454 3.46537 10.2454 3.03171 9.97924 2.75574C9.71312 2.48962 9.27946 2.48962 9.00349 2.75574L5.68199 6.08709H5.28775C4.4007 6.08709 2.55762 6.08709 2.55762 8.61024C2.55762 9.56628 2.75474 10.1971 3.16869 10.611C3.40524 10.8574 3.69107 10.9856 3.9966 11.0545C4.28243 11.1235 4.58797 11.1334 4.88365 11.1334H19.9437C20.2493 11.1334 20.5351 11.1137 20.8111 11.0545C21.639 10.8574 22.2698 10.2661 22.2698 8.61024C22.2698 6.08709 20.4267 6.08709 19.5495 6.08709Z" fill="#fff"/>
<path d="M19.954 11.1321H4.88412C4.58843 11.1321 4.2829 11.1222 3.99707 11.0532L5.23893 18.6227C5.5149 20.3179 6.25411 22.2694 9.53618 22.2694H15.0654C18.3869 22.2694 18.9783 20.6038 19.3331 18.741L20.8214 11.0532C20.5454 11.1124 20.2497 11.1321 19.954 11.1321ZM11.0442 17.4991C11.0442 17.8835 10.7386 18.189 10.3542 18.189C9.96985 18.189 9.66431 17.8835 9.66431 17.4991V14.2466C9.66431 13.8622 9.96985 13.5567 10.3542 13.5567C10.7386 13.5567 11.0442 13.8622 11.0442 14.2466V17.4991ZM15.2626 17.4991C15.2626 17.8835 14.957 18.189 14.5726 18.189C14.1882 18.189 13.8827 17.8835 13.8827 17.4991V14.2466C13.8827 13.8622 14.1882 13.5567 14.5726 13.5567C14.957 13.5567 15.2626 13.8622 15.2626 14.2466V17.4991Z" fill="#fff"/>
</svg>
