<svg width="24" height="25" viewBox="0 0 24 25" fill="none" xmlns="http://www.w3.org/2000/svg">
<path id="Vector" d="M24 15.5V22.5C24 23.0304 23.7893 23.5391 23.4142 23.9142C23.0391 24.2893 22.5304 24.5 22 24.5H2C1.46957 24.5 0.960859 24.2893 0.585786 23.9142C0.210714 23.5391 0 23.0304 0 22.5V15.5C0 15.2348 0.105357 14.9804 0.292893 14.7929C0.48043 14.6054 0.734784 14.5 1 14.5C1.26522 14.5 1.51957 14.6054 1.70711 14.7929C1.89464 14.9804 2 15.2348 2 15.5V22.5H22V15.5C22 15.2348 22.1054 14.9804 22.2929 14.7929C22.4804 14.6054 22.7348 14.5 23 14.5C23.2652 14.5 23.5196 14.6054 23.7071 14.7929C23.8946 14.9804 24 15.2348 24 15.5ZM11.2925 16.2075C11.3854 16.3005 11.4957 16.3742 11.6171 16.4246C11.7385 16.4749 11.8686 16.5008 12 16.5008C12.1314 16.5008 12.2615 16.4749 12.3829 16.4246C12.5043 16.3742 12.6146 16.3005 12.7075 16.2075L17.7075 11.2075C17.8004 11.1146 17.8741 11.0043 17.9244 10.8829C17.9747 10.7615 18.0006 10.6314 18.0006 10.5C18.0006 10.3686 17.9747 10.2385 17.9244 10.1171C17.8741 9.99571 17.8004 9.88541 17.7075 9.7925C17.6146 9.69959 17.5043 9.62589 17.3829 9.57561C17.2615 9.52532 17.1314 9.49944 17 9.49944C16.8686 9.49944 16.7385 9.52532 16.6171 9.57561C16.4957 9.62589 16.3854 9.69959 16.2925 9.7925L13 13.0863V1.5C13 1.23478 12.8946 0.98043 12.7071 0.792893C12.5196 0.605357 12.2652 0.5 12 0.5C11.7348 0.5 11.4804 0.605357 11.2929 0.792893C11.1054 0.98043 11 1.23478 11 1.5V13.0863L7.7075 9.7925C7.51986 9.60486 7.26536 9.49944 7 9.49944C6.73464 9.49944 6.48014 9.60486 6.2925 9.7925C6.10486 9.98014 5.99944 10.2346 5.99944 10.5C5.99944 10.7654 6.10486 11.0199 6.2925 11.2075L11.2925 16.2075Z" fill="#383742"/>
</svg>
