<svg width="41" height="41" viewBox="0 0 41 41" fill="none" xmlns="http://www.w3.org/2000/svg">
<g filter="url(#filter0_d_5654_73030)">
<path d="M38.1637 18.6101L35.5981 15.6014C35.123 15.0301 34.7239 13.9637 34.7239 13.202V9.96473C34.7239 7.94613 33.0705 6.28943 31.056 6.28943H27.8252C27.065 6.28943 25.9817 5.88953 25.4116 5.41343L22.4088 2.84263C21.0975 1.71913 18.95 1.71913 17.6386 2.84263L14.5979 5.41343C14.0277 5.88953 12.9635 6.28943 12.2033 6.28943H8.91553C6.90103 6.28943 5.24763 7.94613 5.24763 9.96473V13.202C5.24763 13.9446 4.86753 15.011 4.39233 15.5823L1.82673 18.6101C0.724425 19.9431 0.724425 22.0759 1.82673 23.3708L4.39233 26.3986C4.86753 26.9509 5.24763 28.0363 5.24763 28.779V32.0353C5.24763 34.0539 6.90103 35.7106 8.91553 35.7106H12.2223C12.9635 35.7106 14.0467 36.1105 14.6169 36.5866L17.6196 39.1574C18.931 40.2809 21.0785 40.2809 22.3898 39.1574L25.3926 36.5866C25.9627 36.1105 27.027 35.7106 27.7872 35.7106H31.018C33.0325 35.7106 34.6859 34.0539 34.6859 32.0353V28.798C34.6859 28.0363 35.085 26.9699 35.5601 26.3986L38.1257 23.3899C39.285 22.095 39.285 19.9431 38.1637 18.6101Z" fill="#DE755E"/>
<path d="M38.1637 18.6101L35.5981 15.6014C35.123 15.0301 34.7239 13.9637 34.7239 13.202V9.96473C34.7239 7.94613 33.0705 6.28943 31.056 6.28943H27.8252C27.065 6.28943 25.9817 5.88953 25.4116 5.41343L22.4088 2.84263C21.0975 1.71913 18.95 1.71913 17.6386 2.84263L14.5979 5.41343C14.0277 5.88953 12.9635 6.28943 12.2033 6.28943H8.91553C6.90103 6.28943 5.24763 7.94613 5.24763 9.96473V13.202C5.24763 13.9446 4.86753 15.011 4.39233 15.5823L1.82673 18.6101C0.724425 19.9431 0.724425 22.0759 1.82673 23.3708L4.39233 26.3986C4.86753 26.9509 5.24763 28.0363 5.24763 28.779V32.0353C5.24763 34.0539 6.90103 35.7106 8.91553 35.7106H12.2223C12.9635 35.7106 14.0467 36.1105 14.6169 36.5866L17.6196 39.1574C18.931 40.2809 21.0785 40.2809 22.3898 39.1574L25.3926 36.5866C25.9627 36.1105 27.027 35.7106 27.7872 35.7106H31.018C33.0325 35.7106 34.6859 34.0539 34.6859 32.0353V28.798C34.6859 28.0363 35.085 26.9699 35.5601 26.3986L38.1257 23.3899C39.285 22.095 39.285 19.9431 38.1637 18.6101Z" stroke="#EAEBEF" stroke-width="2"/>
</g>
<defs>
<filter id="filter0_d_5654_73030" x="-34.6987" y="-33.6987" width="132.53" height="132.53" filterUnits="userSpaceOnUse" color-interpolation-filters="sRGB">
<feFlood flood-opacity="0" result="BackgroundImageFix"/>
<feColorMatrix in="SourceAlpha" type="matrix" values="0 0 0 0 0 0 0 0 0 0 0 0 0 0 0 0 0 0 127 0" result="hardAlpha"/>
<feOffset dx="11.5663" dy="11.5663"/>
<feGaussianBlur stdDeviation="23.1325"/>
<feColorMatrix type="matrix" values="0 0 0 0 0.15375 0 0 0 0 0.45225 0 0 0 0 0.9 0 0 0 0.15 0"/>
<feBlend mode="normal" in2="BackgroundImageFix" result="effect1_dropShadow_5654_73030"/>
<feBlend mode="normal" in="SourceGraphic" in2="effect1_dropShadow_5654_73030" result="shape"/>
</filter>
</defs>
</svg>
