<svg width="77" height="77" viewBox="0 0 77 77" fill="none" xmlns="http://www.w3.org/2000/svg">
<circle cx="38.5" cy="38.5" r="38.5" fill="#DE755E"/>
<path d="M38.2266 37.3979C38.085 37.3837 37.915 37.3837 37.7591 37.3979C34.3875 37.2845 31.71 34.522 31.71 31.122C31.71 27.6512 34.515 24.832 38 24.832C41.4708 24.832 44.29 27.6512 44.29 31.122C44.2758 34.522 41.5983 37.2845 38.2266 37.3979Z" fill="white"/>
<path d="M31.1435 42.626C27.7152 44.921 27.7152 48.661 31.1435 50.9418C35.0393 53.5485 41.4285 53.5485 45.3244 50.9418C48.7527 48.6468 48.7527 44.9068 45.3244 42.626C41.4427 40.0335 35.0535 40.0335 31.1435 42.626Z" fill="white"/>
</svg>
