<svg width="30" height="29" viewBox="0 0 30 29" fill="none" xmlns="http://www.w3.org/2000/svg">
<path d="M27.7029 12.3807L25.9005 10.3241C25.5667 9.93363 25.2863 9.20473 25.2863 8.68408V6.47134C25.2863 5.09163 24.1248 3.95923 22.7096 3.95923H20.4399C19.9058 3.95923 19.1448 3.68589 18.7443 3.36048L16.6348 1.60331C15.7136 0.835356 14.2049 0.835356 13.2837 1.60331L11.1475 3.36048C10.7469 3.68589 9.99928 3.95923 9.46523 3.95923H7.15548C5.74026 3.95923 4.57871 5.09163 4.57871 6.47134V8.68408C4.57871 9.19171 4.31169 9.92061 3.97791 10.3111L2.1755 12.3807C1.40113 13.2918 1.40113 14.7496 2.1755 15.6347L3.97791 17.7043C4.31169 18.0817 4.57871 18.8236 4.57871 19.3313V21.557C4.57871 22.9367 5.74026 24.0691 7.15548 24.0691H9.47858C9.99927 24.0691 10.7603 24.3425 11.1608 24.6679L13.2703 26.4251C14.1915 27.193 15.7002 27.193 16.6214 26.4251L18.7309 24.6679C19.1315 24.3425 19.8791 24.0691 20.4132 24.0691H22.6829C24.0981 24.0691 25.2596 22.9367 25.2596 21.557V19.3443C25.2596 18.8236 25.54 18.0947 25.8738 17.7043L27.6762 15.6477C28.4906 14.7626 28.4906 13.2918 27.7029 12.3807Z" fill="#DE755E" stroke="#EAEBEF" stroke-width="2"/>
<path d="M20.4376 9.93017L14.3133 17.0273L11.0156 13.27" stroke="#E0E1E7" stroke-linecap="round" stroke-linejoin="round"/>
</svg>
