<svg width="21" height="20" viewBox="0 0 21 20" fill="none" xmlns="http://www.w3.org/2000/svg">
<path fill-rule="evenodd" clip-rule="evenodd" d="M12.0153 5.83333C12.0153 7.67428 10.5229 9.16667 8.68197 9.16667C6.84102 9.16667 5.34863 7.67428 5.34863 5.83333C5.34863 3.99238 6.84102 2.5 8.68197 2.5C10.5229 2.5 12.0153 3.99238 12.0153 5.83333ZM14.5153 14.1667C14.5153 16.0076 11.9036 17.5 8.68197 17.5C5.46031 17.5 2.84863 16.0076 2.84863 14.1667C2.84863 12.3257 5.46031 10.8333 8.68197 10.8333C11.9036 10.8333 14.5153 12.3257 14.5153 14.1667ZM15.3486 10.625C15.0035 10.625 14.7236 10.3452 14.7236 10L14.7236 8.95833H13.682C13.3368 8.95833 13.057 8.67851 13.057 8.33333C13.057 7.98816 13.3368 7.70833 13.682 7.70833H14.7236V6.66667C14.7236 6.32149 15.0035 6.04167 15.3486 6.04167C15.6938 6.04167 15.9736 6.32149 15.9736 6.66667V7.70833H17.0153C17.3605 7.70833 17.6403 7.98816 17.6403 8.33333C17.6403 8.67851 17.3605 8.95833 17.0153 8.95833H15.9736V10C15.9736 10.3452 15.6938 10.625 15.3486 10.625Z" fill="#A0A1A4"/>
</svg>
