<svg width="21" height="20" viewBox="0 0 21 20" fill="none" xmlns="http://www.w3.org/2000/svg">
<path fill-rule="evenodd" clip-rule="evenodd" d="M8.68197 9.16667C10.5229 9.16667 12.0153 7.67428 12.0153 5.83333C12.0153 3.99238 10.5229 2.5 8.68197 2.5C6.84102 2.5 5.34863 3.99238 5.34863 5.83333C5.34863 7.67428 6.84102 9.16667 8.68197 9.16667ZM8.68197 17.5C11.9036 17.5 14.5153 16.0076 14.5153 14.1667C14.5153 12.3257 11.9036 10.8333 8.68197 10.8333C5.46031 10.8333 2.84863 12.3257 2.84863 14.1667C2.84863 16.0076 5.46031 17.5 8.68197 17.5ZM11.9832 9.01289C12.7771 8.18877 13.2653 7.0681 13.2653 5.8334C13.2653 5.24624 13.1549 4.68486 12.9537 4.1689C14.2857 4.224 15.3486 5.32124 15.3486 6.66673C15.3486 8.04745 14.2293 9.16673 12.8486 9.16673C12.5444 9.16673 12.2528 9.11239 11.9832 9.01289ZM15.7652 14.1666C15.7652 14.6156 15.6654 15.0495 15.4794 15.4596C16.9015 15.0188 17.8486 14.2313 17.8486 13.3333C17.8486 12.0781 15.9986 11.039 13.5876 10.8604C14.9298 11.6944 15.7652 12.8674 15.7652 14.1666Z" fill="#A0A1A4"/>
</svg>
