<svg width="140" height="24" viewBox="0 0 140 24" fill="none" xmlns="http://www.w3.org/2000/svg">
<path d="M22.0908 21.2201C22.9272 21.0446 23.8381 20.7332 24.8235 20.286C25.6829 19.8841 26.5479 19.4765 27.4187 19.0746L27.5448 19.0576L27.6708 19.2444L27.5906 19.4142C25.7287 20.6823 23.7751 21.4352 21.7413 21.6729L21.0997 22.7258H18.9627L19.7533 21.5088C18.6305 21.2484 17.731 20.954 17.0493 20.6257C16.4534 20.3256 15.6571 19.8105 14.6603 19.0746C11.1083 21.5088 7.84848 22.7258 4.87512 22.7258C3.81526 22.7258 2.82414 22.5107 1.89032 22.0748C0.738786 21.5257 0.160156 20.7842 0.160156 19.8445C0.160156 18.6557 0.607018 18.067 1.49501 18.067C2.13666 18.067 2.45176 18.401 2.45176 19.0633C2.45176 19.8728 2.06791 20.2747 1.30596 20.2747C1.1169 20.2747 0.9393 20.2011 0.773159 20.0596C0.761701 20.8238 1.28877 21.4295 2.34291 21.8767C3.16788 22.2107 4.03869 22.3749 4.9496 22.3749C7.79692 22.3749 10.925 21.1974 14.3337 18.8482C11.9676 16.3857 10.7817 13.9572 10.7817 11.5627C10.7817 10.0795 11.1541 8.82847 11.8989 7.80386C12.7353 6.66603 13.8811 6.09429 15.3248 6.09429C18.2065 6.09429 20.4236 8.17181 21.9762 12.3212C23.798 10.7249 25.6198 9.13416 27.4302 7.5378C29.8307 5.4999 31.9561 3.93184 33.8123 2.84496C36.2529 1.41843 38.4585 0.637234 40.4293 0.512695C38.5731 1.68449 35.4451 4.89419 31.0452 10.1418C30.965 10.2324 27.9745 13.9232 22.0908 21.2201ZM14.6373 18.5651C16.8602 16.7536 18.0461 15.7856 18.2065 15.6611C19.5471 14.5403 20.6929 13.5213 21.6496 12.6043C20.5898 8.81715 18.6247 6.92077 15.7545 6.92077C14.3795 6.92077 13.291 7.41892 12.4832 8.40957C11.7385 9.33229 11.3661 10.4928 11.3661 11.891C11.3718 14.0534 12.4603 16.2781 14.6373 18.5651ZM20.0455 21.1465C21.3002 19.335 21.9304 17.3367 21.9304 15.1516C21.9304 14.478 21.8673 13.7874 21.7413 13.0684C20.5382 14.178 18.2924 16.0913 15.0155 18.8142C16.5795 20.0256 18.2523 20.8012 20.0455 21.1465ZM21.7413 18.8482C24.5886 15.6102 27.4417 12.3608 30.289 9.11151C34.6258 4.35641 37.582 1.66751 39.1517 1.03349C36.8029 1.46938 33.8066 3.08838 30.1629 5.89616C29.5786 6.34336 26.8802 8.62468 22.085 12.7458C22.2626 13.844 22.3543 14.7441 22.3543 15.446C22.3543 16.5725 22.1538 17.7047 21.7413 18.8482Z" fill="white"/>
<path d="M27.069 19.3923C28.3867 18.3054 29.3606 17.445 29.9793 16.8166C29.5898 16.6921 29.4007 16.4487 29.4007 16.0864C29.4007 15.4637 29.7273 15.1523 30.3746 15.1523C30.7929 15.1523 31.0048 15.3675 31.0048 15.7864C31.0048 16.0354 30.9074 16.2392 30.7069 16.3921C31.3371 16.3921 31.8986 16.3128 32.4027 16.16L33.0157 17.3884C32.2709 18.1752 31.5262 18.9621 30.7814 19.7489C29.5898 21.0453 28.9882 21.7868 28.9882 21.985C28.9882 22.1322 29.0913 22.2001 29.3033 22.2001C30.4377 22.2001 32.2079 21.2547 34.6141 19.3583L34.8032 19.6074C34.7917 19.9471 33.9152 20.5698 32.1793 21.4698C30.4892 22.3416 29.4007 22.7718 28.908 22.7718C28.2492 22.7718 27.9169 22.3812 27.9169 21.6057C27.9169 20.983 28.4382 20.0999 29.4752 18.9508C30.1856 18.2375 30.9017 17.5242 31.6121 16.8053C31.2455 16.8676 30.9074 16.8902 30.5923 16.8676C28.6731 18.764 27.5388 19.7206 27.1836 19.7433L27.0117 19.5282L27.069 19.3923Z" fill="white"/>
<path d="M34.5856 19.7601L34.4424 19.545L34.5398 19.3582C37.5131 17.3712 39.673 15.639 41.0135 14.1558H40.1943L39.925 13.9521C40.011 13.7652 40.4979 13.686 41.3859 13.72L44.1187 10.6914H45.952L43.1963 13.72H45.1728L45.379 13.9351C45.3504 14.1219 44.5197 14.1955 42.8984 14.1502C41.6437 15.5258 40.3834 16.907 39.1287 18.2826C37.0548 20.5922 36.0007 21.8546 35.972 22.0697L36.2069 22.2112C37.4215 22.2735 39.2547 21.3225 41.7068 19.3525L41.85 19.5676C41.8385 20.0035 40.9849 20.6545 39.2891 21.5263C37.6678 22.3527 36.5621 22.766 35.9892 22.766C35.3418 22.766 35.0153 22.4377 35.0153 21.7867C35.0153 21.0507 35.3762 20.2696 36.0981 19.4431C36.7397 18.8091 37.3756 18.1807 38.0173 17.5467C36.9861 18.26 35.8403 18.9959 34.5856 19.7601Z" fill="white"/>
<path d="M45.168 22.912C45.443 22.6403 45.632 22.3176 45.7351 21.9383C45.8383 21.5647 45.8898 21.0835 45.8898 20.4948V4.88788C45.8898 4.30481 45.8383 3.82364 45.7351 3.44437C45.632 3.07075 45.443 2.74808 45.168 2.4707H51.5157C51.9282 2.4707 52.2719 2.52731 52.5469 2.64619C52.8219 2.75941 53.0453 2.90659 53.2115 3.07641C53.3776 3.24624 53.4922 3.43871 53.561 3.65948C53.6297 3.88025 53.6641 4.0897 53.6641 4.29349C53.6641 4.79731 53.5151 5.30678 53.2172 5.82758C52.9193 6.34838 52.5527 6.88616 52.1115 7.44092C51.6704 8.00134 51.1891 8.57875 50.6621 9.1788C50.135 9.77885 49.6538 10.4072 49.2126 11.0582C48.7715 11.7149 48.3991 12.3998 48.1069 13.1131C47.809 13.8264 47.6601 14.5792 47.6601 15.3718C47.6601 15.9322 47.7747 16.5832 48.0038 17.3361C48.233 18.0833 48.5653 18.7966 49.0064 19.4702C49.4475 20.1439 50.0032 20.7156 50.6735 21.1854C51.3438 21.6553 52.1172 21.893 52.9995 21.893C53.3318 21.893 53.6526 21.8534 53.9734 21.7685C54.2885 21.6893 54.5807 21.5704 54.8443 21.4119C55.1078 21.2534 55.314 21.0552 55.4744 20.8175C55.6349 20.5797 55.7151 20.2967 55.7151 19.9684C55.7151 19.5212 55.6291 19.1249 55.4573 18.7852C55.2854 18.4456 55.0677 18.1286 54.8041 17.8455C54.5406 17.5568 54.2599 17.2795 53.9677 16.9964C53.6698 16.719 53.3948 16.4134 53.1313 16.0794C52.8677 15.7454 52.65 15.3661 52.4782 14.9359C52.3063 14.5057 52.2204 14.0018 52.2204 13.4131C52.2204 13.0338 52.2948 12.6659 52.4381 12.3092C52.5813 11.9526 52.7875 11.6356 53.0511 11.3582C53.3146 11.0808 53.6182 10.8601 53.962 10.6959C54.3057 10.5317 54.6724 10.4525 55.0562 10.4525C55.3885 10.4525 55.8182 10.5148 56.351 10.6336C56.8838 10.7582 57.3994 10.9223 57.915 11.1261C58.4249 11.3299 58.8603 11.5677 59.2269 11.8394C59.5936 12.1111 59.7769 12.3998 59.7769 12.6998C59.7769 13.0961 59.6681 13.4074 59.4446 13.6395C59.2212 13.8716 58.9462 14.0641 58.6082 14.2113C58.2702 14.3641 57.9035 14.4887 57.514 14.5906C57.1187 14.6925 56.7577 14.817 56.4197 14.9585C56.0817 15.1 55.801 15.2812 55.5833 15.4906C55.3599 15.7001 55.251 15.9888 55.251 16.3567C55.251 16.6568 55.3656 16.9172 55.5948 17.1323C55.8239 17.3531 56.1104 17.5568 56.4656 17.7437C56.815 17.9361 57.1931 18.1229 57.5942 18.3154C57.9952 18.5079 58.3676 18.7286 58.7228 18.989C59.0723 19.2494 59.3644 19.5608 59.5936 19.9174C59.8228 20.274 59.9373 20.7156 59.9373 21.2364C59.9373 21.7006 59.817 22.0459 59.5879 22.278C59.353 22.5101 59.0551 22.6742 58.6999 22.7705C58.3389 22.8667 57.9436 22.912 57.5025 22.912C57.0614 22.912 56.6317 22.912 56.2192 22.912H45.168Z" fill="white"/>
<path d="M60.6416 12.6942C60.6416 11.1148 60.8364 9.67698 61.2202 8.38064C61.6041 7.08431 62.1598 5.98045 62.8759 5.05773C63.592 4.14067 64.4514 3.42741 65.454 2.92359C66.4565 2.41978 67.568 2.16504 68.794 2.16504C70.0085 2.16504 71.1142 2.41978 72.1111 2.92359C73.1136 3.42741 73.9673 4.14067 74.6777 5.05773C75.3881 5.97479 75.938 7.08431 76.3333 8.38064C76.7286 9.67698 76.9234 11.1148 76.9234 12.6942C76.9234 14.2736 76.7286 15.7114 76.3333 17.0078C75.938 18.3041 75.3881 19.408 74.6777 20.3307C73.9673 21.2477 73.1136 21.961 72.1111 22.4648C71.1085 22.9686 70.0028 23.2234 68.794 23.2234C67.568 23.2234 66.4508 22.9686 65.454 22.4648C64.4514 21.961 63.5978 21.2477 62.8759 20.3307C62.1598 19.4136 61.6041 18.3041 61.2202 17.0078C60.8364 15.7114 60.6416 14.2736 60.6416 12.6942ZM70.0543 21.8308C70.633 21.8308 71.0913 21.5704 71.4293 21.0439C71.7673 20.5175 72.0079 19.8269 72.1512 18.9664C72.2944 18.106 72.346 17.1323 72.3058 16.0454C72.2657 14.9585 72.1454 13.8377 71.9564 12.6942C71.7673 11.5507 71.5038 10.4299 71.183 9.34299C70.8564 8.25044 70.484 7.27678 70.0658 6.42199C69.6476 5.5672 69.1893 4.87092 68.6909 4.34446C68.1924 3.818 67.6711 3.55761 67.1211 3.55761C66.6399 3.55761 66.2617 3.818 65.981 4.34446C65.706 4.87092 65.517 5.56154 65.4196 6.42199C65.3222 7.28244 65.305 8.2561 65.368 9.34299C65.431 10.4299 65.5571 11.5507 65.7519 12.6942C65.9467 13.8377 66.1873 14.9585 66.4852 16.0454C66.7831 17.1323 67.1211 18.1116 67.4992 18.9664C67.8773 19.8212 68.2841 20.5175 68.7195 21.0439C69.1549 21.5704 69.6018 21.8308 70.0543 21.8308Z" fill="white"/>
<path d="M84.331 2.47617C84.0961 2.74789 83.9128 3.08187 83.781 3.47813C83.6493 3.87439 83.5862 4.28197 83.5862 4.70654C83.5862 5.01788 83.6378 5.58397 83.7409 6.40479C83.844 7.21995 83.9873 8.15965 84.1763 9.21257C84.3654 10.2711 84.5774 11.3637 84.8294 12.5015C85.0758 13.6393 85.3508 14.6866 85.6487 15.6376C85.9466 16.5886 86.2559 17.3755 86.5768 17.9869C86.9033 18.5982 87.2184 18.9039 87.5392 18.9039C87.8142 18.9039 88.0434 18.8134 88.221 18.6379C88.3986 18.4624 88.5475 18.2246 88.6564 17.9303C88.7652 17.6359 88.8455 17.3019 88.897 16.917C88.9428 16.5377 88.9715 16.1414 88.9715 15.7339C88.9715 14.7092 88.8111 13.7243 88.4845 12.7676C88.158 11.8166 87.8085 10.8825 87.4304 9.97678C87.0523 9.07105 86.6971 8.17663 86.3763 7.2992C86.0554 6.42177 85.8893 5.53302 85.8893 4.63295C85.8893 4.38953 85.9122 4.14045 85.9523 3.88572C85.9924 3.63098 86.0726 3.40454 86.1929 3.18943C86.3075 2.97998 86.4679 2.80449 86.657 2.66863C86.8518 2.53277 87.0981 2.46484 87.4017 2.46484H94.3969C93.9672 2.82148 93.6234 3.3536 93.3599 4.06686C93.0964 4.78013 92.8328 5.56699 92.575 6.42743C92.1625 7.82 91.8016 9.08237 91.4865 10.2202C91.1772 11.358 90.8964 12.4789 90.6501 13.5827C90.4037 14.6866 90.1689 15.8188 89.9454 16.9736C89.7277 18.1341 89.4814 19.4191 89.2236 20.8343C89.1548 21.2305 89.1548 21.6155 89.2236 22.0004C89.2923 22.3797 89.4413 22.6797 89.6762 22.9005H80.5098C80.7446 22.6854 80.8936 22.3853 80.9624 22.0004C81.0311 21.6211 81.0311 21.2305 80.9624 20.8343C80.6988 19.4191 80.4582 18.1284 80.2405 16.9736C80.0228 15.8131 79.7879 14.6866 79.5358 13.5827C79.2895 12.4789 79.0088 11.358 78.6994 10.2202C78.39 9.08237 78.0291 7.82 77.6109 6.42743C77.3473 5.56699 77.0838 4.78013 76.826 4.06686C76.5625 3.3536 76.2187 2.81582 75.7891 2.46484H84.331V2.47617Z" fill="white"/>
<path d="M93.2461 12.6942C93.2461 11.4262 93.395 10.1695 93.6987 8.91276C94.0023 7.66172 94.4664 6.52955 95.0851 5.52758C95.7038 4.52561 96.4887 3.71611 97.434 3.09342C98.3793 2.47072 99.485 2.16504 100.751 2.16504C101.152 2.16504 101.536 2.20466 101.908 2.28958C102.281 2.36883 102.653 2.46506 103.025 2.56696C103.398 2.66885 103.787 2.76509 104.194 2.85566C104.601 2.94623 105.036 2.98586 105.506 2.98586C105.867 2.98586 106.165 2.94057 106.406 2.85566C106.646 2.76509 106.858 2.67452 107.036 2.56696C107.213 2.46506 107.38 2.37449 107.523 2.28958C107.666 2.20466 107.821 2.16504 107.987 2.16504C108.193 2.16504 108.336 2.25561 108.411 2.44242C108.485 2.62923 108.514 2.86132 108.491 3.15003C108.468 3.43873 108.411 3.75574 108.302 4.11237C108.199 4.469 108.073 4.80865 107.918 5.13698C107.809 5.3804 107.666 5.65778 107.494 5.96346C107.322 6.26915 107.116 6.56351 106.875 6.84089C106.635 7.11828 106.36 7.35603 106.05 7.5485C105.741 7.74097 105.397 7.8372 105.025 7.8372C104.103 7.8372 103.306 7.707 102.647 7.4466C101.983 7.18621 101.37 6.90316 100.797 6.59748C100.224 6.29179 99.6683 6.01441 99.1298 5.75967C98.5912 5.50494 97.984 5.3804 97.308 5.3804C96.9642 5.3804 96.6778 5.47097 96.4601 5.65778C96.2424 5.84459 96.0648 6.06536 95.9444 6.33142C95.8184 6.59748 95.7325 6.8692 95.6866 7.14658C95.6408 7.42396 95.6122 7.66172 95.6122 7.85419C95.6122 7.95042 95.6064 8.12591 95.5893 8.3863C95.5778 8.6467 95.5778 8.9071 95.5893 9.17316C95.6007 9.43922 95.6408 9.67131 95.7038 9.88077C95.7669 10.0846 95.8642 10.1865 96.0017 10.1865C96.1507 10.1865 96.3054 10.1298 96.4543 10.0223C96.6033 9.91473 96.7866 9.79019 97.0043 9.65433C97.2163 9.51847 97.4798 9.39393 97.7892 9.28638C98.0986 9.17882 98.4824 9.12221 98.935 9.12221C99.4449 9.12221 99.9433 9.21279 100.425 9.38827C100.906 9.56376 101.376 9.75623 101.834 9.96002C102.286 10.1638 102.733 10.3563 103.169 10.5318C103.604 10.7072 104.022 10.7978 104.418 10.7978C104.653 10.7978 104.847 10.7582 105.008 10.6733C105.168 10.594 105.3 10.4978 105.403 10.3959C105.506 10.294 105.598 10.2034 105.684 10.1185C105.77 10.0336 105.85 9.99398 105.93 9.99398C106.096 9.99398 106.222 10.1072 106.314 10.3336C106.406 10.5601 106.451 10.8318 106.451 11.1601C106.451 11.4998 106.383 11.8734 106.257 12.2753C106.125 12.6772 105.919 13.0508 105.638 13.3905C105.357 13.7301 104.991 14.0188 104.544 14.2509C104.097 14.483 103.553 14.5962 102.922 14.5962C102.412 14.5962 101.943 14.5057 101.513 14.3189C101.083 14.1321 100.694 13.9056 100.333 13.6339C99.9719 13.3622 99.6339 13.0678 99.3188 12.7452C99.0037 12.4225 98.7001 12.1281 98.4194 11.8564C98.1387 11.5847 97.8579 11.3582 97.5829 11.1714C97.308 10.9903 97.0272 10.8941 96.7351 10.8941C96.5689 10.8941 96.4486 10.9337 96.3741 11.0186C96.2996 11.0978 96.2481 11.1997 96.2309 11.313C96.2137 11.4262 96.208 11.5507 96.2309 11.6809C96.2538 11.8111 96.2767 11.93 96.3054 12.0375C96.5976 12.9772 96.9871 13.8434 97.4741 14.6359C97.9611 15.4284 98.5168 16.102 99.1412 16.6568C99.76 17.2172 100.425 17.6531 101.129 17.9644C101.834 18.2758 102.544 18.4343 103.26 18.4343C104.171 18.4343 104.882 18.2758 105.392 17.9644C105.901 17.6531 106.308 17.3021 106.612 16.9229C106.915 16.5436 107.162 16.1926 107.345 15.8813C107.534 15.5699 107.746 15.4114 107.998 15.4114C108.124 15.4114 108.239 15.4737 108.348 15.6039C108.457 15.7341 108.514 16.0341 108.514 16.5153C108.514 17.2116 108.365 17.9475 108.061 18.7343C107.758 19.5155 107.311 20.2458 106.726 20.9137C106.142 21.5817 105.42 22.1308 104.567 22.5667C103.713 23.0026 102.733 23.2234 101.628 23.2234C100.47 23.2234 99.3819 23.0026 98.3564 22.5667C97.3366 22.1308 96.4486 21.4742 95.6981 20.6024C94.9476 19.7306 94.3518 18.6324 93.9107 17.3135C93.4638 15.9888 93.2461 14.4491 93.2461 12.6942Z" fill="white"/>
<path d="M109.132 2.47559H117.468C118.722 2.47559 119.794 2.62843 120.676 2.93411C121.558 3.2398 122.274 3.6587 122.824 4.19082C123.374 4.72294 123.781 5.34563 124.033 6.0589C124.285 6.77216 124.417 7.5477 124.417 8.37984C124.417 9.17236 124.308 9.95356 124.096 10.7291C123.884 11.5046 123.54 12.2009 123.07 12.8123C122.601 13.4237 121.999 13.9218 121.272 14.2954C120.538 14.669 119.656 14.8558 118.625 14.8558C117.977 14.8558 117.399 14.7766 116.889 14.6124C116.379 14.4483 115.932 14.2388 115.543 13.9897C115.159 13.735 114.815 13.4633 114.517 13.1746C114.219 12.8802 113.956 12.6085 113.721 12.3594C113.486 12.1047 113.268 11.9009 113.068 11.7367C112.867 11.5726 112.672 11.4933 112.478 11.4933C112.203 11.4933 112.014 11.5612 111.916 11.6971C111.819 11.833 111.773 11.9858 111.773 12.1443C111.773 12.416 111.922 12.6877 112.22 12.9595C112.518 13.2312 112.902 13.5029 113.377 13.769C113.853 14.035 114.385 14.2898 114.981 14.5275C115.577 14.7653 116.173 14.9974 116.78 15.2125C117.553 15.4842 118.373 15.7899 119.244 16.1295C120.114 16.4692 120.911 16.8711 121.644 17.324C122.377 17.7825 122.985 18.3146 123.477 18.926C123.964 19.5374 124.211 20.2506 124.211 21.0545C124.211 21.7111 124.113 22.181 123.913 22.4753C123.712 22.7697 123.357 22.9169 122.847 22.9169H118.378C118.241 22.9169 118.103 22.8829 117.977 22.815C117.846 22.7471 117.783 22.6225 117.783 22.447C117.783 22.2546 117.8 22.0904 117.834 21.9545C117.869 21.8187 117.909 21.6772 117.96 21.5243C118.006 21.3771 118.052 21.213 118.086 21.0318C118.121 20.8563 118.138 20.6356 118.138 20.3752C118.138 19.928 117.995 19.4524 117.702 18.9543C117.41 18.4561 117.044 17.9636 116.597 17.4825C116.15 17.0013 115.651 16.5428 115.107 16.1126C114.563 15.6823 114.036 15.3031 113.537 14.9691C113.033 14.6351 112.581 14.3747 112.174 14.1822C111.767 13.9897 111.481 13.8935 111.315 13.8935C111.16 13.8935 111.063 13.9501 111.017 14.0577C110.971 14.1652 110.942 14.2501 110.942 14.3011C110.942 14.6407 111.08 14.9464 111.355 15.2181C111.63 15.4899 111.973 15.7616 112.392 16.0276C112.804 16.2937 113.251 16.5711 113.738 16.8541C114.219 17.1428 114.666 17.4712 115.084 17.8448C115.497 18.2184 115.84 18.6486 116.121 19.1298C116.402 19.611 116.534 20.1827 116.534 20.8337C116.534 21.0375 116.505 21.2583 116.454 21.496C116.396 21.7338 116.31 21.9602 116.184 22.1697C116.058 22.3791 115.904 22.5546 115.72 22.6905C115.537 22.8263 115.319 22.8942 115.067 22.8942H109.172C109.447 22.6225 109.636 22.2999 109.739 21.9206C109.842 21.547 109.894 21.0658 109.894 20.4771V16.9843L109.871 12.6708V4.8871C109.871 4.30404 109.819 3.82287 109.716 3.44359C109.596 3.06997 109.407 2.74731 109.132 2.47559ZM117.112 10.7914C117.828 10.7914 118.556 10.7687 119.295 10.7291C120.034 10.6895 120.704 10.5989 121.3 10.463C121.902 10.3272 122.389 10.1234 122.767 9.85732C123.145 9.59126 123.334 9.22897 123.334 8.76478C123.334 8.30059 123.099 7.9383 122.629 7.67224C122.16 7.40618 121.575 7.20805 120.871 7.07219C120.166 6.93633 119.404 6.84576 118.573 6.80613C117.743 6.7665 116.975 6.74386 116.259 6.74386C115.732 6.74386 115.159 6.7665 114.529 6.80613C113.898 6.84576 113.32 6.93633 112.781 7.07219C112.243 7.20805 111.796 7.41184 111.435 7.67224C111.074 7.9383 110.896 8.30059 110.896 8.76478C110.896 9.22897 111.085 9.59126 111.464 9.85732C111.842 10.1234 112.334 10.3272 112.93 10.463C113.532 10.5989 114.196 10.6895 114.924 10.7291C115.674 10.7744 116.396 10.7914 117.112 10.7914Z" fill="white"/>
<path d="M130.147 15.3095C130.462 15.3208 130.731 15.4284 130.954 15.6265C131.172 15.8246 131.258 16.119 131.201 16.5153C131.132 17.0474 131.075 17.6135 131.023 18.2135C130.977 18.8136 131.017 19.3627 131.155 19.8665C131.292 20.3703 131.562 20.7892 131.963 21.1232C132.364 21.4572 132.965 21.6214 133.762 21.6214C134.163 21.6214 134.547 21.5478 134.907 21.4062C135.274 21.2647 135.595 21.0666 135.87 20.8232C136.145 20.5798 136.368 20.2911 136.534 19.9571C136.701 19.6231 136.781 19.2608 136.781 18.8645C136.781 18.3494 136.672 17.8909 136.46 17.4946C136.248 17.0983 135.962 16.753 135.601 16.4643C135.24 16.17 134.827 15.9209 134.357 15.7171C133.888 15.5133 133.401 15.3265 132.891 15.168C131.871 14.8566 130.897 14.5283 129.975 14.1887C129.052 13.849 128.239 13.4245 127.546 12.9206C126.852 12.4168 126.297 11.8055 125.89 11.0809C125.483 10.3563 125.283 9.46186 125.283 8.38064C125.283 7.5202 125.449 6.71636 125.787 5.9578C126.125 5.19925 126.589 4.54259 127.173 3.98783C127.758 3.42741 128.439 2.98586 129.213 2.65753C129.986 2.3292 130.805 2.16504 131.676 2.16504C132.077 2.16504 132.461 2.20466 132.834 2.28958C133.206 2.37449 133.578 2.46506 133.951 2.56696C134.323 2.66885 134.713 2.76509 135.119 2.85566C135.526 2.94623 135.962 2.98586 136.431 2.98586C136.792 2.98586 137.09 2.94057 137.331 2.85566C137.571 2.76509 137.783 2.67452 137.961 2.56696C138.139 2.46506 138.305 2.37449 138.448 2.28958C138.591 2.21033 138.746 2.16504 138.912 2.16504C139.158 2.16504 139.313 2.30656 139.376 2.58394C139.439 2.86132 139.428 3.21229 139.347 3.63686C139.267 4.06142 139.124 4.51429 138.923 4.99546C138.723 5.47663 138.471 5.93516 138.167 6.35406C137.864 6.77862 137.526 7.1296 137.142 7.40698C136.764 7.68436 136.368 7.82588 135.95 7.82588C135.194 7.82588 134.489 7.69568 133.848 7.43528C133.206 7.17488 132.587 6.89184 131.986 6.58616C131.384 6.28047 130.783 6.00309 130.175 5.74835C129.568 5.49361 128.921 5.36908 128.233 5.36908C127.849 5.36908 127.517 5.5106 127.254 5.78798C126.984 6.06536 126.852 6.40501 126.852 6.80127C126.852 7.34471 127.07 7.79191 127.517 8.14289C127.958 8.4882 128.52 8.76558 129.201 8.96937C129.883 9.17316 130.639 9.33166 131.464 9.43922C132.289 9.54678 133.097 9.63735 133.882 9.70528C134.753 9.78453 135.543 9.98266 136.26 10.2997C136.976 10.611 137.589 11.0186 138.099 11.5167C138.608 12.0149 139.004 12.598 139.29 13.2659C139.571 13.9339 139.714 14.6642 139.714 15.451C139.714 16.3624 139.559 17.2795 139.25 18.2022C138.941 19.1193 138.454 19.9514 137.795 20.6986C137.136 21.4459 136.282 22.0459 135.251 22.5158C134.22 22.9856 132.977 23.2234 131.527 23.2234C130.657 23.2234 129.837 23.0932 129.064 22.8328C128.29 22.5724 127.614 22.2271 127.036 21.7912C126.457 21.3553 125.993 20.8571 125.649 20.2911C125.306 19.725 125.134 19.1362 125.134 18.5249C125.134 18.3211 125.231 18.1003 125.432 17.8626C125.632 17.6248 125.884 17.387 126.199 17.1493C126.509 16.9115 126.852 16.6794 127.236 16.453C127.614 16.2266 127.993 16.0284 128.365 15.8586C128.737 15.6888 129.081 15.5529 129.396 15.451C129.711 15.3491 129.969 15.2982 130.147 15.3095Z" fill="white"/>
</svg>
