<svg width="25" height="20" viewBox="0 0 25 20" fill="none" xmlns="http://www.w3.org/2000/svg">
<path d="M23.2284 6.97737C20.2947 2.7881 17.2835 0 12.7624 0C10.5018 0 7.79158 0.0434472 5.78499 1.16289C3.77839 2.29388 2.6066 4.87696 1.13341 6.97737C-0.136591 8.78926 -0.136591 10.98 1.13341 12.7918C4.0671 16.9927 8.24117 19.7692 12.7624 19.7692C15.0229 19.7692 16.5702 19.7258 18.5768 18.6063C20.5834 17.4753 21.7552 14.8923 23.2284 12.7918C24.4984 10.9915 24.4984 8.78926 23.2284 6.97737ZM12.7624 15.1176C9.91756 15.1176 6.94788 13.0396 6.94788 10.4661C6.94788 7.89248 9.91756 4.65158 12.7624 4.65158C15.6071 4.65158 17.4139 7.89248 17.4139 10.4661C17.4139 13.0396 15.6071 15.1176 12.7624 15.1176Z" fill="#383742"/>
<path d="M12.7624 6.97754C10.8439 6.97754 9.27368 8.53553 9.27368 10.4662C9.27368 12.3847 10.8439 13.9549 12.7624 13.9549C14.6808 13.9549 16.2511 12.3847 16.2511 10.4662C16.2511 8.54775 14.6808 6.97754 12.7624 6.97754Z" fill="#383742"/>
</svg>
