<svg width="18" height="21" viewBox="0 0 18 21" fill="none" xmlns="http://www.w3.org/2000/svg">
<path fill-rule="evenodd" clip-rule="evenodd" d="M0 16.3662V4.36621C0 2.15707 1.79086 0.366211 4 0.366211H14C16.2091 0.366211 18 2.15707 18 4.36621V10.7094C18 11.0171 17.9645 11.3212 17.8959 11.6162H14C11.3766 11.6162 9.25 13.7429 9.25 16.3662V20.2621C8.95502 20.3307 8.65091 20.3662 8.34315 20.3662H4C1.79086 20.3662 0 18.5753 0 16.3662ZM10.75 19.5611C10.898 19.4495 11.039 19.3272 11.1716 19.1946L16.8284 13.5378C16.961 13.4052 17.0833 13.2643 17.1949 13.1162H14C12.2051 13.1162 10.75 14.5713 10.75 16.3662V19.5611ZM4.25 5.36621C4.25 4.952 4.58579 4.61621 5 4.61621H13C13.4142 4.61621 13.75 4.952 13.75 5.36621C13.75 5.78042 13.4142 6.11621 13 6.11621H5C4.58579 6.11621 4.25 5.78042 4.25 5.36621ZM5 8.61621C4.58579 8.61621 4.25 8.952 4.25 9.36621C4.25 9.78042 4.58579 10.1162 5 10.1162H9C9.41421 10.1162 9.75 9.78042 9.75 9.36621C9.75 8.952 9.41421 8.61621 9 8.61621H5Z" fill="#A0A1A4"/>
</svg>
