<svg width="24" height="25" viewBox="0 0 24 25" fill="none" xmlns="http://www.w3.org/2000/svg">
<path d="M16 9.85901V21.219C16 22.669 14.96 23.279 13.69 22.579L9.76001 20.389C9.34001 20.159 8.65999 20.159 8.23999 20.389L4.31 22.579C3.04 23.279 2 22.669 2 21.219V9.85901C2 8.14901 3.39999 6.74902 5.10999 6.74902H12.89C14.6 6.74902 16 8.14901 16 9.85901Z" fill="#A0A1A4"/>
<path d="M22.5 5.4762V16.8362C22.5 18.2862 21.46 18.8962 20.19 18.1962L16.5 16.1362V9.3562C16.5 7.6462 15.1 6.24622 13.39 6.24622H8.5V5.4762C8.5 3.7662 9.89999 2.36621 11.61 2.36621H19.39C21.1 2.36621 22.5 3.7662 22.5 5.4762Z" fill="#A0A1A4"/>
</svg>
