<svg width="194" height="33" viewBox="0 0 194 33" fill="none" xmlns="http://www.w3.org/2000/svg">
<path d="M30.7076 30.1144C31.863 29.8664 33.1212 29.4265 34.4823 28.7946C35.6693 28.2266 36.8643 27.6507 38.0671 27.0828L38.2412 27.0588L38.4153 27.3227L38.3045 27.5627C35.7327 29.3545 33.0342 30.4184 30.2249 30.7543L29.3386 32.2421H26.3869L27.479 30.5224C25.9279 30.1544 24.6855 29.7384 23.7438 29.2745C22.9208 28.8506 21.8209 28.1226 20.4439 27.0828C15.5376 30.5224 11.0349 32.2421 6.92779 32.2421C5.4638 32.2421 4.09478 31.9382 2.80489 31.3223C1.2143 30.5463 0.415039 29.4985 0.415039 28.1706C0.415039 26.4909 1.03229 25.659 2.25887 25.659C3.14517 25.659 3.58041 26.1309 3.58041 27.0668C3.58041 28.2106 3.05021 28.7786 1.99772 28.7786C1.73658 28.7786 1.49126 28.6746 1.26178 28.4746C1.24595 29.5545 1.97398 30.4104 3.43006 31.0423C4.56959 31.5142 5.77243 31.7462 7.03066 31.7462C10.9636 31.7462 15.2844 30.0824 19.9929 26.7628C16.7246 23.2832 15.0865 19.8517 15.0865 16.4681C15.0865 14.3723 15.6009 12.6046 16.6297 11.1567C17.785 9.54893 19.3677 8.74103 21.3619 8.74103C25.3423 8.74103 28.4048 11.6767 30.5494 17.54C33.0658 15.2842 35.5823 13.0365 38.0829 10.7808C41.3987 7.90114 44.3346 5.68541 46.8985 4.1496C50.2696 2.13385 53.3163 1.02998 56.0385 0.854004C53.4746 2.5098 49.1538 7.04524 43.0763 14.4603C42.9655 14.5883 38.8347 19.8037 30.7076 30.1144ZM20.4123 26.3629C23.4827 23.8032 25.1208 22.4353 25.3423 22.2594C27.1941 20.6756 28.7768 19.2357 30.0983 17.9399C28.6343 12.5886 25.92 9.90889 21.9554 9.90889C20.0562 9.90889 18.5526 10.6128 17.4368 12.0126C16.4081 13.3165 15.8937 14.9563 15.8937 16.932C15.9016 19.9876 17.4052 23.1313 20.4123 26.3629ZM27.8825 30.0104C29.6156 27.4507 30.4861 24.6271 30.4861 21.5395C30.4861 20.5876 30.399 19.6117 30.2249 18.5958C28.5631 20.1636 25.461 22.8673 20.9346 26.7148C23.0949 28.4266 25.4056 29.5225 27.8825 30.0104ZM30.2249 26.7628C34.1579 22.1874 38.0988 17.5959 42.0317 13.0045C48.0222 6.28533 52.1055 2.4858 54.2738 1.58991C51.0293 2.20584 46.8906 4.49356 41.8576 8.46107C41.0505 9.09299 37.3233 12.3166 30.6997 18.1399C30.945 19.6917 31.0717 20.9635 31.0717 21.9554C31.0717 23.5472 30.7947 25.147 30.2249 26.7628Z" fill="#010101"/>
<path d="M37.584 27.5308C39.4041 25.995 40.7494 24.7792 41.604 23.8913C41.0659 23.7153 40.8048 23.3713 40.8048 22.8594C40.8048 21.9795 41.2558 21.5396 42.1501 21.5396C42.7277 21.5396 43.0205 21.8435 43.0205 22.4354C43.0205 22.7874 42.886 23.0754 42.609 23.2913C43.4795 23.2913 44.255 23.1793 44.9514 22.9634L45.7982 24.6992C44.7694 25.811 43.7407 26.9229 42.7119 28.0347C41.0659 29.8665 40.235 30.9144 40.235 31.1944C40.235 31.4023 40.3775 31.4983 40.6703 31.4983C42.2371 31.4983 44.6824 30.1625 48.006 27.4828L48.2671 27.8348C48.2513 28.3147 47.0406 29.1946 44.6428 30.4665C42.3083 31.6983 40.8048 32.3062 40.1242 32.3062C39.2142 32.3062 38.7552 31.7543 38.7552 30.6584C38.7552 29.7785 39.4753 28.5307 40.9077 26.9069C41.8889 25.899 42.8781 24.8911 43.8594 23.8753C43.3529 23.9633 42.886 23.9952 42.4508 23.9633C39.7998 26.6429 38.2329 27.9948 37.7423 28.0268L37.5049 27.7228L37.584 27.5308Z" fill="#010101"/>
<path d="M47.9664 28.0508L47.7686 27.7468L47.9031 27.4828C52.0101 24.6752 54.9935 22.2275 56.8453 20.1317H55.7136L55.3417 19.8438C55.4604 19.5798 56.133 19.4678 57.3596 19.5158L61.1343 15.2363H63.6666L59.8603 19.5158H62.5904L62.8753 19.8198C62.8357 20.0837 61.6883 20.1877 59.4488 20.1237C57.7157 22.0675 55.9748 24.0192 54.2417 25.963C51.3771 29.2266 49.921 31.0104 49.8814 31.3144L50.2059 31.5143C51.8835 31.6023 54.4158 30.2585 57.8028 27.4748L58.0006 27.7788C57.9848 28.3947 56.8057 29.3146 54.4633 30.5464C52.2238 31.7143 50.6965 32.2982 49.9052 32.2982C49.011 32.2982 48.5599 31.8343 48.5599 30.9144C48.5599 29.8745 49.0584 28.7707 50.0555 27.6028C50.9418 26.7069 51.8202 25.819 52.7065 24.9231C51.2821 25.931 49.6994 26.9709 47.9664 28.0508Z" fill="#010101"/>
<path d="M62.583 32.5065C62.9629 32.1226 63.224 31.6666 63.3664 31.1307C63.5089 30.6027 63.5801 29.9228 63.5801 29.0909V7.03765C63.5801 6.21375 63.5089 5.53383 63.3664 4.9979C63.224 4.46997 62.9629 4.01402 62.583 3.62207H71.3511C71.9209 3.62207 72.3957 3.70206 72.7755 3.87004C73.1553 4.03002 73.464 4.23799 73.6935 4.47796C73.9229 4.71794 74.0812 4.9899 74.1762 5.30186C74.2711 5.61382 74.3186 5.90979 74.3186 6.19775C74.3186 6.90967 74.1129 7.62958 73.7014 8.36549C73.2899 9.10139 72.7834 9.8613 72.1741 10.6452C71.5647 11.4371 70.9 12.253 70.172 13.1009C69.4439 13.9488 68.7792 14.8367 68.1699 15.7566C67.5606 16.6845 67.0462 17.6523 66.6426 18.6602C66.2311 19.6681 66.0253 20.732 66.0253 21.8518C66.0253 22.6437 66.1836 23.5636 66.5002 24.6275C66.8167 25.6834 67.2757 26.6912 67.885 27.6431C68.4943 28.595 69.2619 29.4029 70.1878 30.0668C71.1137 30.7307 72.182 31.0667 73.4007 31.0667C73.8596 31.0667 74.3028 31.0107 74.7459 30.8907C75.1812 30.7787 75.5848 30.6107 75.9488 30.3868C76.3128 30.1628 76.5977 29.8828 76.8193 29.5469C77.0408 29.2109 77.1516 28.811 77.1516 28.347C77.1516 27.7151 77.0329 27.1552 76.7955 26.6752C76.5581 26.1953 76.2574 25.7473 75.8934 25.3474C75.5294 24.9394 75.1416 24.5475 74.738 24.1475C74.3265 23.7556 73.9467 23.3236 73.5827 22.8517C73.2187 22.3798 72.9179 21.8438 72.6805 21.2359C72.4431 20.628 72.3244 19.9161 72.3244 19.0842C72.3244 18.5482 72.4273 18.0283 72.6251 17.5244C72.823 17.0204 73.1079 16.5725 73.4719 16.1805C73.8359 15.7886 74.2553 15.4766 74.7301 15.2446C75.2049 15.0127 75.7114 14.9007 76.2416 14.9007C76.7006 14.9007 77.2941 14.9887 78.03 15.1567C78.766 15.3326 79.4782 15.5646 80.1904 15.8526C80.8947 16.1405 81.4961 16.4765 82.0026 16.8604C82.509 17.2444 82.7622 17.6523 82.7622 18.0763C82.7622 18.6362 82.6119 19.0762 82.3033 19.4041C81.9946 19.7321 81.6148 20.0041 81.1479 20.212C80.681 20.428 80.1745 20.604 79.6364 20.748C79.0904 20.8919 78.5919 21.0679 78.125 21.2679C77.6581 21.4679 77.2703 21.7238 76.9696 22.0198C76.661 22.3158 76.5106 22.7237 76.5106 23.2437C76.5106 23.6676 76.6689 24.0356 76.9854 24.3395C77.302 24.6515 77.6977 24.9394 78.1883 25.2034C78.671 25.4754 79.1933 25.7393 79.7472 26.0113C80.3012 26.2833 80.8155 26.5952 81.3062 26.9632C81.7889 27.3312 82.1925 27.7711 82.509 28.275C82.8256 28.779 82.9838 29.4029 82.9838 30.1388C82.9838 30.7947 82.8176 31.2827 82.5011 31.6106C82.1766 31.9386 81.7652 32.1706 81.2745 32.3065C80.776 32.4425 80.2299 32.5065 79.6206 32.5065C79.0113 32.5065 78.4178 32.5065 77.848 32.5065H62.583Z" fill="#010101"/>
<path d="M83.957 18.0681C83.957 15.8364 84.2261 13.8046 84.7563 11.9729C85.2865 10.1411 86.0541 8.58128 87.0433 7.27744C88.0324 5.9816 89.2195 4.97372 90.6043 4.26181C91.9892 3.5499 93.5244 3.18994 95.2178 3.18994C96.8955 3.18994 98.4228 3.5499 99.7997 4.26181C101.185 4.97372 102.364 5.9816 103.345 7.27744C104.326 8.57328 105.086 10.1411 105.632 11.9729C106.178 13.8046 106.447 15.8364 106.447 18.0681C106.447 20.2998 106.178 22.3316 105.632 24.1634C105.086 25.9951 104.326 27.5549 103.345 28.8588C102.364 30.1546 101.185 31.1625 99.7997 31.8744C98.4149 32.5863 96.8876 32.9463 95.2178 32.9463C93.5244 32.9463 91.9812 32.5863 90.6043 31.8744C89.2195 31.1625 88.0404 30.1546 87.0433 28.8588C86.0541 27.5629 85.2865 25.9951 84.7563 24.1634C84.2261 22.3316 83.957 20.2998 83.957 18.0681ZM96.9588 30.9785C97.758 30.9785 98.3911 30.6106 98.858 29.8667C99.3249 29.1227 99.6573 28.1469 99.8551 26.931C100.053 25.7152 100.124 24.3393 100.069 22.8035C100.013 21.2677 99.8472 19.6839 99.586 18.0681C99.3249 16.4523 98.9609 14.8685 98.5177 13.3327C98.0667 11.7889 97.5523 10.4131 96.9746 9.2052C96.3969 7.99735 95.7639 7.01347 95.0754 6.26956C94.3869 5.52565 93.6668 5.1577 92.9071 5.1577C92.2424 5.1577 91.7201 5.52565 91.3323 6.26956C90.9525 7.01347 90.6914 7.98935 90.5568 9.2052C90.4223 10.4211 90.3986 11.7969 90.4856 13.3327C90.5727 14.8685 90.7467 16.4523 91.0158 18.0681C91.2849 19.6839 91.6172 21.2677 92.0287 22.8035C92.4402 24.3393 92.9071 25.7232 93.4294 26.931C93.9517 28.1389 94.5135 29.1227 95.115 29.8667C95.7164 30.6106 96.3336 30.9785 96.9588 30.9785Z" fill="#010101"/>
<path d="M116.679 3.62977C116.354 4.01372 116.101 4.48566 115.919 5.04559C115.737 5.60552 115.65 6.18145 115.65 6.78138C115.65 7.22133 115.721 8.02123 115.864 9.18108C116.006 10.3329 116.204 11.6608 116.465 13.1486C116.726 14.6444 117.019 16.1882 117.367 17.796C117.708 19.4038 118.087 20.8836 118.499 22.2275C118.91 23.5713 119.338 24.6832 119.781 25.5471C120.232 26.411 120.667 26.8429 121.11 26.8429C121.49 26.8429 121.807 26.7149 122.052 26.467C122.297 26.219 122.503 25.883 122.653 25.4671C122.804 25.0511 122.915 24.5792 122.986 24.0353C123.049 23.4993 123.089 22.9394 123.089 22.3635C123.089 20.9156 122.867 19.5238 122.416 18.172C121.965 16.8281 121.482 15.5083 120.96 14.2285C120.438 12.9486 119.947 11.6848 119.504 10.4449C119.061 9.20508 118.831 7.94924 118.831 6.67739C118.831 6.33343 118.863 5.98148 118.918 5.62152C118.974 5.26157 119.084 4.94161 119.251 4.63764C119.409 4.34168 119.631 4.09371 119.892 3.90173C120.161 3.70976 120.501 3.61377 120.92 3.61377H130.583C129.989 4.11771 129.514 4.86961 129.15 5.87749C128.786 6.88537 128.422 7.99723 128.066 9.21308C127.496 11.1808 126.998 12.9646 126.563 14.5724C126.135 16.1802 125.748 17.764 125.407 19.3238C125.067 20.8836 124.743 22.4834 124.434 24.1152C124.133 25.755 123.793 27.5708 123.437 29.5706C123.342 30.1305 123.342 30.6744 123.437 31.2184C123.532 31.7543 123.738 32.1783 124.062 32.4902H111.401C111.725 32.1863 111.931 31.7623 112.026 31.2184C112.121 30.6824 112.121 30.1305 112.026 29.5706C111.662 27.5708 111.329 25.747 111.029 24.1152C110.728 22.4755 110.403 20.8836 110.055 19.3238C109.715 17.764 109.327 16.1802 108.9 14.5724C108.473 12.9646 107.974 11.1808 107.396 9.21308C107.032 7.99723 106.668 6.88537 106.312 5.87749C105.948 4.86961 105.473 4.10971 104.88 3.61377H116.679V3.62977Z" fill="#010101"/>
<path d="M128.992 18.0681C128.992 16.2763 129.198 14.5005 129.617 12.7248C130.037 10.957 130.678 9.35718 131.532 7.94136C132.387 6.52553 133.471 5.38167 134.777 4.50178C136.083 3.62189 137.61 3.18994 139.359 3.18994C139.913 3.18994 140.443 3.24593 140.957 3.36592C141.472 3.47791 141.986 3.61389 142.5 3.75787C143.015 3.90185 143.553 4.03784 144.115 4.16582C144.677 4.29381 145.278 4.3498 145.927 4.3498C146.425 4.3498 146.837 4.28581 147.169 4.16582C147.502 4.03784 147.794 3.90985 148.04 3.75787C148.285 3.61389 148.515 3.4859 148.712 3.36592C148.91 3.24593 149.124 3.18994 149.353 3.18994C149.638 3.18994 149.836 3.31793 149.939 3.58189C150.042 3.84586 150.081 4.17382 150.05 4.58177C150.018 4.98972 149.939 5.43767 149.789 5.9416C149.646 6.44554 149.472 6.92548 149.258 7.38942C149.108 7.73338 148.91 8.12533 148.673 8.55728C148.435 8.98923 148.151 9.40518 147.818 9.79713C147.486 10.1891 147.106 10.525 146.679 10.797C146.251 11.069 145.777 11.205 145.262 11.205C143.988 11.205 142.888 11.021 141.978 10.653C141.06 10.2851 140.213 9.88512 139.422 9.45317C138.631 9.02122 137.863 8.62927 137.119 8.26932C136.375 7.90936 135.537 7.73338 134.603 7.73338C134.128 7.73338 133.732 7.86137 133.432 8.12533C133.131 8.3893 132.886 8.70126 132.719 9.07722C132.545 9.45317 132.427 9.83712 132.363 10.2291C132.3 10.621 132.26 10.957 132.26 11.229C132.26 11.3649 132.253 11.6129 132.229 11.9809C132.213 12.3488 132.213 12.7168 132.229 13.0927C132.245 13.4687 132.3 13.7966 132.387 14.0926C132.474 14.3806 132.609 14.5245 132.799 14.5245C133.004 14.5245 133.218 14.4446 133.424 14.2926C133.629 14.1406 133.883 13.9646 134.183 13.7726C134.476 13.5807 134.84 13.4047 135.268 13.2527C135.695 13.1007 136.225 13.0207 136.85 13.0207C137.555 13.0207 138.243 13.1487 138.908 13.3967C139.572 13.6447 140.221 13.9166 140.854 14.2046C141.48 14.4925 142.097 14.7645 142.698 15.0125C143.3 15.2605 143.877 15.3884 144.423 15.3884C144.748 15.3884 145.017 15.3324 145.238 15.2125C145.46 15.1005 145.642 14.9645 145.784 14.8205C145.927 14.6765 146.054 14.5485 146.172 14.4286C146.291 14.3086 146.402 14.2526 146.513 14.2526C146.742 14.2526 146.916 14.4126 147.043 14.7325C147.169 15.0525 147.233 15.4364 147.233 15.9004C147.233 16.3803 147.138 16.9083 146.964 17.4762C146.782 18.0441 146.497 18.572 146.109 19.052C145.721 19.5319 145.215 19.9399 144.597 20.2678C143.98 20.5958 143.228 20.7558 142.358 20.7558C141.654 20.7558 141.005 20.6278 140.411 20.3638C139.818 20.0999 139.28 19.7799 138.781 19.3959C138.283 19.012 137.816 18.596 137.38 18.1401C136.945 17.6842 136.526 17.2682 136.138 16.8843C135.75 16.5003 135.362 16.1803 134.983 15.9164C134.603 15.6604 134.215 15.5244 133.811 15.5244C133.582 15.5244 133.416 15.5804 133.313 15.7004C133.21 15.8124 133.139 15.9564 133.115 16.1164C133.091 16.2763 133.083 16.4523 133.115 16.6363C133.147 16.8203 133.178 16.9882 133.218 17.1402C133.622 18.4681 134.16 19.6919 134.832 20.8118C135.505 21.9316 136.273 22.8835 137.135 23.6674C137.99 24.4593 138.908 25.0752 139.881 25.5152C140.854 25.9551 141.836 26.1791 142.825 26.1791C144.083 26.1791 145.064 25.9551 145.769 25.5152C146.473 25.0752 147.035 24.5793 147.454 24.0434C147.874 23.5074 148.214 23.0115 148.467 22.5716C148.728 22.1316 149.021 21.9076 149.369 21.9076C149.543 21.9076 149.702 21.9956 149.852 22.1796C150.002 22.3636 150.081 22.7875 150.081 23.4674C150.081 24.4513 149.876 25.4912 149.456 26.6031C149.037 27.7069 148.42 28.7388 147.612 29.6827C146.805 30.6266 145.808 31.4025 144.629 32.0184C143.45 32.6343 142.097 32.9463 140.57 32.9463C138.971 32.9463 137.467 32.6343 136.051 32.0184C134.642 31.4025 133.416 30.4746 132.379 29.2427C131.342 28.0109 130.519 26.4591 129.91 24.5953C129.293 22.7235 128.992 20.5478 128.992 18.0681Z" fill="#010101"/>
<path d="M150.937 3.62988H162.451C164.184 3.62988 165.663 3.84586 166.882 4.2778C168.101 4.70975 169.09 5.30168 169.85 6.05358C170.609 6.80549 171.171 7.68538 171.519 8.69326C171.868 9.70114 172.05 10.797 172.05 11.9729C172.05 13.0927 171.899 14.1966 171.606 15.2924C171.314 16.3883 170.839 17.3722 170.19 18.2361C169.541 19.1 168.71 19.8039 167.705 20.3318C166.692 20.8598 165.473 21.1237 164.049 21.1237C163.155 21.1237 162.356 21.0117 161.651 20.7798C160.947 20.5478 160.33 20.2518 159.792 19.8999C159.261 19.5399 158.787 19.156 158.375 18.748C157.964 18.3321 157.6 17.9481 157.275 17.5962C156.951 17.2362 156.65 16.9482 156.373 16.7163C156.096 16.4843 155.827 16.3723 155.558 16.3723C155.178 16.3723 154.917 16.4683 154.782 16.6603C154.648 16.8523 154.585 17.0682 154.585 17.2922C154.585 17.6762 154.79 18.0601 155.202 18.4441C155.613 18.828 156.144 19.212 156.8 19.5879C157.457 19.9639 158.193 20.3238 159.016 20.6598C159.839 20.9957 160.662 21.3237 161.501 21.6277C162.569 22.0116 163.701 22.4436 164.904 22.9235C166.107 23.4034 167.207 23.9714 168.219 24.6113C169.232 25.2592 170.071 26.0111 170.752 26.875C171.424 27.7389 171.765 28.7468 171.765 29.8827C171.765 30.8105 171.63 31.4745 171.353 31.8904C171.076 32.3064 170.586 32.5143 169.881 32.5143H163.709C163.519 32.5143 163.329 32.4663 163.155 32.3703C162.973 32.2744 162.886 32.0984 162.886 31.8504C162.886 31.5784 162.91 31.3465 162.957 31.1545C163.004 30.9625 163.06 30.7625 163.131 30.5466C163.194 30.3386 163.258 30.1066 163.305 29.8507C163.353 29.6027 163.376 29.2907 163.376 28.9228C163.376 28.2908 163.179 27.6189 162.775 26.915C162.371 26.2111 161.865 25.5152 161.248 24.8353C160.63 24.1554 159.942 23.5074 159.19 22.8995C158.438 22.2916 157.71 21.7557 157.022 21.2837C156.326 20.8118 155.7 20.4438 155.139 20.1718C154.577 19.8999 154.181 19.7639 153.952 19.7639C153.738 19.7639 153.603 19.8439 153.54 19.9959C153.477 20.1478 153.437 20.2678 153.437 20.3398C153.437 20.8198 153.627 21.2517 154.007 21.6357C154.387 22.0196 154.862 22.4036 155.439 22.7795C156.009 23.1555 156.626 23.5474 157.299 23.9474C157.964 24.3553 158.581 24.8193 159.159 25.3472C159.728 25.8751 160.203 26.4831 160.591 27.163C160.979 27.8429 161.161 28.6508 161.161 29.5707C161.161 29.8587 161.121 30.1706 161.05 30.5066C160.971 30.8425 160.852 31.1625 160.678 31.4585C160.504 31.7544 160.29 32.0024 160.037 32.1944C159.784 32.3863 159.483 32.4823 159.135 32.4823H150.992C151.372 32.0984 151.633 31.6424 151.775 31.1065C151.918 30.5786 151.989 29.8986 151.989 29.0668V24.1314L151.957 18.0361V7.03746C151.957 6.21356 151.886 5.53365 151.744 4.99771C151.578 4.46978 151.316 4.01384 150.937 3.62988ZM161.96 15.3804C162.949 15.3804 163.954 15.3484 164.975 15.2924C165.996 15.2365 166.922 15.1085 167.745 14.9165C168.576 14.7245 169.248 14.4366 169.77 14.0606C170.293 13.6846 170.554 13.1727 170.554 12.5168C170.554 11.8609 170.229 11.3489 169.581 10.973C168.932 10.597 168.124 10.3171 167.151 10.1251C166.178 9.93311 165.125 9.80512 163.978 9.74913C162.83 9.69314 161.77 9.66114 160.781 9.66114C160.053 9.66114 159.261 9.69314 158.391 9.74913C157.52 9.80512 156.721 9.93311 155.977 10.1251C155.234 10.3171 154.616 10.605 154.118 10.973C153.619 11.3489 153.374 11.8609 153.374 12.5168C153.374 13.1727 153.635 13.6846 154.157 14.0606C154.68 14.4366 155.36 14.7245 156.183 14.9165C157.014 15.1085 157.932 15.2365 158.937 15.2924C159.974 15.3564 160.971 15.3804 161.96 15.3804Z" fill="#010101"/>
<path d="M179.963 21.7637C180.399 21.7797 180.77 21.9316 181.079 22.2116C181.38 22.4916 181.499 22.9075 181.419 23.4674C181.324 24.2194 181.245 25.0193 181.174 25.8672C181.111 26.715 181.166 27.4909 181.356 28.2029C181.546 28.9148 181.918 29.5067 182.472 29.9786C183.026 30.4506 183.857 30.6826 184.957 30.6826C185.511 30.6826 186.041 30.5786 186.539 30.3786C187.046 30.1786 187.489 29.8987 187.869 29.5547C188.249 29.2107 188.557 28.8028 188.787 28.3308C189.016 27.8589 189.127 27.347 189.127 26.787C189.127 26.0591 188.977 25.4112 188.684 24.8513C188.391 24.2913 187.995 23.8034 187.497 23.3955C186.998 22.9795 186.429 22.6276 185.78 22.3396C185.131 22.0516 184.458 21.7877 183.754 21.5637C182.345 21.1237 181 20.6598 179.726 20.1798C178.452 19.6999 177.328 19.1 176.371 18.3881C175.413 17.6762 174.645 16.8123 174.084 15.7884C173.522 14.7645 173.245 13.5007 173.245 11.9729C173.245 10.757 173.474 9.62115 173.941 8.54928C174.408 7.47741 175.049 6.54953 175.856 5.76562C176.663 4.97372 177.605 4.3498 178.673 3.88586C179.742 3.42191 180.873 3.18994 182.076 3.18994C182.63 3.18994 183.16 3.24593 183.675 3.36592C184.189 3.4859 184.703 3.61389 185.218 3.75787C185.732 3.90185 186.27 4.03784 186.832 4.16582C187.394 4.29381 187.995 4.3498 188.644 4.3498C189.143 4.3498 189.554 4.28581 189.887 4.16582C190.219 4.03784 190.512 3.90985 190.757 3.75787C191.003 3.61389 191.232 3.4859 191.43 3.36592C191.628 3.25393 191.841 3.18994 192.071 3.18994C192.411 3.18994 192.625 3.38992 192.712 3.78187C192.799 4.17382 192.783 4.66976 192.672 5.26969C192.561 5.86961 192.364 6.50953 192.087 7.18945C191.81 7.86937 191.462 8.51729 191.042 9.10921C190.623 9.70914 190.156 10.2051 189.626 10.597C189.103 10.989 188.557 11.189 187.98 11.189C186.935 11.189 185.962 11.005 185.075 10.637C184.189 10.2691 183.334 9.86912 182.504 9.43717C181.673 9.00523 180.842 8.61327 180.003 8.25332C179.164 7.89336 178.27 7.71738 177.32 7.71738C176.79 7.71738 176.331 7.91736 175.967 8.30931C175.595 8.70126 175.413 9.1812 175.413 9.74114C175.413 10.509 175.714 11.141 176.331 11.6369C176.94 12.1248 177.716 12.5168 178.658 12.8048C179.599 13.0927 180.644 13.3167 181.783 13.4687C182.923 13.6207 184.039 13.7486 185.123 13.8446C186.326 13.9566 187.418 14.2366 188.407 14.6845C189.396 15.1245 190.243 15.7004 190.947 16.4043C191.651 17.1082 192.197 17.9321 192.593 18.876C192.981 19.8199 193.179 20.8518 193.179 21.9636C193.179 23.2515 192.965 24.5473 192.538 25.8512C192.11 27.147 191.438 28.3228 190.528 29.3787C189.618 30.4346 188.439 31.2825 187.014 31.9464C185.59 32.6103 183.873 32.9463 181.87 32.9463C180.668 32.9463 179.536 32.7623 178.468 32.3943C177.399 32.0264 176.466 31.5385 175.666 30.9225C174.867 30.3066 174.226 29.6027 173.751 28.8028C173.276 28.0029 173.039 27.171 173.039 26.3071C173.039 26.0191 173.174 25.7072 173.451 25.3712C173.728 25.0353 174.076 24.6993 174.511 24.3633C174.938 24.0274 175.413 23.6994 175.943 23.3795C176.466 23.0595 176.988 22.7795 177.502 22.5396C178.017 22.2996 178.491 22.1076 178.927 21.9636C179.362 21.8196 179.718 21.7477 179.963 21.7637Z" fill="#010101"/>
</svg>
