<svg width="20" height="21" viewBox="0 0 20 21" fill="none" xmlns="http://www.w3.org/2000/svg">
<path d="M4.16699 8.69987H5.83366C7.50033 8.69987 8.33366 7.86654 8.33366 6.19987V4.5332C8.33366 2.86654 7.50033 2.0332 5.83366 2.0332H4.16699C2.50033 2.0332 1.66699 2.86654 1.66699 4.5332V6.19987C1.66699 7.86654 2.50033 8.69987 4.16699 8.69987Z" fill="#A0A1A4"/>
<path d="M14.167 8.69987H15.8337C17.5003 8.69987 18.3337 7.86654 18.3337 6.19987V4.5332C18.3337 2.86654 17.5003 2.0332 15.8337 2.0332H14.167C12.5003 2.0332 11.667 2.86654 11.667 4.5332V6.19987C11.667 7.86654 12.5003 8.69987 14.167 8.69987Z" fill="#A0A1A4"/>
<path d="M14.167 18.6999H15.8337C17.5003 18.6999 18.3337 17.8665 18.3337 16.1999V14.5332C18.3337 12.8665 17.5003 12.0332 15.8337 12.0332H14.167C12.5003 12.0332 11.667 12.8665 11.667 14.5332V16.1999C11.667 17.8665 12.5003 18.6999 14.167 18.6999Z" fill="#A0A1A4"/>
<path d="M4.16699 18.6999H5.83366C7.50033 18.6999 8.33366 17.8665 8.33366 16.1999V14.5332C8.33366 12.8665 7.50033 12.0332 5.83366 12.0332H4.16699C2.50033 12.0332 1.66699 12.8665 1.66699 14.5332V16.1999C1.66699 17.8665 2.50033 18.6999 4.16699 18.6999Z" fill="#A0A1A4"/>
</svg>
