<svg width="20" height="21" viewBox="0 0 20 21" fill="none" xmlns="http://www.w3.org/2000/svg">
<path d="M1.66699 2.0332H3.117C4.017 2.0332 4.72533 2.8082 4.65033 3.69987L3.95866 11.9999C3.84199 13.3582 4.91699 14.5249 6.28365 14.5249H15.1587C16.3587 14.5249 17.4087 13.5415 17.5003 12.3499L17.9503 6.09987C18.0503 4.71654 17.0003 3.59153 15.6087 3.59153H4.85033" fill="#A0A1A4"/>
<path d="M1.66699 2.0332H3.117C4.017 2.0332 4.72533 2.8082 4.65033 3.69987L3.95866 11.9999C3.84199 13.3582 4.91699 14.5249 6.28365 14.5249H15.1587C16.3587 14.5249 17.4087 13.5415 17.5003 12.3499L17.9503 6.09987C18.0503 4.71654 17.0003 3.59153 15.6087 3.59153H4.85033" stroke="#A0A1A4" stroke-width="1.5" stroke-miterlimit="10" stroke-linecap="round" stroke-linejoin="round"/>
<path d="M13.5417 18.6995C14.117 18.6995 14.5833 18.2332 14.5833 17.6579C14.5833 17.0826 14.117 16.6162 13.5417 16.6162C12.9664 16.6162 12.5 17.0826 12.5 17.6579C12.5 18.2332 12.9664 18.6995 13.5417 18.6995Z" fill="#A0A1A4" stroke="#A0A1A4" stroke-width="1.5" stroke-miterlimit="10" stroke-linecap="round" stroke-linejoin="round"/>
<path d="M6.87467 18.6995C7.44997 18.6995 7.91634 18.2332 7.91634 17.6579C7.91634 17.0826 7.44997 16.6162 6.87467 16.6162C6.29938 16.6162 5.83301 17.0826 5.83301 17.6579C5.83301 18.2332 6.29938 18.6995 6.87467 18.6995Z" fill="#A0A1A4" stroke="#A0A1A4" stroke-width="1.5" stroke-miterlimit="10" stroke-linecap="round" stroke-linejoin="round"/>
<path d="M7.5 7.0332H17.5" stroke="white" stroke-width="1.5" stroke-miterlimit="10" stroke-linecap="round" stroke-linejoin="round"/>
</svg>
