<svg width="20" height="21" viewBox="0 0 20 21" fill="none" xmlns="http://www.w3.org/2000/svg">
<path d="M18.333 5.36654V7.3832C18.333 8.69987 17.4997 9.5332 16.183 9.5332H13.333V3.7082C13.333 2.7832 14.0913 2.0332 15.0163 2.0332C15.9247 2.04154 16.758 2.4082 17.358 3.0082C17.958 3.61654 18.333 4.44987 18.333 5.36654Z" fill="#A0A1A4" stroke="#A0A1A4" stroke-width="1.5" stroke-miterlimit="10" stroke-linecap="round" stroke-linejoin="round"/>
<path d="M1.66699 6.19987V17.8665C1.66699 18.5582 2.45033 18.9499 3.00033 18.5332L4.42532 17.4665C4.75866 17.2165 5.22533 17.2499 5.52533 17.5499L6.90865 18.9415C7.23365 19.2665 7.767 19.2665 8.092 18.9415L9.49199 17.5415C9.78366 17.2499 10.2503 17.2165 10.5753 17.4665L12.0003 18.5332C12.5503 18.9415 13.3337 18.5499 13.3337 17.8665V3.69987C13.3337 2.7832 14.0837 2.0332 15.0003 2.0332H5.83366H5.00033C2.50033 2.0332 1.66699 3.52487 1.66699 5.36654V6.19987Z" fill="#A0A1A4" stroke="#A0A1A4" stroke-width="1.5" stroke-miterlimit="10" stroke-linecap="round" stroke-linejoin="round"/>
<path d="M5.20801 8.69922H9.79134" stroke="white" stroke-width="1.5" stroke-linecap="round" stroke-linejoin="round"/>
<path d="M7.5 10.9915V6.4082" stroke="white" stroke-width="1.5" stroke-linecap="round" stroke-linejoin="round"/>
</svg>
