<svg width="222" height="161" viewBox="0 0 222 161" fill="none" xmlns="http://www.w3.org/2000/svg">
<path d="M13.4648 75.6315C13.4648 73.1465 14.7475 71.6035 16.5739 71.6035C18.4002 71.6035 19.6867 73.1351 19.6867 75.6315C19.6867 78.1279 18.4041 79.6633 16.5739 79.6633C14.7437 79.6633 13.4648 78.1202 13.4648 75.6315ZM19.1048 75.6315C19.1048 73.4184 18.0748 72.1357 16.5739 72.1357C15.073 72.1357 14.043 73.4184 14.043 75.6315C14.043 77.8446 15.0768 79.1272 16.5739 79.1272C18.071 79.1272 19.1048 77.8446 19.1048 75.6315Z" fill="#EAEBEF"/>
<path d="M35.9481 71.668V79.6167H35.3699V72.181H33.4287V71.668H35.9481Z" fill="#EAEBEF"/>
<path d="M50.9766 75.6315C50.9766 73.1465 52.2592 71.6035 54.0856 71.6035C55.912 71.6035 57.1985 73.1351 57.1985 75.6315C57.1985 78.1279 55.912 79.6633 54.0856 79.6633C52.2592 79.6633 50.9766 78.1202 50.9766 75.6315ZM56.6165 75.6315C56.6165 73.4184 55.5865 72.1357 54.0856 72.1357C52.5847 72.1357 51.5547 73.4184 51.5547 75.6315C51.5547 77.8446 52.5885 79.1272 54.0856 79.1272C55.5827 79.1272 56.6165 77.8446 56.6165 75.6315Z" fill="#EAEBEF"/>
<path d="M69.7305 75.6315C69.7305 73.1465 71.0131 71.6035 72.8433 71.6035C74.6735 71.6035 75.9524 73.1351 75.9524 75.6315C75.9524 78.1279 74.6697 79.6633 72.8433 79.6633C71.017 79.6633 69.7305 78.1202 69.7305 75.6315ZM75.3742 75.6315C75.3742 73.4184 74.3404 72.1357 72.8433 72.1357C71.3463 72.1357 70.3125 73.4184 70.3125 75.6315C70.3125 77.8446 71.3424 79.1272 72.8433 79.1272C74.3443 79.1272 75.3742 77.8446 75.3742 75.6315Z" fill="#EAEBEF"/>
<path d="M91.8231 71.668V79.6167H91.2449V72.181H89.3037V71.668H91.8231Z" fill="#EAEBEF"/>
<path d="M107.242 75.6315C107.242 73.1465 108.525 71.6035 110.355 71.6035C112.185 71.6035 113.464 73.1351 113.464 75.6315C113.464 78.1279 112.181 79.6633 110.355 79.6633C108.529 79.6633 107.242 78.1202 107.242 75.6315ZM112.886 75.6315C112.886 73.4184 111.852 72.1357 110.355 72.1357C108.858 72.1357 107.824 73.4184 107.824 75.6315C107.824 77.8446 108.854 79.1272 110.355 79.1272C111.856 79.1272 112.886 77.8446 112.886 75.6315Z" fill="#EAEBEF"/>
<path d="M126 75.6315C126 73.1465 127.283 71.6035 129.109 71.6035C130.935 71.6035 132.222 73.1351 132.222 75.6315C132.222 78.1279 130.939 79.6633 129.109 79.6633C127.279 79.6633 126 78.1202 126 75.6315ZM131.64 75.6315C131.64 73.4184 130.61 72.1357 129.109 72.1357C127.608 72.1357 126.578 73.4184 126.578 75.6315C126.578 77.8446 127.612 79.1272 129.109 79.1272C130.606 79.1272 131.64 77.8446 131.64 75.6315Z" fill="#EAEBEF"/>
<path d="M13.4648 39.0045C13.4648 36.5196 14.7475 34.9766 16.5739 34.9766C18.4002 34.9766 19.6867 36.5081 19.6867 39.0045C19.6867 41.5009 18.4041 43.0363 16.5739 43.0363C14.7437 43.0363 13.4648 41.4933 13.4648 39.0045ZM19.1048 39.0045C19.1048 36.7914 18.0748 35.5088 16.5739 35.5088C15.073 35.5088 14.043 36.7914 14.043 39.0045C14.043 41.2176 15.0768 42.5041 16.5739 42.5041C18.071 42.5041 19.1048 41.2214 19.1048 39.0045Z" fill="#EAEBEF"/>
<path d="M35.9481 35.0342V42.9791H35.3699V35.5549H33.4287V35.0342H35.9481Z" fill="#EAEBEF"/>
<path d="M50.9766 39.0045C50.9766 36.5196 52.2592 34.9766 54.0856 34.9766C55.912 34.9766 57.1985 36.5081 57.1985 39.0045C57.1985 41.5009 55.9158 43.0363 54.0856 43.0363C52.2554 43.0363 50.9766 41.4933 50.9766 39.0045ZM56.6165 39.0045C56.6165 36.7914 55.5865 35.5088 54.0856 35.5088C52.5847 35.5088 51.5547 36.7914 51.5547 39.0045C51.5547 41.2176 52.5885 42.5041 54.0856 42.5041C55.5827 42.5041 56.6165 41.2214 56.6165 39.0045Z" fill="#EAEBEF"/>
<path d="M69.7305 39.0045C69.7305 36.5196 71.0131 34.9766 72.8433 34.9766C74.6735 34.9766 75.9524 36.5081 75.9524 39.0045C75.9524 41.5009 74.6697 43.0363 72.8433 43.0363C71.017 43.0363 69.7305 41.4933 69.7305 39.0045ZM75.3742 39.0045C75.3742 36.7914 74.3404 35.5088 72.8433 35.5088C71.3463 35.5088 70.3125 36.7914 70.3125 39.0045C70.3125 41.2176 71.3424 42.5041 72.8433 42.5041C74.3443 42.5041 75.3742 41.2214 75.3742 39.0045Z" fill="#EAEBEF"/>
<path d="M91.8269 35.0342V42.9791H91.2449V35.5549H89.3037V35.0342H91.8269Z" fill="#EAEBEF"/>
<path d="M107.242 39.0045C107.242 36.5196 108.525 34.9766 110.355 34.9766C112.185 34.9766 113.464 36.5081 113.464 39.0045C113.464 41.5009 112.181 43.0363 110.355 43.0363C108.529 43.0363 107.242 41.4933 107.242 39.0045ZM112.886 39.0045C112.886 36.7914 111.852 35.5088 110.355 35.5088C108.858 35.5088 107.824 36.7914 107.824 39.0045C107.824 41.2176 108.854 42.5041 110.355 42.5041C111.856 42.5041 112.886 41.2214 112.886 39.0045Z" fill="#EAEBEF"/>
<path d="M126 39.0045C126 36.5196 127.283 34.9766 129.109 34.9766C130.935 34.9766 132.222 36.5081 132.222 39.0045C132.222 41.5009 130.939 43.0363 129.109 43.0363C127.279 43.0363 126 41.4933 126 39.0045ZM131.64 39.0045C131.64 36.7914 130.61 35.5088 129.109 35.5088C127.608 35.5088 126.578 36.7914 126.578 39.0045C126.578 41.2176 127.612 42.5041 129.109 42.5041C130.606 42.5041 131.64 41.2214 131.64 39.0045Z" fill="#EAEBEF"/>
<path d="M13.4648 56.8316C13.4648 54.3428 14.7475 52.7998 16.5739 52.7998C18.4002 52.7998 19.6867 54.3313 19.6867 56.8316C19.6867 59.3318 18.4041 60.8596 16.5739 60.8596C14.7437 60.8596 13.4648 59.3165 13.4648 56.8316ZM19.1048 56.8316C19.1048 54.6185 18.0748 53.3358 16.5739 53.3358C15.073 53.3358 14.043 54.6185 14.043 56.8316C14.043 59.0447 15.0768 60.3274 16.5739 60.3274C18.071 60.3274 19.1048 59.0332 19.1048 56.8316Z" fill="#EAEBEF"/>
<path d="M32.2188 56.8316C32.2188 54.3428 33.5014 52.7998 35.3316 52.7998C37.1618 52.7998 38.4407 54.3313 38.4407 56.8316C38.4407 59.3318 37.158 60.8596 35.3316 60.8596C33.5052 60.8596 32.2188 59.3165 32.2188 56.8316ZM37.8625 56.8316C37.8625 54.6185 36.8287 53.3358 35.3316 53.3358C33.8345 53.3358 32.8007 54.6185 32.8007 56.8316C32.8007 59.0447 33.8307 60.3274 35.3316 60.3274C36.8325 60.3274 37.8625 59.0332 37.8625 56.8316Z" fill="#EAEBEF"/>
<path d="M50.9766 56.8316C50.9766 54.3428 52.2592 52.7998 54.0856 52.7998C55.912 52.7998 57.1985 54.3313 57.1985 56.8316C57.1985 59.3318 55.9158 60.8596 54.0856 60.8596C52.2554 60.8596 50.9766 59.3165 50.9766 56.8316ZM56.6165 56.8316C56.6165 54.6185 55.5865 53.3358 54.0856 53.3358C52.5847 53.3358 51.5547 54.6185 51.5547 56.8316C51.5547 59.0447 52.5885 60.3274 54.0856 60.3274C55.5827 60.3274 56.6165 59.0332 56.6165 56.8316Z" fill="#EAEBEF"/>
<path d="M73.4598 52.8574V60.8023H72.8817V53.3781H70.9404V52.8574H73.4598Z" fill="#EAEBEF"/>
<path d="M88.0977 57.318C88.0977 54.8331 89.3803 53.29 91.2067 53.29C93.0331 53.29 94.3157 54.8216 94.3157 57.318C94.3157 59.8144 93.0331 61.3498 91.2067 61.3498C89.3803 61.3498 88.0977 59.7991 88.0977 57.318ZM93.7376 57.318C93.7376 55.1049 92.7038 53.8223 91.2067 53.8223C89.7096 53.8223 88.6758 55.1049 88.6758 57.318C88.6758 59.5311 89.7096 60.8138 91.2067 60.8138C92.7038 60.8138 93.7376 59.5311 93.7376 57.318Z" fill="#EAEBEF"/>
<path d="M107.242 56.8316C107.242 54.3428 108.525 52.7998 110.355 52.7998C112.185 52.7998 113.464 54.3313 113.464 56.8316C113.464 59.3318 112.181 60.8596 110.355 60.8596C108.529 60.8596 107.242 59.3165 107.242 56.8316ZM112.886 56.8316C112.886 54.6185 111.852 53.3358 110.355 53.3358C108.858 53.3358 107.824 54.6185 107.824 56.8316C107.824 59.0447 108.854 60.3274 110.355 60.3274C111.856 60.3274 112.886 59.0332 112.886 56.8316Z" fill="#EAEBEF"/>
<path d="M129.728 52.8574V60.8023H129.15V53.3781H127.205V52.8574H129.728Z" fill="#EAEBEF"/>
<path d="M13.4648 4.03179C13.4648 1.54686 14.7475 0 16.5739 0C18.4002 0 19.6867 1.53154 19.6867 4.03179C19.6867 6.53204 18.4041 8.05976 16.5739 8.05976C14.7437 8.05976 13.4648 6.51672 13.4648 4.03179ZM19.1048 4.03179C19.1048 1.81871 18.0748 0.536041 16.5739 0.536041C15.073 0.536041 14.043 1.81871 14.043 4.03179C14.043 6.24488 15.0768 7.52755 16.5739 7.52755C18.071 7.52755 19.1048 6.24488 19.1048 4.03179Z" fill="#EAEBEF"/>
<path d="M35.9481 0.0693359V8.00657H35.3699V0.582404H33.4287V0.0693359H35.9481Z" fill="#EAEBEF"/>
<path d="M50.9766 4.03179C50.9766 1.54686 52.2592 0 54.0856 0C55.912 0 57.1985 1.53154 57.1985 4.03179C57.1985 6.53204 55.9158 8.05976 54.0856 8.05976C52.2554 8.05976 50.9766 6.51672 50.9766 4.03179ZM56.6165 4.03179C56.6165 1.81871 55.5865 0.536041 54.0856 0.536041C52.5847 0.536041 51.5547 1.81871 51.5547 4.03179C51.5547 6.24488 52.5885 7.52755 54.0856 7.52755C55.5827 7.52755 56.6165 6.24488 56.6165 4.03179Z" fill="#EAEBEF"/>
<path d="M69.7305 4.03179C69.7305 1.54686 71.0131 0 72.8433 0C74.6735 0 75.9524 1.53154 75.9524 4.03179C75.9524 6.53204 74.6697 8.05976 72.8433 8.05976C71.017 8.05976 69.7305 6.51672 69.7305 4.03179ZM75.3742 4.03179C75.3742 1.81871 74.3404 0.536041 72.8433 0.536041C71.3463 0.536041 70.3125 1.81871 70.3125 4.03179C70.3125 6.24488 71.3424 7.52755 72.8433 7.52755C74.3443 7.52755 75.3742 6.24488 75.3742 4.03179Z" fill="#EAEBEF"/>
<path d="M91.8269 0.0693359V8.00657H91.2449V0.582404H89.3037V0.0693359H91.8269Z" fill="#EAEBEF"/>
<path d="M107.242 4.03179C107.242 1.54686 108.525 0 110.355 0C112.185 0 113.464 1.53154 113.464 4.03179C113.464 6.53204 112.17 8.05976 110.355 8.05976C108.54 8.05976 107.242 6.51672 107.242 4.03179ZM112.886 4.03179C112.886 1.81871 111.852 0.536041 110.355 0.536041C108.858 0.536041 107.824 1.81871 107.824 4.03179C107.824 6.24488 108.854 7.52755 110.355 7.52755C111.856 7.52755 112.886 6.24488 112.886 4.03179Z" fill="#EAEBEF"/>
<path d="M126 4.03179C126 1.54686 127.283 0 129.109 0C130.935 0 132.222 1.53154 132.222 4.03179C132.222 6.53204 130.932 8.05976 129.109 8.05976C127.286 8.05976 126 6.51672 126 4.03179ZM131.64 4.03179C131.64 1.81871 130.61 0.536041 129.109 0.536041C127.608 0.536041 126.578 1.81871 126.578 4.03179C126.578 6.24488 127.612 7.52755 129.109 7.52755C130.606 7.52755 131.64 6.24488 131.64 4.03179Z" fill="#EAEBEF"/>
<path d="M13.4648 21.8551C13.4648 19.3702 14.7475 17.8271 16.5739 17.8271C18.4002 17.8271 19.6867 19.3587 19.6867 21.8551C19.6867 24.3515 18.4041 25.8869 16.5739 25.8869C14.7437 25.8869 13.4648 24.34 13.4648 21.8551ZM19.1048 21.8551C19.1048 19.642 18.0748 18.3594 16.5739 18.3594C15.073 18.3594 14.043 19.642 14.043 21.8551C14.043 24.0682 15.0768 25.3509 16.5739 25.3509C18.071 25.3509 19.1048 24.0682 19.1048 21.8551Z" fill="#EAEBEF"/>
<path d="M32.2188 21.8551C32.2188 19.3702 33.5014 17.8271 35.3316 17.8271C37.1618 17.8271 38.4407 19.3587 38.4407 21.8551C38.4407 24.3515 37.158 25.8869 35.3316 25.8869C33.5052 25.8869 32.2188 24.34 32.2188 21.8551ZM37.8625 21.8551C37.8625 19.642 36.8287 18.3594 35.3316 18.3594C33.8345 18.3594 32.8007 19.642 32.8007 21.8551C32.8007 24.0682 33.8307 25.3509 35.3316 25.3509C36.8325 25.3509 37.8625 24.0682 37.8625 21.8551Z" fill="#EAEBEF"/>
<path d="M50.9766 21.8551C50.9766 19.3702 52.2592 17.8271 54.0856 17.8271C55.912 17.8271 57.1985 19.3587 57.1985 21.8551C57.1985 24.3515 55.9158 25.8869 54.0856 25.8869C52.2554 25.8869 50.9766 24.34 50.9766 21.8551ZM56.6165 21.8551C56.6165 19.642 55.5865 18.3594 54.0856 18.3594C52.5847 18.3594 51.5547 19.642 51.5547 21.8551C51.5547 24.0682 52.5885 25.3509 54.0856 25.3509C55.5827 25.3509 56.6165 24.0682 56.6165 21.8551Z" fill="#EAEBEF"/>
<path d="M73.4598 17.8809V25.8296H72.8817V18.4054H70.9404V17.8809H73.4598Z" fill="#EAEBEF"/>
<path d="M88.0977 22.3453C88.0977 19.8565 89.3803 18.3135 91.2067 18.3135C93.0331 18.3135 94.3157 19.845 94.3157 22.3453C94.3157 24.8455 93.0254 26.3732 91.2067 26.3732C89.388 26.3732 88.0977 24.8302 88.0977 22.3453ZM93.7376 22.3453C93.7376 20.1284 92.7038 18.8495 91.2067 18.8495C89.7096 18.8495 88.6758 20.1284 88.6758 22.3453C88.6758 24.5622 89.7096 25.841 91.2067 25.841C92.7038 25.841 93.7376 24.5737 93.7376 22.3453Z" fill="#EAEBEF"/>
<path d="M107.242 21.8551C107.242 19.3702 108.525 17.8271 110.355 17.8271C112.185 17.8271 113.464 19.3587 113.464 21.8551C113.464 24.3515 112.181 25.8869 110.355 25.8869C108.529 25.8869 107.242 24.34 107.242 21.8551ZM112.886 21.8551C112.886 19.642 111.852 18.3594 110.355 18.3594C108.858 18.3594 107.824 19.642 107.824 21.8551C107.824 24.0682 108.854 25.3509 110.355 25.3509C111.856 25.3509 112.886 24.0682 112.886 21.8551Z" fill="#EAEBEF"/>
<path d="M129.728 17.8809V25.8296H129.15V18.4054H127.205V17.8809H129.728Z" fill="#EAEBEF"/>
<path d="M144.898 75.6315C144.898 73.1465 146.181 71.6035 148.007 71.6035C149.834 71.6035 151.12 73.1351 151.12 75.6315C151.12 78.1279 149.838 79.6633 148.007 79.6633C146.177 79.6633 144.898 78.1202 144.898 75.6315ZM150.538 75.6315C150.538 73.4184 149.508 72.1357 148.007 72.1357C146.507 72.1357 145.477 73.4184 145.477 75.6315C145.477 77.8446 146.51 79.1272 148.007 79.1272C149.505 79.1272 150.538 77.8446 150.538 75.6315Z" fill="#EAEBEF"/>
<path d="M163.655 75.6315C163.655 73.1465 164.934 71.6035 166.764 71.6035C168.595 71.6035 169.873 73.1351 169.873 75.6315C169.873 78.1279 168.591 79.6633 166.764 79.6633C164.938 79.6633 163.655 78.1202 163.655 75.6315ZM169.295 75.6315C169.295 73.4184 168.261 72.1357 166.764 72.1357C165.267 72.1357 164.233 73.4184 164.233 75.6315C164.233 77.8446 165.267 79.1272 166.764 79.1272C168.261 79.1272 169.295 77.8446 169.295 75.6315Z" fill="#EAEBEF"/>
<path d="M185.749 71.668V79.6167H185.167V72.181H183.226V71.668H185.749Z" fill="#EAEBEF"/>
<path d="M201.167 75.6315C201.167 73.1465 202.446 71.6035 204.276 71.6035C206.106 71.6035 207.385 73.1351 207.385 75.6315C207.385 78.1279 206.102 79.6633 204.276 79.6633C202.45 79.6633 201.167 78.1202 201.167 75.6315ZM206.807 75.6315C206.807 73.4184 205.773 72.1357 204.276 72.1357C202.779 72.1357 201.745 73.4184 201.745 75.6315C201.745 77.8446 202.779 79.1272 204.276 79.1272C205.773 79.1272 206.807 77.8446 206.807 75.6315Z" fill="#EAEBEF"/>
<path d="M144.898 39.0045C144.898 36.5196 146.181 34.9766 148.007 34.9766C149.834 34.9766 151.12 36.5081 151.12 39.0045C151.12 41.5009 149.838 43.0363 148.007 43.0363C146.177 43.0363 144.898 41.4933 144.898 39.0045ZM150.538 39.0045C150.538 36.7914 149.508 35.5088 148.007 35.5088C146.507 35.5088 145.477 36.7914 145.477 39.0045C145.477 41.2176 146.51 42.5041 148.007 42.5041C149.505 42.5041 150.538 41.2214 150.538 39.0045Z" fill="#EAEBEF"/>
<path d="M163.655 39.0045C163.655 36.5196 164.934 34.9766 166.764 34.9766C168.595 34.9766 169.873 36.5081 169.873 39.0045C169.873 41.5009 168.591 43.0363 166.764 43.0363C164.938 43.0363 163.655 41.4933 163.655 39.0045ZM169.295 39.0045C169.295 36.7914 168.261 35.5088 166.764 35.5088C165.267 35.5088 164.233 36.7914 164.233 39.0045C164.233 41.2176 165.267 42.5041 166.764 42.5041C168.261 42.5041 169.295 41.2214 169.295 39.0045Z" fill="#EAEBEF"/>
<path d="M185.749 35.0342V42.9791H185.167V35.5549H183.226V35.0342H185.749Z" fill="#EAEBEF"/>
<path d="M201.167 39.0045C201.167 36.5196 202.45 34.9766 204.276 34.9766C206.102 34.9766 207.385 36.5081 207.385 39.0045C207.385 41.5009 206.102 43.0363 204.276 43.0363C202.45 43.0363 201.167 41.4933 201.167 39.0045ZM206.807 39.0045C206.807 36.7914 205.773 35.5088 204.276 35.5088C202.779 35.5088 201.745 36.7914 201.745 39.0045C201.745 41.2176 202.779 42.5041 204.276 42.5041C205.773 42.5041 206.807 41.2214 206.807 39.0045Z" fill="#EAEBEF"/>
<path d="M144.898 56.8316C144.898 54.3428 146.181 52.7998 148.007 52.7998C149.834 52.7998 151.12 54.3313 151.12 56.8316C151.12 59.3318 149.838 60.8596 148.007 60.8596C146.177 60.8596 144.898 59.3165 144.898 56.8316ZM150.542 56.8316C150.542 54.6185 149.508 53.3358 148.007 53.3358C146.507 53.3358 145.477 54.6185 145.477 56.8316C145.477 59.0447 146.51 60.3274 148.007 60.3274C149.505 60.3274 150.542 59.0332 150.542 56.8316Z" fill="#EAEBEF"/>
<path d="M167.382 52.8574V60.8023H166.804V53.3781H164.862V52.8574H167.382Z" fill="#EAEBEF"/>
<path d="M182.02 57.318C182.02 54.8331 183.302 53.29 185.129 53.29C186.955 53.29 188.241 54.8216 188.241 57.318C188.241 59.8144 186.955 61.3498 185.129 61.3498C183.302 61.3498 182.02 59.7991 182.02 57.318ZM187.659 57.318C187.659 55.1049 186.629 53.8223 185.129 53.8223C183.628 53.8223 182.598 55.1049 182.598 57.318C182.598 59.5311 183.631 60.8138 185.129 60.8138C186.626 60.8138 187.659 59.5311 187.659 57.318Z" fill="#EAEBEF"/>
<path d="M201.167 56.8316C201.167 54.3428 202.45 52.7998 204.276 52.7998C206.102 52.7998 207.385 54.3313 207.385 56.8316C207.385 59.3318 206.102 60.8596 204.276 60.8596C202.45 60.8596 201.167 59.3165 201.167 56.8316ZM206.807 56.8316C206.807 54.6185 205.773 53.3358 204.276 53.3358C202.779 53.3358 201.745 54.6185 201.745 56.8316C201.745 59.0447 202.779 60.3274 204.276 60.3274C205.773 60.3274 206.807 59.0332 206.807 56.8316Z" fill="#EAEBEF"/>
<path d="M144.898 4.03179C144.898 1.54686 146.181 0 148.007 0C149.834 0 151.12 1.53154 151.12 4.03179C151.12 6.53204 149.838 8.05976 148.007 8.05976C146.177 8.05976 144.898 6.51672 144.898 4.03179ZM150.538 4.03179C150.538 1.81871 149.508 0.536041 148.007 0.536041C146.507 0.536041 145.48 1.81871 145.48 4.03179C145.48 6.24488 146.514 7.52755 148.011 7.52755C149.508 7.52755 150.538 6.24488 150.538 4.03179Z" fill="#EAEBEF"/>
<path d="M163.655 4.03179C163.655 1.54686 164.934 0 166.764 0C168.595 0 169.873 1.53154 169.873 4.03179C169.873 6.53204 168.591 8.05976 166.764 8.05976C164.938 8.05976 163.655 6.51672 163.655 4.03179ZM169.295 4.03179C169.295 1.81871 168.261 0.536041 166.764 0.536041C165.267 0.536041 164.241 1.81871 164.241 4.03179C164.241 6.24488 165.275 7.52755 166.772 7.52755C168.269 7.52755 169.295 6.24488 169.295 4.03179Z" fill="#EAEBEF"/>
<path d="M185.749 0.0693359V8.00657H185.167V0.582404H183.226V0.0693359H185.749Z" fill="#EAEBEF"/>
<path d="M201.167 4.03179C201.167 1.54686 202.45 0 204.276 0C206.102 0 207.385 1.53154 207.385 4.03179C207.385 6.53204 206.102 8.05976 204.276 8.05976C202.45 8.05976 201.167 6.51672 201.167 4.03179ZM206.807 4.03179C206.807 1.81871 205.773 0.536041 204.276 0.536041C202.779 0.536041 201.764 1.81871 201.764 4.03179C201.764 6.24488 202.798 7.52755 204.295 7.52755C205.792 7.52755 206.807 6.24488 206.807 4.03179Z" fill="#EAEBEF"/>
<path d="M144.898 21.8551C144.898 19.3702 146.181 17.8271 148.007 17.8271C149.834 17.8271 151.12 19.3587 151.12 21.8551C151.12 24.3515 149.838 25.8869 148.007 25.8869C146.177 25.8869 144.898 24.34 144.898 21.8551ZM150.542 21.8551C150.542 19.642 149.508 18.3594 148.007 18.3594C146.507 18.3594 145.48 19.642 145.48 21.8551C145.48 24.0682 146.514 25.3509 148.011 25.3509C149.508 25.3509 150.542 24.0682 150.542 21.8551Z" fill="#EAEBEF"/>
<path d="M167.382 17.8809V25.8296H166.804V18.4054H164.862V17.8809H167.382Z" fill="#EAEBEF"/>
<path d="M182.02 22.3453C182.02 19.8565 183.302 18.3135 185.129 18.3135C186.955 18.3135 188.241 19.845 188.241 22.3453C188.241 24.8455 186.955 26.3732 185.129 26.3732C183.302 26.3732 182.02 24.8302 182.02 22.3453ZM187.659 22.3453C187.659 20.1284 186.629 18.8495 185.129 18.8495C183.628 18.8495 182.598 20.1284 182.598 22.3453C182.598 24.5622 183.631 25.841 185.129 25.841C186.626 25.841 187.659 24.5737 187.659 22.3453Z" fill="#EAEBEF"/>
<path d="M201.167 21.8551C201.167 19.3702 202.45 17.8271 204.276 17.8271C206.102 17.8271 207.385 19.3587 207.385 21.8551C207.385 24.3515 206.102 25.8869 204.276 25.8869C202.45 25.8869 201.167 24.34 201.167 21.8551ZM206.807 21.8551C206.807 19.642 205.773 18.3594 204.276 18.3594C202.779 18.3594 201.764 19.642 201.764 21.8551C201.764 24.0682 202.798 25.3509 204.295 25.3509C205.792 25.3509 206.807 24.0682 206.807 21.8551Z" fill="#EAEBEF"/>
<path d="M181.276 30.7832H38.4976C35.4166 30.7832 32.9189 33.2808 32.9189 36.3619V126.999C32.9189 130.08 35.4166 132.577 38.4976 132.577H181.276C184.357 132.577 186.855 130.08 186.855 126.999V36.3619C186.855 33.2808 184.357 30.7832 181.276 30.7832Z" fill="#383742"/>
<path d="M26.4833 125.05H193.261V127.144C193.261 128.952 192.543 130.685 191.265 131.963C189.987 133.242 188.253 133.96 186.446 133.96H33.2949C31.4873 133.96 29.7538 133.242 28.4757 131.963C27.1975 130.685 26.4795 128.952 26.4795 127.144V125.05H26.4833Z" fill="#383742"/>
<path d="M182.294 34.8301H37.0537V120.796H182.294V34.8301Z" fill="#EAEBEF"/>
<path d="M94.7129 125.05L96.7805 128.343H125.903L127.825 125.05H94.7129Z" fill="#E0E1E7" fill-opacity="0.5"/>
<path d="M178.347 37.7402H41.297C40.6055 37.7402 40.0449 38.3008 40.0449 38.9923V119.268C40.0449 119.96 40.6055 120.52 41.297 120.52H178.347C179.039 120.52 179.599 119.96 179.599 119.268V38.9923C179.599 38.3008 179.039 37.7402 178.347 37.7402Z" fill="#E0E1E7" fill-opacity="0.5"/>
<path d="M179.599 43.8047H40.0449V120.52H179.599V43.8047Z" fill="#FAFAFA"/>
<path d="M51.4891 40.9374C51.4884 41.1576 51.4224 41.3726 51.2995 41.5553C51.1766 41.7381 51.0023 41.8803 50.7987 41.964C50.595 42.0478 50.3711 42.0693 50.1552 42.0259C49.9393 41.9824 49.7412 41.876 49.5857 41.72C49.4303 41.5641 49.3246 41.3655 49.2819 41.1495C49.2392 40.9335 49.2615 40.7096 49.3459 40.5063C49.4304 40.3029 49.5732 40.1291 49.7563 40.0068C49.9395 39.8846 50.1547 39.8193 50.3749 39.8193C50.5216 39.8193 50.6668 39.8483 50.8022 39.9045C50.9376 39.9607 51.0606 40.0432 51.1641 40.147C51.2677 40.2509 51.3497 40.3742 51.4054 40.5098C51.4612 40.6454 51.4896 40.7907 51.4891 40.9374Z" fill="#DE755E"/>
<path d="M44.7352 40.9374C44.7345 41.1576 44.6685 41.3726 44.5456 41.5553C44.4227 41.7381 44.2484 41.8803 44.0448 41.964C43.8411 42.0478 43.6172 42.0693 43.4013 42.0259C43.1854 41.9824 42.9873 41.876 42.8318 41.72C42.6764 41.5641 42.5706 41.3655 42.528 41.1495C42.4853 40.9335 42.5076 40.7096 42.592 40.5063C42.6765 40.3029 42.8193 40.1291 43.0024 40.0068C43.1856 39.8846 43.4008 39.8193 43.621 39.8193C43.7677 39.8193 43.9129 39.8483 44.0483 39.9045C44.1837 39.9607 44.3067 40.0432 44.4102 40.147C44.5138 40.2509 44.5957 40.3742 44.6515 40.5098C44.7073 40.6454 44.7357 40.7907 44.7352 40.9374Z" fill="#DE755E"/>
<path d="M47.9774 40.9374C47.9767 41.1576 47.9107 41.3726 47.7878 41.5553C47.6649 41.7381 47.4906 41.8803 47.287 41.964C47.0833 42.0478 46.8594 42.0693 46.6435 42.0259C46.4276 41.9824 46.2295 41.876 46.074 41.72C45.9186 41.5641 45.8128 41.3655 45.7702 41.1495C45.7275 40.9335 45.7498 40.7096 45.8342 40.5063C45.9186 40.3029 46.0615 40.1291 46.2446 40.0068C46.4277 39.8846 46.643 39.8193 46.8632 39.8193C47.0099 39.8193 47.1551 39.8483 47.2905 39.9045C47.4259 39.9607 47.5489 40.0432 47.6524 40.147C47.7559 40.2509 47.8379 40.3742 47.8937 40.5098C47.9495 40.6454 47.9779 40.7907 47.9774 40.9374Z" fill="#DE755E"/>
<path d="M144.428 75.757L144.861 75.7225C145.002 75.7225 145.179 75.6766 145.389 75.6421C145.627 75.5861 145.861 75.5144 146.09 75.4277C146.732 75.1804 147.313 74.7947 147.79 74.2982C148.091 73.9818 148.349 73.6264 148.556 73.2414C148.785 72.7992 148.944 72.3238 149.027 71.8324C149.134 71.2004 149.11 70.553 148.956 69.9307C148.802 69.3084 148.522 68.7245 148.132 68.2156C147.742 67.7067 147.251 67.2838 146.69 66.9732C146.129 66.6627 145.51 66.4712 144.872 66.4108C144.489 66.384 144.106 66.3878 143.724 66.3878H140.044H134.622L75.2214 66.4146C74.1541 66.4199 73.1212 66.7929 72.2969 67.4708C71.4725 68.1487 70.907 69.0901 70.6957 70.1362C70.5613 70.8199 70.5809 71.5249 70.7531 72.2C71.0161 73.1977 71.6052 74.0789 72.4266 74.7033C73.2481 75.3277 74.2547 75.6596 75.2865 75.646H77.3464H93.1175L119.824 75.6651L137.819 75.6996H142.713H143.988H144.42C144.42 75.6996 144.275 75.6996 143.988 75.6996H142.713L137.819 75.7187L119.824 75.7494L93.1175 75.7723H75.2865C74.5773 75.7843 73.8746 75.6364 73.2304 75.3397C72.5742 75.0444 71.9927 74.6056 71.5288 74.0555C71.0649 73.5055 70.7305 72.8583 70.5502 72.1617C70.3654 71.456 70.3448 70.7173 70.4902 70.0024C70.6356 69.2875 70.9429 68.6155 71.3887 68.038C71.8395 67.4509 72.4193 66.9754 73.0832 66.6481C73.7471 66.3208 74.4774 66.1505 75.2176 66.1504L134.619 66.181H140.04H143.727C144.11 66.181 144.493 66.181 144.876 66.2078C145.653 66.2865 146.399 66.555 147.048 66.9896C147.697 67.4243 148.23 68.0118 148.598 68.7004C148.967 69.3891 149.161 70.1578 149.163 70.9389C149.165 71.7201 148.975 72.4897 148.609 73.1802C148.394 73.5684 148.131 73.9275 147.824 74.2484C147.336 74.7444 146.745 75.1285 146.094 75.3741C145.861 75.4588 145.623 75.5279 145.381 75.5809C145.171 75.6115 144.999 75.6421 144.853 75.6536C144.577 75.757 144.428 75.757 144.428 75.757Z" fill="#383742"/>
<path d="M144.427 75.7577H135.372V66.3311H144.427C145.677 66.3311 146.876 66.8276 147.76 67.7116C148.644 68.5955 149.141 69.7943 149.141 71.0444C149.141 72.2944 148.644 73.4933 147.76 74.3772C146.876 75.2611 145.677 75.7577 144.427 75.7577Z" fill="#DE755E"/>
<path d="M142.846 70.1551C142.827 70.1551 142.827 69.9982 142.75 69.7263C142.64 69.3494 142.409 69.0196 142.091 68.7882C141.895 68.6416 141.67 68.5388 141.431 68.4868C141.192 68.4348 140.944 68.4349 140.705 68.4869C140.466 68.539 140.241 68.6419 140.045 68.7886C139.849 68.9354 139.687 69.1225 139.569 69.3374C139.452 69.5522 139.382 69.7898 139.365 70.034C139.348 70.2782 139.383 70.5232 139.468 70.7526C139.554 70.9819 139.688 71.1902 139.861 71.3632C140.034 71.5363 140.242 71.6701 140.472 71.7556C140.74 71.8538 141.029 71.8842 141.312 71.8442C141.596 71.8041 141.864 71.6948 142.095 71.5259C142.411 71.2921 142.641 70.9612 142.75 70.584C142.827 70.316 142.827 70.1551 142.846 70.1551C142.853 70.1944 142.853 70.2346 142.846 70.2738C142.852 70.3845 142.841 70.4955 142.815 70.6031C142.727 71.0127 142.498 71.3784 142.168 71.6369C141.921 71.8305 141.629 71.9586 141.319 72.0094C141.009 72.0603 140.691 72.0323 140.395 71.9279C140.03 71.7977 139.714 71.5575 139.49 71.2405C139.267 70.9235 139.146 70.545 139.146 70.1571C139.146 69.7691 139.267 69.3907 139.49 69.0736C139.714 68.7566 140.03 68.5165 140.395 68.3862C140.691 68.2803 141.009 68.251 141.319 68.3012C141.629 68.3515 141.921 68.4795 142.168 68.6734C142.497 68.9326 142.726 69.298 142.815 69.7072C142.842 69.8161 142.852 69.9283 142.846 70.0403C142.853 70.0782 142.853 70.1172 142.846 70.1551Z" fill="white"/>
<path d="M145.256 73.1527C144.741 72.9217 144.253 72.634 143.801 72.295C143.315 72.0111 142.864 71.6719 142.457 71.2842C143.463 71.7951 144.403 72.4264 145.256 73.1642V73.1527Z" fill="white"/>
<path d="M76.358 73.6934C76.2588 72.8037 76.2255 71.9078 76.2585 71.0132C76.2254 70.1186 76.2587 69.2227 76.358 68.333C76.4574 69.2227 76.4906 70.1186 76.4576 71.0132C76.4905 71.9078 76.4572 72.8037 76.358 73.6934Z" fill="#E0E1E7" fill-opacity="0.5"/>
<path d="M87.5183 92.0146H64.8936V113.904H87.5183V92.0146Z" fill="#EAEBEF"/>
<path d="M66.6523 112.031L72.9087 100.767L78.0279 107.965L81.1408 104.144L85.766 112.031H66.6523Z" fill="#DE755E"/>
<path d="M80.2085 98.5775C80.2092 98.9004 80.1141 99.2163 79.9352 99.4851C79.7562 99.7539 79.5015 99.9636 79.2033 100.088C78.9051 100.211 78.5769 100.244 78.2601 100.181C77.9434 100.118 77.6524 99.963 77.424 99.7347C77.1957 99.5063 77.0403 99.2153 76.9774 98.8986C76.9146 98.5818 76.9473 98.2535 77.0712 97.9553C77.1951 97.6571 77.4048 97.4024 77.6736 97.2235C77.9424 97.0446 78.2583 96.9494 78.5812 96.9502C79.0128 96.9502 79.4267 97.1216 79.7319 97.4268C80.037 97.732 80.2085 98.1459 80.2085 98.5775Z" fill="#DE755E"/>
<path d="M85.7502 112.093C85.7502 112.093 85.7502 112.058 85.7502 112.001C85.7502 111.944 85.7502 111.852 85.7502 111.748C85.7502 111.513 85.7502 111.184 85.7502 110.76C85.7502 109.895 85.7502 108.639 85.7233 107.046C85.7233 103.849 85.6965 99.293 85.6774 93.8292L85.7693 93.9211H66.6556C66.6288 93.9441 66.8585 93.7182 66.7628 93.8177V96.2873C66.7628 97.1093 66.7628 97.9223 66.7628 98.7263V103.447C66.7628 106.51 66.7628 109.409 66.7628 112.078L66.6709 111.982L80.4893 112.032L84.3909 112.055H85.4247H85.6927H85.7846H85.7042H85.4438H84.4292L80.5506 112.081L66.6709 112.127H66.5752V112.035C66.5752 109.355 66.5752 106.468 66.5752 103.405V98.7455C66.5752 97.9414 66.5752 97.1284 66.5752 96.3065V93.8369C66.4795 93.9288 66.7092 93.699 66.6862 93.7258H85.7999H85.8957V93.8177C85.8727 99.3083 85.8574 103.88 85.8459 107.092C85.8459 108.678 85.8267 109.926 85.8229 110.787C85.8229 111.205 85.8229 111.526 85.8229 111.756C85.8229 111.859 85.8229 111.94 85.8229 112.001C85.8044 112.036 85.7798 112.067 85.7502 112.093Z" fill="#E0E1E7" fill-opacity="0.5"/>
<path d="M123.533 92.0146H100.908V113.904H123.533V92.0146Z" fill="#DE755E"/>
<path d="M102.661 112.031L108.921 100.767L114.041 107.965L117.15 104.144L121.779 112.031H102.661Z" fill="#EAEBEF"/>
<path d="M116.22 98.5775C116.22 98.8993 116.125 99.2139 115.946 99.4815C115.767 99.7491 115.513 99.9577 115.216 100.081C114.918 100.204 114.591 100.236 114.276 100.173C113.96 100.111 113.67 99.9557 113.442 99.7281C113.215 99.5005 113.06 99.2106 112.997 98.8949C112.934 98.5793 112.967 98.2521 113.09 97.9547C113.213 97.6574 113.421 97.4032 113.689 97.2244C113.957 97.0456 114.271 96.9502 114.593 96.9502C115.025 96.9502 115.439 97.1216 115.744 97.4268C116.049 97.732 116.22 98.1459 116.22 98.5775Z" fill="#EAEBEF"/>
<path d="M121.78 112.093C121.78 112.093 121.78 112.058 121.78 112.001C121.78 111.944 121.78 111.852 121.78 111.748C121.78 111.513 121.78 111.184 121.78 110.76C121.78 109.895 121.78 108.639 121.757 107.046C121.757 103.849 121.73 99.293 121.711 93.8292L121.803 93.9211H102.689L102.792 93.8177V98.7263C102.792 100.334 102.792 101.907 102.792 103.443C102.792 106.507 102.792 109.405 102.792 112.074L102.697 111.978L116.519 112.028L120.417 112.051H121.45H121.718H121.814H121.73H121.473H120.455L116.58 112.078L102.697 112.124H102.605V112.032C102.605 109.351 102.605 106.464 102.605 103.401C102.605 101.87 102.605 100.297 102.605 98.6842V93.8369C102.509 93.9288 102.735 93.699 102.716 93.7258H121.83H121.921V93.8177C121.921 99.3083 121.887 103.88 121.875 107.092C121.875 108.678 121.856 109.926 121.849 110.787C121.849 111.205 121.849 111.526 121.849 111.756C121.849 111.859 121.849 111.94 121.849 112.001C121.829 112.034 121.805 112.064 121.78 112.093Z" fill="#E0E1E7" fill-opacity="0.5"/>
<path d="M159.548 92.0146H136.923V113.904H159.548V92.0146Z" fill="#EAEBEF"/>
<path d="M138.676 112.031L144.932 100.767L150.051 107.965L153.164 104.144L157.789 112.031H138.676Z" fill="#DE755E"/>
<path d="M152.234 98.5775C152.235 98.9004 152.14 99.2163 151.961 99.4851C151.782 99.7539 151.527 99.9636 151.229 100.088C150.931 100.211 150.602 100.244 150.285 100.181C149.969 100.118 149.678 99.963 149.449 99.7347C149.221 99.5063 149.066 99.2153 149.003 98.8986C148.94 98.5818 148.973 98.2535 149.097 97.9553C149.22 97.6571 149.43 97.4024 149.699 97.2235C149.968 97.0446 150.284 96.9494 150.607 96.9502C151.038 96.9502 151.452 97.1216 151.757 97.4268C152.062 97.732 152.234 98.1459 152.234 98.5775Z" fill="#DE755E"/>
<path d="M157.795 112.093C157.792 112.062 157.792 112.032 157.795 112.001C157.795 111.936 157.795 111.852 157.795 111.748C157.795 111.513 157.795 111.184 157.795 110.76C157.795 109.895 157.795 108.639 157.772 107.046C157.772 103.849 157.741 99.293 157.722 93.8292L157.818 93.9211H138.7C138.677 93.9441 138.903 93.7182 138.807 93.8177V98.7263C138.807 100.334 138.807 101.907 138.807 103.443C138.807 106.507 138.807 109.405 138.807 112.074L138.716 111.978L152.538 112.028L156.436 112.051H157.469H157.737H157.833H157.749H157.488H156.474L152.595 112.078L138.716 112.124H138.589V112.032C138.589 109.351 138.589 106.464 138.589 103.401C138.589 101.87 138.589 100.297 138.589 98.6842V93.8369C138.493 93.9288 138.719 93.699 138.696 93.7258H157.814H157.906V93.8177C157.906 99.3083 157.868 103.88 157.856 107.092C157.856 108.678 157.856 109.926 157.833 110.787C157.833 111.205 157.833 111.526 157.833 111.756C157.833 111.859 157.833 111.94 157.833 112.001C157.833 112.062 157.795 112.093 157.795 112.093Z" fill="#E0E1E7" fill-opacity="0.5"/>
<path d="M124.15 55.25H95.4951V57.6507H124.15V55.25Z" fill="#E0E1E7" fill-opacity="0.5"/>
<path d="M185.534 125.05C185.534 125.107 151.365 125.149 109.228 125.149C67.0916 125.149 32.9189 125.107 32.9189 125.05C32.9189 124.992 67.0801 124.95 109.228 124.95C151.376 124.95 185.534 124.996 185.534 125.05Z" fill="#E0E1E7" fill-opacity="0.5"/>
<path d="M11.1288 83.1317C8.96169 83.484 7.99299 86.1489 8.18061 88.3352C8.36822 90.5214 9.27183 92.6656 9.03061 94.8442C8.7243 97.6163 6.62991 99.9596 6.38487 102.739C6.0977 106.017 8.41417 108.923 9.10719 112.139C9.44413 113.705 9.39435 115.359 9.97634 116.849C10.4711 118.12 11.3919 119.18 12.5814 119.848C13.7709 120.515 15.1553 120.749 16.4983 120.51C17.8412 120.27 19.0592 119.572 19.9445 118.534C20.8297 117.496 21.3272 116.183 21.3519 114.819C21.3978 112.304 19.8471 109.934 20.0348 107.422C20.1726 105.569 21.26 103.808 21.0303 101.962C20.7508 99.7681 18.733 98.2098 17.9978 96.1154C17.2627 94.021 17.971 91.7122 17.7221 89.5106C17.278 85.5631 15.0879 82.8139 11.1288 83.1279" fill="#DE755E"/>
<path d="M0.0562136 102.246C-0.326673 105.902 1.30442 110.206 3.18439 113.349C5.08834 116.528 7.95578 119.017 11.3705 120.456C11.7534 120.617 12.232 120.751 12.5536 120.49C12.6676 120.364 12.7533 120.216 12.8048 120.054C12.8563 119.892 12.8725 119.721 12.8523 119.552C12.8787 115.67 11.646 111.883 9.33899 108.76C7.03202 105.637 3.77503 103.346 0.0562136 102.23" fill="#DE755E"/>
<path opacity="0.2" d="M0.0562136 102.246C-0.326673 105.902 1.30442 110.206 3.18439 113.349C5.08834 116.528 7.95578 119.017 11.3705 120.456C11.7534 120.617 12.232 120.751 12.5536 120.49C12.6676 120.364 12.7533 120.216 12.8048 120.054C12.8563 119.892 12.8725 119.721 12.8523 119.552C12.8787 115.67 11.646 111.883 9.33899 108.76C7.03202 105.637 3.77503 103.346 0.0562136 102.23" fill="black"/>
<path d="M15.9883 128.118C15.9454 128.055 15.9106 127.986 15.8849 127.915L15.6207 127.314C15.4025 126.793 15.0732 126.042 14.6559 125.12C13.5666 122.716 12.3551 120.37 11.0261 118.09C9.68927 115.818 8.23884 113.615 6.68034 111.489C6.08303 110.67 5.58911 110.015 5.24068 109.574L4.8578 109.054C4.80755 108.996 4.76507 108.931 4.73145 108.862C4.79158 108.91 4.84558 108.966 4.89226 109.027L5.31726 109.525C5.681 109.957 6.19407 110.601 6.81052 111.408C8.40243 113.517 9.86887 115.717 11.2022 117.998C12.5371 120.283 13.7351 122.646 14.7899 125.074C15.1728 126.008 15.502 126.766 15.6973 127.302C15.7892 127.551 15.862 127.754 15.9232 127.915C15.9534 127.979 15.9752 128.048 15.9883 128.118Z" fill="#383742"/>
<path d="M13.6342 93.251C13.6557 93.3673 13.6685 93.485 13.6725 93.6032C13.6725 93.8521 13.7146 94.1852 13.7453 94.6102C13.8027 95.5024 13.8831 96.7659 13.9865 98.3166C14.1818 101.445 14.4613 105.768 14.7944 110.538C15.1275 115.309 15.4606 119.632 15.7056 122.76C15.8243 124.292 15.9201 125.567 15.989 126.463C16.0158 126.884 16.0388 127.228 16.0579 127.47C16.0672 127.587 16.0672 127.705 16.0579 127.822C16.0325 127.707 16.0159 127.591 16.0081 127.473C15.9813 127.224 15.9469 126.891 15.9009 126.47L15.5525 122.772C15.2692 119.647 14.9169 115.328 14.58 110.554C14.243 105.779 13.9903 101.456 13.8142 98.3242C13.7414 96.7735 13.684 95.51 13.6419 94.6141C13.6266 94.1878 13.6151 93.8508 13.6074 93.6032C13.6071 93.4853 13.6161 93.3675 13.6342 93.251Z" fill="#383742"/>
<path d="M10.2676 122.902H19.4262V129.626C19.4262 130.203 19.3125 130.775 19.0916 131.308C18.8707 131.841 18.547 132.326 18.1388 132.734C17.7306 133.142 17.2461 133.466 16.7128 133.687C16.1795 133.908 15.6079 134.021 15.0307 134.021C13.9065 134.021 12.825 133.591 12.0083 132.818C11.1916 132.045 10.7016 130.99 10.639 129.867L10.2676 122.902Z" fill="#E0E1E7" fill-opacity="0.5"/>
<path d="M213.397 122.795C214.785 122.144 216.344 121.955 217.846 122.255C218.654 122.389 219.497 122.638 220.044 123.235C220.592 123.832 220.699 124.908 220.067 125.429C219.66 125.703 219.17 125.828 218.681 125.781C217.506 125.781 216.2 125.559 215.262 126.267C214.726 126.65 214.37 127.343 213.73 127.542C213.41 127.613 213.075 127.58 212.775 127.446C212.475 127.312 212.226 127.085 212.065 126.799C211.758 126.209 211.69 125.524 211.877 124.885C211.953 124.443 212.129 124.025 212.393 123.662C212.656 123.299 213 123.003 213.397 122.795Z" fill="#DE755E"/>
<path d="M210.299 116.811C211.126 117.994 212.734 117.603 213.477 116.879C214.22 116.156 214.537 115.114 214.825 114.115C215.483 111.841 216.142 109.451 215.655 107.131C215.541 106.423 215.232 105.76 214.763 105.217C214.529 104.951 214.228 104.752 213.892 104.64C213.556 104.528 213.196 104.506 212.849 104.577C212.037 104.792 211.536 105.584 211.168 106.339C210.097 108.57 209.536 111.012 209.525 113.487C209.525 114.636 209.656 115.846 210.291 116.795" fill="#DE755E"/>
<path d="M208.025 118.507C208.45 117.952 208.733 117.301 208.85 116.612C208.967 115.923 208.914 115.216 208.696 114.552C208.243 113.224 207.432 112.047 206.352 111.152C205.123 110.06 203.692 109.218 202.141 108.674C201.542 108.432 200.898 108.322 200.253 108.353C199.93 108.372 199.618 108.47 199.341 108.637C199.065 108.804 198.834 109.037 198.668 109.314C198.227 110.156 198.668 111.175 199.108 111.994C199.914 113.468 200.836 114.877 201.865 116.206C202.692 117.274 203.638 118.323 204.897 118.805C206.157 119.288 207.463 119.23 208.133 118.357" fill="#DE755E"/>
<path d="M210.243 134.638C210.288 134.461 210.313 134.28 210.319 134.098C210.358 133.715 210.404 133.218 210.461 132.636C210.534 131.913 210.644 131.195 210.79 130.484C210.978 129.62 211.234 128.772 211.556 127.949C211.878 127.126 212.313 126.353 212.85 125.652C213.289 125.082 213.848 124.618 214.489 124.292C214.923 124.076 215.388 123.93 215.867 123.86C216.048 123.853 216.228 123.828 216.403 123.783C216.223 123.765 216.041 123.765 215.86 123.783C215.361 123.823 214.873 123.953 214.42 124.166C213.746 124.485 213.155 124.955 212.693 125.541C212.132 126.25 211.679 127.038 211.349 127.88C211.02 128.715 210.763 129.577 210.584 130.457C210.444 131.177 210.348 131.904 210.296 132.636C210.25 133.256 210.231 133.761 210.224 134.11C210.212 134.286 210.218 134.463 210.243 134.638Z" fill="#383742"/>
<path d="M210.341 133.508C210.353 133.426 210.353 133.342 210.341 133.26V132.547C210.341 131.927 210.341 131.035 210.372 129.929C210.425 127.719 210.617 124.668 210.984 121.317C211.352 117.967 211.846 114.946 212.294 112.779C212.397 112.239 212.505 111.749 212.604 111.324C212.704 110.899 212.78 110.524 212.861 110.225C212.941 109.927 212.983 109.716 213.025 109.532C213.051 109.453 213.067 109.37 213.071 109.287C213.031 109.361 213.002 109.439 212.983 109.521L212.776 110.202C212.684 110.501 212.593 110.868 212.485 111.293C212.378 111.718 212.256 112.205 212.141 112.748C211.528 115.569 211.068 118.42 210.762 121.291C210.379 124.652 210.23 127.712 210.215 129.925C210.215 131.035 210.215 131.931 210.253 132.551C210.253 132.838 210.288 133.076 210.299 133.26C210.304 133.344 210.318 133.427 210.341 133.508Z" fill="#383742"/>
<path d="M210.355 127.609C210.376 127.361 210.376 127.113 210.355 126.866C210.314 126.19 210.237 125.516 210.126 124.848C209.758 122.642 209.125 120.489 208.242 118.435C207.391 116.359 206.169 114.455 204.635 112.818C204.369 112.537 204.085 112.273 203.785 112.029C203.655 111.918 203.54 111.807 203.425 111.719C203.31 111.631 203.195 111.566 203.096 111.493C202.897 111.344 202.687 111.209 202.468 111.091C203.189 111.659 203.874 112.272 204.52 112.925C206.004 114.576 207.194 116.47 208.039 118.523C208.527 119.643 208.94 120.794 209.275 121.969C209.597 123.048 209.812 124.044 209.972 124.879C210.133 125.713 210.214 126.41 210.267 126.873C210.279 127.12 210.308 127.366 210.355 127.609Z" fill="#383742"/>
<path d="M220.745 51.957L199.116 52.405L199.698 80.6084L221.339 80.7041L220.745 51.957Z" fill="#DE755E"/>
<path d="M219.344 52.9912L200.418 53.3818L200.946 78.9624L219.884 79.2074L219.344 52.9912Z" fill="#FAFAFA"/>
<path d="M216.124 57.7085L203.558 57.4902L203.925 75.3672L216.484 75.1068L216.124 57.7085Z" fill="#383742"/>
<path d="M203.925 75.3672L216.296 65.9214L203.558 57.4902L203.925 75.3672Z" fill="#E0E1E7" fill-opacity="0.5"/>
<path d="M213.382 28.582L198.53 28.8883L198.932 48.2547L213.788 48.3198L213.382 28.582Z" fill="#E0E1E7" fill-opacity="0.5"/>
<path d="M212.422 29.29L199.423 29.5581L199.787 47.1211L212.789 47.2934L212.422 29.29Z" fill="#FAFAFA"/>
<path d="M210.208 32.5291L201.578 32.376L201.831 44.6551L210.457 44.4752L210.208 32.5291Z" fill="#DE755E"/>
<path d="M207.368 38.3569C207.368 38.3569 207.422 38.2191 207.468 37.974C207.536 37.6216 207.485 37.2565 207.322 36.9364C207.194 36.6778 206.997 36.4597 206.753 36.3064C206.509 36.1531 206.227 36.0706 205.938 36.0681C205.65 36.0657 205.366 36.1433 205.12 36.2923C204.873 36.4414 204.672 36.6561 204.54 36.9124C204.408 37.1688 204.349 37.4568 204.371 37.7444C204.393 38.032 204.494 38.3079 204.663 38.5414C204.833 38.7749 205.064 38.9568 205.33 39.0669C205.597 39.1769 205.889 39.2108 206.173 39.1648C206.539 39.1098 206.875 38.9331 207.127 38.6632C207.303 38.4756 207.368 38.3454 207.383 38.3531C207.349 38.4881 207.28 38.612 207.184 38.713C206.943 39.0138 206.602 39.2187 206.223 39.2912C205.94 39.3479 205.647 39.3316 205.372 39.2438C205.096 39.1561 204.848 38.9998 204.65 38.7896C204.403 38.5298 204.244 38.2 204.193 37.8457C204.141 37.4913 204.202 37.1298 204.364 36.8111C204.527 36.4923 204.785 36.2319 205.102 36.0658C205.42 35.8996 205.78 35.836 206.135 35.8835C206.421 35.9212 206.693 36.0309 206.926 36.2023C207.158 36.3738 207.343 36.6013 207.464 36.8637C207.626 37.2136 207.66 37.6093 207.56 37.9817C207.527 38.1203 207.461 38.2489 207.368 38.3569Z" fill="#383742"/>
<path d="M208.091 41.8029C207.755 41.4072 207.472 40.9696 207.248 40.5011C206.968 40.0656 206.746 39.5959 206.586 39.1035C206.918 39.501 207.2 39.9383 207.424 40.4053C207.703 40.8423 207.926 41.3116 208.091 41.8029Z" fill="#383742"/>
<path d="M221.147 133.956C221.147 134.013 172.704 134.056 112.959 134.056C53.2131 134.056 4.75879 134.013 4.75879 133.956C4.75879 133.899 53.1939 133.856 112.959 133.856C172.723 133.856 221.147 133.902 221.147 133.956Z" fill="#383742"/>
<path d="M158.25 86.3033C158.25 86.3033 158.591 82.6698 158.935 82.7004C159.28 82.731 159.337 83.3743 159.295 83.6882C159.253 84.0022 159.295 85.2198 159.295 85.2198L158.25 86.3033Z" fill="#FFBE9D"/>
<path d="M189.429 83.3282L187.687 95.5805L195.728 130.707L173.521 132.483L183.093 75.9155C183.093 75.9155 189.41 75.1995 189.429 83.3282Z" fill="#383742"/>
<path d="M162.124 145.16L160.842 159.656H166.321L168.737 145.16H162.124Z" fill="#FFBE9D"/>
<path d="M160.842 159.656C160.842 159.656 157.143 160.135 156.484 160.61L166.175 160.495L166.321 159.656H160.842Z" fill="#FFBE9D"/>
<path d="M156.484 160.613V161L166.462 160.893V160.476L156.484 160.613Z" fill="#DE755E"/>
<path d="M160.031 160.835C159.978 160.858 159.821 160.56 159.499 160.326C159.177 160.092 158.852 160.02 158.86 159.966C158.867 159.912 159.242 159.897 159.625 160.173C160.008 160.448 160.066 160.824 160.031 160.835Z" fill="#DE755E"/>
<path d="M166.448 159.369C166.448 159.423 165.782 159.557 165.024 159.917C164.266 160.277 163.73 160.683 163.691 160.656C164.026 160.251 164.456 159.937 164.943 159.741C165.405 159.49 165.923 159.362 166.448 159.369Z" fill="#DE755E"/>
<path d="M166.221 159.132C164.423 159.171 162.623 159.081 160.838 158.86C161.731 158.81 162.627 158.825 163.518 158.902C164.424 158.913 165.327 158.99 166.221 159.132Z" fill="#DE755E"/>
<path d="M166.866 157.225C165.892 157.503 164.9 157.716 163.898 157.864C162.908 158.077 161.906 158.228 160.896 158.316C161.871 158.041 162.862 157.827 163.864 157.676C164.854 157.464 165.857 157.313 166.866 157.225Z" fill="#DE755E"/>
<path d="M166.77 157.294C166.52 157.297 166.272 157.244 166.046 157.137C165.792 157.037 165.551 156.908 165.326 156.754C165.191 156.666 165.063 156.567 164.943 156.459C164.869 156.395 164.811 156.313 164.775 156.222C164.755 156.168 164.747 156.111 164.753 156.054C164.758 155.997 164.776 155.942 164.805 155.893C164.839 155.843 164.886 155.804 164.941 155.78C164.996 155.756 165.056 155.747 165.115 155.755C165.208 155.768 165.298 155.793 165.383 155.831C165.534 155.893 165.677 155.973 165.809 156.069C166.033 156.227 166.226 156.427 166.375 156.658C166.529 156.859 166.619 157.102 166.632 157.355C166.601 157.355 166.528 157.087 166.249 156.735C166.095 156.531 165.907 156.355 165.694 156.214C165.574 156.131 165.446 156.061 165.311 156.007C165.169 155.942 165.008 155.916 164.966 156.007C164.944 156.066 164.942 156.13 164.962 156.189C164.982 156.248 165.021 156.299 165.073 156.333C165.184 156.436 165.3 156.534 165.422 156.624C165.634 156.77 165.858 156.898 166.092 157.007C166.502 157.198 166.773 157.263 166.77 157.294Z" fill="#DE755E"/>
<path d="M166.72 157.435C166.6 157.217 166.552 156.966 166.582 156.719C166.594 156.456 166.651 156.197 166.75 155.953C166.81 155.806 166.887 155.666 166.98 155.536C167.029 155.465 167.083 155.397 167.141 155.333C167.176 155.29 167.219 155.255 167.269 155.231C167.318 155.206 167.373 155.193 167.428 155.191C167.487 155.195 167.543 155.214 167.592 155.247C167.64 155.28 167.679 155.326 167.704 155.379C167.746 155.467 167.764 155.565 167.757 155.662C167.75 155.823 167.724 155.982 167.681 156.137C167.602 156.398 167.472 156.64 167.298 156.849C167.158 157.055 166.957 157.212 166.723 157.297C166.723 157.27 166.942 157.121 167.187 156.769C167.328 156.563 167.432 156.334 167.493 156.091C167.531 155.95 167.552 155.805 167.554 155.659C167.554 155.513 167.497 155.383 167.409 155.383C167.321 155.383 167.206 155.528 167.118 155.643C167.032 155.763 166.957 155.892 166.896 156.026C166.793 156.256 166.728 156.5 166.701 156.75C166.674 157.148 166.75 157.435 166.72 157.435Z" fill="#DE755E"/>
<path d="M167.455 159.687C167.203 159.361 167.021 158.985 166.923 158.584C166.764 158.194 166.692 157.773 166.712 157.352C166.876 157.729 167.004 158.122 167.095 158.523C167.248 158.9 167.368 159.29 167.455 159.687Z" fill="#DE755E"/>
<path d="M168.11 159.173C167.359 158.722 166.801 158.009 166.544 157.171C166.598 157.144 166.862 157.65 167.31 158.197C167.758 158.745 168.144 159.127 168.11 159.173Z" fill="#DE755E"/>
<path d="M182.575 146.348L193.801 155.246L196.47 151.341L186.435 140.417L182.575 146.348Z" fill="#FFBE9D"/>
<path d="M193.008 155.464C193.008 155.464 191.282 158.768 191.297 159.584L196.749 151.574L196.148 150.973L193.008 155.464Z" fill="#FFBE9D"/>
<path d="M191.297 159.584L191.615 159.806L197.239 151.566L196.899 151.325L191.297 159.584Z" fill="#DE755E"/>
<path d="M193.499 156.819C193.499 156.873 193.154 156.819 192.779 156.965C192.404 157.11 192.159 157.317 192.117 157.282C192.074 157.248 192.285 156.926 192.718 156.781C193.15 156.635 193.522 156.773 193.499 156.819Z" fill="#DE755E"/>
<path d="M195.98 150.704C196.033 150.727 195.754 151.359 195.616 152.186C195.478 153.013 195.516 153.694 195.459 153.717C195.238 152.688 195.424 151.614 195.98 150.719V150.704Z" fill="#DE755E"/>
<path d="M195.674 150.494C195.253 151.193 194.778 151.857 194.253 152.481C193.776 153.146 193.249 153.773 192.676 154.357C193.097 153.657 193.573 152.991 194.1 152.366C194.574 151.701 195.1 151.075 195.674 150.494Z" fill="#DE755E"/>
<path d="M194.467 149.135C194.181 149.983 193.837 150.811 193.437 151.612C193.094 152.438 192.692 153.237 192.234 154.005C192.52 153.158 192.865 152.331 193.264 151.532C193.605 150.704 194.007 149.903 194.467 149.135Z" fill="#DE755E"/>
<path d="M194.465 149.254C194.484 149.254 194.304 149.495 193.922 149.759C193.699 149.915 193.459 150.043 193.206 150.142C193.056 150.203 192.903 150.251 192.746 150.288C192.65 150.309 192.551 150.309 192.455 150.288C192.4 150.273 192.348 150.246 192.304 150.209C192.261 150.172 192.226 150.126 192.202 150.073C192.182 150.017 192.177 149.956 192.189 149.898C192.2 149.839 192.227 149.784 192.268 149.74C192.33 149.671 192.402 149.612 192.482 149.564C192.854 149.328 193.289 149.209 193.73 149.223C193.983 149.211 194.233 149.277 194.446 149.415C194.446 149.445 194.17 149.346 193.73 149.361C193.321 149.372 192.923 149.496 192.581 149.721C192.447 149.801 192.333 149.92 192.375 150C192.41 150.052 192.462 150.091 192.522 150.109C192.582 150.127 192.646 150.124 192.704 150.1C192.852 150.068 192.998 150.027 193.14 149.977C193.385 149.89 193.622 149.783 193.849 149.656C194.236 149.418 194.446 149.231 194.465 149.254Z" fill="#DE755E"/>
<path d="M194.544 149.368C194.297 149.34 194.064 149.236 193.878 149.07C193.663 148.909 193.478 148.711 193.334 148.484C193.248 148.35 193.177 148.206 193.124 148.055C193.093 147.975 193.068 147.893 193.051 147.81C193.035 147.757 193.031 147.701 193.039 147.646C193.047 147.591 193.067 147.539 193.097 147.492C193.134 147.447 193.183 147.412 193.238 147.391C193.293 147.37 193.353 147.364 193.411 147.373C193.506 147.391 193.596 147.432 193.671 147.492C193.799 147.591 193.915 147.704 194.016 147.829C194.19 148.037 194.32 148.278 194.399 148.537C194.486 148.77 194.5 149.024 194.437 149.265C194.392 149.035 194.336 148.808 194.269 148.583C194.179 148.348 194.05 148.131 193.886 147.94C193.79 147.831 193.684 147.733 193.568 147.645C193.457 147.553 193.308 147.534 193.254 147.607C193.2 147.68 193.254 147.856 193.304 147.99C193.352 148.123 193.414 148.252 193.488 148.373C193.617 148.588 193.78 148.782 193.97 148.947C194.292 149.25 194.556 149.338 194.544 149.368Z" fill="#DE755E"/>
<path d="M196.823 150.062C196.402 150.087 195.98 150.022 195.586 149.87C195.17 149.777 194.778 149.596 194.438 149.338C195.233 149.561 196.023 149.802 196.808 150.062H196.823Z" fill="#DE755E"/>
<path d="M196.788 149.23C196.401 149.436 195.969 149.54 195.532 149.533C195.097 149.589 194.655 149.531 194.249 149.364C194.249 149.311 194.827 149.364 195.52 149.341C196.213 149.318 196.757 149.173 196.788 149.23Z" fill="#DE755E"/>
<path d="M171.756 102.614C171.756 102.614 167.467 131.097 168.091 132.479C168.715 133.861 182.599 148.074 182.599 148.074L187.81 139.149C187.81 139.149 178.621 128.968 178.755 128.428C178.889 127.888 185.379 100.32 185.379 100.32L171.756 102.614Z" fill="#DE755E"/>
<path d="M172.743 137.862L176.404 129.821L180.615 120.793C178.053 124.498 175.872 128.453 174.106 132.597C173.42 134.284 172.962 136.054 172.743 137.862Z" fill="#DE755E"/>
<path opacity="0.4" d="M172.743 137.862L176.404 129.821L180.615 120.793C178.053 124.498 175.872 128.453 174.106 132.597C173.42 134.284 172.962 136.054 172.743 137.862Z" fill="black"/>
<path d="M170.231 113.128C170.274 112.826 173.731 105.049 173.731 105.049L172.05 102.683L171.755 102.618L170.231 113.128Z" fill="#DE755E"/>
<path opacity="0.4" d="M170.231 113.128C170.274 112.826 173.731 105.049 173.731 105.049L172.05 102.683L171.755 102.618L170.231 113.128Z" fill="black"/>
<path d="M187.813 99.9336L188.069 100.99C188.837 104.107 188.369 107.4 186.764 110.18L175.139 130.331C174.314 131.762 173.713 133.312 173.359 134.926L170.464 147.944C170.464 147.944 161.325 148.254 160.93 147.944C160.536 147.634 162.109 139.015 163.159 132.487C163.951 127.563 170.537 112.282 173.73 105.064L171.754 102.629L175.2 102.059L187.813 99.9336Z" fill="#DE755E"/>
<path d="M170.464 147.929C170.34 147.965 170.211 147.985 170.082 147.99C169.837 148.017 169.488 148.047 169.052 148.074C168.182 148.132 166.976 148.174 165.648 148.17C164.319 148.166 163.113 148.128 162.244 148.082C161.807 148.063 161.455 148.04 161.214 148.021C161.085 148.024 160.955 148.007 160.831 147.971C160.957 147.948 161.086 147.941 161.214 147.948H162.244L165.644 147.979C166.973 147.979 168.171 147.959 169.04 147.94L170.074 147.913C170.204 147.899 170.336 147.904 170.464 147.929Z" fill="#383742"/>
<path d="M170.966 145.482C170.966 145.536 168.768 145.57 166.061 145.559C163.354 145.547 161.152 145.497 161.152 145.448C161.152 145.398 163.35 145.36 166.061 145.367C168.772 145.375 170.966 145.428 170.966 145.482Z" fill="#383742"/>
<path d="M186.212 137.304C186.162 137.432 186.097 137.553 186.017 137.664L185.423 138.606L183.455 141.703L181.495 144.804L180.893 145.743C180.826 145.862 180.744 145.973 180.648 146.072C180.693 145.937 180.753 145.809 180.828 145.689C180.955 145.459 181.142 145.126 181.376 144.72C181.851 143.908 182.525 142.806 183.29 141.584C184.056 140.363 184.78 139.287 185.312 138.521C185.58 138.138 185.798 137.824 185.955 137.61C186.028 137.498 186.114 137.395 186.212 137.304Z" fill="#383742"/>
<path d="M182.05 147.304C181.844 146.929 181.694 146.525 181.606 146.106C181.456 145.705 181.369 145.284 181.346 144.857C181.551 145.232 181.701 145.634 181.79 146.052C181.939 146.454 182.026 146.876 182.05 147.304Z" fill="#383742"/>
<path d="M182.861 147.278C182.655 146.624 182.51 145.952 182.429 145.271C182.285 144.601 182.206 143.919 182.191 143.234C182.539 144.559 182.764 145.912 182.861 147.278Z" fill="#383742"/>
<path d="M183.923 145.765C183.719 145.194 183.559 144.61 183.444 144.015C183.266 143.436 183.138 142.843 183.062 142.242C183.322 142.792 183.512 143.372 183.628 143.969C183.805 144.552 183.904 145.156 183.923 145.765Z" fill="#383742"/>
<path d="M184.827 143.671C184.62 143.126 184.475 142.56 184.394 141.983C184.249 141.417 184.167 140.836 184.149 140.252C184.352 140.799 184.497 141.367 184.582 141.944C184.726 142.509 184.808 143.088 184.827 143.671Z" fill="#383742"/>
<path d="M185.995 141.936C185.822 141.389 185.685 140.832 185.585 140.267C185.419 139.716 185.291 139.154 185.202 138.586C185.469 139.101 185.656 139.654 185.757 140.225C185.924 140.78 186.004 141.357 185.995 141.936Z" fill="#383742"/>
<path d="M187.035 140.467C186.827 140.036 186.68 139.578 186.598 139.107C186.453 138.651 186.368 138.177 186.346 137.698C186.696 138.587 186.928 139.517 187.035 140.467Z" fill="#383742"/>
<path d="M165.706 145.386C164.971 145.84 164.213 146.256 163.435 146.63C162.69 147.064 161.923 147.458 161.138 147.813C161.326 147.64 161.536 147.492 161.762 147.373C162.145 147.124 162.723 146.799 163.358 146.462C163.994 146.125 164.58 145.845 165.009 145.654C165.229 145.535 165.463 145.445 165.706 145.386Z" fill="#383742"/>
<path d="M168.524 145.429C168.302 145.612 168.061 145.77 167.804 145.9C167.345 146.164 166.705 146.512 165.982 146.872C165.258 147.232 164.588 147.527 164.098 147.73C163.841 147.857 163.57 147.954 163.29 148.017C163.529 147.852 163.786 147.715 164.056 147.607L165.905 146.7L167.751 145.781C167.995 145.636 168.254 145.518 168.524 145.429Z" fill="#383742"/>
<path d="M170.667 145.429C170.121 145.981 169.521 146.476 168.875 146.907C168.266 147.387 167.61 147.806 166.919 148.159C167.501 147.649 168.117 147.179 168.761 146.75C169.369 146.271 170.006 145.83 170.667 145.429Z" fill="#383742"/>
<path d="M170.901 146.776C170.935 146.818 170.579 147.159 170.105 147.512C169.837 147.758 169.527 147.955 169.189 148.093C169.412 147.804 169.682 147.555 169.99 147.358C170.257 147.113 170.566 146.916 170.901 146.776Z" fill="#383742"/>
<path d="M163.205 145.34C162.849 145.662 162.453 145.936 162.026 146.155C161.629 146.429 161.198 146.647 160.743 146.806C161.495 146.211 162.323 145.717 163.205 145.34Z" fill="#383742"/>
<path d="M173.477 104.98C173.344 105.416 173.182 105.842 172.991 106.255C172.677 107.021 172.225 108.112 171.773 109.319C171.321 110.525 170.904 111.616 170.625 112.382C170.484 112.813 170.315 113.236 170.119 113.645C170.132 113.524 170.159 113.404 170.2 113.289C170.265 113.063 170.364 112.738 170.494 112.336C170.755 111.535 171.141 110.421 171.605 109.238C172.068 108.055 172.531 106.968 172.88 106.202C173.056 105.819 173.201 105.513 173.309 105.302C173.351 105.188 173.408 105.08 173.477 104.98Z" fill="#383742"/>
<path d="M172.525 138.774C172.516 138.699 172.516 138.623 172.525 138.548C172.544 138.38 172.575 138.165 172.605 137.905C172.636 137.644 172.69 137.285 172.778 136.89C172.866 136.496 172.935 136.048 173.072 135.562C173.138 135.32 173.206 135.064 173.275 134.796C173.344 134.528 173.444 134.26 173.532 133.976C173.7 133.41 173.934 132.828 174.164 132.192C174.702 130.849 175.313 129.537 175.994 128.26C177.253 125.957 178.643 123.727 180.156 121.582C180.726 120.755 181.201 120.093 181.534 119.637L181.917 119.117C181.96 119.054 182.009 118.995 182.063 118.94C182.034 119.011 181.996 119.078 181.952 119.14C181.856 119.277 181.741 119.457 181.596 119.679L180.267 121.659C179.176 123.332 177.644 125.656 176.178 128.336C175.501 129.606 174.889 130.91 174.344 132.242C174.11 132.862 173.869 133.448 173.697 134.011C173.605 134.294 173.509 134.562 173.432 134.823C173.356 135.083 173.287 135.339 173.222 135.588C173.076 136.071 172.988 136.519 172.896 136.905C172.804 137.292 172.739 137.633 172.693 137.909C172.647 138.184 172.609 138.38 172.579 138.544C172.569 138.622 172.551 138.699 172.525 138.774Z" fill="#383742"/>
<path d="M183.924 75.9453L174.93 76.7111C174.93 76.7111 172.249 76.7724 169.309 83.603L167.195 90.3801L170.997 91.1918V91.5747L171.763 102.613L187.982 100.002C188.017 98.6007 187.216 96.5561 186.631 94.6417C187.239 93.1292 189.801 86.5283 189.797 83.3503C189.797 76.5541 183.92 75.9683 183.92 75.9683" fill="white"/>
<path d="M187.808 139.142C187.77 139.276 187.715 139.404 187.644 139.524C187.525 139.758 187.349 140.091 187.123 140.501C186.671 141.32 186.02 142.438 185.285 143.66L183.386 146.773L182.812 147.722C182.75 147.842 182.672 147.954 182.582 148.055C182.62 147.921 182.676 147.792 182.747 147.672C182.865 147.439 183.041 147.106 183.267 146.696C183.719 145.877 184.37 144.759 185.105 143.537L186.989 140.413L187.563 139.467C187.632 139.349 187.714 139.24 187.808 139.142Z" fill="#383742"/>
<path d="M185.683 92.1758C185.286 92.3679 184.856 92.4811 184.416 92.5089C183.985 92.5949 183.541 92.5949 183.11 92.5089C183.53 92.4 183.96 92.3321 184.393 92.306C184.818 92.2216 185.25 92.178 185.683 92.1758Z" fill="white"/>
<path d="M171.793 91.6367L171.61 103.617L176.472 76.3327C174.856 76.0455 171.843 77.3167 170.71 78.9287C169.898 79.8935 169.454 82.1143 167.195 88.7995L165.809 93.3367L160.188 87.1837L156.401 90.6067C156.401 90.6067 162.933 101.278 165.663 101.867C169.377 102.671 171.79 91.6367 171.79 91.6367" fill="#E0E1E7" fill-opacity="0.5"/>
<path d="M172.57 80.5518C172.573 80.7089 172.556 80.8658 172.52 81.0189C172.471 81.3558 172.405 81.7846 172.325 82.2786C172.16 83.343 171.942 84.8133 171.739 86.4444C171.536 88.0755 171.395 89.5572 171.295 90.6293C171.249 91.1347 171.211 91.5597 171.176 91.8967C171.174 92.0545 171.152 92.2114 171.111 92.3638C171.096 92.2072 171.096 92.0494 171.111 91.8928C171.111 91.5904 171.138 91.1577 171.169 90.6178C171.23 89.5419 171.356 88.0563 171.552 86.4061C171.747 84.7558 171.996 83.3009 172.195 82.2403C172.298 81.7119 172.386 81.2831 172.451 80.9882C172.478 80.8394 172.517 80.6933 172.57 80.5518Z" fill="#383742"/>
<path d="M171.311 80.028C171.292 79.9744 172.046 79.6451 172.904 79.1244C173.761 78.6037 174.385 78.0676 174.435 78.1098C173.599 79.0286 172.52 79.6923 171.322 80.0242L171.311 80.028Z" fill="white"/>
<path d="M169.756 87.9258C169.562 87.4824 169.405 87.024 169.285 86.5551C169.105 86.1066 168.962 85.6444 168.856 85.1729C169.369 86.007 169.677 86.9502 169.756 87.9258Z" fill="white"/>
<path d="M173.701 83.6152C173.754 84.1488 173.715 84.6876 173.586 85.208C173.52 85.7422 173.361 86.2606 173.115 86.7396C173.178 86.2149 173.273 85.6945 173.399 85.1812C173.466 84.6534 173.567 84.1304 173.701 83.6152Z" fill="white"/>
<path d="M168.228 94.0605C168.231 94.5314 168.192 95.0015 168.114 95.4657C168.094 95.9382 168.035 96.4083 167.937 96.8709C167.818 95.9242 167.918 94.9628 168.228 94.0605Z" fill="white"/>
<path d="M161.042 93.9647C160.624 93.5109 160.28 92.994 160.023 92.4332C159.71 91.9009 159.48 91.3237 159.342 90.7217C159.655 91.2467 159.939 91.7887 160.192 92.3451C160.504 92.8695 160.787 93.4102 161.042 93.9647Z" fill="white"/>
<path d="M165.154 94.2598C164.852 94.5471 164.496 94.7698 164.105 94.9145C163.739 95.117 163.335 95.2409 162.918 95.2782C163.267 95.0621 163.638 94.8825 164.025 94.7422C164.384 94.5437 164.762 94.382 165.154 94.2598Z" fill="white"/>
<path d="M184.627 98.0416L187.441 131.494L195.918 130.694L187.87 95.5682L188.854 86.1377L184.627 98.0416Z" fill="#E0E1E7" fill-opacity="0.5"/>
<path d="M187.441 131.495C187.391 131.495 186.767 124.078 186.051 114.92C185.335 105.761 184.803 98.3368 184.853 98.333C184.903 98.3292 185.531 105.746 186.243 114.904C186.955 124.063 187.495 131.491 187.441 131.495Z" fill="#383742"/>
<path d="M186.627 98.8154C186.685 98.4308 186.805 98.0583 186.983 97.7127C187.106 97.3444 187.287 96.998 187.519 96.6865C187.344 97.4414 187.042 98.1612 186.627 98.8154Z" fill="white"/>
<path d="M188.966 103.793C188.92 103.828 188.499 103.338 187.906 102.813C187.526 102.518 187.162 102.203 186.814 101.871C187.274 102.048 187.691 102.32 188.036 102.671C188.421 102.976 188.738 103.358 188.966 103.793Z" fill="white"/>
<path d="M188.448 110.505C188.602 110.111 188.779 109.728 188.98 109.356C189.123 108.954 189.291 108.562 189.482 108.181C189.472 108.618 189.359 109.047 189.153 109.433C189.006 109.841 188.764 110.208 188.448 110.505Z" fill="white"/>
<path d="M190.279 115.893C189.459 115.356 188.715 114.712 188.065 113.979C188.485 114.223 188.871 114.52 189.214 114.863C189.612 115.159 189.97 115.505 190.279 115.893Z" fill="white"/>
<path d="M191.809 119.591C191.689 118.517 191.697 117.432 191.832 116.359C191.92 116.893 191.949 117.435 191.916 117.975C191.944 118.516 191.908 119.058 191.809 119.591Z" fill="white"/>
<path d="M189.092 122.103C188.983 121.683 188.915 121.254 188.889 120.821C188.802 120.396 188.755 119.964 188.747 119.53C188.945 119.925 189.063 120.354 189.095 120.794C189.181 121.226 189.18 121.671 189.092 122.103Z" fill="white"/>
<path d="M191.899 125.304C191.086 125.311 190.277 125.191 189.502 124.948C189.908 124.912 190.318 124.94 190.716 125.032C191.122 125.061 191.521 125.153 191.899 125.304Z" fill="white"/>
<path d="M191.429 129.562C191.832 128.73 192.347 127.957 192.96 127.265C192.79 127.696 192.561 128.102 192.279 128.471C192.045 128.871 191.759 129.237 191.429 129.562Z" fill="white"/>
<path d="M172.138 102.101L157.898 82.7035C158.742 82.0536 159.532 81.3365 160.261 80.5594C163.297 77.3092 165.138 73.1236 165.483 68.6892C165.828 64.2549 164.655 59.835 162.158 56.1546C159.66 52.4743 155.986 49.7519 151.738 48.4343C147.49 47.1166 142.92 47.2818 138.778 48.9027C134.636 50.5237 131.168 53.5042 128.943 57.3552C126.718 61.2063 125.867 65.6993 126.531 70.0972C127.195 74.4952 129.334 78.5369 132.597 81.5593C135.86 84.5818 140.054 86.4056 144.489 86.7315C145.189 86.7827 145.891 86.7955 146.592 86.7698C149.442 86.6822 152.239 85.9712 154.785 84.6869L169.17 104.283C169.461 104.674 169.895 104.935 170.378 105.006C170.86 105.078 171.351 104.956 171.743 104.666C172.134 104.377 172.395 103.945 172.469 103.465C172.543 102.984 172.424 102.494 172.138 102.101ZM146.484 83.0941C145.915 83.1128 145.345 83.1025 144.777 83.0635C140.705 82.77 136.901 80.9253 134.15 77.9097C131.399 74.8942 129.91 70.9378 129.99 66.8565C130.07 62.7752 131.713 58.8802 134.58 55.9749C137.448 53.0696 141.321 51.3754 145.401 51.2418C145.977 51.2225 146.553 51.234 147.128 51.2762C151.193 51.58 154.987 53.4301 157.73 56.446C160.472 59.4618 161.955 63.4141 161.873 67.4898C161.79 71.5654 160.149 75.4545 157.287 78.3571C154.424 81.2596 150.558 82.9549 146.484 83.0941Z" fill="#383742"/>
<path d="M166.482 91.5519L164.794 97.322C164.794 97.322 173.631 100.534 178.417 100.473C182.901 100.42 184.183 99.9104 185.761 96.2921C187.338 92.6738 189.13 88.5157 189.513 86.1073C189.513 86.1073 192.044 75.084 182.388 76.068L182.12 84.6868C182.12 84.6868 181.051 88.2208 180.971 88.4276C180.251 90.342 179.317 93.1256 178.413 93.4626C177.51 93.7995 166.482 91.5519 166.482 91.5519Z" fill="#E0E1E7" fill-opacity="0.5"/>
<path d="M180.351 96.1734C179.639 95.3375 179.082 94.3821 178.704 93.3516C179.031 93.7877 179.319 94.2515 179.566 94.7376C179.866 95.1937 180.129 95.674 180.351 96.1734Z" fill="#383742"/>
<path d="M181.255 95.2663C180.793 95.0284 180.363 94.7352 179.972 94.3933C179.547 94.101 179.161 93.7562 178.823 93.3672C179.284 93.6068 179.714 93.8998 180.106 94.2402C180.53 94.5325 180.916 94.8773 181.255 95.2663Z" fill="#383742"/>
<path d="M184.256 79.5449C183.976 80.4659 183.635 81.3676 183.238 82.2443C182.899 83.1452 182.501 84.0226 182.047 84.8709C182.324 83.9494 182.663 83.0476 183.062 82.1715C183.4 81.2701 183.799 80.3926 184.256 79.5449Z" fill="#383742"/>
<path d="M189.13 87.751C189.105 87.9021 189.062 88.0499 189.004 88.1913C188.896 88.5053 188.762 88.8996 188.621 89.3629C188.268 90.3508 187.775 91.7138 187.193 93.1918C186.611 94.6697 186.044 96.0137 185.577 96.9594C185.351 97.4342 185.159 97.8132 185.018 98.0698C184.955 98.206 184.877 98.3345 184.784 98.4527C184.825 98.3054 184.882 98.1629 184.953 98.0276C185.087 97.7252 185.251 97.3423 185.45 96.879C185.872 95.9179 186.427 94.5817 187.013 93.0961C187.598 91.6105 188.1 90.2933 188.491 89.2672C188.682 88.7809 188.843 88.3866 188.954 88.1185C189.001 87.9909 189.06 87.8678 189.13 87.751Z" fill="#383742"/>
<path d="M174.929 93.2104C174.929 93.264 173.014 92.9576 170.633 92.5288C168.251 92.1 166.36 91.7094 166.371 91.6597C166.383 91.6099 168.286 91.9124 170.667 92.3412C173.049 92.77 174.94 93.1606 174.929 93.2104Z" fill="#383742"/>
<path d="M184.949 87.9498C184.833 86.9145 184.847 85.8687 184.991 84.8369C185.078 85.3515 185.102 85.8748 185.064 86.3953C185.089 86.9162 185.05 87.4382 184.949 87.9498Z" fill="white"/>
<path d="M181.507 98.5474C181.648 98.1464 181.818 97.7561 182.016 97.3796C182.157 96.9777 182.326 96.5861 182.521 96.208C182.507 96.6435 182.394 97.0701 182.192 97.4562C182.047 97.866 181.813 98.2386 181.507 98.5474Z" fill="white"/>
<path d="M176.832 98.2492C176.307 97.3657 175.81 96.4654 175.343 95.5498C175.709 95.9206 176.011 96.3503 176.235 96.821C176.513 97.2598 176.715 97.7427 176.832 98.2492Z" fill="white"/>
<path d="M170.37 95.2666C169.982 95.5234 169.561 95.7257 169.118 95.8677C168.698 96.0666 168.254 96.2083 167.797 96.2889C168.185 96.0321 168.606 95.8298 169.049 95.6878C169.468 95.4884 169.913 95.3467 170.37 95.2666Z" fill="white"/>
<path d="M188.499 81.7395C188.456 81.7739 188.031 81.3566 187.419 80.9201C186.806 80.4836 186.247 80.2577 186.27 80.2041C186.728 80.2844 187.16 80.4764 187.526 80.7631C187.927 81.0022 188.261 81.3378 188.499 81.7395Z" fill="white"/>
<path d="M185.742 91.2568C184.762 91.6096 183.715 91.7404 182.679 91.6397C183.183 91.5304 183.695 91.46 184.21 91.4291C184.716 91.3346 185.228 91.277 185.742 91.2568Z" fill="white"/>
<path d="M184.834 61.7413C185.092 61.2712 185.503 60.9035 185.999 60.6988C186.495 60.4941 187.045 60.4647 187.56 60.6156C188.07 60.783 188.531 61.0704 188.906 61.4535C189.282 61.8367 189.559 62.3044 189.716 62.8172C190.018 63.8498 190.038 64.9446 189.773 65.9875C189.605 66.7533 189.39 67.6377 189.888 68.2274C190.386 68.817 191.236 68.7634 191.783 69.2382C191.918 69.3569 192.028 69.5021 192.104 69.6647C192.181 69.8274 192.224 70.004 192.229 70.1838C192.235 70.3635 192.203 70.5425 192.137 70.7096C192.071 70.8767 191.971 71.0284 191.843 71.1553C191.716 71.2822 191.564 71.3816 191.396 71.4473C191.229 71.513 191.05 71.5436 190.87 71.5372C190.69 71.5309 190.514 71.4877 190.352 71.4103C190.189 71.333 190.044 71.2231 189.926 71.0875C189.926 71.6198 190.217 72.106 190.382 72.6191C190.547 73.1322 190.57 73.7677 190.164 74.1085C190.003 74.2248 189.813 74.2961 189.615 74.3149C189.418 74.3338 189.218 74.2995 189.038 74.2157C188.678 74.0451 188.353 73.8102 188.077 73.5227C188.265 74.0725 188.265 74.6691 188.077 75.2189C187.976 75.4901 187.806 75.7306 187.585 75.917C187.364 76.1035 187.098 76.2297 186.813 76.2833C186.453 76.3099 186.093 76.2283 185.779 76.0489C185.465 75.8695 185.212 75.6005 185.052 75.2763C184.745 74.6212 184.629 73.8924 184.719 73.1743C184.799 72.0562 185.102 70.9612 185.224 69.8508C185.421 68.7379 185.277 67.5914 184.811 66.5618" fill="#DE755E"/>
<path d="M191.324 68.2695C191.324 68.2695 191.278 68.2963 191.179 68.2695C191.108 68.2578 191.04 68.2295 190.981 68.187C190.923 68.1444 190.875 68.0888 190.842 68.0245C190.788 67.9178 190.774 67.7954 190.803 67.6794C190.832 67.5634 190.901 67.4616 190.999 67.3927C191.125 67.2967 191.281 67.2489 191.439 67.2581C191.597 67.2672 191.746 67.3326 191.86 67.4425C191.995 67.5726 192.09 67.7377 192.135 67.919C192.18 68.1003 192.174 68.2906 192.117 68.4686C192.067 68.6712 191.959 68.8548 191.807 68.997C191.639 69.1479 191.424 69.2358 191.198 69.2459C190.967 69.2606 190.736 69.2101 190.532 69.1004C190.321 68.9819 190.146 68.8103 190.023 68.6026C189.781 68.1698 189.694 67.6671 189.778 67.1783C189.919 66.1943 190.394 65.3711 190.383 64.544C190.393 63.814 190.194 63.0963 189.808 62.4764C189.548 62.0562 189.21 61.6897 188.813 61.3967C188.529 61.1899 188.349 61.1134 188.361 61.0942C188.372 61.0751 188.407 61.0942 188.495 61.144C188.62 61.1978 188.74 61.2618 188.855 61.3354C189.281 61.6134 189.645 61.9773 189.923 62.4037C190.341 63.0404 190.562 63.7862 190.559 64.5478C190.559 65.4247 190.095 66.2747 189.965 67.2051C189.889 67.65 189.966 68.1077 190.183 68.5031C190.282 68.6811 190.428 68.8284 190.605 68.9284C190.782 69.0285 190.983 69.0774 191.187 69.0697C191.366 69.059 191.538 68.9906 191.676 68.8748C191.814 68.7589 191.911 68.6017 191.952 68.4265C192.005 68.2754 192.014 68.1128 191.98 67.9567C191.945 67.8005 191.868 67.657 191.757 67.542C191.666 67.4496 191.546 67.3923 191.417 67.3804C191.288 67.3685 191.159 67.4027 191.053 67.4769C190.971 67.5309 190.91 67.6116 190.882 67.7052C190.853 67.7989 190.858 67.8996 190.896 67.99C190.923 68.0476 190.961 68.0989 191.01 68.1405C191.058 68.182 191.114 68.213 191.175 68.2312C191.271 68.2695 191.321 68.258 191.324 68.2695Z" fill="#DE755E"/>
<path d="M182.464 76.2826L182.977 64.5969L178.336 61.082L174.124 63.1458C174.124 63.1458 173.983 68.4411 174.124 70.7384C174.266 73.0357 176.583 73.2808 176.583 73.2808C176.583 73.2808 176.529 74.6247 176.475 76.0414C176.46 76.4471 176.528 76.8517 176.674 77.2306C176.819 77.6095 177.041 77.9549 177.324 78.2459C177.607 78.5369 177.946 78.7674 178.321 78.9235C178.696 79.0797 179.098 79.1582 179.504 79.1543C180.271 79.1442 181.005 78.8411 181.555 78.3071C182.105 77.7731 182.431 77.0487 182.464 76.2826Z" fill="#FFBE9D"/>
<path d="M174.58 67.0058C174.58 67.0641 174.597 67.1211 174.63 67.1696C174.662 67.218 174.708 67.2558 174.762 67.2781C174.816 67.3005 174.875 67.3063 174.932 67.2949C174.99 67.2835 175.042 67.2555 175.083 67.2142C175.125 67.173 175.153 67.1205 175.164 67.0633C175.175 67.0061 175.17 66.9468 175.147 66.8929C175.125 66.8391 175.087 66.793 175.039 66.7606C174.99 66.7282 174.933 66.7109 174.875 66.7109C174.797 66.7119 174.723 66.7433 174.668 66.7984C174.612 66.8535 174.581 66.9279 174.58 67.0058Z" fill="#383742"/>
<path d="M174.293 66.6915C174.331 66.7297 174.545 66.546 174.863 66.5306C175.181 66.5153 175.418 66.6647 175.449 66.6225C175.479 66.5804 175.426 66.5345 175.322 66.4617C175.183 66.3694 175.018 66.3251 174.851 66.3355C174.685 66.3458 174.526 66.4103 174.4 66.5192C174.304 66.5919 174.273 66.6685 174.293 66.6915Z" fill="#383742"/>
<path d="M177.984 67.0058C177.984 67.0641 178.002 67.1211 178.034 67.1696C178.066 67.218 178.113 67.2558 178.166 67.2781C178.22 67.3005 178.28 67.3063 178.337 67.2949C178.394 67.2835 178.446 67.2555 178.488 67.2142C178.529 67.173 178.557 67.1205 178.568 67.0633C178.58 67.0061 178.574 66.9468 178.552 66.8929C178.529 66.8391 178.491 66.793 178.443 66.7606C178.394 66.7282 178.337 66.7109 178.279 66.7109C178.201 66.7109 178.126 66.742 178.071 66.7973C178.015 66.8526 177.984 66.9276 177.984 67.0058Z" fill="#383742"/>
<path d="M177.8 66.6915C177.839 66.7297 178.057 66.546 178.371 66.5306C178.685 66.5153 178.926 66.6647 178.96 66.6225C178.995 66.5804 178.938 66.5345 178.83 66.4617C178.691 66.3694 178.526 66.3251 178.359 66.3355C178.193 66.3458 178.034 66.4103 177.908 66.5192C177.812 66.5919 177.781 66.6685 177.8 66.6915Z" fill="#383742"/>
<path d="M177.705 69.6592C177.222 69.9055 176.707 70.0821 176.174 70.1837C176.291 70.3431 176.457 70.459 176.647 70.513C176.837 70.5671 177.04 70.5563 177.223 70.4824C177.31 70.463 177.393 70.4258 177.465 70.3731C177.538 70.3204 177.598 70.2533 177.644 70.176C177.689 70.0987 177.718 70.013 177.728 69.924C177.739 69.8351 177.731 69.7449 177.705 69.6592Z" fill="white"/>
<path d="M176.571 73.2809C177.663 73.2343 178.719 72.8769 179.615 72.251C179.615 72.251 178.926 73.9395 176.621 73.8438L176.571 73.2809Z" fill="#EB996E"/>
<path d="M189.658 71.2017C189.368 71.2126 189.08 71.1466 188.823 71.0103C188.445 70.8084 188.131 70.5047 187.916 70.1335C187.652 69.6672 187.425 69.1807 187.238 68.6785C186.809 67.6102 186.472 66.6186 186.266 65.8949L186.17 65.5771C186.17 65.4546 186.132 65.3436 186.113 65.2631C184.857 60.4732 180.649 59.5811 179.814 59.5811C178.979 59.5811 177.36 59.091 175.082 61.4573C174.74 61.8132 174.45 62.2153 174.22 62.6519C173.714 63.2803 173.366 64.0208 173.205 64.8113C173.1 65.1852 173.082 65.578 173.152 65.96C173.194 65.96 173.202 65.5273 173.378 64.8611C173.484 64.4696 173.633 64.0909 173.822 63.7316C173.623 64.6163 173.704 65.5412 174.055 66.3773L174.871 66.1514L177.796 65.1559C177.528 64.2523 177.923 63.1266 178.141 62.6021L178.164 62.5829C178.327 63.5376 178.79 64.4156 179.485 65.09C180.18 65.7645 181.072 66.2006 182.031 66.3352L182.571 73.8589C186.461 73.0281 186.369 67.8247 186.346 66.7679C186.522 67.3614 186.752 68.0467 187.039 68.7627C187.229 69.2783 187.467 69.7745 187.751 70.2445C187.991 70.64 188.341 70.9567 188.758 71.1558C189.041 71.2878 189.357 71.3344 189.666 71.2898C189.779 71.2794 189.888 71.2384 189.98 71.1711C189.872 71.1745 189.765 71.1847 189.658 71.2017Z" fill="#DE755E"/>
<path d="M176.66 69.3719C176.49 69.3326 176.317 69.3108 176.143 69.3069C176.063 69.3069 175.982 69.3069 175.967 69.2341C175.955 69.1463 175.97 69.057 176.009 68.9776L176.227 68.3228C176.377 67.8557 176.507 67.4307 176.61 67.1206C176.672 66.9569 176.71 66.7855 176.725 66.6113C176.632 66.7569 176.555 66.9123 176.495 67.0746C176.388 67.3771 176.247 67.7983 176.112 68.2654L175.906 68.924C175.859 69.0271 175.848 69.1432 175.875 69.2532C175.887 69.2814 175.905 69.3064 175.929 69.3263C175.952 69.3463 175.979 69.3606 176.009 69.3681C176.055 69.3735 176.101 69.3735 176.147 69.3681C176.317 69.3913 176.49 69.3925 176.66 69.3719Z" fill="#383742"/>
<path d="M183.223 69.2602C183.184 68.873 183.226 68.4819 183.345 68.1115C183.406 67.9297 183.514 67.7676 183.659 67.6423C183.804 67.5169 183.98 67.433 184.169 67.3994C184.391 67.3892 184.61 67.4618 184.783 67.6032C184.955 67.7446 185.069 67.9447 185.103 68.1651C185.128 68.3844 185.088 68.6063 184.987 68.8026C184.886 68.9989 184.729 69.1609 184.536 69.2679C184.34 69.3702 184.123 69.4268 183.901 69.4334C183.68 69.44 183.46 69.3965 183.257 69.3061" fill="#FFBE9D"/>
<path d="M183.889 68.9282C183.889 68.9014 184.015 68.9588 184.176 68.9091C184.277 68.8745 184.365 68.8089 184.427 68.7216C184.489 68.6343 184.521 68.5298 184.52 68.4228C184.53 68.369 184.527 68.3138 184.513 68.2609C184.499 68.2081 184.474 68.1589 184.44 68.1165C184.369 68.0595 184.278 68.0321 184.187 68.0399C184.015 68.0399 183.896 68.1012 183.885 68.0744C183.873 68.0476 183.961 67.9672 184.168 67.9059C184.234 67.8898 184.302 67.8883 184.368 67.9015C184.434 67.9147 184.497 67.9424 184.551 67.9825C184.611 68.0401 184.656 68.1111 184.684 68.1896C184.711 68.2681 184.719 68.3519 184.708 68.4343C184.699 68.5923 184.639 68.743 184.536 68.8631C184.449 68.9624 184.329 69.0265 184.199 69.0431C183.977 69.0661 183.873 68.9435 183.889 68.9282Z" fill="#EB996E"/>
<path d="M184.577 69.2415C184.577 69.2415 184.75 69.3602 184.75 69.6665C184.742 69.8453 184.665 70.0141 184.535 70.1375C184.453 70.2123 184.355 70.2683 184.248 70.3013C184.142 70.3344 184.029 70.3438 183.919 70.3289C183.808 70.308 183.703 70.2628 183.612 70.1966C183.521 70.1304 183.445 70.0448 183.391 69.946C183.348 69.8664 183.321 69.7789 183.313 69.6888C183.304 69.5987 183.314 69.5078 183.341 69.4215C183.437 69.1267 183.632 69.0386 183.639 69.0692C183.647 69.0999 183.517 69.2032 183.471 69.4521C183.448 69.5701 183.462 69.6924 183.512 69.8018C183.562 69.9112 183.645 70.0024 183.749 70.0627C183.853 70.1229 183.973 70.1492 184.093 70.1379C184.213 70.1266 184.326 70.0783 184.417 69.9996C184.527 69.9096 184.598 69.7808 184.616 69.6397C184.621 69.5059 184.608 69.372 184.577 69.2415Z" fill="#383742"/>
<path d="M183.229 67.6599C183.144 67.739 183.044 67.8002 182.935 67.8398C182.641 67.9677 182.324 68.033 182.004 68.0313C181.526 68.0289 181.056 67.9107 180.633 67.6867C180.124 67.4093 179.687 67.0157 179.358 66.538C178.793 65.6553 178.444 64.6518 178.34 63.6089C178.286 63.226 178.26 62.8968 178.244 62.6785C178.225 62.5632 178.225 62.4454 178.244 62.3301C178.342 62.7457 178.419 63.1662 178.474 63.5898C178.615 64.5988 178.971 65.566 179.515 66.427C179.824 66.8807 180.231 67.259 180.706 67.5335C181.102 67.7492 181.542 67.8723 181.993 67.8934C182.416 67.8977 182.837 67.8183 183.229 67.6599Z" fill="#DE755E"/>
<path d="M185.806 64.3673C185.749 64.3673 185.576 63.7049 185.129 62.9851C184.681 62.2653 184.152 61.8096 184.19 61.7637C184.654 62.0276 185.035 62.4162 185.289 62.8855C185.598 63.3205 185.778 63.8344 185.806 64.3673Z" fill="#383742"/>
<path d="M164.967 96.733H163.615C162.386 96.6143 161.701 96.5952 161.356 96.2697C160.897 95.8294 161.528 95.4006 161.528 95.4006C161.528 95.4006 160.64 95.0943 160.724 94.5544C160.778 94.1715 161.199 94.1447 161.199 94.1447C161.199 94.1447 160.433 93.8384 160.261 93.5091C160.051 93.065 160.602 92.8276 160.602 92.8276C159.534 92.169 159.633 91.5143 159.878 91.4492C160.123 91.3841 160.958 91.7708 160.958 91.7708C161.663 91.9699 163.585 92.5557 162.872 91.4951C162.16 90.4345 162.015 89.3548 162.176 89.0332C162.211 88.9487 162.275 88.8795 162.356 88.8382C162.438 88.7969 162.532 88.7861 162.62 88.8079C162.709 88.8296 162.787 88.8824 162.841 88.9568C162.894 89.0311 162.919 89.122 162.911 89.2131C163.021 89.6306 163.19 90.0302 163.412 90.4001C163.581 90.698 163.797 90.9669 164.052 91.1965C164.354 91.4645 164.622 91.6789 164.852 91.8589L166.054 93.0075L164.967 96.733Z" fill="#FFBE9D"/>
<path d="M156.555 83.2435C156.654 82.9525 156.895 82.7457 157.156 82.8836C157.208 82.9444 157.243 83.0178 157.257 83.0964C157.272 83.1749 157.266 83.256 157.24 83.3315L156.405 86.0462L157.194 84.1318C157.294 83.8408 157.558 83.6646 157.738 83.8216C157.783 83.8847 157.812 83.9574 157.823 84.034C157.834 84.1105 157.828 84.1886 157.803 84.262L157.083 86.5171L157.669 85.1081C157.791 84.7865 157.933 84.6984 158.098 84.7712C158.262 84.8439 158.266 85.0775 158.228 85.2077L157.734 86.8694C157.841 87.191 158.209 88.198 157.853 88.7647C157.853 88.7915 157.891 88.8872 157.887 88.9178L158.056 89.1093L156.968 90.1086C156.968 90.1086 155.946 87.5241 155.751 86.7469C155.63 86.2996 155.652 85.8261 155.812 85.3915L156.555 83.2435Z" fill="#FFBE9D"/>
</svg>
