<svg width="20" height="21" viewBox="0 0 20 21" fill="none" xmlns="http://www.w3.org/2000/svg">
<path fill-rule="evenodd" clip-rule="evenodd" d="M5.23146 0.366211H14.7689C16.5863 0.366211 18.2206 1.61097 18.8955 3.50926L19.6535 5.64108C19.8829 6.2864 20.0415 6.97695 19.8742 7.64109C19.4778 9.21397 18.192 10.3662 16.6669 10.3662C14.8259 10.3662 13.3335 8.68728 13.3335 6.61621C13.3335 8.68728 11.8412 10.3662 10.0002 10.3662C8.15926 10.3662 6.66687 8.68728 6.66687 6.61621C6.66687 8.68728 5.17449 10.3662 3.33354 10.3662C1.80844 10.3662 0.522566 9.21397 0.126221 7.64109C-0.041132 6.97695 0.117471 6.2864 0.346918 5.64108L1.1049 3.50926C1.77985 1.61097 3.41411 0.366211 5.23146 0.366211ZM2 11.6665V16.3659C2 18.575 3.79086 20.3659 6 20.3659H7V18.366C7 16.7091 8.34315 15.366 10 15.366C11.6569 15.366 13 16.7091 13 18.366V20.3659H14C16.2091 20.3659 18 18.575 18 16.3659V11.6665C17.5812 11.7957 17.1348 11.8659 16.6667 11.8659C15.3296 11.8659 14.1772 11.3032 13.3334 10.4219C12.4896 11.3032 11.3372 11.8659 10.0001 11.8659C8.66295 11.8659 7.51056 11.3032 6.66674 10.4219C5.82292 11.3032 4.67053 11.8659 3.3334 11.8659C2.86527 11.8659 2.41887 11.7957 2 11.6665Z" fill="#A0A1A4"/>
</svg>
