<svg width="24" height="23" viewBox="0 0 24 23" fill="none" xmlns="http://www.w3.org/2000/svg">
<path d="M3.56738 10.3506V14.8211C3.56738 19.2917 5.25687 21.0839 9.47119 21.0839H14.5302C18.7446 21.0839 20.434 19.2917 20.434 14.8211V10.3506" fill="#383742"/>
<path d="M3.56738 10.3506V14.8211C3.56738 19.2917 5.25687 21.0839 9.47119 21.0839H14.5302C18.7446 21.0839 20.434 19.2917 20.434 14.8211V10.3506" stroke="#383742" stroke-width="1.5" stroke-linecap="round" stroke-linejoin="round"/>
<path d="M12.0008 11.5003C13.7545 11.5003 15.0483 10.0724 14.8758 8.31866L14.2433 1.91699H9.76787L9.12578 8.31866C8.95328 10.0724 10.247 11.5003 12.0008 11.5003Z" fill="white" stroke="#383742" stroke-width="1.5" stroke-linecap="round" stroke-linejoin="round"/>
<path d="M18.048 11.5003C19.9838 11.5003 21.4022 9.92866 21.2105 8.00241L20.9422 5.36699C20.5972 2.87533 19.6388 1.91699 17.128 1.91699H14.2051L14.8759 8.63491C15.0388 10.2162 16.4667 11.5003 18.048 11.5003Z" fill="white" stroke="#383742" stroke-width="1.5" stroke-linecap="round" stroke-linejoin="round"/>
<path d="M5.90544 11.5003C7.48669 11.5003 8.9146 10.2162 9.06794 8.63491L9.27877 6.51699L9.73877 1.91699H6.81585C4.30502 1.91699 3.34669 2.87533 3.00169 5.36699L2.74294 8.00241C2.55127 9.92866 3.9696 11.5003 5.90544 11.5003Z" fill="white" stroke="#383742" stroke-width="1.5" stroke-linecap="round" stroke-linejoin="round"/>
<path d="M12.0003 16.292C10.3999 16.292 9.60449 17.0874 9.60449 18.6878V21.0837H14.3962V18.6878C14.3962 17.0874 13.6007 16.292 12.0003 16.292Z" fill="white" stroke="#383742" stroke-width="1.5" stroke-linecap="round" stroke-linejoin="round"/>
</svg>
